<?xml version="1.0" encoding="utf-8" standalone="no"?>
<!DOCTYPE svg PUBLIC "-//W3C//DTD SVG 1.1//EN"
  "http://www.w3.org/Graphics/SVG/1.1/DTD/svg11.dtd">
<svg xmlns:xlink="http://www.w3.org/1999/xlink" width="864pt" height="360pt" viewBox="0 0 864 360" xmlns="http://www.w3.org/2000/svg" version="1.1">
 <metadata>
  <rdf:RDF xmlns:dc="http://purl.org/dc/elements/1.1/" xmlns:cc="http://creativecommons.org/ns#" xmlns:rdf="http://www.w3.org/1999/02/22-rdf-syntax-ns#">
   <cc:Work>
    <dc:type rdf:resource="http://purl.org/dc/dcmitype/StillImage"/>
    <dc:date>2024-02-03T08:11:24.982940</dc:date>
    <dc:format>image/svg+xml</dc:format>
    <dc:creator>
     <cc:Agent>
      <dc:title>Matplotlib v3.8.2, https://matplotlib.org/</dc:title>
     </cc:Agent>
    </dc:creator>
   </cc:Work>
  </rdf:RDF>
 </metadata>
 <defs>
  <style type="text/css">*{stroke-linejoin: round; stroke-linecap: butt}</style>
 </defs>
 <g id="figure_1">
  <g id="patch_1">
   <path d="M 0 360 
L 864 360 
L 864 0 
L 0 0 
L 0 360 
z
" style="fill: none; opacity: 0"/>
  </g>
  <g id="axes_1">
   <g id="patch_2">
    <path d="M 108 320.4 
L 777.6 320.4 
L 777.6 43.2 
L 108 43.2 
L 108 320.4 
z
" style="fill: none; opacity: 0"/>
   </g>
   <g id="matplotlib.axis_1">
    <g id="xtick_1">
     <g id="line2d_1">
      <path d="M 123.284061 320.4 
L 123.284061 43.2 
" clip-path="url(#p6941b1fa67)" style="fill: none; stroke-dasharray: 5.12,1.28,0.8,1.28; stroke-dashoffset: 0; stroke: #b0b0b0; stroke-width: 0.8"/>
     </g>
     <g id="line2d_2">
      <defs>
       <path id="m3da924a4e4" d="M 0 0 
L 0 3.5 
" style="stroke: #a9a9a9; stroke-width: 0.8"/>
      </defs>
      <g>
       <use xlink:href="#m3da924a4e4" x="123.284061" y="320.4" style="fill: #a9a9a9; stroke: #a9a9a9; stroke-width: 0.8"/>
      </g>
     </g>
     <g id="text_1">
      <!-- 2021-07 -->
      <g style="fill: #a9a9a9" transform="translate(102.392655 334.998438) scale(0.1 -0.1)">
       <defs>
        <path id="DejaVuSans-32" d="M 1228 531 
L 3431 531 
L 3431 0 
L 469 0 
L 469 531 
Q 828 903 1448 1529 
Q 2069 2156 2228 2338 
Q 2531 2678 2651 2914 
Q 2772 3150 2772 3378 
Q 2772 3750 2511 3984 
Q 2250 4219 1831 4219 
Q 1534 4219 1204 4116 
Q 875 4013 500 3803 
L 500 4441 
Q 881 4594 1212 4672 
Q 1544 4750 1819 4750 
Q 2544 4750 2975 4387 
Q 3406 4025 3406 3419 
Q 3406 3131 3298 2873 
Q 3191 2616 2906 2266 
Q 2828 2175 2409 1742 
Q 1991 1309 1228 531 
z
" transform="scale(0.015625)"/>
        <path id="DejaVuSans-30" d="M 2034 4250 
Q 1547 4250 1301 3770 
Q 1056 3291 1056 2328 
Q 1056 1369 1301 889 
Q 1547 409 2034 409 
Q 2525 409 2770 889 
Q 3016 1369 3016 2328 
Q 3016 3291 2770 3770 
Q 2525 4250 2034 4250 
z
M 2034 4750 
Q 2819 4750 3233 4129 
Q 3647 3509 3647 2328 
Q 3647 1150 3233 529 
Q 2819 -91 2034 -91 
Q 1250 -91 836 529 
Q 422 1150 422 2328 
Q 422 3509 836 4129 
Q 1250 4750 2034 4750 
z
" transform="scale(0.015625)"/>
        <path id="DejaVuSans-31" d="M 794 531 
L 1825 531 
L 1825 4091 
L 703 3866 
L 703 4441 
L 1819 4666 
L 2450 4666 
L 2450 531 
L 3481 531 
L 3481 0 
L 794 0 
L 794 531 
z
" transform="scale(0.015625)"/>
        <path id="DejaVuSans-2d" d="M 313 2009 
L 1997 2009 
L 1997 1497 
L 313 1497 
L 313 2009 
z
" transform="scale(0.015625)"/>
        <path id="DejaVuSans-37" d="M 525 4666 
L 3525 4666 
L 3525 4397 
L 1831 0 
L 1172 0 
L 2766 4134 
L 525 4134 
L 525 4666 
z
" transform="scale(0.015625)"/>
       </defs>
       <use xlink:href="#DejaVuSans-32"/>
       <use xlink:href="#DejaVuSans-30" x="63.623047"/>
       <use xlink:href="#DejaVuSans-32" x="127.246094"/>
       <use xlink:href="#DejaVuSans-31" x="190.869141"/>
       <use xlink:href="#DejaVuSans-2d" x="254.492188"/>
       <use xlink:href="#DejaVuSans-30" x="290.576172"/>
       <use xlink:href="#DejaVuSans-37" x="354.199219"/>
      </g>
     </g>
    </g>
    <g id="xtick_2">
     <g id="line2d_3">
      <path d="M 183.89327 320.4 
L 183.89327 43.2 
" clip-path="url(#p6941b1fa67)" style="fill: none; stroke-dasharray: 5.12,1.28,0.8,1.28; stroke-dashoffset: 0; stroke: #b0b0b0; stroke-width: 0.8"/>
     </g>
     <g id="line2d_4">
      <g>
       <use xlink:href="#m3da924a4e4" x="183.89327" y="320.4" style="fill: #a9a9a9; stroke: #a9a9a9; stroke-width: 0.8"/>
      </g>
     </g>
     <g id="text_2">
      <!-- 2021-10 -->
      <g style="fill: #a9a9a9" transform="translate(163.001864 334.998438) scale(0.1 -0.1)">
       <use xlink:href="#DejaVuSans-32"/>
       <use xlink:href="#DejaVuSans-30" x="63.623047"/>
       <use xlink:href="#DejaVuSans-32" x="127.246094"/>
       <use xlink:href="#DejaVuSans-31" x="190.869141"/>
       <use xlink:href="#DejaVuSans-2d" x="254.492188"/>
       <use xlink:href="#DejaVuSans-31" x="290.576172"/>
       <use xlink:href="#DejaVuSans-30" x="354.199219"/>
      </g>
     </g>
    </g>
    <g id="xtick_3">
     <g id="line2d_5">
      <path d="M 244.502479 320.4 
L 244.502479 43.2 
" clip-path="url(#p6941b1fa67)" style="fill: none; stroke-dasharray: 5.12,1.28,0.8,1.28; stroke-dashoffset: 0; stroke: #b0b0b0; stroke-width: 0.8"/>
     </g>
     <g id="line2d_6">
      <g>
       <use xlink:href="#m3da924a4e4" x="244.502479" y="320.4" style="fill: #a9a9a9; stroke: #a9a9a9; stroke-width: 0.8"/>
      </g>
     </g>
     <g id="text_3">
      <!-- 2022-01 -->
      <g style="fill: #a9a9a9" transform="translate(223.611073 334.998438) scale(0.1 -0.1)">
       <use xlink:href="#DejaVuSans-32"/>
       <use xlink:href="#DejaVuSans-30" x="63.623047"/>
       <use xlink:href="#DejaVuSans-32" x="127.246094"/>
       <use xlink:href="#DejaVuSans-32" x="190.869141"/>
       <use xlink:href="#DejaVuSans-2d" x="254.492188"/>
       <use xlink:href="#DejaVuSans-30" x="290.576172"/>
       <use xlink:href="#DejaVuSans-31" x="354.199219"/>
      </g>
     </g>
    </g>
    <g id="xtick_4">
     <g id="line2d_7">
      <path d="M 303.794097 320.4 
L 303.794097 43.2 
" clip-path="url(#p6941b1fa67)" style="fill: none; stroke-dasharray: 5.12,1.28,0.8,1.28; stroke-dashoffset: 0; stroke: #b0b0b0; stroke-width: 0.8"/>
     </g>
     <g id="line2d_8">
      <g>
       <use xlink:href="#m3da924a4e4" x="303.794097" y="320.4" style="fill: #a9a9a9; stroke: #a9a9a9; stroke-width: 0.8"/>
      </g>
     </g>
     <g id="text_4">
      <!-- 2022-04 -->
      <g style="fill: #a9a9a9" transform="translate(282.902691 334.998438) scale(0.1 -0.1)">
       <defs>
        <path id="DejaVuSans-34" d="M 2419 4116 
L 825 1625 
L 2419 1625 
L 2419 4116 
z
M 2253 4666 
L 3047 4666 
L 3047 1625 
L 3713 1625 
L 3713 1100 
L 3047 1100 
L 3047 0 
L 2419 0 
L 2419 1100 
L 313 1100 
L 313 1709 
L 2253 4666 
z
" transform="scale(0.015625)"/>
       </defs>
       <use xlink:href="#DejaVuSans-32"/>
       <use xlink:href="#DejaVuSans-30" x="63.623047"/>
       <use xlink:href="#DejaVuSans-32" x="127.246094"/>
       <use xlink:href="#DejaVuSans-32" x="190.869141"/>
       <use xlink:href="#DejaVuSans-2d" x="254.492188"/>
       <use xlink:href="#DejaVuSans-30" x="290.576172"/>
       <use xlink:href="#DejaVuSans-34" x="354.199219"/>
      </g>
     </g>
    </g>
    <g id="xtick_5">
     <g id="line2d_9">
      <path d="M 363.74451 320.4 
L 363.74451 43.2 
" clip-path="url(#p6941b1fa67)" style="fill: none; stroke-dasharray: 5.12,1.28,0.8,1.28; stroke-dashoffset: 0; stroke: #b0b0b0; stroke-width: 0.8"/>
     </g>
     <g id="line2d_10">
      <g>
       <use xlink:href="#m3da924a4e4" x="363.74451" y="320.4" style="fill: #a9a9a9; stroke: #a9a9a9; stroke-width: 0.8"/>
      </g>
     </g>
     <g id="text_5">
      <!-- 2022-07 -->
      <g style="fill: #a9a9a9" transform="translate(342.853104 334.998438) scale(0.1 -0.1)">
       <use xlink:href="#DejaVuSans-32"/>
       <use xlink:href="#DejaVuSans-30" x="63.623047"/>
       <use xlink:href="#DejaVuSans-32" x="127.246094"/>
       <use xlink:href="#DejaVuSans-32" x="190.869141"/>
       <use xlink:href="#DejaVuSans-2d" x="254.492188"/>
       <use xlink:href="#DejaVuSans-30" x="290.576172"/>
       <use xlink:href="#DejaVuSans-37" x="354.199219"/>
      </g>
     </g>
    </g>
    <g id="xtick_6">
     <g id="line2d_11">
      <path d="M 424.353719 320.4 
L 424.353719 43.2 
" clip-path="url(#p6941b1fa67)" style="fill: none; stroke-dasharray: 5.12,1.28,0.8,1.28; stroke-dashoffset: 0; stroke: #b0b0b0; stroke-width: 0.8"/>
     </g>
     <g id="line2d_12">
      <g>
       <use xlink:href="#m3da924a4e4" x="424.353719" y="320.4" style="fill: #a9a9a9; stroke: #a9a9a9; stroke-width: 0.8"/>
      </g>
     </g>
     <g id="text_6">
      <!-- 2022-10 -->
      <g style="fill: #a9a9a9" transform="translate(403.462313 334.998438) scale(0.1 -0.1)">
       <use xlink:href="#DejaVuSans-32"/>
       <use xlink:href="#DejaVuSans-30" x="63.623047"/>
       <use xlink:href="#DejaVuSans-32" x="127.246094"/>
       <use xlink:href="#DejaVuSans-32" x="190.869141"/>
       <use xlink:href="#DejaVuSans-2d" x="254.492188"/>
       <use xlink:href="#DejaVuSans-31" x="290.576172"/>
       <use xlink:href="#DejaVuSans-30" x="354.199219"/>
      </g>
     </g>
    </g>
    <g id="xtick_7">
     <g id="line2d_13">
      <path d="M 484.962928 320.4 
L 484.962928 43.2 
" clip-path="url(#p6941b1fa67)" style="fill: none; stroke-dasharray: 5.12,1.28,0.8,1.28; stroke-dashoffset: 0; stroke: #b0b0b0; stroke-width: 0.8"/>
     </g>
     <g id="line2d_14">
      <g>
       <use xlink:href="#m3da924a4e4" x="484.962928" y="320.4" style="fill: #a9a9a9; stroke: #a9a9a9; stroke-width: 0.8"/>
      </g>
     </g>
     <g id="text_7">
      <!-- 2023-01 -->
      <g style="fill: #a9a9a9" transform="translate(464.071522 334.998438) scale(0.1 -0.1)">
       <defs>
        <path id="DejaVuSans-33" d="M 2597 2516 
Q 3050 2419 3304 2112 
Q 3559 1806 3559 1356 
Q 3559 666 3084 287 
Q 2609 -91 1734 -91 
Q 1441 -91 1130 -33 
Q 819 25 488 141 
L 488 750 
Q 750 597 1062 519 
Q 1375 441 1716 441 
Q 2309 441 2620 675 
Q 2931 909 2931 1356 
Q 2931 1769 2642 2001 
Q 2353 2234 1838 2234 
L 1294 2234 
L 1294 2753 
L 1863 2753 
Q 2328 2753 2575 2939 
Q 2822 3125 2822 3475 
Q 2822 3834 2567 4026 
Q 2313 4219 1838 4219 
Q 1578 4219 1281 4162 
Q 984 4106 628 3988 
L 628 4550 
Q 988 4650 1302 4700 
Q 1616 4750 1894 4750 
Q 2613 4750 3031 4423 
Q 3450 4097 3450 3541 
Q 3450 3153 3228 2886 
Q 3006 2619 2597 2516 
z
" transform="scale(0.015625)"/>
       </defs>
       <use xlink:href="#DejaVuSans-32"/>
       <use xlink:href="#DejaVuSans-30" x="63.623047"/>
       <use xlink:href="#DejaVuSans-32" x="127.246094"/>
       <use xlink:href="#DejaVuSans-33" x="190.869141"/>
       <use xlink:href="#DejaVuSans-2d" x="254.492188"/>
       <use xlink:href="#DejaVuSans-30" x="290.576172"/>
       <use xlink:href="#DejaVuSans-31" x="354.199219"/>
      </g>
     </g>
    </g>
    <g id="xtick_8">
     <g id="line2d_15">
      <path d="M 544.254545 320.4 
L 544.254545 43.2 
" clip-path="url(#p6941b1fa67)" style="fill: none; stroke-dasharray: 5.12,1.28,0.8,1.28; stroke-dashoffset: 0; stroke: #b0b0b0; stroke-width: 0.8"/>
     </g>
     <g id="line2d_16">
      <g>
       <use xlink:href="#m3da924a4e4" x="544.254545" y="320.4" style="fill: #a9a9a9; stroke: #a9a9a9; stroke-width: 0.8"/>
      </g>
     </g>
     <g id="text_8">
      <!-- 2023-04 -->
      <g style="fill: #a9a9a9" transform="translate(523.363139 334.998438) scale(0.1 -0.1)">
       <use xlink:href="#DejaVuSans-32"/>
       <use xlink:href="#DejaVuSans-30" x="63.623047"/>
       <use xlink:href="#DejaVuSans-32" x="127.246094"/>
       <use xlink:href="#DejaVuSans-33" x="190.869141"/>
       <use xlink:href="#DejaVuSans-2d" x="254.492188"/>
       <use xlink:href="#DejaVuSans-30" x="290.576172"/>
       <use xlink:href="#DejaVuSans-34" x="354.199219"/>
      </g>
     </g>
    </g>
    <g id="xtick_9">
     <g id="line2d_17">
      <path d="M 604.204959 320.4 
L 604.204959 43.2 
" clip-path="url(#p6941b1fa67)" style="fill: none; stroke-dasharray: 5.12,1.28,0.8,1.28; stroke-dashoffset: 0; stroke: #b0b0b0; stroke-width: 0.8"/>
     </g>
     <g id="line2d_18">
      <g>
       <use xlink:href="#m3da924a4e4" x="604.204959" y="320.4" style="fill: #a9a9a9; stroke: #a9a9a9; stroke-width: 0.8"/>
      </g>
     </g>
     <g id="text_9">
      <!-- 2023-07 -->
      <g style="fill: #a9a9a9" transform="translate(583.313552 334.998438) scale(0.1 -0.1)">
       <use xlink:href="#DejaVuSans-32"/>
       <use xlink:href="#DejaVuSans-30" x="63.623047"/>
       <use xlink:href="#DejaVuSans-32" x="127.246094"/>
       <use xlink:href="#DejaVuSans-33" x="190.869141"/>
       <use xlink:href="#DejaVuSans-2d" x="254.492188"/>
       <use xlink:href="#DejaVuSans-30" x="290.576172"/>
       <use xlink:href="#DejaVuSans-37" x="354.199219"/>
      </g>
     </g>
    </g>
    <g id="xtick_10">
     <g id="line2d_19">
      <path d="M 664.814168 320.4 
L 664.814168 43.2 
" clip-path="url(#p6941b1fa67)" style="fill: none; stroke-dasharray: 5.12,1.28,0.8,1.28; stroke-dashoffset: 0; stroke: #b0b0b0; stroke-width: 0.8"/>
     </g>
     <g id="line2d_20">
      <g>
       <use xlink:href="#m3da924a4e4" x="664.814168" y="320.4" style="fill: #a9a9a9; stroke: #a9a9a9; stroke-width: 0.8"/>
      </g>
     </g>
     <g id="text_10">
      <!-- 2023-10 -->
      <g style="fill: #a9a9a9" transform="translate(643.922761 334.998438) scale(0.1 -0.1)">
       <use xlink:href="#DejaVuSans-32"/>
       <use xlink:href="#DejaVuSans-30" x="63.623047"/>
       <use xlink:href="#DejaVuSans-32" x="127.246094"/>
       <use xlink:href="#DejaVuSans-33" x="190.869141"/>
       <use xlink:href="#DejaVuSans-2d" x="254.492188"/>
       <use xlink:href="#DejaVuSans-31" x="290.576172"/>
       <use xlink:href="#DejaVuSans-30" x="354.199219"/>
      </g>
     </g>
    </g>
    <g id="xtick_11">
     <g id="line2d_21">
      <path d="M 725.423377 320.4 
L 725.423377 43.2 
" clip-path="url(#p6941b1fa67)" style="fill: none; stroke-dasharray: 5.12,1.28,0.8,1.28; stroke-dashoffset: 0; stroke: #b0b0b0; stroke-width: 0.8"/>
     </g>
     <g id="line2d_22">
      <g>
       <use xlink:href="#m3da924a4e4" x="725.423377" y="320.4" style="fill: #a9a9a9; stroke: #a9a9a9; stroke-width: 0.8"/>
      </g>
     </g>
     <g id="text_11">
      <!-- 2024-01 -->
      <g style="fill: #a9a9a9" transform="translate(704.53197 334.998438) scale(0.1 -0.1)">
       <use xlink:href="#DejaVuSans-32"/>
       <use xlink:href="#DejaVuSans-30" x="63.623047"/>
       <use xlink:href="#DejaVuSans-32" x="127.246094"/>
       <use xlink:href="#DejaVuSans-34" x="190.869141"/>
       <use xlink:href="#DejaVuSans-2d" x="254.492188"/>
       <use xlink:href="#DejaVuSans-30" x="290.576172"/>
       <use xlink:href="#DejaVuSans-31" x="354.199219"/>
      </g>
     </g>
    </g>
   </g>
   <g id="matplotlib.axis_2">
    <g id="ytick_1">
     <g id="line2d_23">
      <path d="M 108 307.845324 
L 777.6 307.845324 
" clip-path="url(#p6941b1fa67)" style="fill: none; stroke-dasharray: 5.12,1.28,0.8,1.28; stroke-dashoffset: 0; stroke: #b0b0b0; stroke-width: 0.8"/>
     </g>
     <g id="line2d_24">
      <defs>
       <path id="m9063bbd56f" d="M 0 0 
L -3.5 0 
" style="stroke: #a9a9a9; stroke-width: 0.8"/>
      </defs>
      <g>
       <use xlink:href="#m9063bbd56f" x="108" y="307.845324" style="fill: #a9a9a9; stroke: #a9a9a9; stroke-width: 0.8"/>
      </g>
     </g>
     <g id="text_12">
      <!-- 0 -->
      <g style="fill: #a9a9a9" transform="translate(94.6375 311.644542) scale(0.1 -0.1)">
       <use xlink:href="#DejaVuSans-30"/>
      </g>
     </g>
    </g>
    <g id="ytick_2">
     <g id="line2d_25">
      <path d="M 108 271.586331 
L 777.6 271.586331 
" clip-path="url(#p6941b1fa67)" style="fill: none; stroke-dasharray: 5.12,1.28,0.8,1.28; stroke-dashoffset: 0; stroke: #b0b0b0; stroke-width: 0.8"/>
     </g>
     <g id="line2d_26">
      <g>
       <use xlink:href="#m9063bbd56f" x="108" y="271.586331" style="fill: #a9a9a9; stroke: #a9a9a9; stroke-width: 0.8"/>
      </g>
     </g>
     <g id="text_13">
      <!-- 800 -->
      <g style="fill: #a9a9a9" transform="translate(81.9125 275.38555) scale(0.1 -0.1)">
       <defs>
        <path id="DejaVuSans-38" d="M 2034 2216 
Q 1584 2216 1326 1975 
Q 1069 1734 1069 1313 
Q 1069 891 1326 650 
Q 1584 409 2034 409 
Q 2484 409 2743 651 
Q 3003 894 3003 1313 
Q 3003 1734 2745 1975 
Q 2488 2216 2034 2216 
z
M 1403 2484 
Q 997 2584 770 2862 
Q 544 3141 544 3541 
Q 544 4100 942 4425 
Q 1341 4750 2034 4750 
Q 2731 4750 3128 4425 
Q 3525 4100 3525 3541 
Q 3525 3141 3298 2862 
Q 3072 2584 2669 2484 
Q 3125 2378 3379 2068 
Q 3634 1759 3634 1313 
Q 3634 634 3220 271 
Q 2806 -91 2034 -91 
Q 1263 -91 848 271 
Q 434 634 434 1313 
Q 434 1759 690 2068 
Q 947 2378 1403 2484 
z
M 1172 3481 
Q 1172 3119 1398 2916 
Q 1625 2713 2034 2713 
Q 2441 2713 2670 2916 
Q 2900 3119 2900 3481 
Q 2900 3844 2670 4047 
Q 2441 4250 2034 4250 
Q 1625 4250 1398 4047 
Q 1172 3844 1172 3481 
z
" transform="scale(0.015625)"/>
       </defs>
       <use xlink:href="#DejaVuSans-38"/>
       <use xlink:href="#DejaVuSans-30" x="63.623047"/>
       <use xlink:href="#DejaVuSans-30" x="127.246094"/>
      </g>
     </g>
    </g>
    <g id="ytick_3">
     <g id="line2d_27">
      <path d="M 108 235.327338 
L 777.6 235.327338 
" clip-path="url(#p6941b1fa67)" style="fill: none; stroke-dasharray: 5.12,1.28,0.8,1.28; stroke-dashoffset: 0; stroke: #b0b0b0; stroke-width: 0.8"/>
     </g>
     <g id="line2d_28">
      <g>
       <use xlink:href="#m9063bbd56f" x="108" y="235.327338" style="fill: #a9a9a9; stroke: #a9a9a9; stroke-width: 0.8"/>
      </g>
     </g>
     <g id="text_14">
      <!-- 1600 -->
      <g style="fill: #a9a9a9" transform="translate(75.55 239.126557) scale(0.1 -0.1)">
       <defs>
        <path id="DejaVuSans-36" d="M 2113 2584 
Q 1688 2584 1439 2293 
Q 1191 2003 1191 1497 
Q 1191 994 1439 701 
Q 1688 409 2113 409 
Q 2538 409 2786 701 
Q 3034 994 3034 1497 
Q 3034 2003 2786 2293 
Q 2538 2584 2113 2584 
z
M 3366 4563 
L 3366 3988 
Q 3128 4100 2886 4159 
Q 2644 4219 2406 4219 
Q 1781 4219 1451 3797 
Q 1122 3375 1075 2522 
Q 1259 2794 1537 2939 
Q 1816 3084 2150 3084 
Q 2853 3084 3261 2657 
Q 3669 2231 3669 1497 
Q 3669 778 3244 343 
Q 2819 -91 2113 -91 
Q 1303 -91 875 529 
Q 447 1150 447 2328 
Q 447 3434 972 4092 
Q 1497 4750 2381 4750 
Q 2619 4750 2861 4703 
Q 3103 4656 3366 4563 
z
" transform="scale(0.015625)"/>
       </defs>
       <use xlink:href="#DejaVuSans-31"/>
       <use xlink:href="#DejaVuSans-36" x="63.623047"/>
       <use xlink:href="#DejaVuSans-30" x="127.246094"/>
       <use xlink:href="#DejaVuSans-30" x="190.869141"/>
      </g>
     </g>
    </g>
    <g id="ytick_4">
     <g id="line2d_29">
      <path d="M 108 199.068345 
L 777.6 199.068345 
" clip-path="url(#p6941b1fa67)" style="fill: none; stroke-dasharray: 5.12,1.28,0.8,1.28; stroke-dashoffset: 0; stroke: #b0b0b0; stroke-width: 0.8"/>
     </g>
     <g id="line2d_30">
      <g>
       <use xlink:href="#m9063bbd56f" x="108" y="199.068345" style="fill: #a9a9a9; stroke: #a9a9a9; stroke-width: 0.8"/>
      </g>
     </g>
     <g id="text_15">
      <!-- 2400 -->
      <g style="fill: #a9a9a9" transform="translate(75.55 202.867564) scale(0.1 -0.1)">
       <use xlink:href="#DejaVuSans-32"/>
       <use xlink:href="#DejaVuSans-34" x="63.623047"/>
       <use xlink:href="#DejaVuSans-30" x="127.246094"/>
       <use xlink:href="#DejaVuSans-30" x="190.869141"/>
      </g>
     </g>
    </g>
    <g id="ytick_5">
     <g id="line2d_31">
      <path d="M 108 162.809353 
L 777.6 162.809353 
" clip-path="url(#p6941b1fa67)" style="fill: none; stroke-dasharray: 5.12,1.28,0.8,1.28; stroke-dashoffset: 0; stroke: #b0b0b0; stroke-width: 0.8"/>
     </g>
     <g id="line2d_32">
      <g>
       <use xlink:href="#m9063bbd56f" x="108" y="162.809353" style="fill: #a9a9a9; stroke: #a9a9a9; stroke-width: 0.8"/>
      </g>
     </g>
     <g id="text_16">
      <!-- 3200 -->
      <g style="fill: #a9a9a9" transform="translate(75.55 166.608571) scale(0.1 -0.1)">
       <use xlink:href="#DejaVuSans-33"/>
       <use xlink:href="#DejaVuSans-32" x="63.623047"/>
       <use xlink:href="#DejaVuSans-30" x="127.246094"/>
       <use xlink:href="#DejaVuSans-30" x="190.869141"/>
      </g>
     </g>
    </g>
    <g id="ytick_6">
     <g id="line2d_33">
      <path d="M 108 126.55036 
L 777.6 126.55036 
" clip-path="url(#p6941b1fa67)" style="fill: none; stroke-dasharray: 5.12,1.28,0.8,1.28; stroke-dashoffset: 0; stroke: #b0b0b0; stroke-width: 0.8"/>
     </g>
     <g id="line2d_34">
      <g>
       <use xlink:href="#m9063bbd56f" x="108" y="126.55036" style="fill: #a9a9a9; stroke: #a9a9a9; stroke-width: 0.8"/>
      </g>
     </g>
     <g id="text_17">
      <!-- 4000 -->
      <g style="fill: #a9a9a9" transform="translate(75.55 130.349578) scale(0.1 -0.1)">
       <use xlink:href="#DejaVuSans-34"/>
       <use xlink:href="#DejaVuSans-30" x="63.623047"/>
       <use xlink:href="#DejaVuSans-30" x="127.246094"/>
       <use xlink:href="#DejaVuSans-30" x="190.869141"/>
      </g>
     </g>
    </g>
    <g id="ytick_7">
     <g id="line2d_35">
      <path d="M 108 90.291367 
L 777.6 90.291367 
" clip-path="url(#p6941b1fa67)" style="fill: none; stroke-dasharray: 5.12,1.28,0.8,1.28; stroke-dashoffset: 0; stroke: #b0b0b0; stroke-width: 0.8"/>
     </g>
     <g id="line2d_36">
      <g>
       <use xlink:href="#m9063bbd56f" x="108" y="90.291367" style="fill: #a9a9a9; stroke: #a9a9a9; stroke-width: 0.8"/>
      </g>
     </g>
     <g id="text_18">
      <!-- 4800 -->
      <g style="fill: #a9a9a9" transform="translate(75.55 94.090586) scale(0.1 -0.1)">
       <use xlink:href="#DejaVuSans-34"/>
       <use xlink:href="#DejaVuSans-38" x="63.623047"/>
       <use xlink:href="#DejaVuSans-30" x="127.246094"/>
       <use xlink:href="#DejaVuSans-30" x="190.869141"/>
      </g>
     </g>
    </g>
    <g id="ytick_8">
     <g id="line2d_37">
      <path d="M 108 54.032374 
L 777.6 54.032374 
" clip-path="url(#p6941b1fa67)" style="fill: none; stroke-dasharray: 5.12,1.28,0.8,1.28; stroke-dashoffset: 0; stroke: #b0b0b0; stroke-width: 0.8"/>
     </g>
     <g id="line2d_38">
      <g>
       <use xlink:href="#m9063bbd56f" x="108" y="54.032374" style="fill: #a9a9a9; stroke: #a9a9a9; stroke-width: 0.8"/>
      </g>
     </g>
     <g id="text_19">
      <!-- 5600 -->
      <g style="fill: #a9a9a9" transform="translate(75.55 57.831593) scale(0.1 -0.1)">
       <defs>
        <path id="DejaVuSans-35" d="M 691 4666 
L 3169 4666 
L 3169 4134 
L 1269 4134 
L 1269 2991 
Q 1406 3038 1543 3061 
Q 1681 3084 1819 3084 
Q 2600 3084 3056 2656 
Q 3513 2228 3513 1497 
Q 3513 744 3044 326 
Q 2575 -91 1722 -91 
Q 1428 -91 1123 -41 
Q 819 9 494 109 
L 494 744 
Q 775 591 1075 516 
Q 1375 441 1709 441 
Q 2250 441 2565 725 
Q 2881 1009 2881 1497 
Q 2881 1984 2565 2268 
Q 2250 2553 1709 2553 
Q 1456 2553 1204 2497 
Q 953 2441 691 2322 
L 691 4666 
z
" transform="scale(0.015625)"/>
       </defs>
       <use xlink:href="#DejaVuSans-35"/>
       <use xlink:href="#DejaVuSans-36" x="63.623047"/>
       <use xlink:href="#DejaVuSans-30" x="127.246094"/>
       <use xlink:href="#DejaVuSans-30" x="190.869141"/>
      </g>
     </g>
    </g>
   </g>
   <g id="line2d_39">
    <path d="M 138.436364 307.709353 
L 142.389138 307.392086 
L 143.047934 307.120144 
L 145.024321 306.893525 
L 149.635891 306.032374 
L 152.92987 305.715108 
L 153.588666 305.397842 
L 154.247462 305.216547 
L 154.906257 304.400719 
L 155.565053 303.947482 
L 156.223849 302.542446 
L 156.882645 302.451799 
L 157.54144 301.953237 
L 158.859032 301.318705 
L 161.494215 299.32446 
L 162.811806 298.780576 
L 163.470602 298.327338 
L 166.105785 297.194245 
L 166.764581 296.151799 
L 168.082172 295.2 
L 168.740968 294.882734 
L 175.328926 293.976259 
L 175.987721 293.658993 
L 180.599292 293.296403 
L 182.575679 292.797842 
L 188.504841 292.027338 
L 189.163636 291.664748 
L 189.822432 291.574101 
L 190.481228 291.302158 
L 191.798819 291.07554 
L 192.457615 291.030216 
L 193.116411 290.803597 
L 195.751594 290.395683 
L 197.069185 290.033094 
L 199.045573 289.851799 
L 200.363164 289.715827 
L 201.02196 289.534532 
L 201.680756 289.489209 
L 203.657143 288.9 
L 207.609917 288.310791 
L 208.268713 288.129496 
L 208.927509 287.223022 
L 210.903896 286.497842 
L 212.880283 285.953957 
L 213.539079 285.636691 
L 214.197875 285.591367 
L 217.491854 284.684892 
L 218.809445 284.594245 
L 219.468241 284.503597 
L 221.444628 283.914388 
L 224.079811 283.279856 
L 224.738607 283.007914 
L 225.397403 282.917266 
L 226.056198 282.6 
L 232.644156 281.602878 
L 235.938135 280.696403 
L 236.59693 280.288489 
L 239.232113 279.608633 
L 240.549705 278.838129 
L 241.208501 278.384892 
L 243.184888 278.022302 
L 247.137662 276.843885 
L 248.455254 276.435971 
L 249.11405 276.345324 
L 250.431641 275.982734 
L 251.749233 275.665468 
L 252.408028 275.57482 
L 253.72562 275.030935 
L 254.384416 274.894964 
L 255.043211 274.623022 
L 255.702007 274.532374 
L 256.360803 274.215108 
L 257.019599 274.033813 
L 258.33719 273.943165 
L 259.654782 273.489928 
L 260.972373 273.399281 
L 261.631169 273.082014 
L 264.266352 272.628777 
L 266.901535 272.402158 
L 267.560331 272.266187 
L 268.877922 271.631655 
L 276.124675 268.594964 
L 276.783471 268.232374 
L 277.442267 267.507194 
L 278.101063 266.419424 
L 278.759858 265.558273 
L 279.418654 265.376978 
L 280.07745 265.376978 
L 281.395041 264.42518 
L 282.053837 264.243885 
L 282.712633 263.881295 
L 283.371429 263.745324 
L 284.030224 263.156115 
L 284.68902 262.97482 
L 286.665407 262.023022 
L 287.324203 261.207194 
L 287.982999 260.210072 
L 288.641795 259.802158 
L 289.30059 258.714388 
L 289.959386 258.034532 
L 290.618182 257.717266 
L 291.276978 257.535971 
L 293.912161 255.994964 
L 295.229752 254.952518 
L 295.888548 254.544604 
L 296.547344 253.592806 
L 297.206139 252.097122 
L 297.864935 251.145324 
L 298.523731 250.646763 
L 299.182527 250.37482 
L 301.81771 248.108633 
L 302.476505 247.655396 
L 303.794097 246.522302 
L 304.452893 245.615827 
L 305.770484 244.482734 
L 308.405667 242.805755 
L 309.064463 242.216547 
L 309.723259 242.080576 
L 311.699646 241.038129 
L 313.676033 240.041007 
L 314.993625 238.817266 
L 315.65242 238.046763 
L 316.970012 237.140288 
L 317.628808 236.958993 
L 318.287603 236.641727 
L 319.605195 235.780576 
L 320.263991 235.417986 
L 320.922786 235.327338 
L 322.240378 234.602158 
L 322.899174 234.239568 
L 323.557969 233.559712 
L 324.216765 233.151799 
L 324.875561 232.92518 
L 325.534357 232.471942 
L 328.16954 231.11223 
L 328.828335 230.523022 
L 331.463518 229.661871 
L 332.122314 229.208633 
L 332.78111 229.072662 
L 334.098701 228.619424 
L 336.075089 227.848921 
L 338.051476 227.123741 
L 339.369067 226.897122 
L 340.686659 225.764029 
L 342.00425 225.129496 
L 343.980638 223.996403 
L 345.298229 223.633813 
L 345.957025 223.225899 
L 346.615821 223.044604 
L 347.933412 222.183453 
L 348.592208 221.820863 
L 351.886187 221.05036 
L 353.862574 219.917266 
L 354.52137 219.826619 
L 355.180165 219.6 
L 356.497757 219.328058 
L 358.474144 217.877698 
L 360.450531 217.42446 
L 361.109327 217.197842 
L 361.768123 216.699281 
L 365.720897 215.430216 
L 366.379693 215.384892 
L 370.991263 213.753237 
L 371.650059 213.435971 
L 373.626446 212.982734 
L 374.944038 212.665468 
L 375.602834 212.348201 
L 376.261629 212.21223 
L 378.238017 211.305755 
L 380.214404 210.353957 
L 380.8732 209.900719 
L 381.531995 209.719424 
L 383.508383 208.676978 
L 384.825974 208.359712 
L 386.143566 207.679856 
L 387.461157 207.317266 
L 388.119953 207.226619 
L 388.778749 206.773381 
L 389.437544 206.456115 
L 390.09634 206.320144 
L 391.413932 205.776259 
L 392.072727 205.640288 
L 392.731523 205.277698 
L 395.366706 204.869784 
L 396.684298 204.235252 
L 397.343093 203.691367 
L 398.001889 202.558273 
L 399.319481 202.286331 
L 399.978276 202.15036 
L 402.613459 200.790647 
L 403.272255 200.654676 
L 408.542621 198.161871 
L 410.519008 197.753957 
L 411.177804 197.391367 
L 415.130579 196.031655 
L 416.44817 195.215827 
L 417.106966 194.76259 
L 417.765762 194.445324 
L 418.424557 194.354676 
L 419.083353 194.128058 
L 419.742149 194.082734 
L 423.036128 193.221583 
L 423.694923 192.723022 
L 425.012515 192.269784 
L 426.988902 191.635252 
L 427.647698 191.227338 
L 428.306494 191.046043 
L 428.965289 190.592806 
L 429.624085 190.320863 
L 430.282881 189.91295 
L 430.941677 189.641007 
L 432.259268 189.323741 
L 434.235655 188.553237 
L 436.212043 187.057554 
L 436.870838 186.921583 
L 438.18843 185.92446 
L 438.847226 185.788489 
L 439.506021 184.791367 
L 440.164817 184.519424 
L 440.823613 184.020863 
L 441.482409 183.930216 
L 442.141204 183.476978 
L 442.8 183.159712 
L 443.458796 183.023741 
L 444.117591 182.751799 
L 444.776387 182.253237 
L 445.435183 182.026619 
L 447.41157 180.71223 
L 450.046753 179.397842 
L 450.705549 179.307194 
L 452.02314 178.717986 
L 452.681936 178.355396 
L 453.340732 177.267626 
L 453.999528 176.678417 
L 454.658323 176.315827 
L 455.317119 176.179856 
L 456.634711 175.364029 
L 457.293506 175.228058 
L 458.611098 174.593525 
L 460.587485 173.777698 
L 461.905077 172.871223 
L 463.222668 171.511511 
L 464.54026 170.695683 
L 465.199055 170.28777 
L 465.857851 169.607914 
L 466.516647 169.154676 
L 467.834238 168.066906 
L 468.493034 167.794964 
L 469.15183 167.069784 
L 469.810626 166.571223 
L 471.128217 166.117986 
L 471.787013 165.574101 
L 473.104604 164.894245 
L 473.7634 164.71295 
L 474.422196 164.259712 
L 475.080992 164.123741 
L 477.057379 163.081295 
L 477.716175 162.628058 
L 479.033766 162.084173 
L 479.692562 161.948201 
L 480.351358 161.540288 
L 483.645336 160.497842 
L 484.304132 160.316547 
L 484.962928 159.999281 
L 485.621724 159.410072 
L 487.598111 158.684892 
L 488.915702 158.276978 
L 489.574498 157.778417 
L 492.209681 156.418705 
L 492.868477 156.056115 
L 494.186068 153.472662 
L 495.50366 151.931655 
L 496.162456 151.478417 
L 498.138843 150.617266 
L 498.797639 150.390647 
L 499.456434 150.3 
L 500.11523 149.93741 
L 502.091617 149.348201 
L 504.7268 148.169784 
L 505.385596 147.761871 
L 506.703188 147.308633 
L 510.655962 145.042446 
L 511.314758 144.36259 
L 512.632349 143.63741 
L 513.291145 143.27482 
L 513.949941 143.048201 
L 514.608737 142.594964 
L 515.926328 141.960432 
L 517.902715 140.917986 
L 518.561511 140.736691 
L 519.220307 140.238129 
L 519.879103 139.966187 
L 520.537898 139.830216 
L 521.85549 139.376978 
L 523.831877 138.651799 
L 524.490673 138.153237 
L 525.808264 137.790647 
L 527.125856 137.292086 
L 527.784652 136.748201 
L 529.102243 136.340288 
L 529.761039 136.023022 
L 530.419835 135.841727 
L 531.737426 134.935252 
L 533.055018 134.346043 
L 534.372609 133.348921 
L 535.690201 132.895683 
L 536.348996 132.351799 
L 537.007792 132.261151 
L 538.325384 131.309353 
L 539.642975 130.67482 
L 540.301771 130.402878 
L 540.960567 129.723022 
L 544.913341 128.272662 
L 546.889728 127.411511 
L 548.866116 126.822302 
L 550.183707 126.641007 
L 550.842503 126.369065 
L 551.501299 126.278417 
L 552.81889 125.734532 
L 553.477686 125.689209 
L 556.112869 124.73741 
L 558.089256 123.377698 
L 562.042031 121.428777 
L 563.359622 120.61295 
L 564.018418 120.205036 
L 565.336009 119.88777 
L 566.653601 118.981295 
L 569.288784 118.165468 
L 569.94758 117.893525 
L 571.265171 117.576259 
L 574.55915 116.488489 
L 576.535537 116.125899 
L 577.194333 115.944604 
L 577.853129 115.627338 
L 578.511924 115.536691 
L 579.829516 114.992806 
L 580.488312 114.902158 
L 581.147107 114.584892 
L 582.464699 114.31295 
L 583.123495 113.995683 
L 585.099882 113.542446 
L 586.417473 113.270504 
L 590.370248 112.545324 
L 591.687839 112.273381 
L 592.346635 112.13741 
L 593.005431 111.865468 
L 593.664227 111.820144 
L 595.640614 111.276259 
L 596.29941 110.913669 
L 599.593388 110.097842 
L 600.252184 109.961871 
L 601.569776 109.508633 
L 603.546163 108.828777 
L 604.204959 108.738129 
L 606.181346 108.058273 
L 606.840142 108.058273 
L 608.157733 107.605036 
L 608.816529 106.970504 
L 609.475325 106.653237 
L 610.792916 106.245324 
L 613.428099 105.248201 
L 614.086895 105.11223 
L 614.745691 104.704317 
L 615.404486 104.568345 
L 616.063282 104.160432 
L 619.357261 103.208633 
L 620.016057 102.800719 
L 620.674852 102.619424 
L 621.333648 102.07554 
L 623.310035 101.71295 
L 624.627627 100.98777 
L 625.286423 100.26259 
L 626.604014 99.990647 
L 631.215584 98.948201 
L 631.87438 98.766906 
L 633.191972 98.721583 
L 633.850767 98.404317 
L 636.48595 97.951079 
L 637.144746 97.633813 
L 639.121133 97.361871 
L 641.756316 96.546043 
L 643.732704 96.092806 
L 645.709091 95.594245 
L 648.344274 94.778417 
L 649.00307 94.642446 
L 649.661865 94.32518 
L 650.320661 94.234532 
L 650.979457 94.007914 
L 651.638253 93.6 
L 653.61464 92.87482 
L 654.273436 92.376259 
L 655.591027 92.013669 
L 656.249823 91.741727 
L 657.567414 91.379137 
L 660.202597 90.200719 
L 662.178985 90.064748 
L 664.814168 89.248921 
L 665.472963 88.841007 
L 666.790555 88.433094 
L 668.766942 87.435971 
L 669.425738 87.3 
L 670.084534 86.982734 
L 670.743329 86.892086 
L 677.990083 84.489928 
L 680.625266 83.855396 
L 681.284061 83.674101 
L 682.601653 83.039568 
L 683.260449 82.948921 
L 684.57804 82.586331 
L 685.236836 82.08777 
L 685.895632 81.770504 
L 686.554427 81 
L 687.213223 80.501439 
L 688.530815 80.093525 
L 689.18961 79.54964 
L 696.436364 76.603597 
L 697.753955 76.286331 
L 699.071547 75.697122 
L 701.047934 74.518705 
L 701.70673 74.382734 
L 702.365525 73.884173 
L 703.683117 73.24964 
L 705.000708 72.433813 
L 706.977096 71.527338 
L 707.635891 71.074101 
L 708.953483 70.57554 
L 709.612279 70.122302 
L 710.92987 69.48777 
L 711.588666 69.034532 
L 712.906257 68.581295 
L 713.565053 68.445324 
L 716.200236 67.266906 
L 719.494215 66.133813 
L 720.153011 66.088489 
L 720.811806 65.907194 
L 721.470602 65.499281 
L 722.129398 65.408633 
L 722.788194 65.136691 
L 724.764581 64.728777 
L 728.05856 63.051799 
L 729.376151 62.326619 
L 730.034947 62.235971 
L 732.011334 61.148201 
L 733.987721 60.423022 
L 735.964109 59.561871 
L 738.599292 58.519424 
L 739.258087 58.338129 
L 739.916883 57.930216 
L 740.575679 57.884892 
L 741.234475 57.703597 
L 741.89327 57.25036 
L 742.552066 57.205036 
L 743.869658 56.797122 
L 745.187249 56.16259 
L 745.846045 56.071942 
L 746.504841 55.8 
L 747.163636 55.8 
L 747.163636 55.8 
" clip-path="url(#p6941b1fa67)" style="fill: none; stroke: #1f77b4; stroke-width: 1.5; stroke-linecap: square"/>
   </g>
   <g id="line2d_40">
    <path d="M 139.095159 307.8 
L 141.071547 307.709353 
L 143.047934 307.664029 
L 147.000708 307.573381 
L 150.294687 307.43741 
L 152.92987 307.43741 
L 153.588666 307.256115 
L 156.223849 307.165468 
L 158.200236 306.938849 
L 160.176623 306.757554 
L 164.129398 306.576259 
L 164.788194 306.576259 
L 165.446989 306.440288 
L 168.082172 306.34964 
L 169.399764 306.258993 
L 174.67013 306.168345 
L 177.964109 306.032374 
L 185.869658 305.941727 
L 189.163636 305.805755 
L 193.116411 305.715108 
L 195.751594 305.62446 
L 201.680756 305.533813 
L 203.657143 305.488489 
L 205.63353 305.443165 
L 207.609917 305.216547 
L 211.562692 305.171223 
L 212.880283 305.080576 
L 217.491854 304.989928 
L 224.738607 304.582014 
L 229.350177 304.491367 
L 230.667769 304.400719 
L 232.644156 304.310072 
L 236.59693 304.128777 
L 239.232113 304.083453 
L 241.208501 303.902158 
L 251.749233 303.267626 
L 254.384416 303.176978 
L 258.995986 302.95036 
L 260.972373 302.859712 
L 267.560331 302.497122 
L 274.807084 302.406475 
L 277.442267 302.134532 
L 278.759858 302.043885 
L 287.324203 301.364029 
L 291.276978 300.865468 
L 293.912161 300.77482 
L 299.182527 300.094964 
L 302.476505 300.004317 
L 311.04085 299.32446 
L 314.993625 298.871223 
L 316.970012 298.825899 
L 318.287603 298.735252 
L 320.922786 298.644604 
L 322.240378 298.553957 
L 325.534357 298.236691 
L 326.193152 298.055396 
L 330.145927 297.874101 
L 333.439906 297.783453 
L 342.00425 297.284892 
L 343.980638 297.194245 
L 352.544982 296.695683 
L 357.156553 296.605036 
L 357.815348 296.469065 
L 363.085714 296.378417 
L 367.697285 296.151799 
L 374.944038 296.061151 
L 379.555608 295.834532 
L 384.825974 295.743885 
L 390.09634 295.471942 
L 394.70791 295.381295 
L 407.22503 294.610791 
L 412.495396 294.520144 
L 429.624085 293.432374 
L 433.57686 293.341727 
L 435.553247 293.296403 
L 437.529634 293.251079 
L 439.506021 293.069784 
L 444.776387 292.979137 
L 446.093979 292.752518 
L 447.41157 292.661871 
L 450.705549 292.525899 
L 452.02314 292.435252 
L 453.340732 292.344604 
L 459.269894 292.253957 
L 460.587485 292.117986 
L 463.222668 292.072662 
L 463.881464 291.936691 
L 465.199055 291.846043 
L 465.857851 291.710072 
L 467.834238 291.619424 
L 479.033766 290.939568 
L 481.010153 290.848921 
L 484.304132 290.71295 
L 493.527273 290.622302 
L 498.138843 290.395683 
L 503.409209 290.305036 
L 506.044392 290.214388 
L 508.679575 290.169065 
L 509.997166 290.033094 
L 512.632349 289.942446 
L 519.220307 289.579856 
L 523.173081 289.534532 
L 525.149469 289.353237 
L 527.125856 289.307914 
L 531.737426 289.217266 
L 534.372609 289.126619 
L 540.301771 289.035971 
L 542.936954 288.945324 
L 546.889728 288.854676 
L 553.477686 288.492086 
L 555.454073 288.492086 
L 556.112869 288.356115 
L 557.43046 288.265468 
L 560.065643 288.17482 
L 567.971192 288.084173 
L 571.265171 287.948201 
L 582.464699 287.902878 
L 583.78229 287.81223 
L 585.758678 287.766906 
L 594.323022 287.676259 
L 595.640614 287.585612 
L 602.887367 287.494964 
L 605.52255 287.404317 
L 613.428099 287.358993 
L 614.745691 287.268345 
L 624.627627 287.223022 
L 626.604014 287.041727 
L 637.803542 286.951079 
L 639.779929 286.905755 
L 656.908619 286.815108 
L 659.543802 286.72446 
L 671.402125 286.633813 
L 674.037308 286.543165 
L 678.648878 286.452518 
L 683.919244 286.180576 
L 686.554427 286.089928 
L 689.18961 285.999281 
L 693.142385 285.908633 
L 695.118772 285.863309 
L 697.753955 285.772662 
L 699.730342 285.727338 
L 703.024321 285.636691 
L 704.341913 285.500719 
L 708.294687 285.410072 
L 715.54144 285.002158 
L 718.835419 284.911511 
L 721.470602 284.820863 
L 726.082172 284.730216 
L 728.717355 284.639568 
L 733.987721 284.548921 
L 735.964109 284.503597 
L 739.258087 284.41295 
L 743.210862 284.231655 
L 747.163636 284.231655 
L 747.163636 284.231655 
" clip-path="url(#p6941b1fa67)" style="fill: none; stroke: #ff7f0e; stroke-width: 1.5; stroke-linecap: square"/>
   </g>
   <g id="patch_3">
    <path d="M 108 320.4 
L 108 43.2 
" style="fill: none; stroke: #a9a9a9; stroke-width: 0.8; stroke-linejoin: miter; stroke-linecap: square"/>
   </g>
   <g id="patch_4">
    <path d="M 777.6 320.4 
L 777.6 43.2 
" style="fill: none"/>
   </g>
   <g id="patch_5">
    <path d="M 108 320.4 
L 777.6 320.4 
" style="fill: none; stroke: #a9a9a9; stroke-width: 0.8; stroke-linejoin: miter; stroke-linecap: square"/>
   </g>
   <g id="patch_6">
    <path d="M 108 43.2 
L 777.6 43.2 
" style="fill: none"/>
   </g>
   <g id="text_20">
    <!-- get_subscribe history -->
    <g style="fill: #a9a9a9" transform="translate(378.6075 37.2) scale(0.12 -0.12)">
     <defs>
      <path id="DejaVuSans-67" d="M 2906 1791 
Q 2906 2416 2648 2759 
Q 2391 3103 1925 3103 
Q 1463 3103 1205 2759 
Q 947 2416 947 1791 
Q 947 1169 1205 825 
Q 1463 481 1925 481 
Q 2391 481 2648 825 
Q 2906 1169 2906 1791 
z
M 3481 434 
Q 3481 -459 3084 -895 
Q 2688 -1331 1869 -1331 
Q 1566 -1331 1297 -1286 
Q 1028 -1241 775 -1147 
L 775 -588 
Q 1028 -725 1275 -790 
Q 1522 -856 1778 -856 
Q 2344 -856 2625 -561 
Q 2906 -266 2906 331 
L 2906 616 
Q 2728 306 2450 153 
Q 2172 0 1784 0 
Q 1141 0 747 490 
Q 353 981 353 1791 
Q 353 2603 747 3093 
Q 1141 3584 1784 3584 
Q 2172 3584 2450 3431 
Q 2728 3278 2906 2969 
L 2906 3500 
L 3481 3500 
L 3481 434 
z
" transform="scale(0.015625)"/>
      <path id="DejaVuSans-65" d="M 3597 1894 
L 3597 1613 
L 953 1613 
Q 991 1019 1311 708 
Q 1631 397 2203 397 
Q 2534 397 2845 478 
Q 3156 559 3463 722 
L 3463 178 
Q 3153 47 2828 -22 
Q 2503 -91 2169 -91 
Q 1331 -91 842 396 
Q 353 884 353 1716 
Q 353 2575 817 3079 
Q 1281 3584 2069 3584 
Q 2775 3584 3186 3129 
Q 3597 2675 3597 1894 
z
M 3022 2063 
Q 3016 2534 2758 2815 
Q 2500 3097 2075 3097 
Q 1594 3097 1305 2825 
Q 1016 2553 972 2059 
L 3022 2063 
z
" transform="scale(0.015625)"/>
      <path id="DejaVuSans-74" d="M 1172 4494 
L 1172 3500 
L 2356 3500 
L 2356 3053 
L 1172 3053 
L 1172 1153 
Q 1172 725 1289 603 
Q 1406 481 1766 481 
L 2356 481 
L 2356 0 
L 1766 0 
Q 1100 0 847 248 
Q 594 497 594 1153 
L 594 3053 
L 172 3053 
L 172 3500 
L 594 3500 
L 594 4494 
L 1172 4494 
z
" transform="scale(0.015625)"/>
      <path id="DejaVuSans-5f" d="M 3263 -1063 
L 3263 -1509 
L -63 -1509 
L -63 -1063 
L 3263 -1063 
z
" transform="scale(0.015625)"/>
      <path id="DejaVuSans-73" d="M 2834 3397 
L 2834 2853 
Q 2591 2978 2328 3040 
Q 2066 3103 1784 3103 
Q 1356 3103 1142 2972 
Q 928 2841 928 2578 
Q 928 2378 1081 2264 
Q 1234 2150 1697 2047 
L 1894 2003 
Q 2506 1872 2764 1633 
Q 3022 1394 3022 966 
Q 3022 478 2636 193 
Q 2250 -91 1575 -91 
Q 1294 -91 989 -36 
Q 684 19 347 128 
L 347 722 
Q 666 556 975 473 
Q 1284 391 1588 391 
Q 1994 391 2212 530 
Q 2431 669 2431 922 
Q 2431 1156 2273 1281 
Q 2116 1406 1581 1522 
L 1381 1569 
Q 847 1681 609 1914 
Q 372 2147 372 2553 
Q 372 3047 722 3315 
Q 1072 3584 1716 3584 
Q 2034 3584 2315 3537 
Q 2597 3491 2834 3397 
z
" transform="scale(0.015625)"/>
      <path id="DejaVuSans-75" d="M 544 1381 
L 544 3500 
L 1119 3500 
L 1119 1403 
Q 1119 906 1312 657 
Q 1506 409 1894 409 
Q 2359 409 2629 706 
Q 2900 1003 2900 1516 
L 2900 3500 
L 3475 3500 
L 3475 0 
L 2900 0 
L 2900 538 
Q 2691 219 2414 64 
Q 2138 -91 1772 -91 
Q 1169 -91 856 284 
Q 544 659 544 1381 
z
M 1991 3584 
L 1991 3584 
z
" transform="scale(0.015625)"/>
      <path id="DejaVuSans-62" d="M 3116 1747 
Q 3116 2381 2855 2742 
Q 2594 3103 2138 3103 
Q 1681 3103 1420 2742 
Q 1159 2381 1159 1747 
Q 1159 1113 1420 752 
Q 1681 391 2138 391 
Q 2594 391 2855 752 
Q 3116 1113 3116 1747 
z
M 1159 2969 
Q 1341 3281 1617 3432 
Q 1894 3584 2278 3584 
Q 2916 3584 3314 3078 
Q 3713 2572 3713 1747 
Q 3713 922 3314 415 
Q 2916 -91 2278 -91 
Q 1894 -91 1617 61 
Q 1341 213 1159 525 
L 1159 0 
L 581 0 
L 581 4863 
L 1159 4863 
L 1159 2969 
z
" transform="scale(0.015625)"/>
      <path id="DejaVuSans-63" d="M 3122 3366 
L 3122 2828 
Q 2878 2963 2633 3030 
Q 2388 3097 2138 3097 
Q 1578 3097 1268 2742 
Q 959 2388 959 1747 
Q 959 1106 1268 751 
Q 1578 397 2138 397 
Q 2388 397 2633 464 
Q 2878 531 3122 666 
L 3122 134 
Q 2881 22 2623 -34 
Q 2366 -91 2075 -91 
Q 1284 -91 818 406 
Q 353 903 353 1747 
Q 353 2603 823 3093 
Q 1294 3584 2113 3584 
Q 2378 3584 2631 3529 
Q 2884 3475 3122 3366 
z
" transform="scale(0.015625)"/>
      <path id="DejaVuSans-72" d="M 2631 2963 
Q 2534 3019 2420 3045 
Q 2306 3072 2169 3072 
Q 1681 3072 1420 2755 
Q 1159 2438 1159 1844 
L 1159 0 
L 581 0 
L 581 3500 
L 1159 3500 
L 1159 2956 
Q 1341 3275 1631 3429 
Q 1922 3584 2338 3584 
Q 2397 3584 2469 3576 
Q 2541 3569 2628 3553 
L 2631 2963 
z
" transform="scale(0.015625)"/>
      <path id="DejaVuSans-69" d="M 603 3500 
L 1178 3500 
L 1178 0 
L 603 0 
L 603 3500 
z
M 603 4863 
L 1178 4863 
L 1178 4134 
L 603 4134 
L 603 4863 
z
" transform="scale(0.015625)"/>
      <path id="DejaVuSans-20" transform="scale(0.015625)"/>
      <path id="DejaVuSans-68" d="M 3513 2113 
L 3513 0 
L 2938 0 
L 2938 2094 
Q 2938 2591 2744 2837 
Q 2550 3084 2163 3084 
Q 1697 3084 1428 2787 
Q 1159 2491 1159 1978 
L 1159 0 
L 581 0 
L 581 4863 
L 1159 4863 
L 1159 2956 
Q 1366 3272 1645 3428 
Q 1925 3584 2291 3584 
Q 2894 3584 3203 3211 
Q 3513 2838 3513 2113 
z
" transform="scale(0.015625)"/>
      <path id="DejaVuSans-6f" d="M 1959 3097 
Q 1497 3097 1228 2736 
Q 959 2375 959 1747 
Q 959 1119 1226 758 
Q 1494 397 1959 397 
Q 2419 397 2687 759 
Q 2956 1122 2956 1747 
Q 2956 2369 2687 2733 
Q 2419 3097 1959 3097 
z
M 1959 3584 
Q 2709 3584 3137 3096 
Q 3566 2609 3566 1747 
Q 3566 888 3137 398 
Q 2709 -91 1959 -91 
Q 1206 -91 779 398 
Q 353 888 353 1747 
Q 353 2609 779 3096 
Q 1206 3584 1959 3584 
z
" transform="scale(0.015625)"/>
      <path id="DejaVuSans-79" d="M 2059 -325 
Q 1816 -950 1584 -1140 
Q 1353 -1331 966 -1331 
L 506 -1331 
L 506 -850 
L 844 -850 
Q 1081 -850 1212 -737 
Q 1344 -625 1503 -206 
L 1606 56 
L 191 3500 
L 800 3500 
L 1894 763 
L 2988 3500 
L 3597 3500 
L 2059 -325 
z
" transform="scale(0.015625)"/>
     </defs>
     <use xlink:href="#DejaVuSans-67"/>
     <use xlink:href="#DejaVuSans-65" x="63.476562"/>
     <use xlink:href="#DejaVuSans-74" x="125"/>
     <use xlink:href="#DejaVuSans-5f" x="164.208984"/>
     <use xlink:href="#DejaVuSans-73" x="214.208984"/>
     <use xlink:href="#DejaVuSans-75" x="266.308594"/>
     <use xlink:href="#DejaVuSans-62" x="329.6875"/>
     <use xlink:href="#DejaVuSans-73" x="393.164062"/>
     <use xlink:href="#DejaVuSans-63" x="445.263672"/>
     <use xlink:href="#DejaVuSans-72" x="500.244141"/>
     <use xlink:href="#DejaVuSans-69" x="541.357422"/>
     <use xlink:href="#DejaVuSans-62" x="569.140625"/>
     <use xlink:href="#DejaVuSans-65" x="632.617188"/>
     <use xlink:href="#DejaVuSans-20" x="694.140625"/>
     <use xlink:href="#DejaVuSans-68" x="725.927734"/>
     <use xlink:href="#DejaVuSans-69" x="789.306641"/>
     <use xlink:href="#DejaVuSans-73" x="817.089844"/>
     <use xlink:href="#DejaVuSans-74" x="869.189453"/>
     <use xlink:href="#DejaVuSans-6f" x="908.398438"/>
     <use xlink:href="#DejaVuSans-72" x="969.580078"/>
     <use xlink:href="#DejaVuSans-79" x="1010.693359"/>
    </g>
   </g>
   <g id="legend_1">
    <g id="line2d_41">
     <path d="M 815.08 328.498438 
L 825.08 328.498438 
L 835.08 328.498438 
" style="fill: none; stroke: #1f77b4; stroke-width: 1.5; stroke-linecap: square"/>
    </g>
    <g id="text_21">
     <!-- star -->
     <g style="fill: #a9a9a9" transform="translate(843.08 331.998438) scale(0.1 -0.1)">
      <defs>
       <path id="DejaVuSans-61" d="M 2194 1759 
Q 1497 1759 1228 1600 
Q 959 1441 959 1056 
Q 959 750 1161 570 
Q 1363 391 1709 391 
Q 2188 391 2477 730 
Q 2766 1069 2766 1631 
L 2766 1759 
L 2194 1759 
z
M 3341 1997 
L 3341 0 
L 2766 0 
L 2766 531 
Q 2569 213 2275 61 
Q 1981 -91 1556 -91 
Q 1019 -91 701 211 
Q 384 513 384 1019 
Q 384 1609 779 1909 
Q 1175 2209 1959 2209 
L 2766 2209 
L 2766 2266 
Q 2766 2663 2505 2880 
Q 2244 3097 1772 3097 
Q 1472 3097 1187 3025 
Q 903 2953 641 2809 
L 641 3341 
Q 956 3463 1253 3523 
Q 1550 3584 1831 3584 
Q 2591 3584 2966 3190 
Q 3341 2797 3341 1997 
z
" transform="scale(0.015625)"/>
      </defs>
      <use xlink:href="#DejaVuSans-73"/>
      <use xlink:href="#DejaVuSans-74" x="52.099609"/>
      <use xlink:href="#DejaVuSans-61" x="91.308594"/>
      <use xlink:href="#DejaVuSans-72" x="152.587891"/>
     </g>
    </g>
    <g id="line2d_42">
     <path d="M 815.08 343.176562 
L 825.08 343.176562 
L 835.08 343.176562 
" style="fill: none; stroke: #ff7f0e; stroke-width: 1.5; stroke-linecap: square"/>
    </g>
    <g id="text_22">
     <!-- fork -->
     <g style="fill: #a9a9a9" transform="translate(843.08 346.676562) scale(0.1 -0.1)">
      <defs>
       <path id="DejaVuSans-66" d="M 2375 4863 
L 2375 4384 
L 1825 4384 
Q 1516 4384 1395 4259 
Q 1275 4134 1275 3809 
L 1275 3500 
L 2222 3500 
L 2222 3053 
L 1275 3053 
L 1275 0 
L 697 0 
L 697 3053 
L 147 3053 
L 147 3500 
L 697 3500 
L 697 3744 
Q 697 4328 969 4595 
Q 1241 4863 1831 4863 
L 2375 4863 
z
" transform="scale(0.015625)"/>
       <path id="DejaVuSans-6b" d="M 581 4863 
L 1159 4863 
L 1159 1991 
L 2875 3500 
L 3609 3500 
L 1753 1863 
L 3688 0 
L 2938 0 
L 1159 1709 
L 1159 0 
L 581 0 
L 581 4863 
z
" transform="scale(0.015625)"/>
      </defs>
      <use xlink:href="#DejaVuSans-66"/>
      <use xlink:href="#DejaVuSans-6f" x="35.205078"/>
      <use xlink:href="#DejaVuSans-72" x="96.386719"/>
      <use xlink:href="#DejaVuSans-6b" x="137.5"/>
     </g>
    </g>
   </g>
  </g>
 </g>
 <defs>
  <clipPath id="p6941b1fa67">
   <rect x="108" y="43.2" width="669.6" height="277.2"/>
  </clipPath>
 </defs>
</svg>
