<?xml version="1.0" encoding="utf-8" standalone="no"?>
<!DOCTYPE svg PUBLIC "-//W3C//DTD SVG 1.1//EN"
  "http://www.w3.org/Graphics/SVG/1.1/DTD/svg11.dtd">
<svg xmlns:xlink="http://www.w3.org/1999/xlink" width="864pt" height="360pt" viewBox="0 0 864 360" xmlns="http://www.w3.org/2000/svg" version="1.1">
 <metadata>
  <rdf:RDF xmlns:dc="http://purl.org/dc/elements/1.1/" xmlns:cc="http://creativecommons.org/ns#" xmlns:rdf="http://www.w3.org/1999/02/22-rdf-syntax-ns#">
   <cc:Work>
    <dc:type rdf:resource="http://purl.org/dc/dcmitype/StillImage"/>
    <dc:date>2024-01-30T08:10:42.161571</dc:date>
    <dc:format>image/svg+xml</dc:format>
    <dc:creator>
     <cc:Agent>
      <dc:title>Matplotlib v3.8.2, https://matplotlib.org/</dc:title>
     </cc:Agent>
    </dc:creator>
   </cc:Work>
  </rdf:RDF>
 </metadata>
 <defs>
  <style type="text/css">*{stroke-linejoin: round; stroke-linecap: butt}</style>
 </defs>
 <g id="figure_1">
  <g id="patch_1">
   <path d="M 0 360 
L 864 360 
L 864 0 
L 0 0 
L 0 360 
z
" style="fill: none; opacity: 0"/>
  </g>
  <g id="axes_1">
   <g id="patch_2">
    <path d="M 108 320.4 
L 777.6 320.4 
L 777.6 43.2 
L 108 43.2 
L 108 320.4 
z
" style="fill: none; opacity: 0"/>
   </g>
   <g id="matplotlib.axis_1">
    <g id="xtick_1">
     <g id="line2d_1">
      <path d="M 123.218182 320.4 
L 123.218182 43.2 
" clip-path="url(#p79e5d1c0ba)" style="fill: none; stroke-dasharray: 5.12,1.28,0.8,1.28; stroke-dashoffset: 0; stroke: #b0b0b0; stroke-width: 0.8"/>
     </g>
     <g id="line2d_2">
      <defs>
       <path id="m395f31fb8e" d="M 0 0 
L 0 3.5 
" style="stroke: #a9a9a9; stroke-width: 0.8"/>
      </defs>
      <g>
       <use xlink:href="#m395f31fb8e" x="123.218182" y="320.4" style="fill: #a9a9a9; stroke: #a9a9a9; stroke-width: 0.8"/>
      </g>
     </g>
     <g id="text_1">
      <!-- 2021-07 -->
      <g style="fill: #a9a9a9" transform="translate(102.326776 334.998438) scale(0.1 -0.1)">
       <defs>
        <path id="DejaVuSans-32" d="M 1228 531 
L 3431 531 
L 3431 0 
L 469 0 
L 469 531 
Q 828 903 1448 1529 
Q 2069 2156 2228 2338 
Q 2531 2678 2651 2914 
Q 2772 3150 2772 3378 
Q 2772 3750 2511 3984 
Q 2250 4219 1831 4219 
Q 1534 4219 1204 4116 
Q 875 4013 500 3803 
L 500 4441 
Q 881 4594 1212 4672 
Q 1544 4750 1819 4750 
Q 2544 4750 2975 4387 
Q 3406 4025 3406 3419 
Q 3406 3131 3298 2873 
Q 3191 2616 2906 2266 
Q 2828 2175 2409 1742 
Q 1991 1309 1228 531 
z
" transform="scale(0.015625)"/>
        <path id="DejaVuSans-30" d="M 2034 4250 
Q 1547 4250 1301 3770 
Q 1056 3291 1056 2328 
Q 1056 1369 1301 889 
Q 1547 409 2034 409 
Q 2525 409 2770 889 
Q 3016 1369 3016 2328 
Q 3016 3291 2770 3770 
Q 2525 4250 2034 4250 
z
M 2034 4750 
Q 2819 4750 3233 4129 
Q 3647 3509 3647 2328 
Q 3647 1150 3233 529 
Q 2819 -91 2034 -91 
Q 1250 -91 836 529 
Q 422 1150 422 2328 
Q 422 3509 836 4129 
Q 1250 4750 2034 4750 
z
" transform="scale(0.015625)"/>
        <path id="DejaVuSans-31" d="M 794 531 
L 1825 531 
L 1825 4091 
L 703 3866 
L 703 4441 
L 1819 4666 
L 2450 4666 
L 2450 531 
L 3481 531 
L 3481 0 
L 794 0 
L 794 531 
z
" transform="scale(0.015625)"/>
        <path id="DejaVuSans-2d" d="M 313 2009 
L 1997 2009 
L 1997 1497 
L 313 1497 
L 313 2009 
z
" transform="scale(0.015625)"/>
        <path id="DejaVuSans-37" d="M 525 4666 
L 3525 4666 
L 3525 4397 
L 1831 0 
L 1172 0 
L 2766 4134 
L 525 4134 
L 525 4666 
z
" transform="scale(0.015625)"/>
       </defs>
       <use xlink:href="#DejaVuSans-32"/>
       <use xlink:href="#DejaVuSans-30" x="63.623047"/>
       <use xlink:href="#DejaVuSans-32" x="127.246094"/>
       <use xlink:href="#DejaVuSans-31" x="190.869141"/>
       <use xlink:href="#DejaVuSans-2d" x="254.492188"/>
       <use xlink:href="#DejaVuSans-30" x="290.576172"/>
       <use xlink:href="#DejaVuSans-37" x="354.199219"/>
      </g>
     </g>
    </g>
    <g id="xtick_2">
     <g id="line2d_3">
      <path d="M 184.090909 320.4 
L 184.090909 43.2 
" clip-path="url(#p79e5d1c0ba)" style="fill: none; stroke-dasharray: 5.12,1.28,0.8,1.28; stroke-dashoffset: 0; stroke: #b0b0b0; stroke-width: 0.8"/>
     </g>
     <g id="line2d_4">
      <g>
       <use xlink:href="#m395f31fb8e" x="184.090909" y="320.4" style="fill: #a9a9a9; stroke: #a9a9a9; stroke-width: 0.8"/>
      </g>
     </g>
     <g id="text_2">
      <!-- 2021-10 -->
      <g style="fill: #a9a9a9" transform="translate(163.199503 334.998438) scale(0.1 -0.1)">
       <use xlink:href="#DejaVuSans-32"/>
       <use xlink:href="#DejaVuSans-30" x="63.623047"/>
       <use xlink:href="#DejaVuSans-32" x="127.246094"/>
       <use xlink:href="#DejaVuSans-31" x="190.869141"/>
       <use xlink:href="#DejaVuSans-2d" x="254.492188"/>
       <use xlink:href="#DejaVuSans-31" x="290.576172"/>
       <use xlink:href="#DejaVuSans-30" x="354.199219"/>
      </g>
     </g>
    </g>
    <g id="xtick_3">
     <g id="line2d_5">
      <path d="M 244.963636 320.4 
L 244.963636 43.2 
" clip-path="url(#p79e5d1c0ba)" style="fill: none; stroke-dasharray: 5.12,1.28,0.8,1.28; stroke-dashoffset: 0; stroke: #b0b0b0; stroke-width: 0.8"/>
     </g>
     <g id="line2d_6">
      <g>
       <use xlink:href="#m395f31fb8e" x="244.963636" y="320.4" style="fill: #a9a9a9; stroke: #a9a9a9; stroke-width: 0.8"/>
      </g>
     </g>
     <g id="text_3">
      <!-- 2022-01 -->
      <g style="fill: #a9a9a9" transform="translate(224.07223 334.998438) scale(0.1 -0.1)">
       <use xlink:href="#DejaVuSans-32"/>
       <use xlink:href="#DejaVuSans-30" x="63.623047"/>
       <use xlink:href="#DejaVuSans-32" x="127.246094"/>
       <use xlink:href="#DejaVuSans-32" x="190.869141"/>
       <use xlink:href="#DejaVuSans-2d" x="254.492188"/>
       <use xlink:href="#DejaVuSans-30" x="290.576172"/>
       <use xlink:href="#DejaVuSans-31" x="354.199219"/>
      </g>
     </g>
    </g>
    <g id="xtick_4">
     <g id="line2d_7">
      <path d="M 304.513043 320.4 
L 304.513043 43.2 
" clip-path="url(#p79e5d1c0ba)" style="fill: none; stroke-dasharray: 5.12,1.28,0.8,1.28; stroke-dashoffset: 0; stroke: #b0b0b0; stroke-width: 0.8"/>
     </g>
     <g id="line2d_8">
      <g>
       <use xlink:href="#m395f31fb8e" x="304.513043" y="320.4" style="fill: #a9a9a9; stroke: #a9a9a9; stroke-width: 0.8"/>
      </g>
     </g>
     <g id="text_4">
      <!-- 2022-04 -->
      <g style="fill: #a9a9a9" transform="translate(283.621637 334.998438) scale(0.1 -0.1)">
       <defs>
        <path id="DejaVuSans-34" d="M 2419 4116 
L 825 1625 
L 2419 1625 
L 2419 4116 
z
M 2253 4666 
L 3047 4666 
L 3047 1625 
L 3713 1625 
L 3713 1100 
L 3047 1100 
L 3047 0 
L 2419 0 
L 2419 1100 
L 313 1100 
L 313 1709 
L 2253 4666 
z
" transform="scale(0.015625)"/>
       </defs>
       <use xlink:href="#DejaVuSans-32"/>
       <use xlink:href="#DejaVuSans-30" x="63.623047"/>
       <use xlink:href="#DejaVuSans-32" x="127.246094"/>
       <use xlink:href="#DejaVuSans-32" x="190.869141"/>
       <use xlink:href="#DejaVuSans-2d" x="254.492188"/>
       <use xlink:href="#DejaVuSans-30" x="290.576172"/>
       <use xlink:href="#DejaVuSans-34" x="354.199219"/>
      </g>
     </g>
    </g>
    <g id="xtick_5">
     <g id="line2d_9">
      <path d="M 364.724111 320.4 
L 364.724111 43.2 
" clip-path="url(#p79e5d1c0ba)" style="fill: none; stroke-dasharray: 5.12,1.28,0.8,1.28; stroke-dashoffset: 0; stroke: #b0b0b0; stroke-width: 0.8"/>
     </g>
     <g id="line2d_10">
      <g>
       <use xlink:href="#m395f31fb8e" x="364.724111" y="320.4" style="fill: #a9a9a9; stroke: #a9a9a9; stroke-width: 0.8"/>
      </g>
     </g>
     <g id="text_5">
      <!-- 2022-07 -->
      <g style="fill: #a9a9a9" transform="translate(343.832704 334.998438) scale(0.1 -0.1)">
       <use xlink:href="#DejaVuSans-32"/>
       <use xlink:href="#DejaVuSans-30" x="63.623047"/>
       <use xlink:href="#DejaVuSans-32" x="127.246094"/>
       <use xlink:href="#DejaVuSans-32" x="190.869141"/>
       <use xlink:href="#DejaVuSans-2d" x="254.492188"/>
       <use xlink:href="#DejaVuSans-30" x="290.576172"/>
       <use xlink:href="#DejaVuSans-37" x="354.199219"/>
      </g>
     </g>
    </g>
    <g id="xtick_6">
     <g id="line2d_11">
      <path d="M 425.596838 320.4 
L 425.596838 43.2 
" clip-path="url(#p79e5d1c0ba)" style="fill: none; stroke-dasharray: 5.12,1.28,0.8,1.28; stroke-dashoffset: 0; stroke: #b0b0b0; stroke-width: 0.8"/>
     </g>
     <g id="line2d_12">
      <g>
       <use xlink:href="#m395f31fb8e" x="425.596838" y="320.4" style="fill: #a9a9a9; stroke: #a9a9a9; stroke-width: 0.8"/>
      </g>
     </g>
     <g id="text_6">
      <!-- 2022-10 -->
      <g style="fill: #a9a9a9" transform="translate(404.705432 334.998438) scale(0.1 -0.1)">
       <use xlink:href="#DejaVuSans-32"/>
       <use xlink:href="#DejaVuSans-30" x="63.623047"/>
       <use xlink:href="#DejaVuSans-32" x="127.246094"/>
       <use xlink:href="#DejaVuSans-32" x="190.869141"/>
       <use xlink:href="#DejaVuSans-2d" x="254.492188"/>
       <use xlink:href="#DejaVuSans-31" x="290.576172"/>
       <use xlink:href="#DejaVuSans-30" x="354.199219"/>
      </g>
     </g>
    </g>
    <g id="xtick_7">
     <g id="line2d_13">
      <path d="M 486.469565 320.4 
L 486.469565 43.2 
" clip-path="url(#p79e5d1c0ba)" style="fill: none; stroke-dasharray: 5.12,1.28,0.8,1.28; stroke-dashoffset: 0; stroke: #b0b0b0; stroke-width: 0.8"/>
     </g>
     <g id="line2d_14">
      <g>
       <use xlink:href="#m395f31fb8e" x="486.469565" y="320.4" style="fill: #a9a9a9; stroke: #a9a9a9; stroke-width: 0.8"/>
      </g>
     </g>
     <g id="text_7">
      <!-- 2023-01 -->
      <g style="fill: #a9a9a9" transform="translate(465.578159 334.998438) scale(0.1 -0.1)">
       <defs>
        <path id="DejaVuSans-33" d="M 2597 2516 
Q 3050 2419 3304 2112 
Q 3559 1806 3559 1356 
Q 3559 666 3084 287 
Q 2609 -91 1734 -91 
Q 1441 -91 1130 -33 
Q 819 25 488 141 
L 488 750 
Q 750 597 1062 519 
Q 1375 441 1716 441 
Q 2309 441 2620 675 
Q 2931 909 2931 1356 
Q 2931 1769 2642 2001 
Q 2353 2234 1838 2234 
L 1294 2234 
L 1294 2753 
L 1863 2753 
Q 2328 2753 2575 2939 
Q 2822 3125 2822 3475 
Q 2822 3834 2567 4026 
Q 2313 4219 1838 4219 
Q 1578 4219 1281 4162 
Q 984 4106 628 3988 
L 628 4550 
Q 988 4650 1302 4700 
Q 1616 4750 1894 4750 
Q 2613 4750 3031 4423 
Q 3450 4097 3450 3541 
Q 3450 3153 3228 2886 
Q 3006 2619 2597 2516 
z
" transform="scale(0.015625)"/>
       </defs>
       <use xlink:href="#DejaVuSans-32"/>
       <use xlink:href="#DejaVuSans-30" x="63.623047"/>
       <use xlink:href="#DejaVuSans-32" x="127.246094"/>
       <use xlink:href="#DejaVuSans-33" x="190.869141"/>
       <use xlink:href="#DejaVuSans-2d" x="254.492188"/>
       <use xlink:href="#DejaVuSans-30" x="290.576172"/>
       <use xlink:href="#DejaVuSans-31" x="354.199219"/>
      </g>
     </g>
    </g>
    <g id="xtick_8">
     <g id="line2d_15">
      <path d="M 546.018972 320.4 
L 546.018972 43.2 
" clip-path="url(#p79e5d1c0ba)" style="fill: none; stroke-dasharray: 5.12,1.28,0.8,1.28; stroke-dashoffset: 0; stroke: #b0b0b0; stroke-width: 0.8"/>
     </g>
     <g id="line2d_16">
      <g>
       <use xlink:href="#m395f31fb8e" x="546.018972" y="320.4" style="fill: #a9a9a9; stroke: #a9a9a9; stroke-width: 0.8"/>
      </g>
     </g>
     <g id="text_8">
      <!-- 2023-04 -->
      <g style="fill: #a9a9a9" transform="translate(525.127566 334.998438) scale(0.1 -0.1)">
       <use xlink:href="#DejaVuSans-32"/>
       <use xlink:href="#DejaVuSans-30" x="63.623047"/>
       <use xlink:href="#DejaVuSans-32" x="127.246094"/>
       <use xlink:href="#DejaVuSans-33" x="190.869141"/>
       <use xlink:href="#DejaVuSans-2d" x="254.492188"/>
       <use xlink:href="#DejaVuSans-30" x="290.576172"/>
       <use xlink:href="#DejaVuSans-34" x="354.199219"/>
      </g>
     </g>
    </g>
    <g id="xtick_9">
     <g id="line2d_17">
      <path d="M 606.23004 320.4 
L 606.23004 43.2 
" clip-path="url(#p79e5d1c0ba)" style="fill: none; stroke-dasharray: 5.12,1.28,0.8,1.28; stroke-dashoffset: 0; stroke: #b0b0b0; stroke-width: 0.8"/>
     </g>
     <g id="line2d_18">
      <g>
       <use xlink:href="#m395f31fb8e" x="606.23004" y="320.4" style="fill: #a9a9a9; stroke: #a9a9a9; stroke-width: 0.8"/>
      </g>
     </g>
     <g id="text_9">
      <!-- 2023-07 -->
      <g style="fill: #a9a9a9" transform="translate(585.338633 334.998438) scale(0.1 -0.1)">
       <use xlink:href="#DejaVuSans-32"/>
       <use xlink:href="#DejaVuSans-30" x="63.623047"/>
       <use xlink:href="#DejaVuSans-32" x="127.246094"/>
       <use xlink:href="#DejaVuSans-33" x="190.869141"/>
       <use xlink:href="#DejaVuSans-2d" x="254.492188"/>
       <use xlink:href="#DejaVuSans-30" x="290.576172"/>
       <use xlink:href="#DejaVuSans-37" x="354.199219"/>
      </g>
     </g>
    </g>
    <g id="xtick_10">
     <g id="line2d_19">
      <path d="M 667.102767 320.4 
L 667.102767 43.2 
" clip-path="url(#p79e5d1c0ba)" style="fill: none; stroke-dasharray: 5.12,1.28,0.8,1.28; stroke-dashoffset: 0; stroke: #b0b0b0; stroke-width: 0.8"/>
     </g>
     <g id="line2d_20">
      <g>
       <use xlink:href="#m395f31fb8e" x="667.102767" y="320.4" style="fill: #a9a9a9; stroke: #a9a9a9; stroke-width: 0.8"/>
      </g>
     </g>
     <g id="text_10">
      <!-- 2023-10 -->
      <g style="fill: #a9a9a9" transform="translate(646.211361 334.998438) scale(0.1 -0.1)">
       <use xlink:href="#DejaVuSans-32"/>
       <use xlink:href="#DejaVuSans-30" x="63.623047"/>
       <use xlink:href="#DejaVuSans-32" x="127.246094"/>
       <use xlink:href="#DejaVuSans-33" x="190.869141"/>
       <use xlink:href="#DejaVuSans-2d" x="254.492188"/>
       <use xlink:href="#DejaVuSans-31" x="290.576172"/>
       <use xlink:href="#DejaVuSans-30" x="354.199219"/>
      </g>
     </g>
    </g>
    <g id="xtick_11">
     <g id="line2d_21">
      <path d="M 727.975494 320.4 
L 727.975494 43.2 
" clip-path="url(#p79e5d1c0ba)" style="fill: none; stroke-dasharray: 5.12,1.28,0.8,1.28; stroke-dashoffset: 0; stroke: #b0b0b0; stroke-width: 0.8"/>
     </g>
     <g id="line2d_22">
      <g>
       <use xlink:href="#m395f31fb8e" x="727.975494" y="320.4" style="fill: #a9a9a9; stroke: #a9a9a9; stroke-width: 0.8"/>
      </g>
     </g>
     <g id="text_11">
      <!-- 2024-01 -->
      <g style="fill: #a9a9a9" transform="translate(707.084088 334.998438) scale(0.1 -0.1)">
       <use xlink:href="#DejaVuSans-32"/>
       <use xlink:href="#DejaVuSans-30" x="63.623047"/>
       <use xlink:href="#DejaVuSans-32" x="127.246094"/>
       <use xlink:href="#DejaVuSans-34" x="190.869141"/>
       <use xlink:href="#DejaVuSans-2d" x="254.492188"/>
       <use xlink:href="#DejaVuSans-30" x="290.576172"/>
       <use xlink:href="#DejaVuSans-31" x="354.199219"/>
      </g>
     </g>
    </g>
   </g>
   <g id="matplotlib.axis_2">
    <g id="ytick_1">
     <g id="line2d_23">
      <path d="M 108 307.845463 
L 777.6 307.845463 
" clip-path="url(#p79e5d1c0ba)" style="fill: none; stroke-dasharray: 5.12,1.28,0.8,1.28; stroke-dashoffset: 0; stroke: #b0b0b0; stroke-width: 0.8"/>
     </g>
     <g id="line2d_24">
      <defs>
       <path id="m7490e28ae3" d="M 0 0 
L -3.5 0 
" style="stroke: #a9a9a9; stroke-width: 0.8"/>
      </defs>
      <g>
       <use xlink:href="#m7490e28ae3" x="108" y="307.845463" style="fill: #a9a9a9; stroke: #a9a9a9; stroke-width: 0.8"/>
      </g>
     </g>
     <g id="text_12">
      <!-- 0 -->
      <g style="fill: #a9a9a9" transform="translate(94.6375 311.644681) scale(0.1 -0.1)">
       <use xlink:href="#DejaVuSans-30"/>
      </g>
     </g>
    </g>
    <g id="ytick_2">
     <g id="line2d_25">
      <path d="M 108 271.475266 
L 777.6 271.475266 
" clip-path="url(#p79e5d1c0ba)" style="fill: none; stroke-dasharray: 5.12,1.28,0.8,1.28; stroke-dashoffset: 0; stroke: #b0b0b0; stroke-width: 0.8"/>
     </g>
     <g id="line2d_26">
      <g>
       <use xlink:href="#m7490e28ae3" x="108" y="271.475266" style="fill: #a9a9a9; stroke: #a9a9a9; stroke-width: 0.8"/>
      </g>
     </g>
     <g id="text_13">
      <!-- 800 -->
      <g style="fill: #a9a9a9" transform="translate(81.9125 275.274485) scale(0.1 -0.1)">
       <defs>
        <path id="DejaVuSans-38" d="M 2034 2216 
Q 1584 2216 1326 1975 
Q 1069 1734 1069 1313 
Q 1069 891 1326 650 
Q 1584 409 2034 409 
Q 2484 409 2743 651 
Q 3003 894 3003 1313 
Q 3003 1734 2745 1975 
Q 2488 2216 2034 2216 
z
M 1403 2484 
Q 997 2584 770 2862 
Q 544 3141 544 3541 
Q 544 4100 942 4425 
Q 1341 4750 2034 4750 
Q 2731 4750 3128 4425 
Q 3525 4100 3525 3541 
Q 3525 3141 3298 2862 
Q 3072 2584 2669 2484 
Q 3125 2378 3379 2068 
Q 3634 1759 3634 1313 
Q 3634 634 3220 271 
Q 2806 -91 2034 -91 
Q 1263 -91 848 271 
Q 434 634 434 1313 
Q 434 1759 690 2068 
Q 947 2378 1403 2484 
z
M 1172 3481 
Q 1172 3119 1398 2916 
Q 1625 2713 2034 2713 
Q 2441 2713 2670 2916 
Q 2900 3119 2900 3481 
Q 2900 3844 2670 4047 
Q 2441 4250 2034 4250 
Q 1625 4250 1398 4047 
Q 1172 3844 1172 3481 
z
" transform="scale(0.015625)"/>
       </defs>
       <use xlink:href="#DejaVuSans-38"/>
       <use xlink:href="#DejaVuSans-30" x="63.623047"/>
       <use xlink:href="#DejaVuSans-30" x="127.246094"/>
      </g>
     </g>
    </g>
    <g id="ytick_3">
     <g id="line2d_27">
      <path d="M 108 235.105069 
L 777.6 235.105069 
" clip-path="url(#p79e5d1c0ba)" style="fill: none; stroke-dasharray: 5.12,1.28,0.8,1.28; stroke-dashoffset: 0; stroke: #b0b0b0; stroke-width: 0.8"/>
     </g>
     <g id="line2d_28">
      <g>
       <use xlink:href="#m7490e28ae3" x="108" y="235.105069" style="fill: #a9a9a9; stroke: #a9a9a9; stroke-width: 0.8"/>
      </g>
     </g>
     <g id="text_14">
      <!-- 1600 -->
      <g style="fill: #a9a9a9" transform="translate(75.55 238.904288) scale(0.1 -0.1)">
       <defs>
        <path id="DejaVuSans-36" d="M 2113 2584 
Q 1688 2584 1439 2293 
Q 1191 2003 1191 1497 
Q 1191 994 1439 701 
Q 1688 409 2113 409 
Q 2538 409 2786 701 
Q 3034 994 3034 1497 
Q 3034 2003 2786 2293 
Q 2538 2584 2113 2584 
z
M 3366 4563 
L 3366 3988 
Q 3128 4100 2886 4159 
Q 2644 4219 2406 4219 
Q 1781 4219 1451 3797 
Q 1122 3375 1075 2522 
Q 1259 2794 1537 2939 
Q 1816 3084 2150 3084 
Q 2853 3084 3261 2657 
Q 3669 2231 3669 1497 
Q 3669 778 3244 343 
Q 2819 -91 2113 -91 
Q 1303 -91 875 529 
Q 447 1150 447 2328 
Q 447 3434 972 4092 
Q 1497 4750 2381 4750 
Q 2619 4750 2861 4703 
Q 3103 4656 3366 4563 
z
" transform="scale(0.015625)"/>
       </defs>
       <use xlink:href="#DejaVuSans-31"/>
       <use xlink:href="#DejaVuSans-36" x="63.623047"/>
       <use xlink:href="#DejaVuSans-30" x="127.246094"/>
       <use xlink:href="#DejaVuSans-30" x="190.869141"/>
      </g>
     </g>
    </g>
    <g id="ytick_4">
     <g id="line2d_29">
      <path d="M 108 198.734873 
L 777.6 198.734873 
" clip-path="url(#p79e5d1c0ba)" style="fill: none; stroke-dasharray: 5.12,1.28,0.8,1.28; stroke-dashoffset: 0; stroke: #b0b0b0; stroke-width: 0.8"/>
     </g>
     <g id="line2d_30">
      <g>
       <use xlink:href="#m7490e28ae3" x="108" y="198.734873" style="fill: #a9a9a9; stroke: #a9a9a9; stroke-width: 0.8"/>
      </g>
     </g>
     <g id="text_15">
      <!-- 2400 -->
      <g style="fill: #a9a9a9" transform="translate(75.55 202.534092) scale(0.1 -0.1)">
       <use xlink:href="#DejaVuSans-32"/>
       <use xlink:href="#DejaVuSans-34" x="63.623047"/>
       <use xlink:href="#DejaVuSans-30" x="127.246094"/>
       <use xlink:href="#DejaVuSans-30" x="190.869141"/>
      </g>
     </g>
    </g>
    <g id="ytick_5">
     <g id="line2d_31">
      <path d="M 108 162.364676 
L 777.6 162.364676 
" clip-path="url(#p79e5d1c0ba)" style="fill: none; stroke-dasharray: 5.12,1.28,0.8,1.28; stroke-dashoffset: 0; stroke: #b0b0b0; stroke-width: 0.8"/>
     </g>
     <g id="line2d_32">
      <g>
       <use xlink:href="#m7490e28ae3" x="108" y="162.364676" style="fill: #a9a9a9; stroke: #a9a9a9; stroke-width: 0.8"/>
      </g>
     </g>
     <g id="text_16">
      <!-- 3200 -->
      <g style="fill: #a9a9a9" transform="translate(75.55 166.163895) scale(0.1 -0.1)">
       <use xlink:href="#DejaVuSans-33"/>
       <use xlink:href="#DejaVuSans-32" x="63.623047"/>
       <use xlink:href="#DejaVuSans-30" x="127.246094"/>
       <use xlink:href="#DejaVuSans-30" x="190.869141"/>
      </g>
     </g>
    </g>
    <g id="ytick_6">
     <g id="line2d_33">
      <path d="M 108 125.99448 
L 777.6 125.99448 
" clip-path="url(#p79e5d1c0ba)" style="fill: none; stroke-dasharray: 5.12,1.28,0.8,1.28; stroke-dashoffset: 0; stroke: #b0b0b0; stroke-width: 0.8"/>
     </g>
     <g id="line2d_34">
      <g>
       <use xlink:href="#m7490e28ae3" x="108" y="125.99448" style="fill: #a9a9a9; stroke: #a9a9a9; stroke-width: 0.8"/>
      </g>
     </g>
     <g id="text_17">
      <!-- 4000 -->
      <g style="fill: #a9a9a9" transform="translate(75.55 129.793698) scale(0.1 -0.1)">
       <use xlink:href="#DejaVuSans-34"/>
       <use xlink:href="#DejaVuSans-30" x="63.623047"/>
       <use xlink:href="#DejaVuSans-30" x="127.246094"/>
       <use xlink:href="#DejaVuSans-30" x="190.869141"/>
      </g>
     </g>
    </g>
    <g id="ytick_7">
     <g id="line2d_35">
      <path d="M 108 89.624283 
L 777.6 89.624283 
" clip-path="url(#p79e5d1c0ba)" style="fill: none; stroke-dasharray: 5.12,1.28,0.8,1.28; stroke-dashoffset: 0; stroke: #b0b0b0; stroke-width: 0.8"/>
     </g>
     <g id="line2d_36">
      <g>
       <use xlink:href="#m7490e28ae3" x="108" y="89.624283" style="fill: #a9a9a9; stroke: #a9a9a9; stroke-width: 0.8"/>
      </g>
     </g>
     <g id="text_18">
      <!-- 4800 -->
      <g style="fill: #a9a9a9" transform="translate(75.55 93.423502) scale(0.1 -0.1)">
       <use xlink:href="#DejaVuSans-34"/>
       <use xlink:href="#DejaVuSans-38" x="63.623047"/>
       <use xlink:href="#DejaVuSans-30" x="127.246094"/>
       <use xlink:href="#DejaVuSans-30" x="190.869141"/>
      </g>
     </g>
    </g>
    <g id="ytick_8">
     <g id="line2d_37">
      <path d="M 108 53.254086 
L 777.6 53.254086 
" clip-path="url(#p79e5d1c0ba)" style="fill: none; stroke-dasharray: 5.12,1.28,0.8,1.28; stroke-dashoffset: 0; stroke: #b0b0b0; stroke-width: 0.8"/>
     </g>
     <g id="line2d_38">
      <g>
       <use xlink:href="#m7490e28ae3" x="108" y="53.254086" style="fill: #a9a9a9; stroke: #a9a9a9; stroke-width: 0.8"/>
      </g>
     </g>
     <g id="text_19">
      <!-- 5600 -->
      <g style="fill: #a9a9a9" transform="translate(75.55 57.053305) scale(0.1 -0.1)">
       <defs>
        <path id="DejaVuSans-35" d="M 691 4666 
L 3169 4666 
L 3169 4134 
L 1269 4134 
L 1269 2991 
Q 1406 3038 1543 3061 
Q 1681 3084 1819 3084 
Q 2600 3084 3056 2656 
Q 3513 2228 3513 1497 
Q 3513 744 3044 326 
Q 2575 -91 1722 -91 
Q 1428 -91 1123 -41 
Q 819 9 494 109 
L 494 744 
Q 775 591 1075 516 
Q 1375 441 1709 441 
Q 2250 441 2565 725 
Q 2881 1009 2881 1497 
Q 2881 1984 2565 2268 
Q 2250 2553 1709 2553 
Q 1456 2553 1204 2497 
Q 953 2441 691 2322 
L 691 4666 
z
" transform="scale(0.015625)"/>
       </defs>
       <use xlink:href="#DejaVuSans-35"/>
       <use xlink:href="#DejaVuSans-36" x="63.623047"/>
       <use xlink:href="#DejaVuSans-30" x="127.246094"/>
       <use xlink:href="#DejaVuSans-30" x="190.869141"/>
      </g>
     </g>
    </g>
   </g>
   <g id="line2d_39">
    <path d="M 138.436364 307.709075 
L 142.406324 307.390835 
L 143.067984 307.118059 
L 145.052964 306.890745 
L 149.684585 306.026953 
L 152.992885 305.708714 
L 153.654545 305.390474 
L 154.316206 305.208623 
L 154.977866 304.390294 
L 155.639526 303.935667 
L 156.301186 302.526321 
L 156.962846 302.435396 
L 157.624506 301.935306 
L 158.947826 301.298827 
L 161.594466 299.298467 
L 162.917787 298.752914 
L 163.579447 298.298286 
L 166.226087 297.161717 
L 166.887747 296.116074 
L 168.211067 295.161357 
L 168.872727 294.843117 
L 175.489328 293.933863 
L 176.150988 293.615623 
L 180.782609 293.251921 
L 182.767589 292.751831 
L 188.72253 291.978964 
L 189.38419 291.615262 
L 190.04585 291.524337 
L 190.70751 291.251561 
L 192.03083 291.024247 
L 192.69249 290.978784 
L 193.35415 290.75147 
L 196.000791 290.342306 
L 197.324111 289.978604 
L 199.309091 289.796753 
L 200.632411 289.660364 
L 201.294071 289.478513 
L 201.955731 289.433051 
L 203.940711 288.842035 
L 207.910672 288.251019 
L 208.572332 288.069168 
L 209.233992 287.159913 
L 211.218972 286.432509 
L 213.203953 285.886957 
L 213.865613 285.568717 
L 214.527273 285.523255 
L 217.835573 284.614 
L 219.158893 284.523074 
L 219.820553 284.432149 
L 221.805534 283.841133 
L 224.452174 283.204655 
L 225.113834 282.931878 
L 225.775494 282.840953 
L 226.437154 282.522713 
L 233.053755 281.522533 
L 236.362055 280.613278 
L 237.023715 280.204113 
L 239.670356 279.476709 
L 240.993676 278.703843 
L 241.655336 278.249215 
L 243.640316 277.885513 
L 247.610277 276.703482 
L 248.933597 276.294317 
L 249.595257 276.203392 
L 250.918577 275.83969 
L 252.241897 275.52145 
L 252.903557 275.430525 
L 254.226877 274.884972 
L 254.888538 274.748584 
L 255.550198 274.475807 
L 256.211858 274.384882 
L 256.873518 274.066643 
L 257.535178 273.884792 
L 258.858498 273.793866 
L 260.181818 273.339239 
L 261.505138 273.248313 
L 262.166798 272.930074 
L 264.813439 272.475447 
L 267.460079 272.248133 
L 268.121739 272.111745 
L 269.445059 271.475266 
L 276.72332 268.429262 
L 277.38498 268.06556 
L 278.04664 267.338156 
L 278.7083 266.24705 
L 279.36996 265.383258 
L 280.031621 265.201407 
L 280.693281 265.201407 
L 282.016601 264.24669 
L 282.678261 264.064839 
L 283.339921 263.701137 
L 284.001581 263.564748 
L 284.663241 262.973733 
L 285.324901 262.791882 
L 287.309881 261.837164 
L 287.971542 261.018835 
L 288.633202 260.018654 
L 289.294862 259.609489 
L 289.956522 258.518384 
L 290.618182 257.836442 
L 291.279842 257.518203 
L 291.941502 257.336352 
L 294.588142 255.790619 
L 295.911462 254.744976 
L 296.573123 254.335811 
L 297.234783 253.381093 
L 297.896443 251.880823 
L 298.558103 250.926105 
L 299.219763 250.426015 
L 299.881423 250.153238 
L 302.528063 247.880101 
L 303.189723 247.425474 
L 304.513043 246.288905 
L 305.174704 245.37965 
L 306.498024 244.243081 
L 309.144664 242.56096 
L 309.806324 241.969944 
L 310.467984 241.833556 
L 312.452964 240.787913 
L 314.437945 239.787732 
L 315.761265 238.560238 
L 316.422925 237.787371 
L 317.746245 236.878117 
L 318.407905 236.696266 
L 319.069565 236.378026 
L 320.392885 235.514234 
L 321.054545 235.150532 
L 321.716206 235.059607 
L 323.039526 234.332203 
L 323.701186 233.968501 
L 324.362846 233.28656 
L 325.024506 232.877395 
L 325.686166 232.650081 
L 326.347826 232.195454 
L 328.994466 230.831571 
L 329.656126 230.240556 
L 332.302767 229.376763 
L 332.964427 228.922136 
L 333.626087 228.785748 
L 334.949407 228.33112 
L 336.934387 227.558254 
L 338.919368 226.83085 
L 340.242688 226.603536 
L 341.566008 225.466967 
L 342.889328 224.830489 
L 344.874308 223.69392 
L 346.197628 223.330218 
L 346.859289 222.921054 
L 347.520949 222.739203 
L 348.844269 221.87541 
L 349.505929 221.511708 
L 352.814229 220.738842 
L 354.799209 219.602273 
L 355.46087 219.511348 
L 356.12253 219.284034 
L 357.44585 219.011257 
L 359.43083 217.55645 
L 361.41581 217.101822 
L 362.07747 216.874508 
L 362.73913 216.374418 
L 366.709091 215.101461 
L 367.370751 215.055999 
L 372.002372 213.41934 
L 372.664032 213.1011 
L 374.649012 212.646473 
L 375.972332 212.328234 
L 376.633992 212.009995 
L 377.295652 211.873606 
L 379.280632 210.964351 
L 381.265613 210.009634 
L 381.927273 209.555006 
L 382.588933 209.373155 
L 384.573913 208.327512 
L 385.897233 208.009273 
L 387.220553 207.327332 
L 388.543874 206.96363 
L 389.205534 206.872704 
L 389.867194 206.418077 
L 390.528854 206.099838 
L 391.190514 205.963449 
L 392.513834 205.417896 
L 393.175494 205.281508 
L 393.837154 204.917806 
L 396.483794 204.508642 
L 397.807115 203.872163 
L 398.468775 203.32661 
L 399.130435 202.190041 
L 400.453755 201.917265 
L 401.115415 201.780877 
L 403.762055 200.416994 
L 404.423715 200.280606 
L 409.716996 197.734692 
L 411.701976 197.325528 
L 412.363636 196.961826 
L 416.333597 195.597943 
L 417.656917 194.779614 
L 418.318577 194.324986 
L 418.980237 194.006747 
L 419.641897 193.915822 
L 420.303557 193.688508 
L 420.965217 193.643045 
L 424.273518 192.779253 
L 424.935178 192.279163 
L 426.258498 191.824535 
L 428.243478 191.188057 
L 428.905138 190.778892 
L 429.566798 190.597041 
L 430.228458 190.142414 
L 430.890119 189.869637 
L 431.551779 189.460473 
L 432.213439 189.187696 
L 433.536759 188.869457 
L 435.521739 188.09659 
L 436.183399 187.5965 
L 436.845059 186.914559 
L 437.506719 186.550857 
L 438.168379 186.414469 
L 439.4917 185.414288 
L 440.15336 185.2779 
L 440.81502 184.27772 
L 441.47668 184.004943 
L 442.13834 183.504853 
L 442.8 183.413927 
L 443.46166 182.9593 
L 444.12332 182.641061 
L 444.78498 182.504673 
L 445.44664 182.231896 
L 446.1083 181.731806 
L 446.76996 181.504492 
L 448.754941 180.186073 
L 451.401581 178.867653 
L 452.063241 178.776727 
L 453.386561 178.185712 
L 454.048221 177.82201 
L 454.709881 176.730904 
L 455.371542 176.139888 
L 456.033202 175.776186 
L 456.694862 175.639798 
L 458.018182 174.821469 
L 458.679842 174.68508 
L 460.003162 174.048602 
L 461.988142 173.230272 
L 463.311462 172.321017 
L 464.634783 170.957135 
L 465.958103 170.138806 
L 466.619763 169.729641 
L 467.281423 169.0477 
L 467.943083 168.593072 
L 469.266403 167.501966 
L 469.928063 167.22919 
L 470.589723 166.501786 
L 471.251383 166.001696 
L 472.574704 165.547068 
L 473.236364 165.001515 
L 474.559684 164.319574 
L 475.221344 164.137723 
L 475.883004 163.683096 
L 476.544664 163.546708 
L 478.529644 162.501064 
L 479.191304 162.046437 
L 480.514625 161.500884 
L 481.176285 161.364496 
L 481.837945 160.955331 
L 485.146245 159.909688 
L 485.807905 159.727837 
L 486.469565 159.409598 
L 487.131225 158.818582 
L 489.116206 158.091178 
L 490.439526 157.682013 
L 491.101186 157.181923 
L 493.747826 155.818041 
L 494.409486 155.454339 
L 495.732806 152.862962 
L 497.056126 151.317229 
L 497.717787 150.862601 
L 499.702767 149.998809 
L 500.364427 149.771496 
L 501.026087 149.68057 
L 501.687747 149.316868 
L 503.672727 148.725852 
L 506.319368 147.543821 
L 506.981028 147.134656 
L 508.304348 146.680029 
L 512.274308 144.406892 
L 512.935968 143.72495 
L 514.259289 142.997546 
L 514.920949 142.633844 
L 515.582609 142.406531 
L 516.244269 141.951903 
L 517.567589 141.315425 
L 519.552569 140.269782 
L 520.214229 140.087931 
L 520.875889 139.587841 
L 521.537549 139.315064 
L 522.199209 139.178676 
L 523.52253 138.724048 
L 525.50751 137.996644 
L 526.16917 137.496554 
L 527.49249 137.132852 
L 528.81581 136.632762 
L 529.47747 136.087209 
L 530.800791 135.678044 
L 531.462451 135.359805 
L 532.124111 135.177954 
L 533.447431 134.268699 
L 534.770751 133.677684 
L 536.094071 132.677503 
L 537.417391 132.222876 
L 538.079051 131.677323 
L 538.740711 131.586397 
L 540.064032 130.63168 
L 541.387352 129.995201 
L 542.049012 129.722425 
L 542.710672 129.040483 
L 546.680632 127.585676 
L 548.665613 126.721883 
L 550.650593 126.130868 
L 551.973913 125.949017 
L 552.635573 125.67624 
L 553.297233 125.585315 
L 554.620553 125.039762 
L 555.282213 124.994299 
L 557.928854 124.039581 
L 559.913834 122.675699 
L 563.883794 120.720801 
L 565.207115 119.902472 
L 565.868775 119.493307 
L 567.192095 119.175068 
L 568.515415 118.265813 
L 571.162055 117.447483 
L 571.823715 117.174707 
L 573.147036 116.856468 
L 576.455336 115.765362 
L 578.440316 115.40166 
L 579.101976 115.219809 
L 579.763636 114.90157 
L 580.425296 114.810644 
L 581.748617 114.265091 
L 582.410277 114.174166 
L 583.071937 113.855926 
L 584.395257 113.58315 
L 585.056917 113.264911 
L 587.041897 112.810283 
L 588.365217 112.537507 
L 592.335178 111.810103 
L 593.658498 111.537326 
L 594.320158 111.400938 
L 594.981818 111.128162 
L 595.643478 111.082699 
L 597.628458 110.537146 
L 598.290119 110.173444 
L 601.598419 109.355115 
L 602.260079 109.218726 
L 603.583399 108.764099 
L 605.568379 108.082158 
L 606.23004 107.991232 
L 608.21502 107.309291 
L 608.87668 107.309291 
L 610.2 106.854664 
L 610.86166 106.218185 
L 611.52332 105.899946 
L 612.84664 105.490781 
L 615.493281 104.490601 
L 616.154941 104.354213 
L 616.816601 103.945048 
L 617.478261 103.80866 
L 618.139921 103.399495 
L 621.448221 102.444777 
L 622.109881 102.035612 
L 622.771542 101.853762 
L 623.433202 101.308209 
L 625.418182 100.944507 
L 626.741502 100.217103 
L 627.403162 99.489699 
L 628.726482 99.216922 
L 633.358103 98.171279 
L 634.019763 97.989428 
L 635.343083 97.943965 
L 636.004743 97.625726 
L 638.651383 97.171099 
L 639.313043 96.852859 
L 641.298024 96.580083 
L 643.944664 95.761754 
L 645.929644 95.307126 
L 647.914625 94.807036 
L 650.561265 93.988706 
L 651.222925 93.852318 
L 651.884585 93.534079 
L 652.546245 93.443154 
L 653.207905 93.21584 
L 653.869565 92.806675 
L 655.854545 92.079271 
L 656.516206 91.579181 
L 657.839526 91.215479 
L 658.501186 90.942703 
L 659.824506 90.579001 
L 662.471146 89.396969 
L 664.456126 89.260581 
L 667.102767 88.442251 
L 667.764427 88.033087 
L 669.087747 87.623922 
L 671.072727 86.623742 
L 671.734387 86.487353 
L 672.396047 86.169114 
L 673.057708 86.078189 
L 680.335968 83.668663 
L 682.982609 83.032185 
L 683.644269 82.850334 
L 684.967589 82.213855 
L 685.629249 82.12293 
L 686.952569 81.759228 
L 687.614229 81.259138 
L 688.275889 80.940898 
L 688.937549 80.168032 
L 689.599209 79.667942 
L 690.92253 79.258777 
L 691.58419 78.713224 
L 698.862451 75.758145 
L 700.185771 75.439906 
L 701.509091 74.84889 
L 703.494071 73.666859 
L 704.155731 73.530471 
L 704.817391 73.030381 
L 706.140711 72.393902 
L 707.464032 71.575573 
L 709.449012 70.666318 
L 710.110672 70.21169 
L 711.433992 69.7116 
L 712.095652 69.256973 
L 713.418972 68.620494 
L 714.080632 68.165867 
L 715.403953 67.711239 
L 716.065613 67.574851 
L 718.712253 66.39282 
L 722.020553 65.256251 
L 722.682213 65.210788 
L 723.343874 65.028937 
L 724.005534 64.619773 
L 724.667194 64.528847 
L 725.328854 64.210608 
L 727.313834 63.801443 
L 730.622134 62.119322 
L 731.945455 61.391918 
L 732.607115 61.300992 
L 734.592095 60.209886 
L 736.577075 59.482482 
L 738.562055 58.61869 
L 742.532016 56.936569 
L 743.193676 56.891106 
L 743.855336 56.709255 
L 744.516996 56.254627 
L 745.178656 56.209165 
L 746.501976 55.8 
L 747.163636 55.8 
L 747.163636 55.8 
" clip-path="url(#p79e5d1c0ba)" style="fill: none; stroke: #1f77b4; stroke-width: 1.5; stroke-linecap: square"/>
   </g>
   <g id="line2d_40">
    <path d="M 139.098024 307.8 
L 141.083004 307.709075 
L 143.067984 307.663612 
L 147.037945 307.572686 
L 150.346245 307.436298 
L 152.992885 307.436298 
L 153.654545 307.254447 
L 156.301186 307.163522 
L 158.286166 306.936208 
L 160.271146 306.754357 
L 164.241107 306.572506 
L 164.902767 306.572506 
L 165.564427 306.436118 
L 168.211067 306.345192 
L 169.534387 306.254267 
L 174.827668 306.163341 
L 178.135968 306.026953 
L 186.075889 305.936027 
L 189.38419 305.799639 
L 193.35415 305.708714 
L 196.000791 305.617788 
L 201.955731 305.526863 
L 203.940711 305.4814 
L 205.925692 305.435937 
L 207.910672 305.208623 
L 211.880632 305.163161 
L 213.203953 305.072235 
L 217.835573 304.98131 
L 225.113834 304.572145 
L 229.745455 304.48122 
L 231.068775 304.390294 
L 233.053755 304.299369 
L 237.023715 304.117518 
L 239.670356 304.072055 
L 241.655336 303.890204 
L 252.241897 303.253725 
L 254.888538 303.1628 
L 259.520158 302.935486 
L 261.505138 302.844561 
L 268.121739 302.480859 
L 275.4 302.389933 
L 278.04664 302.117157 
L 279.36996 302.026231 
L 287.971542 301.34429 
L 291.941502 300.8442 
L 294.588142 300.753274 
L 299.881423 300.071333 
L 303.189723 299.980408 
L 311.791304 299.298467 
L 315.761265 298.843839 
L 317.746245 298.798376 
L 319.069565 298.707451 
L 321.716206 298.616525 
L 323.039526 298.5256 
L 326.347826 298.207361 
L 327.009486 298.02551 
L 330.979447 297.843659 
L 334.287747 297.752733 
L 342.889328 297.252643 
L 344.874308 297.161717 
L 353.475889 296.661627 
L 358.10751 296.570702 
L 358.76917 296.434314 
L 364.062451 296.343388 
L 368.694071 296.116074 
L 375.972332 296.025149 
L 380.603953 295.797835 
L 385.897233 295.70691 
L 391.190514 295.434133 
L 395.822134 295.343208 
L 408.393676 294.570341 
L 413.686957 294.479415 
L 430.890119 293.38831 
L 434.860079 293.297384 
L 436.845059 293.251921 
L 438.83004 293.206459 
L 440.81502 293.024608 
L 446.1083 292.933682 
L 447.431621 292.706368 
L 448.754941 292.615443 
L 452.063241 292.479055 
L 453.386561 292.388129 
L 454.709881 292.297204 
L 460.664822 292.206278 
L 461.988142 292.06989 
L 464.634783 292.024427 
L 465.296443 291.888039 
L 466.619763 291.797113 
L 467.281423 291.660725 
L 469.266403 291.5698 
L 480.514625 290.887859 
L 482.499605 290.796933 
L 485.807905 290.660545 
L 495.071146 290.569619 
L 499.702767 290.342306 
L 504.996047 290.25138 
L 507.642688 290.160455 
L 510.289328 290.114992 
L 511.612648 289.978604 
L 514.259289 289.887678 
L 520.875889 289.523976 
L 524.84585 289.478513 
L 526.83083 289.296662 
L 528.81581 289.2512 
L 533.447431 289.160274 
L 536.094071 289.069349 
L 542.049012 288.978423 
L 544.695652 288.887498 
L 548.665613 288.796572 
L 555.282213 288.43287 
L 557.267194 288.43287 
L 557.928854 288.296482 
L 559.252174 288.205557 
L 561.898814 288.114631 
L 569.838735 288.023706 
L 573.147036 287.887317 
L 584.395257 287.841855 
L 585.718577 287.750929 
L 587.703557 287.705466 
L 596.305138 287.614541 
L 597.628458 287.523615 
L 604.906719 287.43269 
L 607.55336 287.341764 
L 615.493281 287.296302 
L 616.816601 287.205376 
L 626.741502 287.159913 
L 628.726482 286.978062 
L 639.974704 286.887137 
L 641.959684 286.841674 
L 659.162846 286.750749 
L 661.809486 286.659823 
L 673.719368 286.568898 
L 676.366008 286.477972 
L 680.997628 286.387047 
L 686.290909 286.11427 
L 688.937549 286.023345 
L 691.58419 285.932419 
L 695.55415 285.841494 
L 697.53913 285.796031 
L 700.185771 285.705106 
L 702.170751 285.659643 
L 705.479051 285.568717 
L 706.802372 285.432329 
L 710.772332 285.341404 
L 718.050593 284.932239 
L 721.358893 284.841313 
L 724.005534 284.750388 
L 728.637154 284.659462 
L 731.283794 284.568537 
L 736.577075 284.477611 
L 738.562055 284.432149 
L 741.870356 284.341223 
L 745.840316 284.159372 
L 747.163636 284.159372 
L 747.163636 284.159372 
" clip-path="url(#p79e5d1c0ba)" style="fill: none; stroke: #ff7f0e; stroke-width: 1.5; stroke-linecap: square"/>
   </g>
   <g id="patch_3">
    <path d="M 108 320.4 
L 108 43.2 
" style="fill: none; stroke: #a9a9a9; stroke-width: 0.8; stroke-linejoin: miter; stroke-linecap: square"/>
   </g>
   <g id="patch_4">
    <path d="M 777.6 320.4 
L 777.6 43.2 
" style="fill: none"/>
   </g>
   <g id="patch_5">
    <path d="M 108 320.4 
L 777.6 320.4 
" style="fill: none; stroke: #a9a9a9; stroke-width: 0.8; stroke-linejoin: miter; stroke-linecap: square"/>
   </g>
   <g id="patch_6">
    <path d="M 108 43.2 
L 777.6 43.2 
" style="fill: none"/>
   </g>
   <g id="text_20">
    <!-- get_subscribe history -->
    <g style="fill: #a9a9a9" transform="translate(378.6075 37.2) scale(0.12 -0.12)">
     <defs>
      <path id="DejaVuSans-67" d="M 2906 1791 
Q 2906 2416 2648 2759 
Q 2391 3103 1925 3103 
Q 1463 3103 1205 2759 
Q 947 2416 947 1791 
Q 947 1169 1205 825 
Q 1463 481 1925 481 
Q 2391 481 2648 825 
Q 2906 1169 2906 1791 
z
M 3481 434 
Q 3481 -459 3084 -895 
Q 2688 -1331 1869 -1331 
Q 1566 -1331 1297 -1286 
Q 1028 -1241 775 -1147 
L 775 -588 
Q 1028 -725 1275 -790 
Q 1522 -856 1778 -856 
Q 2344 -856 2625 -561 
Q 2906 -266 2906 331 
L 2906 616 
Q 2728 306 2450 153 
Q 2172 0 1784 0 
Q 1141 0 747 490 
Q 353 981 353 1791 
Q 353 2603 747 3093 
Q 1141 3584 1784 3584 
Q 2172 3584 2450 3431 
Q 2728 3278 2906 2969 
L 2906 3500 
L 3481 3500 
L 3481 434 
z
" transform="scale(0.015625)"/>
      <path id="DejaVuSans-65" d="M 3597 1894 
L 3597 1613 
L 953 1613 
Q 991 1019 1311 708 
Q 1631 397 2203 397 
Q 2534 397 2845 478 
Q 3156 559 3463 722 
L 3463 178 
Q 3153 47 2828 -22 
Q 2503 -91 2169 -91 
Q 1331 -91 842 396 
Q 353 884 353 1716 
Q 353 2575 817 3079 
Q 1281 3584 2069 3584 
Q 2775 3584 3186 3129 
Q 3597 2675 3597 1894 
z
M 3022 2063 
Q 3016 2534 2758 2815 
Q 2500 3097 2075 3097 
Q 1594 3097 1305 2825 
Q 1016 2553 972 2059 
L 3022 2063 
z
" transform="scale(0.015625)"/>
      <path id="DejaVuSans-74" d="M 1172 4494 
L 1172 3500 
L 2356 3500 
L 2356 3053 
L 1172 3053 
L 1172 1153 
Q 1172 725 1289 603 
Q 1406 481 1766 481 
L 2356 481 
L 2356 0 
L 1766 0 
Q 1100 0 847 248 
Q 594 497 594 1153 
L 594 3053 
L 172 3053 
L 172 3500 
L 594 3500 
L 594 4494 
L 1172 4494 
z
" transform="scale(0.015625)"/>
      <path id="DejaVuSans-5f" d="M 3263 -1063 
L 3263 -1509 
L -63 -1509 
L -63 -1063 
L 3263 -1063 
z
" transform="scale(0.015625)"/>
      <path id="DejaVuSans-73" d="M 2834 3397 
L 2834 2853 
Q 2591 2978 2328 3040 
Q 2066 3103 1784 3103 
Q 1356 3103 1142 2972 
Q 928 2841 928 2578 
Q 928 2378 1081 2264 
Q 1234 2150 1697 2047 
L 1894 2003 
Q 2506 1872 2764 1633 
Q 3022 1394 3022 966 
Q 3022 478 2636 193 
Q 2250 -91 1575 -91 
Q 1294 -91 989 -36 
Q 684 19 347 128 
L 347 722 
Q 666 556 975 473 
Q 1284 391 1588 391 
Q 1994 391 2212 530 
Q 2431 669 2431 922 
Q 2431 1156 2273 1281 
Q 2116 1406 1581 1522 
L 1381 1569 
Q 847 1681 609 1914 
Q 372 2147 372 2553 
Q 372 3047 722 3315 
Q 1072 3584 1716 3584 
Q 2034 3584 2315 3537 
Q 2597 3491 2834 3397 
z
" transform="scale(0.015625)"/>
      <path id="DejaVuSans-75" d="M 544 1381 
L 544 3500 
L 1119 3500 
L 1119 1403 
Q 1119 906 1312 657 
Q 1506 409 1894 409 
Q 2359 409 2629 706 
Q 2900 1003 2900 1516 
L 2900 3500 
L 3475 3500 
L 3475 0 
L 2900 0 
L 2900 538 
Q 2691 219 2414 64 
Q 2138 -91 1772 -91 
Q 1169 -91 856 284 
Q 544 659 544 1381 
z
M 1991 3584 
L 1991 3584 
z
" transform="scale(0.015625)"/>
      <path id="DejaVuSans-62" d="M 3116 1747 
Q 3116 2381 2855 2742 
Q 2594 3103 2138 3103 
Q 1681 3103 1420 2742 
Q 1159 2381 1159 1747 
Q 1159 1113 1420 752 
Q 1681 391 2138 391 
Q 2594 391 2855 752 
Q 3116 1113 3116 1747 
z
M 1159 2969 
Q 1341 3281 1617 3432 
Q 1894 3584 2278 3584 
Q 2916 3584 3314 3078 
Q 3713 2572 3713 1747 
Q 3713 922 3314 415 
Q 2916 -91 2278 -91 
Q 1894 -91 1617 61 
Q 1341 213 1159 525 
L 1159 0 
L 581 0 
L 581 4863 
L 1159 4863 
L 1159 2969 
z
" transform="scale(0.015625)"/>
      <path id="DejaVuSans-63" d="M 3122 3366 
L 3122 2828 
Q 2878 2963 2633 3030 
Q 2388 3097 2138 3097 
Q 1578 3097 1268 2742 
Q 959 2388 959 1747 
Q 959 1106 1268 751 
Q 1578 397 2138 397 
Q 2388 397 2633 464 
Q 2878 531 3122 666 
L 3122 134 
Q 2881 22 2623 -34 
Q 2366 -91 2075 -91 
Q 1284 -91 818 406 
Q 353 903 353 1747 
Q 353 2603 823 3093 
Q 1294 3584 2113 3584 
Q 2378 3584 2631 3529 
Q 2884 3475 3122 3366 
z
" transform="scale(0.015625)"/>
      <path id="DejaVuSans-72" d="M 2631 2963 
Q 2534 3019 2420 3045 
Q 2306 3072 2169 3072 
Q 1681 3072 1420 2755 
Q 1159 2438 1159 1844 
L 1159 0 
L 581 0 
L 581 3500 
L 1159 3500 
L 1159 2956 
Q 1341 3275 1631 3429 
Q 1922 3584 2338 3584 
Q 2397 3584 2469 3576 
Q 2541 3569 2628 3553 
L 2631 2963 
z
" transform="scale(0.015625)"/>
      <path id="DejaVuSans-69" d="M 603 3500 
L 1178 3500 
L 1178 0 
L 603 0 
L 603 3500 
z
M 603 4863 
L 1178 4863 
L 1178 4134 
L 603 4134 
L 603 4863 
z
" transform="scale(0.015625)"/>
      <path id="DejaVuSans-20" transform="scale(0.015625)"/>
      <path id="DejaVuSans-68" d="M 3513 2113 
L 3513 0 
L 2938 0 
L 2938 2094 
Q 2938 2591 2744 2837 
Q 2550 3084 2163 3084 
Q 1697 3084 1428 2787 
Q 1159 2491 1159 1978 
L 1159 0 
L 581 0 
L 581 4863 
L 1159 4863 
L 1159 2956 
Q 1366 3272 1645 3428 
Q 1925 3584 2291 3584 
Q 2894 3584 3203 3211 
Q 3513 2838 3513 2113 
z
" transform="scale(0.015625)"/>
      <path id="DejaVuSans-6f" d="M 1959 3097 
Q 1497 3097 1228 2736 
Q 959 2375 959 1747 
Q 959 1119 1226 758 
Q 1494 397 1959 397 
Q 2419 397 2687 759 
Q 2956 1122 2956 1747 
Q 2956 2369 2687 2733 
Q 2419 3097 1959 3097 
z
M 1959 3584 
Q 2709 3584 3137 3096 
Q 3566 2609 3566 1747 
Q 3566 888 3137 398 
Q 2709 -91 1959 -91 
Q 1206 -91 779 398 
Q 353 888 353 1747 
Q 353 2609 779 3096 
Q 1206 3584 1959 3584 
z
" transform="scale(0.015625)"/>
      <path id="DejaVuSans-79" d="M 2059 -325 
Q 1816 -950 1584 -1140 
Q 1353 -1331 966 -1331 
L 506 -1331 
L 506 -850 
L 844 -850 
Q 1081 -850 1212 -737 
Q 1344 -625 1503 -206 
L 1606 56 
L 191 3500 
L 800 3500 
L 1894 763 
L 2988 3500 
L 3597 3500 
L 2059 -325 
z
" transform="scale(0.015625)"/>
     </defs>
     <use xlink:href="#DejaVuSans-67"/>
     <use xlink:href="#DejaVuSans-65" x="63.476562"/>
     <use xlink:href="#DejaVuSans-74" x="125"/>
     <use xlink:href="#DejaVuSans-5f" x="164.208984"/>
     <use xlink:href="#DejaVuSans-73" x="214.208984"/>
     <use xlink:href="#DejaVuSans-75" x="266.308594"/>
     <use xlink:href="#DejaVuSans-62" x="329.6875"/>
     <use xlink:href="#DejaVuSans-73" x="393.164062"/>
     <use xlink:href="#DejaVuSans-63" x="445.263672"/>
     <use xlink:href="#DejaVuSans-72" x="500.244141"/>
     <use xlink:href="#DejaVuSans-69" x="541.357422"/>
     <use xlink:href="#DejaVuSans-62" x="569.140625"/>
     <use xlink:href="#DejaVuSans-65" x="632.617188"/>
     <use xlink:href="#DejaVuSans-20" x="694.140625"/>
     <use xlink:href="#DejaVuSans-68" x="725.927734"/>
     <use xlink:href="#DejaVuSans-69" x="789.306641"/>
     <use xlink:href="#DejaVuSans-73" x="817.089844"/>
     <use xlink:href="#DejaVuSans-74" x="869.189453"/>
     <use xlink:href="#DejaVuSans-6f" x="908.398438"/>
     <use xlink:href="#DejaVuSans-72" x="969.580078"/>
     <use xlink:href="#DejaVuSans-79" x="1010.693359"/>
    </g>
   </g>
   <g id="legend_1">
    <g id="line2d_41">
     <path d="M 815.08 328.498438 
L 825.08 328.498438 
L 835.08 328.498438 
" style="fill: none; stroke: #1f77b4; stroke-width: 1.5; stroke-linecap: square"/>
    </g>
    <g id="text_21">
     <!-- star -->
     <g style="fill: #a9a9a9" transform="translate(843.08 331.998438) scale(0.1 -0.1)">
      <defs>
       <path id="DejaVuSans-61" d="M 2194 1759 
Q 1497 1759 1228 1600 
Q 959 1441 959 1056 
Q 959 750 1161 570 
Q 1363 391 1709 391 
Q 2188 391 2477 730 
Q 2766 1069 2766 1631 
L 2766 1759 
L 2194 1759 
z
M 3341 1997 
L 3341 0 
L 2766 0 
L 2766 531 
Q 2569 213 2275 61 
Q 1981 -91 1556 -91 
Q 1019 -91 701 211 
Q 384 513 384 1019 
Q 384 1609 779 1909 
Q 1175 2209 1959 2209 
L 2766 2209 
L 2766 2266 
Q 2766 2663 2505 2880 
Q 2244 3097 1772 3097 
Q 1472 3097 1187 3025 
Q 903 2953 641 2809 
L 641 3341 
Q 956 3463 1253 3523 
Q 1550 3584 1831 3584 
Q 2591 3584 2966 3190 
Q 3341 2797 3341 1997 
z
" transform="scale(0.015625)"/>
      </defs>
      <use xlink:href="#DejaVuSans-73"/>
      <use xlink:href="#DejaVuSans-74" x="52.099609"/>
      <use xlink:href="#DejaVuSans-61" x="91.308594"/>
      <use xlink:href="#DejaVuSans-72" x="152.587891"/>
     </g>
    </g>
    <g id="line2d_42">
     <path d="M 815.08 343.176562 
L 825.08 343.176562 
L 835.08 343.176562 
" style="fill: none; stroke: #ff7f0e; stroke-width: 1.5; stroke-linecap: square"/>
    </g>
    <g id="text_22">
     <!-- fork -->
     <g style="fill: #a9a9a9" transform="translate(843.08 346.676562) scale(0.1 -0.1)">
      <defs>
       <path id="DejaVuSans-66" d="M 2375 4863 
L 2375 4384 
L 1825 4384 
Q 1516 4384 1395 4259 
Q 1275 4134 1275 3809 
L 1275 3500 
L 2222 3500 
L 2222 3053 
L 1275 3053 
L 1275 0 
L 697 0 
L 697 3053 
L 147 3053 
L 147 3500 
L 697 3500 
L 697 3744 
Q 697 4328 969 4595 
Q 1241 4863 1831 4863 
L 2375 4863 
z
" transform="scale(0.015625)"/>
       <path id="DejaVuSans-6b" d="M 581 4863 
L 1159 4863 
L 1159 1991 
L 2875 3500 
L 3609 3500 
L 1753 1863 
L 3688 0 
L 2938 0 
L 1159 1709 
L 1159 0 
L 581 0 
L 581 4863 
z
" transform="scale(0.015625)"/>
      </defs>
      <use xlink:href="#DejaVuSans-66"/>
      <use xlink:href="#DejaVuSans-6f" x="35.205078"/>
      <use xlink:href="#DejaVuSans-72" x="96.386719"/>
      <use xlink:href="#DejaVuSans-6b" x="137.5"/>
     </g>
    </g>
   </g>
  </g>
 </g>
 <defs>
  <clipPath id="p79e5d1c0ba">
   <rect x="108" y="43.2" width="669.6" height="277.2"/>
  </clipPath>
 </defs>
</svg>
