<?xml version="1.0" encoding="utf-8" standalone="no"?>
<!DOCTYPE svg PUBLIC "-//W3C//DTD SVG 1.1//EN"
  "http://www.w3.org/Graphics/SVG/1.1/DTD/svg11.dtd">
<svg xmlns:xlink="http://www.w3.org/1999/xlink" width="864pt" height="360pt" viewBox="0 0 864 360" xmlns="http://www.w3.org/2000/svg" version="1.1">
 <metadata>
  <rdf:RDF xmlns:dc="http://purl.org/dc/elements/1.1/" xmlns:cc="http://creativecommons.org/ns#" xmlns:rdf="http://www.w3.org/1999/02/22-rdf-syntax-ns#">
   <cc:Work>
    <dc:type rdf:resource="http://purl.org/dc/dcmitype/StillImage"/>
    <dc:date>2024-02-04T20:04:19.015316</dc:date>
    <dc:format>image/svg+xml</dc:format>
    <dc:creator>
     <cc:Agent>
      <dc:title>Matplotlib v3.8.2, https://matplotlib.org/</dc:title>
     </cc:Agent>
    </dc:creator>
   </cc:Work>
  </rdf:RDF>
 </metadata>
 <defs>
  <style type="text/css">*{stroke-linejoin: round; stroke-linecap: butt}</style>
 </defs>
 <g id="figure_1">
  <g id="patch_1">
   <path d="M 0 360 
L 864 360 
L 864 0 
L 0 0 
L 0 360 
z
" style="fill: none; opacity: 0"/>
  </g>
  <g id="axes_1">
   <g id="patch_2">
    <path d="M 108 320.4 
L 777.6 320.4 
L 777.6 43.2 
L 108 43.2 
L 108 320.4 
z
" style="fill: none; opacity: 0"/>
   </g>
   <g id="matplotlib.axis_1">
    <g id="xtick_1">
     <g id="line2d_1">
      <path d="M 123.300442 320.4 
L 123.300442 43.2 
" clip-path="url(#pf414102ccb)" style="fill: none; stroke-dasharray: 5.12,1.28,0.8,1.28; stroke-dashoffset: 0; stroke: #b0b0b0; stroke-width: 0.8"/>
     </g>
     <g id="line2d_2">
      <defs>
       <path id="me3e6999353" d="M 0 0 
L 0 3.5 
" style="stroke: #a9a9a9; stroke-width: 0.8"/>
      </defs>
      <g>
       <use xlink:href="#me3e6999353" x="123.300442" y="320.4" style="fill: #a9a9a9; stroke: #a9a9a9; stroke-width: 0.8"/>
      </g>
     </g>
     <g id="text_1">
      <!-- 2021-07 -->
      <g style="fill: #a9a9a9" transform="translate(102.409036 334.998438) scale(0.1 -0.1)">
       <defs>
        <path id="DejaVuSans-32" d="M 1228 531 
L 3431 531 
L 3431 0 
L 469 0 
L 469 531 
Q 828 903 1448 1529 
Q 2069 2156 2228 2338 
Q 2531 2678 2651 2914 
Q 2772 3150 2772 3378 
Q 2772 3750 2511 3984 
Q 2250 4219 1831 4219 
Q 1534 4219 1204 4116 
Q 875 4013 500 3803 
L 500 4441 
Q 881 4594 1212 4672 
Q 1544 4750 1819 4750 
Q 2544 4750 2975 4387 
Q 3406 4025 3406 3419 
Q 3406 3131 3298 2873 
Q 3191 2616 2906 2266 
Q 2828 2175 2409 1742 
Q 1991 1309 1228 531 
z
" transform="scale(0.015625)"/>
        <path id="DejaVuSans-30" d="M 2034 4250 
Q 1547 4250 1301 3770 
Q 1056 3291 1056 2328 
Q 1056 1369 1301 889 
Q 1547 409 2034 409 
Q 2525 409 2770 889 
Q 3016 1369 3016 2328 
Q 3016 3291 2770 3770 
Q 2525 4250 2034 4250 
z
M 2034 4750 
Q 2819 4750 3233 4129 
Q 3647 3509 3647 2328 
Q 3647 1150 3233 529 
Q 2819 -91 2034 -91 
Q 1250 -91 836 529 
Q 422 1150 422 2328 
Q 422 3509 836 4129 
Q 1250 4750 2034 4750 
z
" transform="scale(0.015625)"/>
        <path id="DejaVuSans-31" d="M 794 531 
L 1825 531 
L 1825 4091 
L 703 3866 
L 703 4441 
L 1819 4666 
L 2450 4666 
L 2450 531 
L 3481 531 
L 3481 0 
L 794 0 
L 794 531 
z
" transform="scale(0.015625)"/>
        <path id="DejaVuSans-2d" d="M 313 2009 
L 1997 2009 
L 1997 1497 
L 313 1497 
L 313 2009 
z
" transform="scale(0.015625)"/>
        <path id="DejaVuSans-37" d="M 525 4666 
L 3525 4666 
L 3525 4397 
L 1831 0 
L 1172 0 
L 2766 4134 
L 525 4134 
L 525 4666 
z
" transform="scale(0.015625)"/>
       </defs>
       <use xlink:href="#DejaVuSans-32"/>
       <use xlink:href="#DejaVuSans-30" x="63.623047"/>
       <use xlink:href="#DejaVuSans-32" x="127.246094"/>
       <use xlink:href="#DejaVuSans-31" x="190.869141"/>
       <use xlink:href="#DejaVuSans-2d" x="254.492188"/>
       <use xlink:href="#DejaVuSans-30" x="290.576172"/>
       <use xlink:href="#DejaVuSans-37" x="354.199219"/>
      </g>
     </g>
    </g>
    <g id="xtick_2">
     <g id="line2d_3">
      <path d="M 183.844128 320.4 
L 183.844128 43.2 
" clip-path="url(#pf414102ccb)" style="fill: none; stroke-dasharray: 5.12,1.28,0.8,1.28; stroke-dashoffset: 0; stroke: #b0b0b0; stroke-width: 0.8"/>
     </g>
     <g id="line2d_4">
      <g>
       <use xlink:href="#me3e6999353" x="183.844128" y="320.4" style="fill: #a9a9a9; stroke: #a9a9a9; stroke-width: 0.8"/>
      </g>
     </g>
     <g id="text_2">
      <!-- 2021-10 -->
      <g style="fill: #a9a9a9" transform="translate(162.952722 334.998438) scale(0.1 -0.1)">
       <use xlink:href="#DejaVuSans-32"/>
       <use xlink:href="#DejaVuSans-30" x="63.623047"/>
       <use xlink:href="#DejaVuSans-32" x="127.246094"/>
       <use xlink:href="#DejaVuSans-31" x="190.869141"/>
       <use xlink:href="#DejaVuSans-2d" x="254.492188"/>
       <use xlink:href="#DejaVuSans-31" x="290.576172"/>
       <use xlink:href="#DejaVuSans-30" x="354.199219"/>
      </g>
     </g>
    </g>
    <g id="xtick_3">
     <g id="line2d_5">
      <path d="M 244.387813 320.4 
L 244.387813 43.2 
" clip-path="url(#pf414102ccb)" style="fill: none; stroke-dasharray: 5.12,1.28,0.8,1.28; stroke-dashoffset: 0; stroke: #b0b0b0; stroke-width: 0.8"/>
     </g>
     <g id="line2d_6">
      <g>
       <use xlink:href="#me3e6999353" x="244.387813" y="320.4" style="fill: #a9a9a9; stroke: #a9a9a9; stroke-width: 0.8"/>
      </g>
     </g>
     <g id="text_3">
      <!-- 2022-01 -->
      <g style="fill: #a9a9a9" transform="translate(223.496407 334.998438) scale(0.1 -0.1)">
       <use xlink:href="#DejaVuSans-32"/>
       <use xlink:href="#DejaVuSans-30" x="63.623047"/>
       <use xlink:href="#DejaVuSans-32" x="127.246094"/>
       <use xlink:href="#DejaVuSans-32" x="190.869141"/>
       <use xlink:href="#DejaVuSans-2d" x="254.492188"/>
       <use xlink:href="#DejaVuSans-30" x="290.576172"/>
       <use xlink:href="#DejaVuSans-31" x="354.199219"/>
      </g>
     </g>
    </g>
    <g id="xtick_4">
     <g id="line2d_7">
      <path d="M 303.615332 320.4 
L 303.615332 43.2 
" clip-path="url(#pf414102ccb)" style="fill: none; stroke-dasharray: 5.12,1.28,0.8,1.28; stroke-dashoffset: 0; stroke: #b0b0b0; stroke-width: 0.8"/>
     </g>
     <g id="line2d_8">
      <g>
       <use xlink:href="#me3e6999353" x="303.615332" y="320.4" style="fill: #a9a9a9; stroke: #a9a9a9; stroke-width: 0.8"/>
      </g>
     </g>
     <g id="text_4">
      <!-- 2022-04 -->
      <g style="fill: #a9a9a9" transform="translate(282.723925 334.998438) scale(0.1 -0.1)">
       <defs>
        <path id="DejaVuSans-34" d="M 2419 4116 
L 825 1625 
L 2419 1625 
L 2419 4116 
z
M 2253 4666 
L 3047 4666 
L 3047 1625 
L 3713 1625 
L 3713 1100 
L 3047 1100 
L 3047 0 
L 2419 0 
L 2419 1100 
L 313 1100 
L 313 1709 
L 2253 4666 
z
" transform="scale(0.015625)"/>
       </defs>
       <use xlink:href="#DejaVuSans-32"/>
       <use xlink:href="#DejaVuSans-30" x="63.623047"/>
       <use xlink:href="#DejaVuSans-32" x="127.246094"/>
       <use xlink:href="#DejaVuSans-32" x="190.869141"/>
       <use xlink:href="#DejaVuSans-2d" x="254.492188"/>
       <use xlink:href="#DejaVuSans-30" x="290.576172"/>
       <use xlink:href="#DejaVuSans-34" x="354.199219"/>
      </g>
     </g>
    </g>
    <g id="xtick_5">
     <g id="line2d_9">
      <path d="M 363.500934 320.4 
L 363.500934 43.2 
" clip-path="url(#pf414102ccb)" style="fill: none; stroke-dasharray: 5.12,1.28,0.8,1.28; stroke-dashoffset: 0; stroke: #b0b0b0; stroke-width: 0.8"/>
     </g>
     <g id="line2d_10">
      <g>
       <use xlink:href="#me3e6999353" x="363.500934" y="320.4" style="fill: #a9a9a9; stroke: #a9a9a9; stroke-width: 0.8"/>
      </g>
     </g>
     <g id="text_5">
      <!-- 2022-07 -->
      <g style="fill: #a9a9a9" transform="translate(342.609527 334.998438) scale(0.1 -0.1)">
       <use xlink:href="#DejaVuSans-32"/>
       <use xlink:href="#DejaVuSans-30" x="63.623047"/>
       <use xlink:href="#DejaVuSans-32" x="127.246094"/>
       <use xlink:href="#DejaVuSans-32" x="190.869141"/>
       <use xlink:href="#DejaVuSans-2d" x="254.492188"/>
       <use xlink:href="#DejaVuSans-30" x="290.576172"/>
       <use xlink:href="#DejaVuSans-37" x="354.199219"/>
      </g>
     </g>
    </g>
    <g id="xtick_6">
     <g id="line2d_11">
      <path d="M 424.044619 320.4 
L 424.044619 43.2 
" clip-path="url(#pf414102ccb)" style="fill: none; stroke-dasharray: 5.12,1.28,0.8,1.28; stroke-dashoffset: 0; stroke: #b0b0b0; stroke-width: 0.8"/>
     </g>
     <g id="line2d_12">
      <g>
       <use xlink:href="#me3e6999353" x="424.044619" y="320.4" style="fill: #a9a9a9; stroke: #a9a9a9; stroke-width: 0.8"/>
      </g>
     </g>
     <g id="text_6">
      <!-- 2022-10 -->
      <g style="fill: #a9a9a9" transform="translate(403.153213 334.998438) scale(0.1 -0.1)">
       <use xlink:href="#DejaVuSans-32"/>
       <use xlink:href="#DejaVuSans-30" x="63.623047"/>
       <use xlink:href="#DejaVuSans-32" x="127.246094"/>
       <use xlink:href="#DejaVuSans-32" x="190.869141"/>
       <use xlink:href="#DejaVuSans-2d" x="254.492188"/>
       <use xlink:href="#DejaVuSans-31" x="290.576172"/>
       <use xlink:href="#DejaVuSans-30" x="354.199219"/>
      </g>
     </g>
    </g>
    <g id="xtick_7">
     <g id="line2d_13">
      <path d="M 484.588305 320.4 
L 484.588305 43.2 
" clip-path="url(#pf414102ccb)" style="fill: none; stroke-dasharray: 5.12,1.28,0.8,1.28; stroke-dashoffset: 0; stroke: #b0b0b0; stroke-width: 0.8"/>
     </g>
     <g id="line2d_14">
      <g>
       <use xlink:href="#me3e6999353" x="484.588305" y="320.4" style="fill: #a9a9a9; stroke: #a9a9a9; stroke-width: 0.8"/>
      </g>
     </g>
     <g id="text_7">
      <!-- 2023-01 -->
      <g style="fill: #a9a9a9" transform="translate(463.696898 334.998438) scale(0.1 -0.1)">
       <defs>
        <path id="DejaVuSans-33" d="M 2597 2516 
Q 3050 2419 3304 2112 
Q 3559 1806 3559 1356 
Q 3559 666 3084 287 
Q 2609 -91 1734 -91 
Q 1441 -91 1130 -33 
Q 819 25 488 141 
L 488 750 
Q 750 597 1062 519 
Q 1375 441 1716 441 
Q 2309 441 2620 675 
Q 2931 909 2931 1356 
Q 2931 1769 2642 2001 
Q 2353 2234 1838 2234 
L 1294 2234 
L 1294 2753 
L 1863 2753 
Q 2328 2753 2575 2939 
Q 2822 3125 2822 3475 
Q 2822 3834 2567 4026 
Q 2313 4219 1838 4219 
Q 1578 4219 1281 4162 
Q 984 4106 628 3988 
L 628 4550 
Q 988 4650 1302 4700 
Q 1616 4750 1894 4750 
Q 2613 4750 3031 4423 
Q 3450 4097 3450 3541 
Q 3450 3153 3228 2886 
Q 3006 2619 2597 2516 
z
" transform="scale(0.015625)"/>
       </defs>
       <use xlink:href="#DejaVuSans-32"/>
       <use xlink:href="#DejaVuSans-30" x="63.623047"/>
       <use xlink:href="#DejaVuSans-32" x="127.246094"/>
       <use xlink:href="#DejaVuSans-33" x="190.869141"/>
       <use xlink:href="#DejaVuSans-2d" x="254.492188"/>
       <use xlink:href="#DejaVuSans-30" x="290.576172"/>
       <use xlink:href="#DejaVuSans-31" x="354.199219"/>
      </g>
     </g>
    </g>
    <g id="xtick_8">
     <g id="line2d_15">
      <path d="M 543.815823 320.4 
L 543.815823 43.2 
" clip-path="url(#pf414102ccb)" style="fill: none; stroke-dasharray: 5.12,1.28,0.8,1.28; stroke-dashoffset: 0; stroke: #b0b0b0; stroke-width: 0.8"/>
     </g>
     <g id="line2d_16">
      <g>
       <use xlink:href="#me3e6999353" x="543.815823" y="320.4" style="fill: #a9a9a9; stroke: #a9a9a9; stroke-width: 0.8"/>
      </g>
     </g>
     <g id="text_8">
      <!-- 2023-04 -->
      <g style="fill: #a9a9a9" transform="translate(522.924417 334.998438) scale(0.1 -0.1)">
       <use xlink:href="#DejaVuSans-32"/>
       <use xlink:href="#DejaVuSans-30" x="63.623047"/>
       <use xlink:href="#DejaVuSans-32" x="127.246094"/>
       <use xlink:href="#DejaVuSans-33" x="190.869141"/>
       <use xlink:href="#DejaVuSans-2d" x="254.492188"/>
       <use xlink:href="#DejaVuSans-30" x="290.576172"/>
       <use xlink:href="#DejaVuSans-34" x="354.199219"/>
      </g>
     </g>
    </g>
    <g id="xtick_9">
     <g id="line2d_17">
      <path d="M 603.701425 320.4 
L 603.701425 43.2 
" clip-path="url(#pf414102ccb)" style="fill: none; stroke-dasharray: 5.12,1.28,0.8,1.28; stroke-dashoffset: 0; stroke: #b0b0b0; stroke-width: 0.8"/>
     </g>
     <g id="line2d_18">
      <g>
       <use xlink:href="#me3e6999353" x="603.701425" y="320.4" style="fill: #a9a9a9; stroke: #a9a9a9; stroke-width: 0.8"/>
      </g>
     </g>
     <g id="text_9">
      <!-- 2023-07 -->
      <g style="fill: #a9a9a9" transform="translate(582.810019 334.998438) scale(0.1 -0.1)">
       <use xlink:href="#DejaVuSans-32"/>
       <use xlink:href="#DejaVuSans-30" x="63.623047"/>
       <use xlink:href="#DejaVuSans-32" x="127.246094"/>
       <use xlink:href="#DejaVuSans-33" x="190.869141"/>
       <use xlink:href="#DejaVuSans-2d" x="254.492188"/>
       <use xlink:href="#DejaVuSans-30" x="290.576172"/>
       <use xlink:href="#DejaVuSans-37" x="354.199219"/>
      </g>
     </g>
    </g>
    <g id="xtick_10">
     <g id="line2d_19">
      <path d="M 664.245111 320.4 
L 664.245111 43.2 
" clip-path="url(#pf414102ccb)" style="fill: none; stroke-dasharray: 5.12,1.28,0.8,1.28; stroke-dashoffset: 0; stroke: #b0b0b0; stroke-width: 0.8"/>
     </g>
     <g id="line2d_20">
      <g>
       <use xlink:href="#me3e6999353" x="664.245111" y="320.4" style="fill: #a9a9a9; stroke: #a9a9a9; stroke-width: 0.8"/>
      </g>
     </g>
     <g id="text_10">
      <!-- 2023-10 -->
      <g style="fill: #a9a9a9" transform="translate(643.353704 334.998438) scale(0.1 -0.1)">
       <use xlink:href="#DejaVuSans-32"/>
       <use xlink:href="#DejaVuSans-30" x="63.623047"/>
       <use xlink:href="#DejaVuSans-32" x="127.246094"/>
       <use xlink:href="#DejaVuSans-33" x="190.869141"/>
       <use xlink:href="#DejaVuSans-2d" x="254.492188"/>
       <use xlink:href="#DejaVuSans-31" x="290.576172"/>
       <use xlink:href="#DejaVuSans-30" x="354.199219"/>
      </g>
     </g>
    </g>
    <g id="xtick_11">
     <g id="line2d_21">
      <path d="M 724.788796 320.4 
L 724.788796 43.2 
" clip-path="url(#pf414102ccb)" style="fill: none; stroke-dasharray: 5.12,1.28,0.8,1.28; stroke-dashoffset: 0; stroke: #b0b0b0; stroke-width: 0.8"/>
     </g>
     <g id="line2d_22">
      <g>
       <use xlink:href="#me3e6999353" x="724.788796" y="320.4" style="fill: #a9a9a9; stroke: #a9a9a9; stroke-width: 0.8"/>
      </g>
     </g>
     <g id="text_11">
      <!-- 2024-01 -->
      <g style="fill: #a9a9a9" transform="translate(703.89739 334.998438) scale(0.1 -0.1)">
       <use xlink:href="#DejaVuSans-32"/>
       <use xlink:href="#DejaVuSans-30" x="63.623047"/>
       <use xlink:href="#DejaVuSans-32" x="127.246094"/>
       <use xlink:href="#DejaVuSans-34" x="190.869141"/>
       <use xlink:href="#DejaVuSans-2d" x="254.492188"/>
       <use xlink:href="#DejaVuSans-30" x="290.576172"/>
       <use xlink:href="#DejaVuSans-31" x="354.199219"/>
      </g>
     </g>
    </g>
   </g>
   <g id="matplotlib.axis_2">
    <g id="ytick_1">
     <g id="line2d_23">
      <path d="M 108 307.84525 
L 777.6 307.84525 
" clip-path="url(#pf414102ccb)" style="fill: none; stroke-dasharray: 5.12,1.28,0.8,1.28; stroke-dashoffset: 0; stroke: #b0b0b0; stroke-width: 0.8"/>
     </g>
     <g id="line2d_24">
      <defs>
       <path id="m16c5e83067" d="M 0 0 
L -3.5 0 
" style="stroke: #a9a9a9; stroke-width: 0.8"/>
      </defs>
      <g>
       <use xlink:href="#m16c5e83067" x="108" y="307.84525" style="fill: #a9a9a9; stroke: #a9a9a9; stroke-width: 0.8"/>
      </g>
     </g>
     <g id="text_12">
      <!-- 0 -->
      <g style="fill: #a9a9a9" transform="translate(94.6375 311.644469) scale(0.1 -0.1)">
       <use xlink:href="#DejaVuSans-30"/>
      </g>
     </g>
    </g>
    <g id="ytick_2">
     <g id="line2d_25">
      <path d="M 108 271.644855 
L 777.6 271.644855 
" clip-path="url(#pf414102ccb)" style="fill: none; stroke-dasharray: 5.12,1.28,0.8,1.28; stroke-dashoffset: 0; stroke: #b0b0b0; stroke-width: 0.8"/>
     </g>
     <g id="line2d_26">
      <g>
       <use xlink:href="#m16c5e83067" x="108" y="271.644855" style="fill: #a9a9a9; stroke: #a9a9a9; stroke-width: 0.8"/>
      </g>
     </g>
     <g id="text_13">
      <!-- 800 -->
      <g style="fill: #a9a9a9" transform="translate(81.9125 275.444074) scale(0.1 -0.1)">
       <defs>
        <path id="DejaVuSans-38" d="M 2034 2216 
Q 1584 2216 1326 1975 
Q 1069 1734 1069 1313 
Q 1069 891 1326 650 
Q 1584 409 2034 409 
Q 2484 409 2743 651 
Q 3003 894 3003 1313 
Q 3003 1734 2745 1975 
Q 2488 2216 2034 2216 
z
M 1403 2484 
Q 997 2584 770 2862 
Q 544 3141 544 3541 
Q 544 4100 942 4425 
Q 1341 4750 2034 4750 
Q 2731 4750 3128 4425 
Q 3525 4100 3525 3541 
Q 3525 3141 3298 2862 
Q 3072 2584 2669 2484 
Q 3125 2378 3379 2068 
Q 3634 1759 3634 1313 
Q 3634 634 3220 271 
Q 2806 -91 2034 -91 
Q 1263 -91 848 271 
Q 434 634 434 1313 
Q 434 1759 690 2068 
Q 947 2378 1403 2484 
z
M 1172 3481 
Q 1172 3119 1398 2916 
Q 1625 2713 2034 2713 
Q 2441 2713 2670 2916 
Q 2900 3119 2900 3481 
Q 2900 3844 2670 4047 
Q 2441 4250 2034 4250 
Q 1625 4250 1398 4047 
Q 1172 3844 1172 3481 
z
" transform="scale(0.015625)"/>
       </defs>
       <use xlink:href="#DejaVuSans-38"/>
       <use xlink:href="#DejaVuSans-30" x="63.623047"/>
       <use xlink:href="#DejaVuSans-30" x="127.246094"/>
      </g>
     </g>
    </g>
    <g id="ytick_3">
     <g id="line2d_27">
      <path d="M 108 235.44446 
L 777.6 235.44446 
" clip-path="url(#pf414102ccb)" style="fill: none; stroke-dasharray: 5.12,1.28,0.8,1.28; stroke-dashoffset: 0; stroke: #b0b0b0; stroke-width: 0.8"/>
     </g>
     <g id="line2d_28">
      <g>
       <use xlink:href="#m16c5e83067" x="108" y="235.44446" style="fill: #a9a9a9; stroke: #a9a9a9; stroke-width: 0.8"/>
      </g>
     </g>
     <g id="text_14">
      <!-- 1600 -->
      <g style="fill: #a9a9a9" transform="translate(75.55 239.243679) scale(0.1 -0.1)">
       <defs>
        <path id="DejaVuSans-36" d="M 2113 2584 
Q 1688 2584 1439 2293 
Q 1191 2003 1191 1497 
Q 1191 994 1439 701 
Q 1688 409 2113 409 
Q 2538 409 2786 701 
Q 3034 994 3034 1497 
Q 3034 2003 2786 2293 
Q 2538 2584 2113 2584 
z
M 3366 4563 
L 3366 3988 
Q 3128 4100 2886 4159 
Q 2644 4219 2406 4219 
Q 1781 4219 1451 3797 
Q 1122 3375 1075 2522 
Q 1259 2794 1537 2939 
Q 1816 3084 2150 3084 
Q 2853 3084 3261 2657 
Q 3669 2231 3669 1497 
Q 3669 778 3244 343 
Q 2819 -91 2113 -91 
Q 1303 -91 875 529 
Q 447 1150 447 2328 
Q 447 3434 972 4092 
Q 1497 4750 2381 4750 
Q 2619 4750 2861 4703 
Q 3103 4656 3366 4563 
z
" transform="scale(0.015625)"/>
       </defs>
       <use xlink:href="#DejaVuSans-31"/>
       <use xlink:href="#DejaVuSans-36" x="63.623047"/>
       <use xlink:href="#DejaVuSans-30" x="127.246094"/>
       <use xlink:href="#DejaVuSans-30" x="190.869141"/>
      </g>
     </g>
    </g>
    <g id="ytick_4">
     <g id="line2d_29">
      <path d="M 108 199.244065 
L 777.6 199.244065 
" clip-path="url(#pf414102ccb)" style="fill: none; stroke-dasharray: 5.12,1.28,0.8,1.28; stroke-dashoffset: 0; stroke: #b0b0b0; stroke-width: 0.8"/>
     </g>
     <g id="line2d_30">
      <g>
       <use xlink:href="#m16c5e83067" x="108" y="199.244065" style="fill: #a9a9a9; stroke: #a9a9a9; stroke-width: 0.8"/>
      </g>
     </g>
     <g id="text_15">
      <!-- 2400 -->
      <g style="fill: #a9a9a9" transform="translate(75.55 203.043284) scale(0.1 -0.1)">
       <use xlink:href="#DejaVuSans-32"/>
       <use xlink:href="#DejaVuSans-34" x="63.623047"/>
       <use xlink:href="#DejaVuSans-30" x="127.246094"/>
       <use xlink:href="#DejaVuSans-30" x="190.869141"/>
      </g>
     </g>
    </g>
    <g id="ytick_5">
     <g id="line2d_31">
      <path d="M 108 163.04367 
L 777.6 163.04367 
" clip-path="url(#pf414102ccb)" style="fill: none; stroke-dasharray: 5.12,1.28,0.8,1.28; stroke-dashoffset: 0; stroke: #b0b0b0; stroke-width: 0.8"/>
     </g>
     <g id="line2d_32">
      <g>
       <use xlink:href="#m16c5e83067" x="108" y="163.04367" style="fill: #a9a9a9; stroke: #a9a9a9; stroke-width: 0.8"/>
      </g>
     </g>
     <g id="text_16">
      <!-- 3200 -->
      <g style="fill: #a9a9a9" transform="translate(75.55 166.842889) scale(0.1 -0.1)">
       <use xlink:href="#DejaVuSans-33"/>
       <use xlink:href="#DejaVuSans-32" x="63.623047"/>
       <use xlink:href="#DejaVuSans-30" x="127.246094"/>
       <use xlink:href="#DejaVuSans-30" x="190.869141"/>
      </g>
     </g>
    </g>
    <g id="ytick_6">
     <g id="line2d_33">
      <path d="M 108 126.843275 
L 777.6 126.843275 
" clip-path="url(#pf414102ccb)" style="fill: none; stroke-dasharray: 5.12,1.28,0.8,1.28; stroke-dashoffset: 0; stroke: #b0b0b0; stroke-width: 0.8"/>
     </g>
     <g id="line2d_34">
      <g>
       <use xlink:href="#m16c5e83067" x="108" y="126.843275" style="fill: #a9a9a9; stroke: #a9a9a9; stroke-width: 0.8"/>
      </g>
     </g>
     <g id="text_17">
      <!-- 4000 -->
      <g style="fill: #a9a9a9" transform="translate(75.55 130.642494) scale(0.1 -0.1)">
       <use xlink:href="#DejaVuSans-34"/>
       <use xlink:href="#DejaVuSans-30" x="63.623047"/>
       <use xlink:href="#DejaVuSans-30" x="127.246094"/>
       <use xlink:href="#DejaVuSans-30" x="190.869141"/>
      </g>
     </g>
    </g>
    <g id="ytick_7">
     <g id="line2d_35">
      <path d="M 108 90.64288 
L 777.6 90.64288 
" clip-path="url(#pf414102ccb)" style="fill: none; stroke-dasharray: 5.12,1.28,0.8,1.28; stroke-dashoffset: 0; stroke: #b0b0b0; stroke-width: 0.8"/>
     </g>
     <g id="line2d_36">
      <g>
       <use xlink:href="#m16c5e83067" x="108" y="90.64288" style="fill: #a9a9a9; stroke: #a9a9a9; stroke-width: 0.8"/>
      </g>
     </g>
     <g id="text_18">
      <!-- 4800 -->
      <g style="fill: #a9a9a9" transform="translate(75.55 94.442099) scale(0.1 -0.1)">
       <use xlink:href="#DejaVuSans-34"/>
       <use xlink:href="#DejaVuSans-38" x="63.623047"/>
       <use xlink:href="#DejaVuSans-30" x="127.246094"/>
       <use xlink:href="#DejaVuSans-30" x="190.869141"/>
      </g>
     </g>
    </g>
    <g id="ytick_8">
     <g id="line2d_37">
      <path d="M 108 54.442485 
L 777.6 54.442485 
" clip-path="url(#pf414102ccb)" style="fill: none; stroke-dasharray: 5.12,1.28,0.8,1.28; stroke-dashoffset: 0; stroke: #b0b0b0; stroke-width: 0.8"/>
     </g>
     <g id="line2d_38">
      <g>
       <use xlink:href="#m16c5e83067" x="108" y="54.442485" style="fill: #a9a9a9; stroke: #a9a9a9; stroke-width: 0.8"/>
      </g>
     </g>
     <g id="text_19">
      <!-- 5600 -->
      <g style="fill: #a9a9a9" transform="translate(75.55 58.241704) scale(0.1 -0.1)">
       <defs>
        <path id="DejaVuSans-35" d="M 691 4666 
L 3169 4666 
L 3169 4134 
L 1269 4134 
L 1269 2991 
Q 1406 3038 1543 3061 
Q 1681 3084 1819 3084 
Q 2600 3084 3056 2656 
Q 3513 2228 3513 1497 
Q 3513 744 3044 326 
Q 2575 -91 1722 -91 
Q 1428 -91 1123 -41 
Q 819 9 494 109 
L 494 744 
Q 775 591 1075 516 
Q 1375 441 1709 441 
Q 2250 441 2565 725 
Q 2881 1009 2881 1497 
Q 2881 1984 2565 2268 
Q 2250 2553 1709 2553 
Q 1456 2553 1204 2497 
Q 953 2441 691 2322 
L 691 4666 
z
" transform="scale(0.015625)"/>
       </defs>
       <use xlink:href="#DejaVuSans-35"/>
       <use xlink:href="#DejaVuSans-36" x="63.623047"/>
       <use xlink:href="#DejaVuSans-30" x="127.246094"/>
       <use xlink:href="#DejaVuSans-30" x="190.869141"/>
      </g>
     </g>
    </g>
   </g>
   <g id="line2d_39">
    <path d="M 138.436364 307.709499 
L 142.384865 307.392746 
L 143.042948 307.121243 
L 145.017199 306.89499 
L 149.623784 306.035231 
L 152.914201 305.718477 
L 153.572285 305.401724 
L 154.230369 305.220722 
L 154.888452 304.406213 
L 155.546536 303.953708 
L 156.204619 302.550943 
L 156.862703 302.460442 
L 157.520786 301.962686 
L 158.836953 301.329179 
L 161.469287 299.338158 
L 162.785455 298.795152 
L 163.443538 298.342647 
L 166.075872 297.211384 
L 166.733956 296.170623 
L 168.050123 295.220363 
L 168.708206 294.903609 
L 175.289042 293.998599 
L 175.947125 293.681846 
L 180.55371 293.319842 
L 182.527961 292.822087 
L 188.450713 292.052828 
L 189.108796 291.690824 
L 189.76688 291.600323 
L 190.424963 291.32882 
L 191.74113 291.102568 
L 192.399214 291.057317 
L 193.057297 290.831065 
L 195.689631 290.42381 
L 197.005799 290.061806 
L 198.980049 289.880804 
L 200.296216 289.745053 
L 200.9543 289.564051 
L 201.612383 289.518801 
L 203.586634 288.930544 
L 207.535135 288.342288 
L 208.193219 288.161286 
L 208.851302 287.256276 
L 210.825553 286.532268 
L 212.799803 285.989262 
L 213.457887 285.672509 
L 214.115971 285.627258 
L 217.406388 284.722248 
L 218.722555 284.631747 
L 219.380639 284.541246 
L 221.354889 283.95299 
L 223.987224 283.319483 
L 224.645307 283.04798 
L 225.303391 282.957479 
L 225.961474 282.640725 
L 232.54231 281.645215 
L 235.832727 280.740205 
L 236.490811 280.33295 
L 239.123145 279.654193 
L 240.439312 278.884934 
L 241.097396 278.43243 
L 243.071646 278.070426 
L 247.020147 276.893913 
L 248.336314 276.486658 
L 248.994398 276.396157 
L 250.310565 276.034153 
L 251.626732 275.7174 
L 252.284816 275.626899 
L 253.600983 275.083893 
L 254.259066 274.948141 
L 254.91715 274.676639 
L 255.575233 274.586138 
L 256.233317 274.269384 
L 256.8914 274.088382 
L 258.207568 273.997881 
L 259.523735 273.545376 
L 260.839902 273.454875 
L 261.497985 273.138122 
L 264.130319 272.685617 
L 266.762654 272.459364 
L 267.420737 272.323613 
L 268.736904 271.690106 
L 275.975823 268.658323 
L 276.633907 268.296319 
L 277.29199 267.572311 
L 277.950074 266.486299 
L 278.608157 265.62654 
L 279.266241 265.445538 
L 279.924324 265.445538 
L 281.240491 264.495277 
L 281.898575 264.314275 
L 282.556658 263.952272 
L 283.214742 263.81652 
L 283.872826 263.228264 
L 284.530909 263.047262 
L 286.50516 262.097001 
L 287.163243 261.282492 
L 287.821327 260.286982 
L 288.47941 259.879727 
L 289.137494 258.793715 
L 289.795577 258.114958 
L 290.453661 257.798204 
L 291.111744 257.617202 
L 293.744079 256.078686 
L 295.060246 255.037924 
L 295.718329 254.63067 
L 296.376413 253.680409 
L 297.034496 252.187143 
L 297.69258 251.236883 
L 298.350663 250.739127 
L 299.008747 250.467624 
L 301.641081 248.2051 
L 302.299165 247.752595 
L 303.615332 246.621332 
L 304.273415 245.716322 
L 305.589582 244.58506 
L 308.221916 242.910792 
L 308.88 242.322535 
L 309.538084 242.186784 
L 311.512334 241.146023 
L 313.486585 240.150512 
L 314.802752 238.928748 
L 315.460835 238.15949 
L 316.777002 237.25448 
L 317.435086 237.073478 
L 318.09317 236.756725 
L 319.409337 235.896965 
L 320.06742 235.534961 
L 320.725504 235.44446 
L 322.041671 234.720453 
L 322.699754 234.358449 
L 323.357838 233.679691 
L 324.015921 233.272437 
L 324.674005 233.046184 
L 325.332088 232.593679 
L 327.964423 231.236164 
L 328.622506 230.647908 
L 331.25484 229.788149 
L 331.912924 229.335644 
L 332.571007 229.199892 
L 333.887174 228.747387 
L 335.861425 227.978129 
L 337.835676 227.254121 
L 339.151843 227.027869 
L 340.46801 225.896606 
L 341.784177 225.263099 
L 343.758428 224.131837 
L 345.074595 223.769833 
L 345.732678 223.362579 
L 346.390762 223.181577 
L 347.706929 222.321817 
L 348.365012 221.959813 
L 351.65543 221.190555 
L 353.629681 220.059293 
L 354.287764 219.968792 
L 354.945848 219.742539 
L 356.262015 219.471036 
L 358.236265 218.02302 
L 360.210516 217.570515 
L 360.8686 217.344263 
L 361.526683 216.846507 
L 365.475184 215.579494 
L 366.133268 215.534243 
L 370.739853 213.905225 
L 371.397936 213.588472 
L 373.372187 213.135967 
L 374.688354 212.819214 
L 375.346437 212.50246 
L 376.004521 212.366709 
L 377.978771 211.461699 
L 379.953022 210.511438 
L 380.611106 210.058933 
L 381.269189 209.877931 
L 383.24344 208.83717 
L 384.559607 208.520417 
L 385.875774 207.841659 
L 387.191941 207.479655 
L 387.850025 207.389154 
L 388.508108 206.936649 
L 389.166192 206.619896 
L 389.824275 206.484144 
L 391.140442 205.941138 
L 391.798526 205.805387 
L 392.456609 205.443383 
L 395.088943 205.036129 
L 396.405111 204.402622 
L 397.063194 203.859616 
L 397.721278 202.728353 
L 399.037445 202.45685 
L 399.695528 202.321099 
L 402.327862 200.963584 
L 402.985946 200.827833 
L 408.250614 198.339055 
L 410.224865 197.931801 
L 410.882948 197.569797 
L 414.83145 196.212282 
L 416.147617 195.397773 
L 416.8057 194.945268 
L 417.463784 194.628515 
L 418.121867 194.538014 
L 418.779951 194.311762 
L 419.438034 194.266511 
L 422.728452 193.406752 
L 423.386536 192.908996 
L 424.702703 192.456491 
L 426.676953 191.822984 
L 427.335037 191.41573 
L 427.99312 191.234728 
L 428.651204 190.782223 
L 429.309287 190.51072 
L 429.967371 190.103466 
L 430.625455 189.831963 
L 431.941622 189.515209 
L 433.915872 188.745951 
L 435.890123 187.252685 
L 436.548206 187.116933 
L 437.864373 186.121422 
L 438.522457 185.985671 
L 439.180541 184.99016 
L 439.838624 184.718657 
L 440.496708 184.220901 
L 441.154791 184.1304 
L 441.812875 183.677895 
L 442.470958 183.361142 
L 443.129042 183.225391 
L 443.787125 182.953888 
L 444.445209 182.456132 
L 445.103292 182.22988 
L 447.077543 180.917615 
L 449.709877 179.605351 
L 450.367961 179.51485 
L 451.684128 178.926594 
L 452.342211 178.56459 
L 453.000295 177.478578 
L 453.658378 176.890321 
L 454.316462 176.528317 
L 454.974545 176.392566 
L 456.290713 175.578057 
L 456.948796 175.442306 
L 458.264963 174.808799 
L 460.239214 173.99429 
L 461.555381 173.08928 
L 462.871548 171.731765 
L 464.187715 170.917256 
L 464.845799 170.510002 
L 465.503882 169.831244 
L 466.161966 169.378739 
L 467.478133 168.292728 
L 468.136216 168.021225 
L 468.7943 167.297217 
L 469.452383 166.799461 
L 470.76855 166.346956 
L 471.426634 165.80395 
L 472.742801 165.125193 
L 473.400885 164.944191 
L 474.058968 164.491686 
L 474.717052 164.355935 
L 476.691302 163.315173 
L 477.349386 162.862668 
L 478.665553 162.319662 
L 479.323636 162.183911 
L 479.98172 161.776656 
L 483.272138 160.735895 
L 483.930221 160.554893 
L 484.588305 160.23814 
L 485.246388 159.649883 
L 487.220639 158.925875 
L 488.536806 158.518621 
L 489.194889 158.020866 
L 491.827224 156.663351 
L 492.485307 156.301347 
L 493.801474 153.722069 
L 495.117641 152.183552 
L 495.775725 151.731047 
L 497.749975 150.871287 
L 498.408059 150.645035 
L 499.066143 150.554534 
L 499.724226 150.19253 
L 501.698477 149.604274 
L 504.330811 148.427761 
L 504.988894 148.020506 
L 506.305061 147.568001 
L 510.253563 145.305477 
L 510.911646 144.626719 
L 512.227813 143.902711 
L 512.885897 143.540707 
L 513.54398 143.314455 
L 514.202064 142.86195 
L 515.518231 142.228443 
L 517.492482 141.187682 
L 518.150565 141.00668 
L 518.808649 140.508924 
L 519.466732 140.237421 
L 520.124816 140.10167 
L 521.440983 139.649165 
L 523.415233 138.925157 
L 524.073317 138.427402 
L 525.389484 138.065398 
L 526.705651 137.567642 
L 527.363735 137.024636 
L 528.679902 136.617382 
L 529.337985 136.300628 
L 529.996069 136.119627 
L 531.312236 135.214617 
L 532.628403 134.62636 
L 533.94457 133.630849 
L 535.260737 133.178344 
L 535.918821 132.635338 
L 536.576904 132.544837 
L 537.893071 131.594577 
L 539.209238 130.96107 
L 539.867322 130.689567 
L 540.525405 130.01081 
L 544.473907 128.562794 
L 546.448157 127.703035 
L 548.422408 127.114778 
L 549.738575 126.933776 
L 550.396658 126.662273 
L 551.054742 126.571772 
L 552.370909 126.028766 
L 553.028993 125.983516 
L 555.661327 125.033256 
L 557.635577 123.675741 
L 561.584079 121.729969 
L 562.900246 120.915461 
L 563.558329 120.508206 
L 564.874496 120.191453 
L 566.190663 119.286443 
L 568.822998 118.471934 
L 569.481081 118.200431 
L 570.797248 117.883678 
L 574.087666 116.797666 
L 576.061916 116.435662 
L 576.72 116.25466 
L 577.378084 115.937906 
L 578.036167 115.847405 
L 579.352334 115.304399 
L 580.010418 115.213898 
L 580.668501 114.897145 
L 581.984668 114.625642 
L 582.642752 114.308888 
L 584.617002 113.856384 
L 585.93317 113.584881 
L 589.881671 112.860873 
L 591.197838 112.58937 
L 591.855921 112.453618 
L 592.514005 112.182115 
L 593.172088 112.136865 
L 595.146339 111.593859 
L 595.804423 111.231855 
L 599.09484 110.417346 
L 599.752924 110.281595 
L 601.069091 109.82909 
L 603.043342 109.150332 
L 603.701425 109.059831 
L 605.675676 108.381074 
L 606.333759 108.381074 
L 607.649926 107.928569 
L 608.30801 107.295062 
L 608.966093 106.978308 
L 610.28226 106.571054 
L 612.914595 105.575543 
L 613.572678 105.439792 
L 614.230762 105.032537 
L 614.888845 104.896786 
L 615.546929 104.489531 
L 618.837346 103.539271 
L 619.49543 103.132017 
L 620.153514 102.951015 
L 620.811597 102.408009 
L 622.785848 102.046005 
L 624.102015 101.321997 
L 624.760098 100.597989 
L 626.076265 100.326486 
L 630.68285 99.285725 
L 631.340934 99.104723 
L 632.657101 99.059472 
L 633.315184 98.742719 
L 635.947518 98.290214 
L 636.605602 97.97346 
L 638.579853 97.701957 
L 641.212187 96.887448 
L 643.186437 96.434943 
L 645.160688 95.937188 
L 647.793022 95.122679 
L 648.451106 94.986928 
L 649.109189 94.670174 
L 649.767273 94.579673 
L 650.425356 94.353421 
L 651.08344 93.946166 
L 653.05769 93.222158 
L 653.715774 92.724403 
L 655.031941 92.362399 
L 655.690025 92.090896 
L 657.006192 91.728892 
L 659.638526 90.552379 
L 661.612776 90.416628 
L 664.245111 89.602119 
L 664.903194 89.194864 
L 666.219361 88.78761 
L 668.193612 87.792099 
L 668.851695 87.656348 
L 669.509779 87.339594 
L 670.167862 87.249093 
L 677.406781 84.850817 
L 680.039115 84.21731 
L 680.697199 84.036308 
L 682.013366 83.402801 
L 682.67145 83.3123 
L 683.987617 82.950296 
L 684.6457 82.452541 
L 685.303784 82.135787 
L 685.961867 81.366529 
L 686.619951 80.868774 
L 687.936118 80.461519 
L 688.594201 79.918513 
L 695.83312 76.977231 
L 697.149287 76.660478 
L 698.465455 76.072221 
L 700.439705 74.895708 
L 701.097789 74.759957 
L 701.755872 74.262201 
L 703.072039 73.628695 
L 704.388206 72.814186 
L 706.362457 71.909176 
L 707.020541 71.456671 
L 708.336708 70.958915 
L 708.994791 70.50641 
L 710.310958 69.872904 
L 710.969042 69.420399 
L 712.285209 68.967894 
L 712.943292 68.832142 
L 715.575627 67.655629 
L 718.866044 66.524367 
L 719.524128 66.479117 
L 720.182211 66.298115 
L 720.840295 65.89086 
L 721.498378 65.800359 
L 722.156462 65.528856 
L 724.130713 65.121602 
L 727.42113 63.447333 
L 728.737297 62.723326 
L 729.395381 62.632825 
L 731.369631 61.546813 
L 733.343882 60.822805 
L 735.318133 59.963045 
L 737.950467 58.922284 
L 738.60855 58.741282 
L 739.266634 58.334028 
L 739.924717 58.288777 
L 740.582801 58.107775 
L 741.240885 57.65527 
L 741.898968 57.61002 
L 743.215135 57.202765 
L 744.531302 56.569258 
L 745.189386 56.478757 
L 745.847469 56.207254 
L 746.505553 56.071503 
L 747.163636 55.8 
L 747.163636 55.8 
" clip-path="url(#pf414102ccb)" style="fill: none; stroke: #1f77b4; stroke-width: 1.5; stroke-linecap: square"/>
   </g>
   <g id="line2d_40">
    <path d="M 139.094447 307.8 
L 141.068698 307.709499 
L 143.042948 307.664249 
L 146.99145 307.573748 
L 150.281867 307.437996 
L 152.914201 307.437996 
L 153.572285 307.256994 
L 156.204619 307.166493 
L 158.17887 306.940241 
L 160.15312 306.759239 
L 164.101622 306.578237 
L 164.759705 306.578237 
L 165.417789 306.442485 
L 168.050123 306.351984 
L 169.36629 306.261483 
L 174.630958 306.170982 
L 177.921376 306.035231 
L 185.818378 305.94473 
L 189.108796 305.808978 
L 193.057297 305.718477 
L 195.689631 305.627976 
L 201.612383 305.537475 
L 203.586634 305.492225 
L 205.560885 305.446974 
L 207.535135 305.220722 
L 211.483636 305.175471 
L 212.799803 305.08497 
L 217.406388 304.994469 
L 224.645307 304.587215 
L 229.251892 304.496714 
L 230.568059 304.406213 
L 232.54231 304.315712 
L 236.490811 304.13471 
L 239.123145 304.08946 
L 241.097396 303.908458 
L 251.626732 303.274951 
L 254.259066 303.18445 
L 258.865651 302.958197 
L 260.839902 302.867696 
L 267.420737 302.505692 
L 274.659656 302.415191 
L 277.29199 302.143688 
L 278.608157 302.053187 
L 287.163243 301.37443 
L 291.111744 300.876674 
L 293.744079 300.786173 
L 299.008747 300.107416 
L 302.299165 300.016915 
L 310.854251 299.338158 
L 314.802752 298.885653 
L 316.777002 298.840402 
L 318.09317 298.749901 
L 320.725504 298.6594 
L 322.041671 298.568899 
L 325.332088 298.252146 
L 325.990172 298.071144 
L 329.938673 297.890142 
L 333.229091 297.799641 
L 341.784177 297.301885 
L 343.758428 297.211384 
L 352.313514 296.713629 
L 356.920098 296.623128 
L 357.578182 296.487377 
L 362.84285 296.396876 
L 367.449435 296.170623 
L 374.688354 296.080122 
L 379.294939 295.85387 
L 384.559607 295.763369 
L 389.824275 295.491866 
L 394.43086 295.401365 
L 406.934447 294.632106 
L 412.199115 294.541605 
L 429.309287 293.455593 
L 433.257789 293.365092 
L 435.232039 293.319842 
L 437.20629 293.274591 
L 439.180541 293.09359 
L 444.445209 293.003089 
L 445.761376 292.776836 
L 447.077543 292.686335 
L 450.367961 292.550584 
L 451.684128 292.460083 
L 453.000295 292.369582 
L 458.923047 292.279081 
L 460.239214 292.143329 
L 462.871548 292.098079 
L 463.529631 291.962327 
L 464.845799 291.871826 
L 465.503882 291.736075 
L 467.478133 291.645574 
L 478.665553 290.966816 
L 480.639803 290.876315 
L 483.930221 290.740564 
L 493.143391 290.650063 
L 497.749975 290.42381 
L 503.014644 290.333309 
L 505.646978 290.242808 
L 508.279312 290.197558 
L 509.595479 290.061806 
L 512.227813 289.971305 
L 518.808649 289.609301 
L 522.75715 289.564051 
L 524.7314 289.383049 
L 526.705651 289.337799 
L 531.312236 289.247298 
L 533.94457 289.156797 
L 539.867322 289.066296 
L 542.499656 288.975795 
L 546.448157 288.885294 
L 553.028993 288.52329 
L 555.003243 288.52329 
L 555.661327 288.387538 
L 556.977494 288.297037 
L 559.609828 288.206536 
L 567.50683 288.116035 
L 570.797248 287.980284 
L 581.984668 287.935033 
L 583.300835 287.844532 
L 585.275086 287.799282 
L 593.830172 287.708781 
L 595.146339 287.61828 
L 602.385258 287.527779 
L 605.017592 287.437278 
L 612.914595 287.392027 
L 614.230762 287.301526 
L 624.102015 287.256276 
L 626.076265 287.075274 
L 637.263686 286.984773 
L 639.237936 286.939522 
L 656.348108 286.849021 
L 658.980442 286.75852 
L 670.825946 286.668019 
L 673.45828 286.577518 
L 678.064865 286.487017 
L 683.329533 286.215514 
L 685.961867 286.125013 
L 688.594201 286.034512 
L 692.542703 285.944011 
L 694.516953 285.898761 
L 697.149287 285.80826 
L 699.123538 285.76301 
L 702.413956 285.672509 
L 703.730123 285.536757 
L 707.678624 285.446256 
L 714.917543 285.039002 
L 718.207961 284.948501 
L 720.840295 284.858 
L 725.44688 284.767499 
L 728.079214 284.676998 
L 733.343882 284.586497 
L 735.318133 284.541246 
L 738.60855 284.450745 
L 742.557052 284.269743 
L 747.163636 284.179242 
L 747.163636 284.179242 
" clip-path="url(#pf414102ccb)" style="fill: none; stroke: #ff7f0e; stroke-width: 1.5; stroke-linecap: square"/>
   </g>
   <g id="patch_3">
    <path d="M 108 320.4 
L 108 43.2 
" style="fill: none; stroke: #a9a9a9; stroke-width: 0.8; stroke-linejoin: miter; stroke-linecap: square"/>
   </g>
   <g id="patch_4">
    <path d="M 777.6 320.4 
L 777.6 43.2 
" style="fill: none"/>
   </g>
   <g id="patch_5">
    <path d="M 108 320.4 
L 777.6 320.4 
" style="fill: none; stroke: #a9a9a9; stroke-width: 0.8; stroke-linejoin: miter; stroke-linecap: square"/>
   </g>
   <g id="patch_6">
    <path d="M 108 43.2 
L 777.6 43.2 
" style="fill: none"/>
   </g>
   <g id="text_20">
    <!-- get_subscribe history -->
    <g style="fill: #a9a9a9" transform="translate(378.6075 37.2) scale(0.12 -0.12)">
     <defs>
      <path id="DejaVuSans-67" d="M 2906 1791 
Q 2906 2416 2648 2759 
Q 2391 3103 1925 3103 
Q 1463 3103 1205 2759 
Q 947 2416 947 1791 
Q 947 1169 1205 825 
Q 1463 481 1925 481 
Q 2391 481 2648 825 
Q 2906 1169 2906 1791 
z
M 3481 434 
Q 3481 -459 3084 -895 
Q 2688 -1331 1869 -1331 
Q 1566 -1331 1297 -1286 
Q 1028 -1241 775 -1147 
L 775 -588 
Q 1028 -725 1275 -790 
Q 1522 -856 1778 -856 
Q 2344 -856 2625 -561 
Q 2906 -266 2906 331 
L 2906 616 
Q 2728 306 2450 153 
Q 2172 0 1784 0 
Q 1141 0 747 490 
Q 353 981 353 1791 
Q 353 2603 747 3093 
Q 1141 3584 1784 3584 
Q 2172 3584 2450 3431 
Q 2728 3278 2906 2969 
L 2906 3500 
L 3481 3500 
L 3481 434 
z
" transform="scale(0.015625)"/>
      <path id="DejaVuSans-65" d="M 3597 1894 
L 3597 1613 
L 953 1613 
Q 991 1019 1311 708 
Q 1631 397 2203 397 
Q 2534 397 2845 478 
Q 3156 559 3463 722 
L 3463 178 
Q 3153 47 2828 -22 
Q 2503 -91 2169 -91 
Q 1331 -91 842 396 
Q 353 884 353 1716 
Q 353 2575 817 3079 
Q 1281 3584 2069 3584 
Q 2775 3584 3186 3129 
Q 3597 2675 3597 1894 
z
M 3022 2063 
Q 3016 2534 2758 2815 
Q 2500 3097 2075 3097 
Q 1594 3097 1305 2825 
Q 1016 2553 972 2059 
L 3022 2063 
z
" transform="scale(0.015625)"/>
      <path id="DejaVuSans-74" d="M 1172 4494 
L 1172 3500 
L 2356 3500 
L 2356 3053 
L 1172 3053 
L 1172 1153 
Q 1172 725 1289 603 
Q 1406 481 1766 481 
L 2356 481 
L 2356 0 
L 1766 0 
Q 1100 0 847 248 
Q 594 497 594 1153 
L 594 3053 
L 172 3053 
L 172 3500 
L 594 3500 
L 594 4494 
L 1172 4494 
z
" transform="scale(0.015625)"/>
      <path id="DejaVuSans-5f" d="M 3263 -1063 
L 3263 -1509 
L -63 -1509 
L -63 -1063 
L 3263 -1063 
z
" transform="scale(0.015625)"/>
      <path id="DejaVuSans-73" d="M 2834 3397 
L 2834 2853 
Q 2591 2978 2328 3040 
Q 2066 3103 1784 3103 
Q 1356 3103 1142 2972 
Q 928 2841 928 2578 
Q 928 2378 1081 2264 
Q 1234 2150 1697 2047 
L 1894 2003 
Q 2506 1872 2764 1633 
Q 3022 1394 3022 966 
Q 3022 478 2636 193 
Q 2250 -91 1575 -91 
Q 1294 -91 989 -36 
Q 684 19 347 128 
L 347 722 
Q 666 556 975 473 
Q 1284 391 1588 391 
Q 1994 391 2212 530 
Q 2431 669 2431 922 
Q 2431 1156 2273 1281 
Q 2116 1406 1581 1522 
L 1381 1569 
Q 847 1681 609 1914 
Q 372 2147 372 2553 
Q 372 3047 722 3315 
Q 1072 3584 1716 3584 
Q 2034 3584 2315 3537 
Q 2597 3491 2834 3397 
z
" transform="scale(0.015625)"/>
      <path id="DejaVuSans-75" d="M 544 1381 
L 544 3500 
L 1119 3500 
L 1119 1403 
Q 1119 906 1312 657 
Q 1506 409 1894 409 
Q 2359 409 2629 706 
Q 2900 1003 2900 1516 
L 2900 3500 
L 3475 3500 
L 3475 0 
L 2900 0 
L 2900 538 
Q 2691 219 2414 64 
Q 2138 -91 1772 -91 
Q 1169 -91 856 284 
Q 544 659 544 1381 
z
M 1991 3584 
L 1991 3584 
z
" transform="scale(0.015625)"/>
      <path id="DejaVuSans-62" d="M 3116 1747 
Q 3116 2381 2855 2742 
Q 2594 3103 2138 3103 
Q 1681 3103 1420 2742 
Q 1159 2381 1159 1747 
Q 1159 1113 1420 752 
Q 1681 391 2138 391 
Q 2594 391 2855 752 
Q 3116 1113 3116 1747 
z
M 1159 2969 
Q 1341 3281 1617 3432 
Q 1894 3584 2278 3584 
Q 2916 3584 3314 3078 
Q 3713 2572 3713 1747 
Q 3713 922 3314 415 
Q 2916 -91 2278 -91 
Q 1894 -91 1617 61 
Q 1341 213 1159 525 
L 1159 0 
L 581 0 
L 581 4863 
L 1159 4863 
L 1159 2969 
z
" transform="scale(0.015625)"/>
      <path id="DejaVuSans-63" d="M 3122 3366 
L 3122 2828 
Q 2878 2963 2633 3030 
Q 2388 3097 2138 3097 
Q 1578 3097 1268 2742 
Q 959 2388 959 1747 
Q 959 1106 1268 751 
Q 1578 397 2138 397 
Q 2388 397 2633 464 
Q 2878 531 3122 666 
L 3122 134 
Q 2881 22 2623 -34 
Q 2366 -91 2075 -91 
Q 1284 -91 818 406 
Q 353 903 353 1747 
Q 353 2603 823 3093 
Q 1294 3584 2113 3584 
Q 2378 3584 2631 3529 
Q 2884 3475 3122 3366 
z
" transform="scale(0.015625)"/>
      <path id="DejaVuSans-72" d="M 2631 2963 
Q 2534 3019 2420 3045 
Q 2306 3072 2169 3072 
Q 1681 3072 1420 2755 
Q 1159 2438 1159 1844 
L 1159 0 
L 581 0 
L 581 3500 
L 1159 3500 
L 1159 2956 
Q 1341 3275 1631 3429 
Q 1922 3584 2338 3584 
Q 2397 3584 2469 3576 
Q 2541 3569 2628 3553 
L 2631 2963 
z
" transform="scale(0.015625)"/>
      <path id="DejaVuSans-69" d="M 603 3500 
L 1178 3500 
L 1178 0 
L 603 0 
L 603 3500 
z
M 603 4863 
L 1178 4863 
L 1178 4134 
L 603 4134 
L 603 4863 
z
" transform="scale(0.015625)"/>
      <path id="DejaVuSans-20" transform="scale(0.015625)"/>
      <path id="DejaVuSans-68" d="M 3513 2113 
L 3513 0 
L 2938 0 
L 2938 2094 
Q 2938 2591 2744 2837 
Q 2550 3084 2163 3084 
Q 1697 3084 1428 2787 
Q 1159 2491 1159 1978 
L 1159 0 
L 581 0 
L 581 4863 
L 1159 4863 
L 1159 2956 
Q 1366 3272 1645 3428 
Q 1925 3584 2291 3584 
Q 2894 3584 3203 3211 
Q 3513 2838 3513 2113 
z
" transform="scale(0.015625)"/>
      <path id="DejaVuSans-6f" d="M 1959 3097 
Q 1497 3097 1228 2736 
Q 959 2375 959 1747 
Q 959 1119 1226 758 
Q 1494 397 1959 397 
Q 2419 397 2687 759 
Q 2956 1122 2956 1747 
Q 2956 2369 2687 2733 
Q 2419 3097 1959 3097 
z
M 1959 3584 
Q 2709 3584 3137 3096 
Q 3566 2609 3566 1747 
Q 3566 888 3137 398 
Q 2709 -91 1959 -91 
Q 1206 -91 779 398 
Q 353 888 353 1747 
Q 353 2609 779 3096 
Q 1206 3584 1959 3584 
z
" transform="scale(0.015625)"/>
      <path id="DejaVuSans-79" d="M 2059 -325 
Q 1816 -950 1584 -1140 
Q 1353 -1331 966 -1331 
L 506 -1331 
L 506 -850 
L 844 -850 
Q 1081 -850 1212 -737 
Q 1344 -625 1503 -206 
L 1606 56 
L 191 3500 
L 800 3500 
L 1894 763 
L 2988 3500 
L 3597 3500 
L 2059 -325 
z
" transform="scale(0.015625)"/>
     </defs>
     <use xlink:href="#DejaVuSans-67"/>
     <use xlink:href="#DejaVuSans-65" x="63.476562"/>
     <use xlink:href="#DejaVuSans-74" x="125"/>
     <use xlink:href="#DejaVuSans-5f" x="164.208984"/>
     <use xlink:href="#DejaVuSans-73" x="214.208984"/>
     <use xlink:href="#DejaVuSans-75" x="266.308594"/>
     <use xlink:href="#DejaVuSans-62" x="329.6875"/>
     <use xlink:href="#DejaVuSans-73" x="393.164062"/>
     <use xlink:href="#DejaVuSans-63" x="445.263672"/>
     <use xlink:href="#DejaVuSans-72" x="500.244141"/>
     <use xlink:href="#DejaVuSans-69" x="541.357422"/>
     <use xlink:href="#DejaVuSans-62" x="569.140625"/>
     <use xlink:href="#DejaVuSans-65" x="632.617188"/>
     <use xlink:href="#DejaVuSans-20" x="694.140625"/>
     <use xlink:href="#DejaVuSans-68" x="725.927734"/>
     <use xlink:href="#DejaVuSans-69" x="789.306641"/>
     <use xlink:href="#DejaVuSans-73" x="817.089844"/>
     <use xlink:href="#DejaVuSans-74" x="869.189453"/>
     <use xlink:href="#DejaVuSans-6f" x="908.398438"/>
     <use xlink:href="#DejaVuSans-72" x="969.580078"/>
     <use xlink:href="#DejaVuSans-79" x="1010.693359"/>
    </g>
   </g>
   <g id="legend_1">
    <g id="line2d_41">
     <path d="M 815.08 328.498438 
L 825.08 328.498438 
L 835.08 328.498438 
" style="fill: none; stroke: #1f77b4; stroke-width: 1.5; stroke-linecap: square"/>
    </g>
    <g id="text_21">
     <!-- star -->
     <g style="fill: #a9a9a9" transform="translate(843.08 331.998438) scale(0.1 -0.1)">
      <defs>
       <path id="DejaVuSans-61" d="M 2194 1759 
Q 1497 1759 1228 1600 
Q 959 1441 959 1056 
Q 959 750 1161 570 
Q 1363 391 1709 391 
Q 2188 391 2477 730 
Q 2766 1069 2766 1631 
L 2766 1759 
L 2194 1759 
z
M 3341 1997 
L 3341 0 
L 2766 0 
L 2766 531 
Q 2569 213 2275 61 
Q 1981 -91 1556 -91 
Q 1019 -91 701 211 
Q 384 513 384 1019 
Q 384 1609 779 1909 
Q 1175 2209 1959 2209 
L 2766 2209 
L 2766 2266 
Q 2766 2663 2505 2880 
Q 2244 3097 1772 3097 
Q 1472 3097 1187 3025 
Q 903 2953 641 2809 
L 641 3341 
Q 956 3463 1253 3523 
Q 1550 3584 1831 3584 
Q 2591 3584 2966 3190 
Q 3341 2797 3341 1997 
z
" transform="scale(0.015625)"/>
      </defs>
      <use xlink:href="#DejaVuSans-73"/>
      <use xlink:href="#DejaVuSans-74" x="52.099609"/>
      <use xlink:href="#DejaVuSans-61" x="91.308594"/>
      <use xlink:href="#DejaVuSans-72" x="152.587891"/>
     </g>
    </g>
    <g id="line2d_42">
     <path d="M 815.08 343.176562 
L 825.08 343.176562 
L 835.08 343.176562 
" style="fill: none; stroke: #ff7f0e; stroke-width: 1.5; stroke-linecap: square"/>
    </g>
    <g id="text_22">
     <!-- fork -->
     <g style="fill: #a9a9a9" transform="translate(843.08 346.676562) scale(0.1 -0.1)">
      <defs>
       <path id="DejaVuSans-66" d="M 2375 4863 
L 2375 4384 
L 1825 4384 
Q 1516 4384 1395 4259 
Q 1275 4134 1275 3809 
L 1275 3500 
L 2222 3500 
L 2222 3053 
L 1275 3053 
L 1275 0 
L 697 0 
L 697 3053 
L 147 3053 
L 147 3500 
L 697 3500 
L 697 3744 
Q 697 4328 969 4595 
Q 1241 4863 1831 4863 
L 2375 4863 
z
" transform="scale(0.015625)"/>
       <path id="DejaVuSans-6b" d="M 581 4863 
L 1159 4863 
L 1159 1991 
L 2875 3500 
L 3609 3500 
L 1753 1863 
L 3688 0 
L 2938 0 
L 1159 1709 
L 1159 0 
L 581 0 
L 581 4863 
z
" transform="scale(0.015625)"/>
      </defs>
      <use xlink:href="#DejaVuSans-66"/>
      <use xlink:href="#DejaVuSans-6f" x="35.205078"/>
      <use xlink:href="#DejaVuSans-72" x="96.386719"/>
      <use xlink:href="#DejaVuSans-6b" x="137.5"/>
     </g>
    </g>
   </g>
  </g>
 </g>
 <defs>
  <clipPath id="pf414102ccb">
   <rect x="108" y="43.2" width="669.6" height="277.2"/>
  </clipPath>
 </defs>
</svg>
