<?xml version="1.0" encoding="utf-8" standalone="no"?>
<!DOCTYPE svg PUBLIC "-//W3C//DTD SVG 1.1//EN"
  "http://www.w3.org/Graphics/SVG/1.1/DTD/svg11.dtd">
<svg xmlns:xlink="http://www.w3.org/1999/xlink" width="864pt" height="360pt" viewBox="0 0 864 360" xmlns="http://www.w3.org/2000/svg" version="1.1">
 <metadata>
  <rdf:RDF xmlns:dc="http://purl.org/dc/elements/1.1/" xmlns:cc="http://creativecommons.org/ns#" xmlns:rdf="http://www.w3.org/1999/02/22-rdf-syntax-ns#">
   <cc:Work>
    <dc:type rdf:resource="http://purl.org/dc/dcmitype/StillImage"/>
    <dc:date>2024-02-02T08:10:15.627115</dc:date>
    <dc:format>image/svg+xml</dc:format>
    <dc:creator>
     <cc:Agent>
      <dc:title>Matplotlib v3.8.2, https://matplotlib.org/</dc:title>
     </cc:Agent>
    </dc:creator>
   </cc:Work>
  </rdf:RDF>
 </metadata>
 <defs>
  <style type="text/css">*{stroke-linejoin: round; stroke-linecap: butt}</style>
 </defs>
 <g id="figure_1">
  <g id="patch_1">
   <path d="M 0 360 
L 864 360 
L 864 0 
L 0 0 
L 0 360 
z
" style="fill: none; opacity: 0"/>
  </g>
  <g id="axes_1">
   <g id="patch_2">
    <path d="M 108 320.4 
L 777.6 320.4 
L 777.6 43.2 
L 108 43.2 
L 108 320.4 
z
" style="fill: none; opacity: 0"/>
   </g>
   <g id="matplotlib.axis_1">
    <g id="xtick_1">
     <g id="line2d_1">
      <path d="M 123.267645 320.4 
L 123.267645 43.2 
" clip-path="url(#p7a670ac9e1)" style="fill: none; stroke-dasharray: 5.12,1.28,0.8,1.28; stroke-dashoffset: 0; stroke: #b0b0b0; stroke-width: 0.8"/>
     </g>
     <g id="line2d_2">
      <defs>
       <path id="m5eb3450c3d" d="M 0 0 
L 0 3.5 
" style="stroke: #a9a9a9; stroke-width: 0.8"/>
      </defs>
      <g>
       <use xlink:href="#m5eb3450c3d" x="123.267645" y="320.4" style="fill: #a9a9a9; stroke: #a9a9a9; stroke-width: 0.8"/>
      </g>
     </g>
     <g id="text_1">
      <!-- 2021-07 -->
      <g style="fill: #a9a9a9" transform="translate(102.376239 334.998438) scale(0.1 -0.1)">
       <defs>
        <path id="DejaVuSans-32" d="M 1228 531 
L 3431 531 
L 3431 0 
L 469 0 
L 469 531 
Q 828 903 1448 1529 
Q 2069 2156 2228 2338 
Q 2531 2678 2651 2914 
Q 2772 3150 2772 3378 
Q 2772 3750 2511 3984 
Q 2250 4219 1831 4219 
Q 1534 4219 1204 4116 
Q 875 4013 500 3803 
L 500 4441 
Q 881 4594 1212 4672 
Q 1544 4750 1819 4750 
Q 2544 4750 2975 4387 
Q 3406 4025 3406 3419 
Q 3406 3131 3298 2873 
Q 3191 2616 2906 2266 
Q 2828 2175 2409 1742 
Q 1991 1309 1228 531 
z
" transform="scale(0.015625)"/>
        <path id="DejaVuSans-30" d="M 2034 4250 
Q 1547 4250 1301 3770 
Q 1056 3291 1056 2328 
Q 1056 1369 1301 889 
Q 1547 409 2034 409 
Q 2525 409 2770 889 
Q 3016 1369 3016 2328 
Q 3016 3291 2770 3770 
Q 2525 4250 2034 4250 
z
M 2034 4750 
Q 2819 4750 3233 4129 
Q 3647 3509 3647 2328 
Q 3647 1150 3233 529 
Q 2819 -91 2034 -91 
Q 1250 -91 836 529 
Q 422 1150 422 2328 
Q 422 3509 836 4129 
Q 1250 4750 2034 4750 
z
" transform="scale(0.015625)"/>
        <path id="DejaVuSans-31" d="M 794 531 
L 1825 531 
L 1825 4091 
L 703 3866 
L 703 4441 
L 1819 4666 
L 2450 4666 
L 2450 531 
L 3481 531 
L 3481 0 
L 794 0 
L 794 531 
z
" transform="scale(0.015625)"/>
        <path id="DejaVuSans-2d" d="M 313 2009 
L 1997 2009 
L 1997 1497 
L 313 1497 
L 313 2009 
z
" transform="scale(0.015625)"/>
        <path id="DejaVuSans-37" d="M 525 4666 
L 3525 4666 
L 3525 4397 
L 1831 0 
L 1172 0 
L 2766 4134 
L 525 4134 
L 525 4666 
z
" transform="scale(0.015625)"/>
       </defs>
       <use xlink:href="#DejaVuSans-32"/>
       <use xlink:href="#DejaVuSans-30" x="63.623047"/>
       <use xlink:href="#DejaVuSans-32" x="127.246094"/>
       <use xlink:href="#DejaVuSans-31" x="190.869141"/>
       <use xlink:href="#DejaVuSans-2d" x="254.492188"/>
       <use xlink:href="#DejaVuSans-30" x="290.576172"/>
       <use xlink:href="#DejaVuSans-37" x="354.199219"/>
      </g>
     </g>
    </g>
    <g id="xtick_2">
     <g id="line2d_3">
      <path d="M 183.942519 320.4 
L 183.942519 43.2 
" clip-path="url(#p7a670ac9e1)" style="fill: none; stroke-dasharray: 5.12,1.28,0.8,1.28; stroke-dashoffset: 0; stroke: #b0b0b0; stroke-width: 0.8"/>
     </g>
     <g id="line2d_4">
      <g>
       <use xlink:href="#m5eb3450c3d" x="183.942519" y="320.4" style="fill: #a9a9a9; stroke: #a9a9a9; stroke-width: 0.8"/>
      </g>
     </g>
     <g id="text_2">
      <!-- 2021-10 -->
      <g style="fill: #a9a9a9" transform="translate(163.051113 334.998438) scale(0.1 -0.1)">
       <use xlink:href="#DejaVuSans-32"/>
       <use xlink:href="#DejaVuSans-30" x="63.623047"/>
       <use xlink:href="#DejaVuSans-32" x="127.246094"/>
       <use xlink:href="#DejaVuSans-31" x="190.869141"/>
       <use xlink:href="#DejaVuSans-2d" x="254.492188"/>
       <use xlink:href="#DejaVuSans-31" x="290.576172"/>
       <use xlink:href="#DejaVuSans-30" x="354.199219"/>
      </g>
     </g>
    </g>
    <g id="xtick_3">
     <g id="line2d_5">
      <path d="M 244.617394 320.4 
L 244.617394 43.2 
" clip-path="url(#p7a670ac9e1)" style="fill: none; stroke-dasharray: 5.12,1.28,0.8,1.28; stroke-dashoffset: 0; stroke: #b0b0b0; stroke-width: 0.8"/>
     </g>
     <g id="line2d_6">
      <g>
       <use xlink:href="#m5eb3450c3d" x="244.617394" y="320.4" style="fill: #a9a9a9; stroke: #a9a9a9; stroke-width: 0.8"/>
      </g>
     </g>
     <g id="text_3">
      <!-- 2022-01 -->
      <g style="fill: #a9a9a9" transform="translate(223.725988 334.998438) scale(0.1 -0.1)">
       <use xlink:href="#DejaVuSans-32"/>
       <use xlink:href="#DejaVuSans-30" x="63.623047"/>
       <use xlink:href="#DejaVuSans-32" x="127.246094"/>
       <use xlink:href="#DejaVuSans-32" x="190.869141"/>
       <use xlink:href="#DejaVuSans-2d" x="254.492188"/>
       <use xlink:href="#DejaVuSans-30" x="290.576172"/>
       <use xlink:href="#DejaVuSans-31" x="354.199219"/>
      </g>
     </g>
    </g>
    <g id="xtick_4">
     <g id="line2d_7">
      <path d="M 303.973249 320.4 
L 303.973249 43.2 
" clip-path="url(#p7a670ac9e1)" style="fill: none; stroke-dasharray: 5.12,1.28,0.8,1.28; stroke-dashoffset: 0; stroke: #b0b0b0; stroke-width: 0.8"/>
     </g>
     <g id="line2d_8">
      <g>
       <use xlink:href="#m5eb3450c3d" x="303.973249" y="320.4" style="fill: #a9a9a9; stroke: #a9a9a9; stroke-width: 0.8"/>
      </g>
     </g>
     <g id="text_4">
      <!-- 2022-04 -->
      <g style="fill: #a9a9a9" transform="translate(283.081843 334.998438) scale(0.1 -0.1)">
       <defs>
        <path id="DejaVuSans-34" d="M 2419 4116 
L 825 1625 
L 2419 1625 
L 2419 4116 
z
M 2253 4666 
L 3047 4666 
L 3047 1625 
L 3713 1625 
L 3713 1100 
L 3047 1100 
L 3047 0 
L 2419 0 
L 2419 1100 
L 313 1100 
L 313 1709 
L 2253 4666 
z
" transform="scale(0.015625)"/>
       </defs>
       <use xlink:href="#DejaVuSans-32"/>
       <use xlink:href="#DejaVuSans-30" x="63.623047"/>
       <use xlink:href="#DejaVuSans-32" x="127.246094"/>
       <use xlink:href="#DejaVuSans-32" x="190.869141"/>
       <use xlink:href="#DejaVuSans-2d" x="254.492188"/>
       <use xlink:href="#DejaVuSans-30" x="290.576172"/>
       <use xlink:href="#DejaVuSans-34" x="354.199219"/>
      </g>
     </g>
    </g>
    <g id="xtick_5">
     <g id="line2d_9">
      <path d="M 363.988614 320.4 
L 363.988614 43.2 
" clip-path="url(#p7a670ac9e1)" style="fill: none; stroke-dasharray: 5.12,1.28,0.8,1.28; stroke-dashoffset: 0; stroke: #b0b0b0; stroke-width: 0.8"/>
     </g>
     <g id="line2d_10">
      <g>
       <use xlink:href="#m5eb3450c3d" x="363.988614" y="320.4" style="fill: #a9a9a9; stroke: #a9a9a9; stroke-width: 0.8"/>
      </g>
     </g>
     <g id="text_5">
      <!-- 2022-07 -->
      <g style="fill: #a9a9a9" transform="translate(343.097208 334.998438) scale(0.1 -0.1)">
       <use xlink:href="#DejaVuSans-32"/>
       <use xlink:href="#DejaVuSans-30" x="63.623047"/>
       <use xlink:href="#DejaVuSans-32" x="127.246094"/>
       <use xlink:href="#DejaVuSans-32" x="190.869141"/>
       <use xlink:href="#DejaVuSans-2d" x="254.492188"/>
       <use xlink:href="#DejaVuSans-30" x="290.576172"/>
       <use xlink:href="#DejaVuSans-37" x="354.199219"/>
      </g>
     </g>
    </g>
    <g id="xtick_6">
     <g id="line2d_11">
      <path d="M 424.663489 320.4 
L 424.663489 43.2 
" clip-path="url(#p7a670ac9e1)" style="fill: none; stroke-dasharray: 5.12,1.28,0.8,1.28; stroke-dashoffset: 0; stroke: #b0b0b0; stroke-width: 0.8"/>
     </g>
     <g id="line2d_12">
      <g>
       <use xlink:href="#m5eb3450c3d" x="424.663489" y="320.4" style="fill: #a9a9a9; stroke: #a9a9a9; stroke-width: 0.8"/>
      </g>
     </g>
     <g id="text_6">
      <!-- 2022-10 -->
      <g style="fill: #a9a9a9" transform="translate(403.772082 334.998438) scale(0.1 -0.1)">
       <use xlink:href="#DejaVuSans-32"/>
       <use xlink:href="#DejaVuSans-30" x="63.623047"/>
       <use xlink:href="#DejaVuSans-32" x="127.246094"/>
       <use xlink:href="#DejaVuSans-32" x="190.869141"/>
       <use xlink:href="#DejaVuSans-2d" x="254.492188"/>
       <use xlink:href="#DejaVuSans-31" x="290.576172"/>
       <use xlink:href="#DejaVuSans-30" x="354.199219"/>
      </g>
     </g>
    </g>
    <g id="xtick_7">
     <g id="line2d_13">
      <path d="M 485.338363 320.4 
L 485.338363 43.2 
" clip-path="url(#p7a670ac9e1)" style="fill: none; stroke-dasharray: 5.12,1.28,0.8,1.28; stroke-dashoffset: 0; stroke: #b0b0b0; stroke-width: 0.8"/>
     </g>
     <g id="line2d_14">
      <g>
       <use xlink:href="#m5eb3450c3d" x="485.338363" y="320.4" style="fill: #a9a9a9; stroke: #a9a9a9; stroke-width: 0.8"/>
      </g>
     </g>
     <g id="text_7">
      <!-- 2023-01 -->
      <g style="fill: #a9a9a9" transform="translate(464.446957 334.998438) scale(0.1 -0.1)">
       <defs>
        <path id="DejaVuSans-33" d="M 2597 2516 
Q 3050 2419 3304 2112 
Q 3559 1806 3559 1356 
Q 3559 666 3084 287 
Q 2609 -91 1734 -91 
Q 1441 -91 1130 -33 
Q 819 25 488 141 
L 488 750 
Q 750 597 1062 519 
Q 1375 441 1716 441 
Q 2309 441 2620 675 
Q 2931 909 2931 1356 
Q 2931 1769 2642 2001 
Q 2353 2234 1838 2234 
L 1294 2234 
L 1294 2753 
L 1863 2753 
Q 2328 2753 2575 2939 
Q 2822 3125 2822 3475 
Q 2822 3834 2567 4026 
Q 2313 4219 1838 4219 
Q 1578 4219 1281 4162 
Q 984 4106 628 3988 
L 628 4550 
Q 988 4650 1302 4700 
Q 1616 4750 1894 4750 
Q 2613 4750 3031 4423 
Q 3450 4097 3450 3541 
Q 3450 3153 3228 2886 
Q 3006 2619 2597 2516 
z
" transform="scale(0.015625)"/>
       </defs>
       <use xlink:href="#DejaVuSans-32"/>
       <use xlink:href="#DejaVuSans-30" x="63.623047"/>
       <use xlink:href="#DejaVuSans-32" x="127.246094"/>
       <use xlink:href="#DejaVuSans-33" x="190.869141"/>
       <use xlink:href="#DejaVuSans-2d" x="254.492188"/>
       <use xlink:href="#DejaVuSans-30" x="290.576172"/>
       <use xlink:href="#DejaVuSans-31" x="354.199219"/>
      </g>
     </g>
    </g>
    <g id="xtick_8">
     <g id="line2d_15">
      <path d="M 544.694218 320.4 
L 544.694218 43.2 
" clip-path="url(#p7a670ac9e1)" style="fill: none; stroke-dasharray: 5.12,1.28,0.8,1.28; stroke-dashoffset: 0; stroke: #b0b0b0; stroke-width: 0.8"/>
     </g>
     <g id="line2d_16">
      <g>
       <use xlink:href="#m5eb3450c3d" x="544.694218" y="320.4" style="fill: #a9a9a9; stroke: #a9a9a9; stroke-width: 0.8"/>
      </g>
     </g>
     <g id="text_8">
      <!-- 2023-04 -->
      <g style="fill: #a9a9a9" transform="translate(523.802812 334.998438) scale(0.1 -0.1)">
       <use xlink:href="#DejaVuSans-32"/>
       <use xlink:href="#DejaVuSans-30" x="63.623047"/>
       <use xlink:href="#DejaVuSans-32" x="127.246094"/>
       <use xlink:href="#DejaVuSans-33" x="190.869141"/>
       <use xlink:href="#DejaVuSans-2d" x="254.492188"/>
       <use xlink:href="#DejaVuSans-30" x="290.576172"/>
       <use xlink:href="#DejaVuSans-34" x="354.199219"/>
      </g>
     </g>
    </g>
    <g id="xtick_9">
     <g id="line2d_17">
      <path d="M 604.709583 320.4 
L 604.709583 43.2 
" clip-path="url(#p7a670ac9e1)" style="fill: none; stroke-dasharray: 5.12,1.28,0.8,1.28; stroke-dashoffset: 0; stroke: #b0b0b0; stroke-width: 0.8"/>
     </g>
     <g id="line2d_18">
      <g>
       <use xlink:href="#m5eb3450c3d" x="604.709583" y="320.4" style="fill: #a9a9a9; stroke: #a9a9a9; stroke-width: 0.8"/>
      </g>
     </g>
     <g id="text_9">
      <!-- 2023-07 -->
      <g style="fill: #a9a9a9" transform="translate(583.818177 334.998438) scale(0.1 -0.1)">
       <use xlink:href="#DejaVuSans-32"/>
       <use xlink:href="#DejaVuSans-30" x="63.623047"/>
       <use xlink:href="#DejaVuSans-32" x="127.246094"/>
       <use xlink:href="#DejaVuSans-33" x="190.869141"/>
       <use xlink:href="#DejaVuSans-2d" x="254.492188"/>
       <use xlink:href="#DejaVuSans-30" x="290.576172"/>
       <use xlink:href="#DejaVuSans-37" x="354.199219"/>
      </g>
     </g>
    </g>
    <g id="xtick_10">
     <g id="line2d_19">
      <path d="M 665.384458 320.4 
L 665.384458 43.2 
" clip-path="url(#p7a670ac9e1)" style="fill: none; stroke-dasharray: 5.12,1.28,0.8,1.28; stroke-dashoffset: 0; stroke: #b0b0b0; stroke-width: 0.8"/>
     </g>
     <g id="line2d_20">
      <g>
       <use xlink:href="#m5eb3450c3d" x="665.384458" y="320.4" style="fill: #a9a9a9; stroke: #a9a9a9; stroke-width: 0.8"/>
      </g>
     </g>
     <g id="text_10">
      <!-- 2023-10 -->
      <g style="fill: #a9a9a9" transform="translate(644.493052 334.998438) scale(0.1 -0.1)">
       <use xlink:href="#DejaVuSans-32"/>
       <use xlink:href="#DejaVuSans-30" x="63.623047"/>
       <use xlink:href="#DejaVuSans-32" x="127.246094"/>
       <use xlink:href="#DejaVuSans-33" x="190.869141"/>
       <use xlink:href="#DejaVuSans-2d" x="254.492188"/>
       <use xlink:href="#DejaVuSans-31" x="290.576172"/>
       <use xlink:href="#DejaVuSans-30" x="354.199219"/>
      </g>
     </g>
    </g>
    <g id="xtick_11">
     <g id="line2d_21">
      <path d="M 726.059332 320.4 
L 726.059332 43.2 
" clip-path="url(#p7a670ac9e1)" style="fill: none; stroke-dasharray: 5.12,1.28,0.8,1.28; stroke-dashoffset: 0; stroke: #b0b0b0; stroke-width: 0.8"/>
     </g>
     <g id="line2d_22">
      <g>
       <use xlink:href="#m5eb3450c3d" x="726.059332" y="320.4" style="fill: #a9a9a9; stroke: #a9a9a9; stroke-width: 0.8"/>
      </g>
     </g>
     <g id="text_11">
      <!-- 2024-01 -->
      <g style="fill: #a9a9a9" transform="translate(705.167926 334.998438) scale(0.1 -0.1)">
       <use xlink:href="#DejaVuSans-32"/>
       <use xlink:href="#DejaVuSans-30" x="63.623047"/>
       <use xlink:href="#DejaVuSans-32" x="127.246094"/>
       <use xlink:href="#DejaVuSans-34" x="190.869141"/>
       <use xlink:href="#DejaVuSans-2d" x="254.492188"/>
       <use xlink:href="#DejaVuSans-30" x="290.576172"/>
       <use xlink:href="#DejaVuSans-31" x="354.199219"/>
      </g>
     </g>
    </g>
   </g>
   <g id="matplotlib.axis_2">
    <g id="ytick_1">
     <g id="line2d_23">
      <path d="M 108 307.845365 
L 777.6 307.845365 
" clip-path="url(#p7a670ac9e1)" style="fill: none; stroke-dasharray: 5.12,1.28,0.8,1.28; stroke-dashoffset: 0; stroke: #b0b0b0; stroke-width: 0.8"/>
     </g>
     <g id="line2d_24">
      <defs>
       <path id="md2106996ea" d="M 0 0 
L -3.5 0 
" style="stroke: #a9a9a9; stroke-width: 0.8"/>
      </defs>
      <g>
       <use xlink:href="#md2106996ea" x="108" y="307.845365" style="fill: #a9a9a9; stroke: #a9a9a9; stroke-width: 0.8"/>
      </g>
     </g>
     <g id="text_12">
      <!-- 0 -->
      <g style="fill: #a9a9a9" transform="translate(94.6375 311.644583) scale(0.1 -0.1)">
       <use xlink:href="#DejaVuSans-30"/>
      </g>
     </g>
    </g>
    <g id="ytick_2">
     <g id="line2d_25">
      <path d="M 108 271.553735 
L 777.6 271.553735 
" clip-path="url(#p7a670ac9e1)" style="fill: none; stroke-dasharray: 5.12,1.28,0.8,1.28; stroke-dashoffset: 0; stroke: #b0b0b0; stroke-width: 0.8"/>
     </g>
     <g id="line2d_26">
      <g>
       <use xlink:href="#md2106996ea" x="108" y="271.553735" style="fill: #a9a9a9; stroke: #a9a9a9; stroke-width: 0.8"/>
      </g>
     </g>
     <g id="text_13">
      <!-- 800 -->
      <g style="fill: #a9a9a9" transform="translate(81.9125 275.352954) scale(0.1 -0.1)">
       <defs>
        <path id="DejaVuSans-38" d="M 2034 2216 
Q 1584 2216 1326 1975 
Q 1069 1734 1069 1313 
Q 1069 891 1326 650 
Q 1584 409 2034 409 
Q 2484 409 2743 651 
Q 3003 894 3003 1313 
Q 3003 1734 2745 1975 
Q 2488 2216 2034 2216 
z
M 1403 2484 
Q 997 2584 770 2862 
Q 544 3141 544 3541 
Q 544 4100 942 4425 
Q 1341 4750 2034 4750 
Q 2731 4750 3128 4425 
Q 3525 4100 3525 3541 
Q 3525 3141 3298 2862 
Q 3072 2584 2669 2484 
Q 3125 2378 3379 2068 
Q 3634 1759 3634 1313 
Q 3634 634 3220 271 
Q 2806 -91 2034 -91 
Q 1263 -91 848 271 
Q 434 634 434 1313 
Q 434 1759 690 2068 
Q 947 2378 1403 2484 
z
M 1172 3481 
Q 1172 3119 1398 2916 
Q 1625 2713 2034 2713 
Q 2441 2713 2670 2916 
Q 2900 3119 2900 3481 
Q 2900 3844 2670 4047 
Q 2441 4250 2034 4250 
Q 1625 4250 1398 4047 
Q 1172 3844 1172 3481 
z
" transform="scale(0.015625)"/>
       </defs>
       <use xlink:href="#DejaVuSans-38"/>
       <use xlink:href="#DejaVuSans-30" x="63.623047"/>
       <use xlink:href="#DejaVuSans-30" x="127.246094"/>
      </g>
     </g>
    </g>
    <g id="ytick_3">
     <g id="line2d_27">
      <path d="M 108 235.262106 
L 777.6 235.262106 
" clip-path="url(#p7a670ac9e1)" style="fill: none; stroke-dasharray: 5.12,1.28,0.8,1.28; stroke-dashoffset: 0; stroke: #b0b0b0; stroke-width: 0.8"/>
     </g>
     <g id="line2d_28">
      <g>
       <use xlink:href="#md2106996ea" x="108" y="235.262106" style="fill: #a9a9a9; stroke: #a9a9a9; stroke-width: 0.8"/>
      </g>
     </g>
     <g id="text_14">
      <!-- 1600 -->
      <g style="fill: #a9a9a9" transform="translate(75.55 239.061325) scale(0.1 -0.1)">
       <defs>
        <path id="DejaVuSans-36" d="M 2113 2584 
Q 1688 2584 1439 2293 
Q 1191 2003 1191 1497 
Q 1191 994 1439 701 
Q 1688 409 2113 409 
Q 2538 409 2786 701 
Q 3034 994 3034 1497 
Q 3034 2003 2786 2293 
Q 2538 2584 2113 2584 
z
M 3366 4563 
L 3366 3988 
Q 3128 4100 2886 4159 
Q 2644 4219 2406 4219 
Q 1781 4219 1451 3797 
Q 1122 3375 1075 2522 
Q 1259 2794 1537 2939 
Q 1816 3084 2150 3084 
Q 2853 3084 3261 2657 
Q 3669 2231 3669 1497 
Q 3669 778 3244 343 
Q 2819 -91 2113 -91 
Q 1303 -91 875 529 
Q 447 1150 447 2328 
Q 447 3434 972 4092 
Q 1497 4750 2381 4750 
Q 2619 4750 2861 4703 
Q 3103 4656 3366 4563 
z
" transform="scale(0.015625)"/>
       </defs>
       <use xlink:href="#DejaVuSans-31"/>
       <use xlink:href="#DejaVuSans-36" x="63.623047"/>
       <use xlink:href="#DejaVuSans-30" x="127.246094"/>
       <use xlink:href="#DejaVuSans-30" x="190.869141"/>
      </g>
     </g>
    </g>
    <g id="ytick_4">
     <g id="line2d_29">
      <path d="M 108 198.970477 
L 777.6 198.970477 
" clip-path="url(#p7a670ac9e1)" style="fill: none; stroke-dasharray: 5.12,1.28,0.8,1.28; stroke-dashoffset: 0; stroke: #b0b0b0; stroke-width: 0.8"/>
     </g>
     <g id="line2d_30">
      <g>
       <use xlink:href="#md2106996ea" x="108" y="198.970477" style="fill: #a9a9a9; stroke: #a9a9a9; stroke-width: 0.8"/>
      </g>
     </g>
     <g id="text_15">
      <!-- 2400 -->
      <g style="fill: #a9a9a9" transform="translate(75.55 202.769696) scale(0.1 -0.1)">
       <use xlink:href="#DejaVuSans-32"/>
       <use xlink:href="#DejaVuSans-34" x="63.623047"/>
       <use xlink:href="#DejaVuSans-30" x="127.246094"/>
       <use xlink:href="#DejaVuSans-30" x="190.869141"/>
      </g>
     </g>
    </g>
    <g id="ytick_5">
     <g id="line2d_31">
      <path d="M 108 162.678848 
L 777.6 162.678848 
" clip-path="url(#p7a670ac9e1)" style="fill: none; stroke-dasharray: 5.12,1.28,0.8,1.28; stroke-dashoffset: 0; stroke: #b0b0b0; stroke-width: 0.8"/>
     </g>
     <g id="line2d_32">
      <g>
       <use xlink:href="#md2106996ea" x="108" y="162.678848" style="fill: #a9a9a9; stroke: #a9a9a9; stroke-width: 0.8"/>
      </g>
     </g>
     <g id="text_16">
      <!-- 3200 -->
      <g style="fill: #a9a9a9" transform="translate(75.55 166.478067) scale(0.1 -0.1)">
       <use xlink:href="#DejaVuSans-33"/>
       <use xlink:href="#DejaVuSans-32" x="63.623047"/>
       <use xlink:href="#DejaVuSans-30" x="127.246094"/>
       <use xlink:href="#DejaVuSans-30" x="190.869141"/>
      </g>
     </g>
    </g>
    <g id="ytick_6">
     <g id="line2d_33">
      <path d="M 108 126.387219 
L 777.6 126.387219 
" clip-path="url(#p7a670ac9e1)" style="fill: none; stroke-dasharray: 5.12,1.28,0.8,1.28; stroke-dashoffset: 0; stroke: #b0b0b0; stroke-width: 0.8"/>
     </g>
     <g id="line2d_34">
      <g>
       <use xlink:href="#md2106996ea" x="108" y="126.387219" style="fill: #a9a9a9; stroke: #a9a9a9; stroke-width: 0.8"/>
      </g>
     </g>
     <g id="text_17">
      <!-- 4000 -->
      <g style="fill: #a9a9a9" transform="translate(75.55 130.186437) scale(0.1 -0.1)">
       <use xlink:href="#DejaVuSans-34"/>
       <use xlink:href="#DejaVuSans-30" x="63.623047"/>
       <use xlink:href="#DejaVuSans-30" x="127.246094"/>
       <use xlink:href="#DejaVuSans-30" x="190.869141"/>
      </g>
     </g>
    </g>
    <g id="ytick_7">
     <g id="line2d_35">
      <path d="M 108 90.09559 
L 777.6 90.09559 
" clip-path="url(#p7a670ac9e1)" style="fill: none; stroke-dasharray: 5.12,1.28,0.8,1.28; stroke-dashoffset: 0; stroke: #b0b0b0; stroke-width: 0.8"/>
     </g>
     <g id="line2d_36">
      <g>
       <use xlink:href="#md2106996ea" x="108" y="90.09559" style="fill: #a9a9a9; stroke: #a9a9a9; stroke-width: 0.8"/>
      </g>
     </g>
     <g id="text_18">
      <!-- 4800 -->
      <g style="fill: #a9a9a9" transform="translate(75.55 93.894808) scale(0.1 -0.1)">
       <use xlink:href="#DejaVuSans-34"/>
       <use xlink:href="#DejaVuSans-38" x="63.623047"/>
       <use xlink:href="#DejaVuSans-30" x="127.246094"/>
       <use xlink:href="#DejaVuSans-30" x="190.869141"/>
      </g>
     </g>
    </g>
    <g id="ytick_8">
     <g id="line2d_37">
      <path d="M 108 53.80396 
L 777.6 53.80396 
" clip-path="url(#p7a670ac9e1)" style="fill: none; stroke-dasharray: 5.12,1.28,0.8,1.28; stroke-dashoffset: 0; stroke: #b0b0b0; stroke-width: 0.8"/>
     </g>
     <g id="line2d_38">
      <g>
       <use xlink:href="#md2106996ea" x="108" y="53.80396" style="fill: #a9a9a9; stroke: #a9a9a9; stroke-width: 0.8"/>
      </g>
     </g>
     <g id="text_19">
      <!-- 5600 -->
      <g style="fill: #a9a9a9" transform="translate(75.55 57.603179) scale(0.1 -0.1)">
       <defs>
        <path id="DejaVuSans-35" d="M 691 4666 
L 3169 4666 
L 3169 4134 
L 1269 4134 
L 1269 2991 
Q 1406 3038 1543 3061 
Q 1681 3084 1819 3084 
Q 2600 3084 3056 2656 
Q 3513 2228 3513 1497 
Q 3513 744 3044 326 
Q 2575 -91 1722 -91 
Q 1428 -91 1123 -41 
Q 819 9 494 109 
L 494 744 
Q 775 591 1075 516 
Q 1375 441 1709 441 
Q 2250 441 2565 725 
Q 2881 1009 2881 1497 
Q 2881 1984 2565 2268 
Q 2250 2553 1709 2553 
Q 1456 2553 1204 2497 
Q 953 2441 691 2322 
L 691 4666 
z
" transform="scale(0.015625)"/>
       </defs>
       <use xlink:href="#DejaVuSans-35"/>
       <use xlink:href="#DejaVuSans-36" x="63.623047"/>
       <use xlink:href="#DejaVuSans-30" x="127.246094"/>
       <use xlink:href="#DejaVuSans-30" x="190.869141"/>
      </g>
     </g>
    </g>
   </g>
   <g id="line2d_39">
    <path d="M 138.436364 307.709271 
L 142.393421 307.391719 
L 143.05293 307.119532 
L 145.031459 306.892709 
L 149.648025 306.030783 
L 152.945573 305.713231 
L 153.605082 305.39568 
L 154.264592 305.214221 
L 154.924101 304.39766 
L 155.583611 303.944014 
L 156.24312 302.537714 
L 156.90263 302.446985 
L 157.562139 301.947975 
L 158.881158 301.312871 
L 161.519196 299.316832 
L 162.838215 298.772457 
L 163.497725 298.318812 
L 166.135763 297.184698 
L 166.795272 296.141314 
L 168.114291 295.188659 
L 168.773801 294.871107 
L 175.368896 293.963816 
L 176.028405 293.646265 
L 180.644972 293.283348 
L 182.6235 292.784338 
L 188.559086 292.013141 
L 189.218595 291.650225 
L 189.878105 291.559496 
L 190.537614 291.287309 
L 191.856634 291.060486 
L 192.516143 291.015122 
L 193.175653 290.788299 
L 195.813691 290.380018 
L 197.13271 290.017102 
L 199.111238 289.835644 
L 200.430257 289.69955 
L 201.089767 289.518092 
L 201.749276 289.472727 
L 203.727805 288.882988 
L 207.684862 288.293249 
L 208.344371 288.111791 
L 209.003881 287.2045 
L 210.982409 286.478668 
L 212.960938 285.934293 
L 213.620447 285.616742 
L 214.279957 285.571377 
L 217.577504 284.664086 
L 218.896523 284.573357 
L 219.556033 284.482628 
L 221.534561 283.892889 
L 224.172599 283.257786 
L 224.832109 282.985599 
L 225.491618 282.894869 
L 226.151128 282.577318 
L 232.746223 281.579298 
L 236.04377 280.672007 
L 236.70328 280.263726 
L 239.341318 279.583258 
L 240.660337 278.812061 
L 241.319846 278.358416 
L 243.298375 277.9955 
L 247.255432 276.816022 
L 248.574451 276.407741 
L 249.23396 276.317012 
L 250.552979 275.954095 
L 251.871998 275.636544 
L 252.531508 275.545815 
L 253.850527 275.00144 
L 254.510036 274.865347 
L 255.169546 274.593159 
L 255.829055 274.50243 
L 256.488565 274.184878 
L 257.148074 274.00342 
L 258.467093 273.912691 
L 259.786112 273.459046 
L 261.105131 273.368317 
L 261.764641 273.050765 
L 264.402679 272.59712 
L 267.040717 272.370297 
L 267.700227 272.234203 
L 269.019246 271.5991 
L 276.27385 268.559676 
L 276.93336 268.19676 
L 277.592869 267.470927 
L 278.252379 266.382178 
L 278.911888 265.520252 
L 279.571398 265.338794 
L 280.230907 265.338794 
L 281.549926 264.386139 
L 282.209436 264.20468 
L 282.868945 263.841764 
L 283.528455 263.705671 
L 284.187964 263.115932 
L 284.847474 262.934473 
L 286.826002 261.981818 
L 287.485512 261.165257 
L 288.145021 260.167237 
L 288.804531 259.758956 
L 289.46404 258.670207 
L 290.12355 257.989739 
L 290.783059 257.672187 
L 291.442569 257.490729 
L 294.080607 255.948335 
L 295.399626 254.90495 
L 296.059135 254.49667 
L 296.718645 253.544014 
L 297.378154 252.046985 
L 298.037664 251.094329 
L 298.697173 250.59532 
L 299.356683 250.323132 
L 301.994721 248.054905 
L 302.65423 247.60126 
L 303.973249 246.467147 
L 304.632759 245.559856 
L 305.951778 244.425743 
L 308.589816 242.747255 
L 309.249325 242.157516 
L 309.908835 242.021422 
L 311.887363 240.978038 
L 313.865892 239.980018 
L 315.184911 238.755176 
L 315.84442 237.983978 
L 317.163439 237.076688 
L 317.822949 236.89523 
L 318.482458 236.577678 
L 319.801477 235.715752 
L 320.460987 235.352835 
L 321.120496 235.262106 
L 322.439515 234.536274 
L 323.099025 234.173357 
L 323.758534 233.492889 
L 324.418044 233.084608 
L 325.077553 232.857786 
L 325.737063 232.40414 
L 328.375101 231.043204 
L 329.03461 230.453465 
L 331.672648 229.591539 
L 332.332158 229.137894 
L 332.991667 229.0018 
L 334.310686 228.548155 
L 336.289215 227.776958 
L 338.267744 227.051125 
L 339.586763 226.824302 
L 340.905782 225.690189 
L 342.224801 225.055086 
L 344.203329 223.920972 
L 345.522348 223.558056 
L 346.181858 223.149775 
L 346.841367 222.968317 
L 348.160386 222.106391 
L 348.819896 221.743474 
L 352.117443 220.972277 
L 354.095972 219.838164 
L 354.755481 219.747435 
L 355.414991 219.520612 
L 356.73401 219.248425 
L 358.712538 217.79676 
L 360.691067 217.343114 
L 361.350576 217.116292 
L 362.010086 216.617282 
L 365.967143 215.347075 
L 366.626652 215.30171 
L 371.243219 213.668587 
L 371.902728 213.351035 
L 373.881257 212.89739 
L 375.200276 212.579838 
L 375.859785 212.262286 
L 376.519295 212.126193 
L 378.497823 211.218902 
L 380.476352 210.266247 
L 381.135861 209.812601 
L 381.795371 209.631143 
L 383.773899 208.587759 
L 385.092918 208.270207 
L 386.411937 207.589739 
L 387.730956 207.226823 
L 388.390466 207.136094 
L 389.049975 206.682448 
L 389.709485 206.364896 
L 390.368994 206.228803 
L 391.688013 205.684428 
L 392.347523 205.548335 
L 393.007032 205.185419 
L 395.64507 204.777138 
L 396.964089 204.142034 
L 397.623599 203.59766 
L 398.283108 202.463546 
L 399.602127 202.191359 
L 400.261637 202.055266 
L 402.899675 200.694329 
L 403.559184 200.558236 
L 408.835261 198.063186 
L 410.813789 197.654905 
L 411.473299 197.291989 
L 415.430356 195.931053 
L 416.749375 195.114491 
L 417.408884 194.660846 
L 418.068394 194.343294 
L 418.727903 194.252565 
L 419.387413 194.025743 
L 420.046922 193.980378 
L 423.34447 193.118452 
L 424.003979 192.619442 
L 425.322998 192.165797 
L 427.301527 191.530693 
L 427.961036 191.122412 
L 428.620546 190.940954 
L 429.280055 190.487309 
L 429.939565 190.215122 
L 430.599074 189.806841 
L 431.258584 189.534653 
L 432.577603 189.217102 
L 434.556131 188.445905 
L 436.53466 186.948875 
L 437.194169 186.812781 
L 438.513188 185.814761 
L 439.172698 185.678668 
L 439.832207 184.680648 
L 440.491717 184.408461 
L 441.151226 183.909451 
L 441.810736 183.818722 
L 442.470245 183.365077 
L 443.129755 183.047525 
L 443.789264 182.911431 
L 444.448774 182.639244 
L 445.108283 182.140234 
L 445.767793 181.913411 
L 447.746321 180.59784 
L 450.384359 179.282268 
L 451.043869 179.191539 
L 452.362888 178.6018 
L 453.022397 178.238884 
L 453.681907 177.150135 
L 454.341416 176.560396 
L 455.000926 176.19748 
L 455.660435 176.061386 
L 456.979454 175.244824 
L 457.638964 175.108731 
L 458.957983 174.473627 
L 460.936511 173.657066 
L 462.25553 172.749775 
L 463.574549 171.388839 
L 464.893568 170.572277 
L 465.553078 170.163996 
L 466.212587 169.483528 
L 466.872097 169.029883 
L 468.191116 167.941134 
L 468.850625 167.668947 
L 469.510135 166.943114 
L 470.169644 166.444104 
L 471.488663 165.990459 
L 472.148173 165.446085 
L 473.467192 164.765617 
L 474.126701 164.584158 
L 474.786211 164.130513 
L 475.44572 163.994419 
L 477.424249 162.951035 
L 478.083758 162.49739 
L 479.402778 161.953015 
L 480.062287 161.816922 
L 480.721797 161.408641 
L 484.019344 160.365257 
L 484.678854 160.183798 
L 485.338363 159.866247 
L 485.997873 159.276508 
L 487.976401 158.550675 
L 489.29542 158.142394 
L 489.95493 157.643384 
L 492.592968 156.282448 
L 493.252477 155.919532 
L 494.571496 153.333753 
L 495.890515 151.791359 
L 496.550025 151.337714 
L 498.528553 150.475788 
L 499.188063 150.248965 
L 499.847572 150.158236 
L 500.507082 149.79532 
L 502.48561 149.205581 
L 505.123648 148.026103 
L 505.783158 147.617822 
L 507.102177 147.164176 
L 511.059234 144.89595 
L 511.718743 144.215482 
L 513.037762 143.489649 
L 513.697272 143.126733 
L 514.356781 142.89991 
L 515.016291 142.446265 
L 516.33531 141.811161 
L 518.313838 140.767777 
L 518.973348 140.586319 
L 519.632857 140.087309 
L 520.292367 139.815122 
L 520.951876 139.679028 
L 522.270895 139.225383 
L 524.249424 138.49955 
L 524.908933 138.00054 
L 526.227952 137.637624 
L 527.546971 137.138614 
L 528.206481 136.594239 
L 529.5255 136.185959 
L 530.185009 135.868407 
L 530.844519 135.686949 
L 532.163538 134.779658 
L 533.482557 134.189919 
L 534.801576 133.191899 
L 536.120595 132.738254 
L 536.780104 132.193879 
L 537.439614 132.10315 
L 538.758633 131.150495 
L 540.077652 130.515392 
L 540.737161 130.243204 
L 541.396671 129.562736 
L 545.353728 128.111071 
L 547.332256 127.249145 
L 549.310785 126.659406 
L 550.629804 126.477948 
L 551.289314 126.205761 
L 551.948823 126.115032 
L 553.267842 125.570657 
L 553.927352 125.525293 
L 556.56539 124.572637 
L 558.543918 123.211701 
L 562.500975 121.261026 
L 563.819994 120.444464 
L 564.479504 120.036184 
L 565.798523 119.718632 
L 567.117542 118.811341 
L 569.75558 117.994779 
L 570.415089 117.722592 
L 571.734108 117.405041 
L 575.031656 116.316292 
L 577.010184 115.953375 
L 577.669694 115.771917 
L 578.329203 115.454365 
L 578.988713 115.363636 
L 580.307732 114.819262 
L 580.967241 114.728533 
L 581.626751 114.410981 
L 582.94577 114.138794 
L 583.605279 113.821242 
L 585.583808 113.367597 
L 586.902827 113.09541 
L 590.859884 112.369577 
L 592.178903 112.09739 
L 592.838412 111.961296 
L 593.497922 111.689109 
L 594.157431 111.643744 
L 596.13596 111.09937 
L 596.795469 110.736454 
L 600.093017 109.919892 
L 600.752526 109.783798 
L 602.071545 109.330153 
L 604.050074 108.649685 
L 604.709583 108.558956 
L 606.688112 107.878488 
L 607.347621 107.878488 
L 608.66664 107.424842 
L 609.32615 106.789739 
L 609.985659 106.472187 
L 611.304678 106.063906 
L 613.942716 105.065887 
L 614.602226 104.929793 
L 615.261735 104.521512 
L 615.921245 104.385419 
L 616.580754 103.977138 
L 619.878302 103.024482 
L 620.537811 102.616202 
L 621.197321 102.434743 
L 621.85683 101.890369 
L 623.835359 101.527453 
L 625.154378 100.80162 
L 625.813888 100.075788 
L 627.132907 99.8036 
L 631.749473 98.760216 
L 632.408983 98.578758 
L 633.728002 98.533393 
L 634.387511 98.215842 
L 637.025549 97.762196 
L 637.685059 97.444644 
L 639.663587 97.172457 
L 642.301625 96.355896 
L 644.280154 95.90225 
L 646.258682 95.40324 
L 648.89672 94.586679 
L 649.55623 94.450585 
L 650.215739 94.133033 
L 650.875249 94.042304 
L 651.534758 93.815482 
L 652.194268 93.407201 
L 654.172796 92.681368 
L 654.832306 92.182358 
L 656.151325 91.819442 
L 656.810834 91.547255 
L 658.129853 91.184338 
L 660.767891 90.00486 
L 662.74642 89.868767 
L 665.384458 89.052205 
L 666.043967 88.643924 
L 667.362986 88.235644 
L 669.341515 87.237624 
L 670.001024 87.10153 
L 670.660534 86.783978 
L 671.320043 86.693249 
L 678.574648 84.288929 
L 681.212686 83.653825 
L 681.872195 83.472367 
L 683.191214 82.837264 
L 683.850724 82.746535 
L 685.169743 82.383618 
L 685.829252 81.884608 
L 686.488762 81.567057 
L 687.148271 80.79586 
L 687.807781 80.29685 
L 689.1268 79.888569 
L 689.786309 79.344194 
L 697.040914 76.3955 
L 698.359933 76.077948 
L 699.678952 75.488209 
L 701.657481 74.308731 
L 702.31699 74.172637 
L 702.9765 73.673627 
L 704.295519 73.038524 
L 705.614538 72.221962 
L 707.593066 71.314671 
L 708.252576 70.861026 
L 709.571595 70.362016 
L 710.231104 69.908371 
L 711.550123 69.273267 
L 712.209633 68.819622 
L 713.528652 68.365977 
L 714.188161 68.229883 
L 716.826199 67.050405 
L 720.123747 65.916292 
L 720.783256 65.870927 
L 721.442766 65.689469 
L 722.102275 65.281188 
L 722.761785 65.190459 
L 723.421294 64.872907 
L 725.399823 64.464626 
L 728.69737 62.786139 
L 730.016389 62.060306 
L 730.675899 61.969577 
L 732.654427 60.880828 
L 734.632956 60.154995 
L 736.611484 59.293069 
L 739.249522 58.249685 
L 739.909032 58.068227 
L 740.568541 57.659946 
L 741.228051 57.614581 
L 741.88756 57.433123 
L 742.54707 56.979478 
L 743.206579 56.934113 
L 744.525598 56.525833 
L 745.844617 55.890729 
L 747.163636 55.8 
L 747.163636 55.8 
" clip-path="url(#p7a670ac9e1)" style="fill: none; stroke: #1f77b4; stroke-width: 1.5; stroke-linecap: square"/>
   </g>
   <g id="line2d_40">
    <path d="M 139.095873 307.8 
L 141.074402 307.709271 
L 143.05293 307.663906 
L 147.009987 307.573177 
L 150.307535 307.437084 
L 152.945573 307.437084 
L 153.605082 307.255626 
L 156.24312 307.164896 
L 158.221649 306.938074 
L 160.200177 306.756616 
L 164.157234 306.575158 
L 164.816744 306.575158 
L 165.476253 306.439064 
L 168.114291 306.348335 
L 169.43331 306.257606 
L 174.709386 306.166877 
L 178.006934 306.030783 
L 185.921048 305.940054 
L 189.218595 305.80396 
L 193.175653 305.713231 
L 195.813691 305.622502 
L 201.749276 305.531773 
L 203.727805 305.486409 
L 205.706333 305.441044 
L 207.684862 305.214221 
L 211.641919 305.168857 
L 212.960938 305.078128 
L 217.577504 304.987399 
L 224.832109 304.579118 
L 229.448675 304.488389 
L 230.767694 304.39766 
L 232.746223 304.306931 
L 236.70328 304.125473 
L 239.341318 304.080108 
L 241.319846 303.89865 
L 251.871998 303.263546 
L 254.510036 303.172817 
L 259.126603 302.945995 
L 261.105131 302.855266 
L 267.700227 302.492349 
L 274.954831 302.40162 
L 277.592869 302.129433 
L 278.911888 302.038704 
L 287.485512 301.358236 
L 291.442569 300.859226 
L 294.080607 300.768497 
L 299.356683 300.088029 
L 302.65423 299.9973 
L 311.227854 299.316832 
L 315.184911 298.863186 
L 317.163439 298.817822 
L 318.482458 298.727093 
L 321.120496 298.636364 
L 322.439515 298.545635 
L 325.737063 298.228083 
L 326.396572 298.046625 
L 330.353629 297.865167 
L 333.651177 297.774437 
L 342.224801 297.275428 
L 344.203329 297.184698 
L 352.776953 296.685689 
L 357.393519 296.594959 
L 358.053029 296.458866 
L 363.329105 296.368137 
L 367.945671 296.141314 
L 375.200276 296.050585 
L 379.816842 295.823762 
L 385.092918 295.733033 
L 390.368994 295.460846 
L 394.985561 295.370117 
L 407.516242 294.59892 
L 412.792318 294.508191 
L 429.939565 293.419442 
L 433.896622 293.328713 
L 435.87515 293.283348 
L 437.853679 293.237984 
L 439.832207 293.056526 
L 445.108283 292.965797 
L 446.427302 292.738974 
L 447.746321 292.648245 
L 451.043869 292.512151 
L 452.362888 292.421422 
L 453.681907 292.330693 
L 459.617492 292.239964 
L 460.936511 292.10387 
L 463.574549 292.058506 
L 464.234059 291.922412 
L 465.553078 291.831683 
L 466.212587 291.69559 
L 468.191116 291.60486 
L 479.402778 290.924392 
L 481.381306 290.833663 
L 484.678854 290.69757 
L 493.911987 290.606841 
L 498.528553 290.380018 
L 503.804629 290.289289 
L 506.442667 290.19856 
L 509.080705 290.153195 
L 510.399724 290.017102 
L 513.037762 289.926373 
L 519.632857 289.563456 
L 523.589914 289.518092 
L 525.568443 289.336634 
L 527.546971 289.291269 
L 532.163538 289.20054 
L 534.801576 289.109811 
L 540.737161 289.019082 
L 543.375199 288.928353 
L 547.332256 288.837624 
L 553.927352 288.474707 
L 555.90588 288.474707 
L 556.56539 288.338614 
L 557.884409 288.247885 
L 560.522447 288.157156 
L 568.436561 288.066427 
L 571.734108 287.930333 
L 582.94577 287.884968 
L 584.264789 287.794239 
L 586.243317 287.748875 
L 594.816941 287.658146 
L 596.13596 287.567417 
L 603.390564 287.476688 
L 606.028602 287.385959 
L 613.942716 287.340594 
L 615.261735 287.249865 
L 625.154378 287.2045 
L 627.132907 287.023042 
L 638.344568 286.932313 
L 640.323097 286.886949 
L 657.470344 286.79622 
L 660.108382 286.705491 
L 671.979553 286.614761 
L 674.617591 286.524032 
L 679.234157 286.433303 
L 684.510233 286.161116 
L 687.148271 286.070387 
L 689.786309 285.979658 
L 693.743366 285.888929 
L 695.721895 285.843564 
L 698.359933 285.752835 
L 700.338462 285.707471 
L 703.636009 285.616742 
L 704.955028 285.480648 
L 708.912085 285.389919 
L 716.16669 284.981638 
L 719.464237 284.890909 
L 722.102275 284.80018 
L 726.718842 284.709451 
L 729.35688 284.618722 
L 734.632956 284.527993 
L 736.611484 284.482628 
L 739.909032 284.391899 
L 743.866089 284.210441 
L 747.163636 284.210441 
L 747.163636 284.210441 
" clip-path="url(#p7a670ac9e1)" style="fill: none; stroke: #ff7f0e; stroke-width: 1.5; stroke-linecap: square"/>
   </g>
   <g id="patch_3">
    <path d="M 108 320.4 
L 108 43.2 
" style="fill: none; stroke: #a9a9a9; stroke-width: 0.8; stroke-linejoin: miter; stroke-linecap: square"/>
   </g>
   <g id="patch_4">
    <path d="M 777.6 320.4 
L 777.6 43.2 
" style="fill: none"/>
   </g>
   <g id="patch_5">
    <path d="M 108 320.4 
L 777.6 320.4 
" style="fill: none; stroke: #a9a9a9; stroke-width: 0.8; stroke-linejoin: miter; stroke-linecap: square"/>
   </g>
   <g id="patch_6">
    <path d="M 108 43.2 
L 777.6 43.2 
" style="fill: none"/>
   </g>
   <g id="text_20">
    <!-- get_subscribe history -->
    <g style="fill: #a9a9a9" transform="translate(378.6075 37.2) scale(0.12 -0.12)">
     <defs>
      <path id="DejaVuSans-67" d="M 2906 1791 
Q 2906 2416 2648 2759 
Q 2391 3103 1925 3103 
Q 1463 3103 1205 2759 
Q 947 2416 947 1791 
Q 947 1169 1205 825 
Q 1463 481 1925 481 
Q 2391 481 2648 825 
Q 2906 1169 2906 1791 
z
M 3481 434 
Q 3481 -459 3084 -895 
Q 2688 -1331 1869 -1331 
Q 1566 -1331 1297 -1286 
Q 1028 -1241 775 -1147 
L 775 -588 
Q 1028 -725 1275 -790 
Q 1522 -856 1778 -856 
Q 2344 -856 2625 -561 
Q 2906 -266 2906 331 
L 2906 616 
Q 2728 306 2450 153 
Q 2172 0 1784 0 
Q 1141 0 747 490 
Q 353 981 353 1791 
Q 353 2603 747 3093 
Q 1141 3584 1784 3584 
Q 2172 3584 2450 3431 
Q 2728 3278 2906 2969 
L 2906 3500 
L 3481 3500 
L 3481 434 
z
" transform="scale(0.015625)"/>
      <path id="DejaVuSans-65" d="M 3597 1894 
L 3597 1613 
L 953 1613 
Q 991 1019 1311 708 
Q 1631 397 2203 397 
Q 2534 397 2845 478 
Q 3156 559 3463 722 
L 3463 178 
Q 3153 47 2828 -22 
Q 2503 -91 2169 -91 
Q 1331 -91 842 396 
Q 353 884 353 1716 
Q 353 2575 817 3079 
Q 1281 3584 2069 3584 
Q 2775 3584 3186 3129 
Q 3597 2675 3597 1894 
z
M 3022 2063 
Q 3016 2534 2758 2815 
Q 2500 3097 2075 3097 
Q 1594 3097 1305 2825 
Q 1016 2553 972 2059 
L 3022 2063 
z
" transform="scale(0.015625)"/>
      <path id="DejaVuSans-74" d="M 1172 4494 
L 1172 3500 
L 2356 3500 
L 2356 3053 
L 1172 3053 
L 1172 1153 
Q 1172 725 1289 603 
Q 1406 481 1766 481 
L 2356 481 
L 2356 0 
L 1766 0 
Q 1100 0 847 248 
Q 594 497 594 1153 
L 594 3053 
L 172 3053 
L 172 3500 
L 594 3500 
L 594 4494 
L 1172 4494 
z
" transform="scale(0.015625)"/>
      <path id="DejaVuSans-5f" d="M 3263 -1063 
L 3263 -1509 
L -63 -1509 
L -63 -1063 
L 3263 -1063 
z
" transform="scale(0.015625)"/>
      <path id="DejaVuSans-73" d="M 2834 3397 
L 2834 2853 
Q 2591 2978 2328 3040 
Q 2066 3103 1784 3103 
Q 1356 3103 1142 2972 
Q 928 2841 928 2578 
Q 928 2378 1081 2264 
Q 1234 2150 1697 2047 
L 1894 2003 
Q 2506 1872 2764 1633 
Q 3022 1394 3022 966 
Q 3022 478 2636 193 
Q 2250 -91 1575 -91 
Q 1294 -91 989 -36 
Q 684 19 347 128 
L 347 722 
Q 666 556 975 473 
Q 1284 391 1588 391 
Q 1994 391 2212 530 
Q 2431 669 2431 922 
Q 2431 1156 2273 1281 
Q 2116 1406 1581 1522 
L 1381 1569 
Q 847 1681 609 1914 
Q 372 2147 372 2553 
Q 372 3047 722 3315 
Q 1072 3584 1716 3584 
Q 2034 3584 2315 3537 
Q 2597 3491 2834 3397 
z
" transform="scale(0.015625)"/>
      <path id="DejaVuSans-75" d="M 544 1381 
L 544 3500 
L 1119 3500 
L 1119 1403 
Q 1119 906 1312 657 
Q 1506 409 1894 409 
Q 2359 409 2629 706 
Q 2900 1003 2900 1516 
L 2900 3500 
L 3475 3500 
L 3475 0 
L 2900 0 
L 2900 538 
Q 2691 219 2414 64 
Q 2138 -91 1772 -91 
Q 1169 -91 856 284 
Q 544 659 544 1381 
z
M 1991 3584 
L 1991 3584 
z
" transform="scale(0.015625)"/>
      <path id="DejaVuSans-62" d="M 3116 1747 
Q 3116 2381 2855 2742 
Q 2594 3103 2138 3103 
Q 1681 3103 1420 2742 
Q 1159 2381 1159 1747 
Q 1159 1113 1420 752 
Q 1681 391 2138 391 
Q 2594 391 2855 752 
Q 3116 1113 3116 1747 
z
M 1159 2969 
Q 1341 3281 1617 3432 
Q 1894 3584 2278 3584 
Q 2916 3584 3314 3078 
Q 3713 2572 3713 1747 
Q 3713 922 3314 415 
Q 2916 -91 2278 -91 
Q 1894 -91 1617 61 
Q 1341 213 1159 525 
L 1159 0 
L 581 0 
L 581 4863 
L 1159 4863 
L 1159 2969 
z
" transform="scale(0.015625)"/>
      <path id="DejaVuSans-63" d="M 3122 3366 
L 3122 2828 
Q 2878 2963 2633 3030 
Q 2388 3097 2138 3097 
Q 1578 3097 1268 2742 
Q 959 2388 959 1747 
Q 959 1106 1268 751 
Q 1578 397 2138 397 
Q 2388 397 2633 464 
Q 2878 531 3122 666 
L 3122 134 
Q 2881 22 2623 -34 
Q 2366 -91 2075 -91 
Q 1284 -91 818 406 
Q 353 903 353 1747 
Q 353 2603 823 3093 
Q 1294 3584 2113 3584 
Q 2378 3584 2631 3529 
Q 2884 3475 3122 3366 
z
" transform="scale(0.015625)"/>
      <path id="DejaVuSans-72" d="M 2631 2963 
Q 2534 3019 2420 3045 
Q 2306 3072 2169 3072 
Q 1681 3072 1420 2755 
Q 1159 2438 1159 1844 
L 1159 0 
L 581 0 
L 581 3500 
L 1159 3500 
L 1159 2956 
Q 1341 3275 1631 3429 
Q 1922 3584 2338 3584 
Q 2397 3584 2469 3576 
Q 2541 3569 2628 3553 
L 2631 2963 
z
" transform="scale(0.015625)"/>
      <path id="DejaVuSans-69" d="M 603 3500 
L 1178 3500 
L 1178 0 
L 603 0 
L 603 3500 
z
M 603 4863 
L 1178 4863 
L 1178 4134 
L 603 4134 
L 603 4863 
z
" transform="scale(0.015625)"/>
      <path id="DejaVuSans-20" transform="scale(0.015625)"/>
      <path id="DejaVuSans-68" d="M 3513 2113 
L 3513 0 
L 2938 0 
L 2938 2094 
Q 2938 2591 2744 2837 
Q 2550 3084 2163 3084 
Q 1697 3084 1428 2787 
Q 1159 2491 1159 1978 
L 1159 0 
L 581 0 
L 581 4863 
L 1159 4863 
L 1159 2956 
Q 1366 3272 1645 3428 
Q 1925 3584 2291 3584 
Q 2894 3584 3203 3211 
Q 3513 2838 3513 2113 
z
" transform="scale(0.015625)"/>
      <path id="DejaVuSans-6f" d="M 1959 3097 
Q 1497 3097 1228 2736 
Q 959 2375 959 1747 
Q 959 1119 1226 758 
Q 1494 397 1959 397 
Q 2419 397 2687 759 
Q 2956 1122 2956 1747 
Q 2956 2369 2687 2733 
Q 2419 3097 1959 3097 
z
M 1959 3584 
Q 2709 3584 3137 3096 
Q 3566 2609 3566 1747 
Q 3566 888 3137 398 
Q 2709 -91 1959 -91 
Q 1206 -91 779 398 
Q 353 888 353 1747 
Q 353 2609 779 3096 
Q 1206 3584 1959 3584 
z
" transform="scale(0.015625)"/>
      <path id="DejaVuSans-79" d="M 2059 -325 
Q 1816 -950 1584 -1140 
Q 1353 -1331 966 -1331 
L 506 -1331 
L 506 -850 
L 844 -850 
Q 1081 -850 1212 -737 
Q 1344 -625 1503 -206 
L 1606 56 
L 191 3500 
L 800 3500 
L 1894 763 
L 2988 3500 
L 3597 3500 
L 2059 -325 
z
" transform="scale(0.015625)"/>
     </defs>
     <use xlink:href="#DejaVuSans-67"/>
     <use xlink:href="#DejaVuSans-65" x="63.476562"/>
     <use xlink:href="#DejaVuSans-74" x="125"/>
     <use xlink:href="#DejaVuSans-5f" x="164.208984"/>
     <use xlink:href="#DejaVuSans-73" x="214.208984"/>
     <use xlink:href="#DejaVuSans-75" x="266.308594"/>
     <use xlink:href="#DejaVuSans-62" x="329.6875"/>
     <use xlink:href="#DejaVuSans-73" x="393.164062"/>
     <use xlink:href="#DejaVuSans-63" x="445.263672"/>
     <use xlink:href="#DejaVuSans-72" x="500.244141"/>
     <use xlink:href="#DejaVuSans-69" x="541.357422"/>
     <use xlink:href="#DejaVuSans-62" x="569.140625"/>
     <use xlink:href="#DejaVuSans-65" x="632.617188"/>
     <use xlink:href="#DejaVuSans-20" x="694.140625"/>
     <use xlink:href="#DejaVuSans-68" x="725.927734"/>
     <use xlink:href="#DejaVuSans-69" x="789.306641"/>
     <use xlink:href="#DejaVuSans-73" x="817.089844"/>
     <use xlink:href="#DejaVuSans-74" x="869.189453"/>
     <use xlink:href="#DejaVuSans-6f" x="908.398438"/>
     <use xlink:href="#DejaVuSans-72" x="969.580078"/>
     <use xlink:href="#DejaVuSans-79" x="1010.693359"/>
    </g>
   </g>
   <g id="legend_1">
    <g id="line2d_41">
     <path d="M 815.08 328.498438 
L 825.08 328.498438 
L 835.08 328.498438 
" style="fill: none; stroke: #1f77b4; stroke-width: 1.5; stroke-linecap: square"/>
    </g>
    <g id="text_21">
     <!-- star -->
     <g style="fill: #a9a9a9" transform="translate(843.08 331.998438) scale(0.1 -0.1)">
      <defs>
       <path id="DejaVuSans-61" d="M 2194 1759 
Q 1497 1759 1228 1600 
Q 959 1441 959 1056 
Q 959 750 1161 570 
Q 1363 391 1709 391 
Q 2188 391 2477 730 
Q 2766 1069 2766 1631 
L 2766 1759 
L 2194 1759 
z
M 3341 1997 
L 3341 0 
L 2766 0 
L 2766 531 
Q 2569 213 2275 61 
Q 1981 -91 1556 -91 
Q 1019 -91 701 211 
Q 384 513 384 1019 
Q 384 1609 779 1909 
Q 1175 2209 1959 2209 
L 2766 2209 
L 2766 2266 
Q 2766 2663 2505 2880 
Q 2244 3097 1772 3097 
Q 1472 3097 1187 3025 
Q 903 2953 641 2809 
L 641 3341 
Q 956 3463 1253 3523 
Q 1550 3584 1831 3584 
Q 2591 3584 2966 3190 
Q 3341 2797 3341 1997 
z
" transform="scale(0.015625)"/>
      </defs>
      <use xlink:href="#DejaVuSans-73"/>
      <use xlink:href="#DejaVuSans-74" x="52.099609"/>
      <use xlink:href="#DejaVuSans-61" x="91.308594"/>
      <use xlink:href="#DejaVuSans-72" x="152.587891"/>
     </g>
    </g>
    <g id="line2d_42">
     <path d="M 815.08 343.176562 
L 825.08 343.176562 
L 835.08 343.176562 
" style="fill: none; stroke: #ff7f0e; stroke-width: 1.5; stroke-linecap: square"/>
    </g>
    <g id="text_22">
     <!-- fork -->
     <g style="fill: #a9a9a9" transform="translate(843.08 346.676562) scale(0.1 -0.1)">
      <defs>
       <path id="DejaVuSans-66" d="M 2375 4863 
L 2375 4384 
L 1825 4384 
Q 1516 4384 1395 4259 
Q 1275 4134 1275 3809 
L 1275 3500 
L 2222 3500 
L 2222 3053 
L 1275 3053 
L 1275 0 
L 697 0 
L 697 3053 
L 147 3053 
L 147 3500 
L 697 3500 
L 697 3744 
Q 697 4328 969 4595 
Q 1241 4863 1831 4863 
L 2375 4863 
z
" transform="scale(0.015625)"/>
       <path id="DejaVuSans-6b" d="M 581 4863 
L 1159 4863 
L 1159 1991 
L 2875 3500 
L 3609 3500 
L 1753 1863 
L 3688 0 
L 2938 0 
L 1159 1709 
L 1159 0 
L 581 0 
L 581 4863 
z
" transform="scale(0.015625)"/>
      </defs>
      <use xlink:href="#DejaVuSans-66"/>
      <use xlink:href="#DejaVuSans-6f" x="35.205078"/>
      <use xlink:href="#DejaVuSans-72" x="96.386719"/>
      <use xlink:href="#DejaVuSans-6b" x="137.5"/>
     </g>
    </g>
   </g>
  </g>
 </g>
 <defs>
  <clipPath id="p7a670ac9e1">
   <rect x="108" y="43.2" width="669.6" height="277.2"/>
  </clipPath>
 </defs>
</svg>
