<?xml version="1.0" encoding="utf-8" standalone="no"?>
<!DOCTYPE svg PUBLIC "-//W3C//DTD SVG 1.1//EN"
  "http://www.w3.org/Graphics/SVG/1.1/DTD/svg11.dtd">
<svg xmlns:xlink="http://www.w3.org/1999/xlink" width="864pt" height="360pt" viewBox="0 0 864 360" xmlns="http://www.w3.org/2000/svg" version="1.1">
 <metadata>
  <rdf:RDF xmlns:dc="http://purl.org/dc/elements/1.1/" xmlns:cc="http://creativecommons.org/ns#" xmlns:rdf="http://www.w3.org/1999/02/22-rdf-syntax-ns#">
   <cc:Work>
    <dc:type rdf:resource="http://purl.org/dc/dcmitype/StillImage"/>
    <dc:date>2024-02-01T08:11:08.620790</dc:date>
    <dc:format>image/svg+xml</dc:format>
    <dc:creator>
     <cc:Agent>
      <dc:title>Matplotlib v3.8.2, https://matplotlib.org/</dc:title>
     </cc:Agent>
    </dc:creator>
   </cc:Work>
  </rdf:RDF>
 </metadata>
 <defs>
  <style type="text/css">*{stroke-linejoin: round; stroke-linecap: butt}</style>
 </defs>
 <g id="figure_1">
  <g id="patch_1">
   <path d="M 0 360 
L 864 360 
L 864 0 
L 0 0 
L 0 360 
z
" style="fill: none; opacity: 0"/>
  </g>
  <g id="axes_1">
   <g id="patch_2">
    <path d="M 108 320.4 
L 777.6 320.4 
L 777.6 43.2 
L 108 43.2 
L 108 320.4 
z
" style="fill: none; opacity: 0"/>
   </g>
   <g id="matplotlib.axis_1">
    <g id="xtick_1">
     <g id="line2d_1">
      <path d="M 123.251193 320.4 
L 123.251193 43.2 
" clip-path="url(#pfcd5e60e39)" style="fill: none; stroke-dasharray: 5.12,1.28,0.8,1.28; stroke-dashoffset: 0; stroke: #b0b0b0; stroke-width: 0.8"/>
     </g>
     <g id="line2d_2">
      <defs>
       <path id="m0c3a57cfaf" d="M 0 0 
L 0 3.5 
" style="stroke: #a9a9a9; stroke-width: 0.8"/>
      </defs>
      <g>
       <use xlink:href="#m0c3a57cfaf" x="123.251193" y="320.4" style="fill: #a9a9a9; stroke: #a9a9a9; stroke-width: 0.8"/>
      </g>
     </g>
     <g id="text_1">
      <!-- 2021-07 -->
      <g style="fill: #a9a9a9" transform="translate(102.359787 334.998438) scale(0.1 -0.1)">
       <defs>
        <path id="DejaVuSans-32" d="M 1228 531 
L 3431 531 
L 3431 0 
L 469 0 
L 469 531 
Q 828 903 1448 1529 
Q 2069 2156 2228 2338 
Q 2531 2678 2651 2914 
Q 2772 3150 2772 3378 
Q 2772 3750 2511 3984 
Q 2250 4219 1831 4219 
Q 1534 4219 1204 4116 
Q 875 4013 500 3803 
L 500 4441 
Q 881 4594 1212 4672 
Q 1544 4750 1819 4750 
Q 2544 4750 2975 4387 
Q 3406 4025 3406 3419 
Q 3406 3131 3298 2873 
Q 3191 2616 2906 2266 
Q 2828 2175 2409 1742 
Q 1991 1309 1228 531 
z
" transform="scale(0.015625)"/>
        <path id="DejaVuSans-30" d="M 2034 4250 
Q 1547 4250 1301 3770 
Q 1056 3291 1056 2328 
Q 1056 1369 1301 889 
Q 1547 409 2034 409 
Q 2525 409 2770 889 
Q 3016 1369 3016 2328 
Q 3016 3291 2770 3770 
Q 2525 4250 2034 4250 
z
M 2034 4750 
Q 2819 4750 3233 4129 
Q 3647 3509 3647 2328 
Q 3647 1150 3233 529 
Q 2819 -91 2034 -91 
Q 1250 -91 836 529 
Q 422 1150 422 2328 
Q 422 3509 836 4129 
Q 1250 4750 2034 4750 
z
" transform="scale(0.015625)"/>
        <path id="DejaVuSans-31" d="M 794 531 
L 1825 531 
L 1825 4091 
L 703 3866 
L 703 4441 
L 1819 4666 
L 2450 4666 
L 2450 531 
L 3481 531 
L 3481 0 
L 794 0 
L 794 531 
z
" transform="scale(0.015625)"/>
        <path id="DejaVuSans-2d" d="M 313 2009 
L 1997 2009 
L 1997 1497 
L 313 1497 
L 313 2009 
z
" transform="scale(0.015625)"/>
        <path id="DejaVuSans-37" d="M 525 4666 
L 3525 4666 
L 3525 4397 
L 1831 0 
L 1172 0 
L 2766 4134 
L 525 4134 
L 525 4666 
z
" transform="scale(0.015625)"/>
       </defs>
       <use xlink:href="#DejaVuSans-32"/>
       <use xlink:href="#DejaVuSans-30" x="63.623047"/>
       <use xlink:href="#DejaVuSans-32" x="127.246094"/>
       <use xlink:href="#DejaVuSans-31" x="190.869141"/>
       <use xlink:href="#DejaVuSans-2d" x="254.492188"/>
       <use xlink:href="#DejaVuSans-30" x="290.576172"/>
       <use xlink:href="#DejaVuSans-37" x="354.199219"/>
      </g>
     </g>
    </g>
    <g id="xtick_2">
     <g id="line2d_3">
      <path d="M 183.991875 320.4 
L 183.991875 43.2 
" clip-path="url(#pfcd5e60e39)" style="fill: none; stroke-dasharray: 5.12,1.28,0.8,1.28; stroke-dashoffset: 0; stroke: #b0b0b0; stroke-width: 0.8"/>
     </g>
     <g id="line2d_4">
      <g>
       <use xlink:href="#m0c3a57cfaf" x="183.991875" y="320.4" style="fill: #a9a9a9; stroke: #a9a9a9; stroke-width: 0.8"/>
      </g>
     </g>
     <g id="text_2">
      <!-- 2021-10 -->
      <g style="fill: #a9a9a9" transform="translate(163.100469 334.998438) scale(0.1 -0.1)">
       <use xlink:href="#DejaVuSans-32"/>
       <use xlink:href="#DejaVuSans-30" x="63.623047"/>
       <use xlink:href="#DejaVuSans-32" x="127.246094"/>
       <use xlink:href="#DejaVuSans-31" x="190.869141"/>
       <use xlink:href="#DejaVuSans-2d" x="254.492188"/>
       <use xlink:href="#DejaVuSans-31" x="290.576172"/>
       <use xlink:href="#DejaVuSans-30" x="354.199219"/>
      </g>
     </g>
    </g>
    <g id="xtick_3">
     <g id="line2d_5">
      <path d="M 244.732558 320.4 
L 244.732558 43.2 
" clip-path="url(#pfcd5e60e39)" style="fill: none; stroke-dasharray: 5.12,1.28,0.8,1.28; stroke-dashoffset: 0; stroke: #b0b0b0; stroke-width: 0.8"/>
     </g>
     <g id="line2d_6">
      <g>
       <use xlink:href="#m0c3a57cfaf" x="244.732558" y="320.4" style="fill: #a9a9a9; stroke: #a9a9a9; stroke-width: 0.8"/>
      </g>
     </g>
     <g id="text_3">
      <!-- 2022-01 -->
      <g style="fill: #a9a9a9" transform="translate(223.841151 334.998438) scale(0.1 -0.1)">
       <use xlink:href="#DejaVuSans-32"/>
       <use xlink:href="#DejaVuSans-30" x="63.623047"/>
       <use xlink:href="#DejaVuSans-32" x="127.246094"/>
       <use xlink:href="#DejaVuSans-32" x="190.869141"/>
       <use xlink:href="#DejaVuSans-2d" x="254.492188"/>
       <use xlink:href="#DejaVuSans-30" x="290.576172"/>
       <use xlink:href="#DejaVuSans-31" x="354.199219"/>
      </g>
     </g>
    </g>
    <g id="xtick_4">
     <g id="line2d_7">
      <path d="M 304.15279 320.4 
L 304.15279 43.2 
" clip-path="url(#pfcd5e60e39)" style="fill: none; stroke-dasharray: 5.12,1.28,0.8,1.28; stroke-dashoffset: 0; stroke: #b0b0b0; stroke-width: 0.8"/>
     </g>
     <g id="line2d_8">
      <g>
       <use xlink:href="#m0c3a57cfaf" x="304.15279" y="320.4" style="fill: #a9a9a9; stroke: #a9a9a9; stroke-width: 0.8"/>
      </g>
     </g>
     <g id="text_4">
      <!-- 2022-04 -->
      <g style="fill: #a9a9a9" transform="translate(283.261384 334.998438) scale(0.1 -0.1)">
       <defs>
        <path id="DejaVuSans-34" d="M 2419 4116 
L 825 1625 
L 2419 1625 
L 2419 4116 
z
M 2253 4666 
L 3047 4666 
L 3047 1625 
L 3713 1625 
L 3713 1100 
L 3047 1100 
L 3047 0 
L 2419 0 
L 2419 1100 
L 313 1100 
L 313 1709 
L 2253 4666 
z
" transform="scale(0.015625)"/>
       </defs>
       <use xlink:href="#DejaVuSans-32"/>
       <use xlink:href="#DejaVuSans-30" x="63.623047"/>
       <use xlink:href="#DejaVuSans-32" x="127.246094"/>
       <use xlink:href="#DejaVuSans-32" x="190.869141"/>
       <use xlink:href="#DejaVuSans-2d" x="254.492188"/>
       <use xlink:href="#DejaVuSans-30" x="290.576172"/>
       <use xlink:href="#DejaVuSans-34" x="354.199219"/>
      </g>
     </g>
    </g>
    <g id="xtick_5">
     <g id="line2d_9">
      <path d="M 364.233248 320.4 
L 364.233248 43.2 
" clip-path="url(#pfcd5e60e39)" style="fill: none; stroke-dasharray: 5.12,1.28,0.8,1.28; stroke-dashoffset: 0; stroke: #b0b0b0; stroke-width: 0.8"/>
     </g>
     <g id="line2d_10">
      <g>
       <use xlink:href="#m0c3a57cfaf" x="364.233248" y="320.4" style="fill: #a9a9a9; stroke: #a9a9a9; stroke-width: 0.8"/>
      </g>
     </g>
     <g id="text_5">
      <!-- 2022-07 -->
      <g style="fill: #a9a9a9" transform="translate(343.341842 334.998438) scale(0.1 -0.1)">
       <use xlink:href="#DejaVuSans-32"/>
       <use xlink:href="#DejaVuSans-30" x="63.623047"/>
       <use xlink:href="#DejaVuSans-32" x="127.246094"/>
       <use xlink:href="#DejaVuSans-32" x="190.869141"/>
       <use xlink:href="#DejaVuSans-2d" x="254.492188"/>
       <use xlink:href="#DejaVuSans-30" x="290.576172"/>
       <use xlink:href="#DejaVuSans-37" x="354.199219"/>
      </g>
     </g>
    </g>
    <g id="xtick_6">
     <g id="line2d_11">
      <path d="M 424.97393 320.4 
L 424.97393 43.2 
" clip-path="url(#pfcd5e60e39)" style="fill: none; stroke-dasharray: 5.12,1.28,0.8,1.28; stroke-dashoffset: 0; stroke: #b0b0b0; stroke-width: 0.8"/>
     </g>
     <g id="line2d_12">
      <g>
       <use xlink:href="#m0c3a57cfaf" x="424.97393" y="320.4" style="fill: #a9a9a9; stroke: #a9a9a9; stroke-width: 0.8"/>
      </g>
     </g>
     <g id="text_6">
      <!-- 2022-10 -->
      <g style="fill: #a9a9a9" transform="translate(404.082524 334.998438) scale(0.1 -0.1)">
       <use xlink:href="#DejaVuSans-32"/>
       <use xlink:href="#DejaVuSans-30" x="63.623047"/>
       <use xlink:href="#DejaVuSans-32" x="127.246094"/>
       <use xlink:href="#DejaVuSans-32" x="190.869141"/>
       <use xlink:href="#DejaVuSans-2d" x="254.492188"/>
       <use xlink:href="#DejaVuSans-31" x="290.576172"/>
       <use xlink:href="#DejaVuSans-30" x="354.199219"/>
      </g>
     </g>
    </g>
    <g id="xtick_7">
     <g id="line2d_13">
      <path d="M 485.714613 320.4 
L 485.714613 43.2 
" clip-path="url(#pfcd5e60e39)" style="fill: none; stroke-dasharray: 5.12,1.28,0.8,1.28; stroke-dashoffset: 0; stroke: #b0b0b0; stroke-width: 0.8"/>
     </g>
     <g id="line2d_14">
      <g>
       <use xlink:href="#m0c3a57cfaf" x="485.714613" y="320.4" style="fill: #a9a9a9; stroke: #a9a9a9; stroke-width: 0.8"/>
      </g>
     </g>
     <g id="text_7">
      <!-- 2023-01 -->
      <g style="fill: #a9a9a9" transform="translate(464.823206 334.998438) scale(0.1 -0.1)">
       <defs>
        <path id="DejaVuSans-33" d="M 2597 2516 
Q 3050 2419 3304 2112 
Q 3559 1806 3559 1356 
Q 3559 666 3084 287 
Q 2609 -91 1734 -91 
Q 1441 -91 1130 -33 
Q 819 25 488 141 
L 488 750 
Q 750 597 1062 519 
Q 1375 441 1716 441 
Q 2309 441 2620 675 
Q 2931 909 2931 1356 
Q 2931 1769 2642 2001 
Q 2353 2234 1838 2234 
L 1294 2234 
L 1294 2753 
L 1863 2753 
Q 2328 2753 2575 2939 
Q 2822 3125 2822 3475 
Q 2822 3834 2567 4026 
Q 2313 4219 1838 4219 
Q 1578 4219 1281 4162 
Q 984 4106 628 3988 
L 628 4550 
Q 988 4650 1302 4700 
Q 1616 4750 1894 4750 
Q 2613 4750 3031 4423 
Q 3450 4097 3450 3541 
Q 3450 3153 3228 2886 
Q 3006 2619 2597 2516 
z
" transform="scale(0.015625)"/>
       </defs>
       <use xlink:href="#DejaVuSans-32"/>
       <use xlink:href="#DejaVuSans-30" x="63.623047"/>
       <use xlink:href="#DejaVuSans-32" x="127.246094"/>
       <use xlink:href="#DejaVuSans-33" x="190.869141"/>
       <use xlink:href="#DejaVuSans-2d" x="254.492188"/>
       <use xlink:href="#DejaVuSans-30" x="290.576172"/>
       <use xlink:href="#DejaVuSans-31" x="354.199219"/>
      </g>
     </g>
    </g>
    <g id="xtick_8">
     <g id="line2d_15">
      <path d="M 545.134845 320.4 
L 545.134845 43.2 
" clip-path="url(#pfcd5e60e39)" style="fill: none; stroke-dasharray: 5.12,1.28,0.8,1.28; stroke-dashoffset: 0; stroke: #b0b0b0; stroke-width: 0.8"/>
     </g>
     <g id="line2d_16">
      <g>
       <use xlink:href="#m0c3a57cfaf" x="545.134845" y="320.4" style="fill: #a9a9a9; stroke: #a9a9a9; stroke-width: 0.8"/>
      </g>
     </g>
     <g id="text_8">
      <!-- 2023-04 -->
      <g style="fill: #a9a9a9" transform="translate(524.243439 334.998438) scale(0.1 -0.1)">
       <use xlink:href="#DejaVuSans-32"/>
       <use xlink:href="#DejaVuSans-30" x="63.623047"/>
       <use xlink:href="#DejaVuSans-32" x="127.246094"/>
       <use xlink:href="#DejaVuSans-33" x="190.869141"/>
       <use xlink:href="#DejaVuSans-2d" x="254.492188"/>
       <use xlink:href="#DejaVuSans-30" x="290.576172"/>
       <use xlink:href="#DejaVuSans-34" x="354.199219"/>
      </g>
     </g>
    </g>
    <g id="xtick_9">
     <g id="line2d_17">
      <path d="M 605.215303 320.4 
L 605.215303 43.2 
" clip-path="url(#pfcd5e60e39)" style="fill: none; stroke-dasharray: 5.12,1.28,0.8,1.28; stroke-dashoffset: 0; stroke: #b0b0b0; stroke-width: 0.8"/>
     </g>
     <g id="line2d_18">
      <g>
       <use xlink:href="#m0c3a57cfaf" x="605.215303" y="320.4" style="fill: #a9a9a9; stroke: #a9a9a9; stroke-width: 0.8"/>
      </g>
     </g>
     <g id="text_9">
      <!-- 2023-07 -->
      <g style="fill: #a9a9a9" transform="translate(584.323896 334.998438) scale(0.1 -0.1)">
       <use xlink:href="#DejaVuSans-32"/>
       <use xlink:href="#DejaVuSans-30" x="63.623047"/>
       <use xlink:href="#DejaVuSans-32" x="127.246094"/>
       <use xlink:href="#DejaVuSans-33" x="190.869141"/>
       <use xlink:href="#DejaVuSans-2d" x="254.492188"/>
       <use xlink:href="#DejaVuSans-30" x="290.576172"/>
       <use xlink:href="#DejaVuSans-37" x="354.199219"/>
      </g>
     </g>
    </g>
    <g id="xtick_10">
     <g id="line2d_19">
      <path d="M 665.955985 320.4 
L 665.955985 43.2 
" clip-path="url(#pfcd5e60e39)" style="fill: none; stroke-dasharray: 5.12,1.28,0.8,1.28; stroke-dashoffset: 0; stroke: #b0b0b0; stroke-width: 0.8"/>
     </g>
     <g id="line2d_20">
      <g>
       <use xlink:href="#m0c3a57cfaf" x="665.955985" y="320.4" style="fill: #a9a9a9; stroke: #a9a9a9; stroke-width: 0.8"/>
      </g>
     </g>
     <g id="text_10">
      <!-- 2023-10 -->
      <g style="fill: #a9a9a9" transform="translate(645.064579 334.998438) scale(0.1 -0.1)">
       <use xlink:href="#DejaVuSans-32"/>
       <use xlink:href="#DejaVuSans-30" x="63.623047"/>
       <use xlink:href="#DejaVuSans-32" x="127.246094"/>
       <use xlink:href="#DejaVuSans-33" x="190.869141"/>
       <use xlink:href="#DejaVuSans-2d" x="254.492188"/>
       <use xlink:href="#DejaVuSans-31" x="290.576172"/>
       <use xlink:href="#DejaVuSans-30" x="354.199219"/>
      </g>
     </g>
    </g>
    <g id="xtick_11">
     <g id="line2d_21">
      <path d="M 726.696667 320.4 
L 726.696667 43.2 
" clip-path="url(#pfcd5e60e39)" style="fill: none; stroke-dasharray: 5.12,1.28,0.8,1.28; stroke-dashoffset: 0; stroke: #b0b0b0; stroke-width: 0.8"/>
     </g>
     <g id="line2d_22">
      <g>
       <use xlink:href="#m0c3a57cfaf" x="726.696667" y="320.4" style="fill: #a9a9a9; stroke: #a9a9a9; stroke-width: 0.8"/>
      </g>
     </g>
     <g id="text_11">
      <!-- 2024-01 -->
      <g style="fill: #a9a9a9" transform="translate(705.805261 334.998438) scale(0.1 -0.1)">
       <use xlink:href="#DejaVuSans-32"/>
       <use xlink:href="#DejaVuSans-30" x="63.623047"/>
       <use xlink:href="#DejaVuSans-32" x="127.246094"/>
       <use xlink:href="#DejaVuSans-34" x="190.869141"/>
       <use xlink:href="#DejaVuSans-2d" x="254.492188"/>
       <use xlink:href="#DejaVuSans-30" x="290.576172"/>
       <use xlink:href="#DejaVuSans-31" x="354.199219"/>
      </g>
     </g>
    </g>
   </g>
   <g id="matplotlib.axis_2">
    <g id="ytick_1">
     <g id="line2d_23">
      <path d="M 108 307.845373 
L 777.6 307.845373 
" clip-path="url(#pfcd5e60e39)" style="fill: none; stroke-dasharray: 5.12,1.28,0.8,1.28; stroke-dashoffset: 0; stroke: #b0b0b0; stroke-width: 0.8"/>
     </g>
     <g id="line2d_24">
      <defs>
       <path id="m01c9e5cf1a" d="M 0 0 
L -3.5 0 
" style="stroke: #a9a9a9; stroke-width: 0.8"/>
      </defs>
      <g>
       <use xlink:href="#m01c9e5cf1a" x="108" y="307.845373" style="fill: #a9a9a9; stroke: #a9a9a9; stroke-width: 0.8"/>
      </g>
     </g>
     <g id="text_12">
      <!-- 0 -->
      <g style="fill: #a9a9a9" transform="translate(94.6375 311.644591) scale(0.1 -0.1)">
       <use xlink:href="#DejaVuSans-30"/>
      </g>
     </g>
    </g>
    <g id="ytick_2">
     <g id="line2d_25">
      <path d="M 108 271.547209 
L 777.6 271.547209 
" clip-path="url(#pfcd5e60e39)" style="fill: none; stroke-dasharray: 5.12,1.28,0.8,1.28; stroke-dashoffset: 0; stroke: #b0b0b0; stroke-width: 0.8"/>
     </g>
     <g id="line2d_26">
      <g>
       <use xlink:href="#m01c9e5cf1a" x="108" y="271.547209" style="fill: #a9a9a9; stroke: #a9a9a9; stroke-width: 0.8"/>
      </g>
     </g>
     <g id="text_13">
      <!-- 800 -->
      <g style="fill: #a9a9a9" transform="translate(81.9125 275.346428) scale(0.1 -0.1)">
       <defs>
        <path id="DejaVuSans-38" d="M 2034 2216 
Q 1584 2216 1326 1975 
Q 1069 1734 1069 1313 
Q 1069 891 1326 650 
Q 1584 409 2034 409 
Q 2484 409 2743 651 
Q 3003 894 3003 1313 
Q 3003 1734 2745 1975 
Q 2488 2216 2034 2216 
z
M 1403 2484 
Q 997 2584 770 2862 
Q 544 3141 544 3541 
Q 544 4100 942 4425 
Q 1341 4750 2034 4750 
Q 2731 4750 3128 4425 
Q 3525 4100 3525 3541 
Q 3525 3141 3298 2862 
Q 3072 2584 2669 2484 
Q 3125 2378 3379 2068 
Q 3634 1759 3634 1313 
Q 3634 634 3220 271 
Q 2806 -91 2034 -91 
Q 1263 -91 848 271 
Q 434 634 434 1313 
Q 434 1759 690 2068 
Q 947 2378 1403 2484 
z
M 1172 3481 
Q 1172 3119 1398 2916 
Q 1625 2713 2034 2713 
Q 2441 2713 2670 2916 
Q 2900 3119 2900 3481 
Q 2900 3844 2670 4047 
Q 2441 4250 2034 4250 
Q 1625 4250 1398 4047 
Q 1172 3844 1172 3481 
z
" transform="scale(0.015625)"/>
       </defs>
       <use xlink:href="#DejaVuSans-38"/>
       <use xlink:href="#DejaVuSans-30" x="63.623047"/>
       <use xlink:href="#DejaVuSans-30" x="127.246094"/>
      </g>
     </g>
    </g>
    <g id="ytick_3">
     <g id="line2d_27">
      <path d="M 108 235.249046 
L 777.6 235.249046 
" clip-path="url(#pfcd5e60e39)" style="fill: none; stroke-dasharray: 5.12,1.28,0.8,1.28; stroke-dashoffset: 0; stroke: #b0b0b0; stroke-width: 0.8"/>
     </g>
     <g id="line2d_28">
      <g>
       <use xlink:href="#m01c9e5cf1a" x="108" y="235.249046" style="fill: #a9a9a9; stroke: #a9a9a9; stroke-width: 0.8"/>
      </g>
     </g>
     <g id="text_14">
      <!-- 1600 -->
      <g style="fill: #a9a9a9" transform="translate(75.55 239.048264) scale(0.1 -0.1)">
       <defs>
        <path id="DejaVuSans-36" d="M 2113 2584 
Q 1688 2584 1439 2293 
Q 1191 2003 1191 1497 
Q 1191 994 1439 701 
Q 1688 409 2113 409 
Q 2538 409 2786 701 
Q 3034 994 3034 1497 
Q 3034 2003 2786 2293 
Q 2538 2584 2113 2584 
z
M 3366 4563 
L 3366 3988 
Q 3128 4100 2886 4159 
Q 2644 4219 2406 4219 
Q 1781 4219 1451 3797 
Q 1122 3375 1075 2522 
Q 1259 2794 1537 2939 
Q 1816 3084 2150 3084 
Q 2853 3084 3261 2657 
Q 3669 2231 3669 1497 
Q 3669 778 3244 343 
Q 2819 -91 2113 -91 
Q 1303 -91 875 529 
Q 447 1150 447 2328 
Q 447 3434 972 4092 
Q 1497 4750 2381 4750 
Q 2619 4750 2861 4703 
Q 3103 4656 3366 4563 
z
" transform="scale(0.015625)"/>
       </defs>
       <use xlink:href="#DejaVuSans-31"/>
       <use xlink:href="#DejaVuSans-36" x="63.623047"/>
       <use xlink:href="#DejaVuSans-30" x="127.246094"/>
       <use xlink:href="#DejaVuSans-30" x="190.869141"/>
      </g>
     </g>
    </g>
    <g id="ytick_4">
     <g id="line2d_29">
      <path d="M 108 198.950882 
L 777.6 198.950882 
" clip-path="url(#pfcd5e60e39)" style="fill: none; stroke-dasharray: 5.12,1.28,0.8,1.28; stroke-dashoffset: 0; stroke: #b0b0b0; stroke-width: 0.8"/>
     </g>
     <g id="line2d_30">
      <g>
       <use xlink:href="#m01c9e5cf1a" x="108" y="198.950882" style="fill: #a9a9a9; stroke: #a9a9a9; stroke-width: 0.8"/>
      </g>
     </g>
     <g id="text_15">
      <!-- 2400 -->
      <g style="fill: #a9a9a9" transform="translate(75.55 202.750101) scale(0.1 -0.1)">
       <use xlink:href="#DejaVuSans-32"/>
       <use xlink:href="#DejaVuSans-34" x="63.623047"/>
       <use xlink:href="#DejaVuSans-30" x="127.246094"/>
       <use xlink:href="#DejaVuSans-30" x="190.869141"/>
      </g>
     </g>
    </g>
    <g id="ytick_5">
     <g id="line2d_31">
      <path d="M 108 162.652719 
L 777.6 162.652719 
" clip-path="url(#pfcd5e60e39)" style="fill: none; stroke-dasharray: 5.12,1.28,0.8,1.28; stroke-dashoffset: 0; stroke: #b0b0b0; stroke-width: 0.8"/>
     </g>
     <g id="line2d_32">
      <g>
       <use xlink:href="#m01c9e5cf1a" x="108" y="162.652719" style="fill: #a9a9a9; stroke: #a9a9a9; stroke-width: 0.8"/>
      </g>
     </g>
     <g id="text_16">
      <!-- 3200 -->
      <g style="fill: #a9a9a9" transform="translate(75.55 166.451938) scale(0.1 -0.1)">
       <use xlink:href="#DejaVuSans-33"/>
       <use xlink:href="#DejaVuSans-32" x="63.623047"/>
       <use xlink:href="#DejaVuSans-30" x="127.246094"/>
       <use xlink:href="#DejaVuSans-30" x="190.869141"/>
      </g>
     </g>
    </g>
    <g id="ytick_6">
     <g id="line2d_33">
      <path d="M 108 126.354555 
L 777.6 126.354555 
" clip-path="url(#pfcd5e60e39)" style="fill: none; stroke-dasharray: 5.12,1.28,0.8,1.28; stroke-dashoffset: 0; stroke: #b0b0b0; stroke-width: 0.8"/>
     </g>
     <g id="line2d_34">
      <g>
       <use xlink:href="#m01c9e5cf1a" x="108" y="126.354555" style="fill: #a9a9a9; stroke: #a9a9a9; stroke-width: 0.8"/>
      </g>
     </g>
     <g id="text_17">
      <!-- 4000 -->
      <g style="fill: #a9a9a9" transform="translate(75.55 130.153774) scale(0.1 -0.1)">
       <use xlink:href="#DejaVuSans-34"/>
       <use xlink:href="#DejaVuSans-30" x="63.623047"/>
       <use xlink:href="#DejaVuSans-30" x="127.246094"/>
       <use xlink:href="#DejaVuSans-30" x="190.869141"/>
      </g>
     </g>
    </g>
    <g id="ytick_7">
     <g id="line2d_35">
      <path d="M 108 90.056392 
L 777.6 90.056392 
" clip-path="url(#pfcd5e60e39)" style="fill: none; stroke-dasharray: 5.12,1.28,0.8,1.28; stroke-dashoffset: 0; stroke: #b0b0b0; stroke-width: 0.8"/>
     </g>
     <g id="line2d_36">
      <g>
       <use xlink:href="#m01c9e5cf1a" x="108" y="90.056392" style="fill: #a9a9a9; stroke: #a9a9a9; stroke-width: 0.8"/>
      </g>
     </g>
     <g id="text_18">
      <!-- 4800 -->
      <g style="fill: #a9a9a9" transform="translate(75.55 93.855611) scale(0.1 -0.1)">
       <use xlink:href="#DejaVuSans-34"/>
       <use xlink:href="#DejaVuSans-38" x="63.623047"/>
       <use xlink:href="#DejaVuSans-30" x="127.246094"/>
       <use xlink:href="#DejaVuSans-30" x="190.869141"/>
      </g>
     </g>
    </g>
    <g id="ytick_8">
     <g id="line2d_37">
      <path d="M 108 53.758228 
L 777.6 53.758228 
" clip-path="url(#pfcd5e60e39)" style="fill: none; stroke-dasharray: 5.12,1.28,0.8,1.28; stroke-dashoffset: 0; stroke: #b0b0b0; stroke-width: 0.8"/>
     </g>
     <g id="line2d_38">
      <g>
       <use xlink:href="#m01c9e5cf1a" x="108" y="53.758228" style="fill: #a9a9a9; stroke: #a9a9a9; stroke-width: 0.8"/>
      </g>
     </g>
     <g id="text_19">
      <!-- 5600 -->
      <g style="fill: #a9a9a9" transform="translate(75.55 57.557447) scale(0.1 -0.1)">
       <defs>
        <path id="DejaVuSans-35" d="M 691 4666 
L 3169 4666 
L 3169 4134 
L 1269 4134 
L 1269 2991 
Q 1406 3038 1543 3061 
Q 1681 3084 1819 3084 
Q 2600 3084 3056 2656 
Q 3513 2228 3513 1497 
Q 3513 744 3044 326 
Q 2575 -91 1722 -91 
Q 1428 -91 1123 -41 
Q 819 9 494 109 
L 494 744 
Q 775 591 1075 516 
Q 1375 441 1709 441 
Q 2250 441 2565 725 
Q 2881 1009 2881 1497 
Q 2881 1984 2565 2268 
Q 2250 2553 1709 2553 
Q 1456 2553 1204 2497 
Q 953 2441 691 2322 
L 691 4666 
z
" transform="scale(0.015625)"/>
       </defs>
       <use xlink:href="#DejaVuSans-35"/>
       <use xlink:href="#DejaVuSans-36" x="63.623047"/>
       <use xlink:href="#DejaVuSans-30" x="127.246094"/>
       <use xlink:href="#DejaVuSans-30" x="190.869141"/>
      </g>
     </g>
    </g>
   </g>
   <g id="line2d_39">
    <path d="M 138.436364 307.709255 
L 142.397712 307.391646 
L 143.057937 307.119409 
L 145.038612 306.892546 
L 149.660185 306.030465 
L 152.961309 305.712856 
L 153.621534 305.395247 
L 154.281759 305.213756 
L 154.941984 304.397047 
L 155.602209 303.94332 
L 156.262433 302.536766 
L 156.922658 302.446021 
L 157.582883 301.946921 
L 158.903333 301.311703 
L 161.544232 299.315304 
L 162.864682 298.770832 
L 163.524906 298.317105 
L 166.165806 297.182787 
L 166.82603 296.139215 
L 168.14648 295.186388 
L 168.806705 294.868779 
L 175.408953 293.961325 
L 176.069178 293.643716 
L 180.690751 293.280735 
L 182.671426 292.781635 
L 188.613449 292.010299 
L 189.273674 291.647317 
L 189.933899 291.556572 
L 190.594123 291.284336 
L 191.914573 291.057472 
L 192.574798 291.012099 
L 193.235023 290.785236 
L 195.875922 290.376882 
L 197.196372 290.0139 
L 199.177046 289.832409 
L 200.497496 289.696291 
L 201.15772 289.5148 
L 201.817945 289.469427 
L 203.79862 288.879582 
L 207.759968 288.289737 
L 208.420193 288.108246 
L 209.080418 287.200792 
L 211.061092 286.474829 
L 213.041767 285.930356 
L 213.701992 285.612748 
L 214.362217 285.567375 
L 217.663341 284.659921 
L 218.98379 284.569175 
L 219.644015 284.47843 
L 221.624689 283.888585 
L 224.265589 283.253367 
L 224.925813 282.981131 
L 225.586038 282.890385 
L 226.246263 282.572776 
L 232.848511 281.574577 
L 236.149635 280.667123 
L 236.80986 280.258768 
L 239.450759 279.532805 
L 240.771209 278.761469 
L 241.431434 278.307742 
L 243.412108 277.944761 
L 247.373457 276.76507 
L 248.693907 276.356716 
L 249.354131 276.26597 
L 250.674581 275.902989 
L 251.995031 275.58538 
L 252.655255 275.494634 
L 253.975705 274.950162 
L 254.63593 274.814044 
L 255.296155 274.541808 
L 255.956379 274.451062 
L 256.616604 274.133453 
L 257.276829 273.951963 
L 258.597279 273.861217 
L 259.917728 273.40749 
L 261.238178 273.316745 
L 261.898403 272.999136 
L 264.539302 272.545409 
L 267.180201 272.318545 
L 267.840426 272.182427 
L 269.160876 271.547209 
L 276.423348 268.507238 
L 277.083573 268.144256 
L 277.743798 267.418293 
L 278.404023 266.329348 
L 279.064248 265.467267 
L 279.724472 265.285776 
L 280.384697 265.285776 
L 281.705147 264.332949 
L 282.365372 264.151458 
L 283.025597 263.788477 
L 283.685821 263.652359 
L 284.346046 263.062514 
L 285.006271 262.881023 
L 286.986945 261.928196 
L 287.64717 261.111487 
L 288.307395 260.113288 
L 288.96762 259.704933 
L 289.627845 258.615988 
L 290.288069 257.935398 
L 290.948294 257.617789 
L 291.608519 257.436298 
L 294.249418 255.893626 
L 295.569868 254.850054 
L 296.230093 254.4417 
L 296.890317 253.488873 
L 297.550542 251.991574 
L 298.210767 251.038747 
L 298.870992 250.539647 
L 299.531217 250.267411 
L 302.172116 247.998776 
L 302.832341 247.545049 
L 304.15279 246.410731 
L 304.813015 245.503277 
L 306.133465 244.368959 
L 308.774364 242.690169 
L 309.434589 242.100324 
L 310.094814 241.964206 
L 312.075488 240.920634 
L 314.056162 239.922434 
L 315.376612 238.697371 
L 316.036837 237.926035 
L 317.357287 237.018581 
L 318.017511 236.83709 
L 318.677736 236.519481 
L 319.998186 235.6574 
L 320.658411 235.294418 
L 321.318635 235.203673 
L 322.639085 234.47771 
L 323.29931 234.114728 
L 323.959535 233.434138 
L 324.619759 233.025783 
L 325.279984 232.79892 
L 325.940209 232.345193 
L 328.581108 230.984012 
L 329.241333 230.394166 
L 331.882232 229.532085 
L 332.542457 229.078358 
L 333.202682 228.94224 
L 334.523132 228.488513 
L 336.503806 227.717177 
L 338.48448 226.991214 
L 339.80493 226.76435 
L 341.12538 225.630032 
L 342.445829 224.994815 
L 344.426504 223.860497 
L 345.746953 223.497515 
L 346.407178 223.089161 
L 347.067403 222.90767 
L 348.387852 222.045589 
L 349.048077 221.682607 
L 352.349201 220.911271 
L 354.329876 219.776954 
L 354.990101 219.686208 
L 355.650325 219.459345 
L 356.970775 219.187108 
L 358.951449 217.735182 
L 360.932124 217.281455 
L 361.592349 217.054591 
L 362.252573 216.555492 
L 366.213922 215.285056 
L 366.874147 215.239683 
L 371.495721 213.606266 
L 372.155946 213.288657 
L 374.13662 212.83493 
L 375.45707 212.517321 
L 376.117294 212.199712 
L 376.777519 212.063594 
L 378.758194 211.15614 
L 380.738868 210.203313 
L 381.399093 209.749586 
L 382.059318 209.568095 
L 384.039992 208.524523 
L 385.360442 208.206914 
L 386.680891 207.526323 
L 388.001341 207.163342 
L 388.661566 207.072596 
L 389.321791 206.618869 
L 389.982015 206.30126 
L 390.64224 206.165142 
L 391.96269 205.62067 
L 392.622915 205.484552 
L 393.283139 205.12157 
L 395.924039 204.713216 
L 397.244488 204.077998 
L 397.904713 203.533525 
L 398.564938 202.399208 
L 399.885387 202.126972 
L 400.545612 201.990853 
L 403.186512 200.629672 
L 403.846736 200.493554 
L 409.128535 197.998055 
L 411.109209 197.589701 
L 411.769434 197.226719 
L 415.730783 195.865538 
L 417.051232 195.04883 
L 417.711457 194.595103 
L 418.371682 194.277494 
L 419.031907 194.186748 
L 419.692132 193.959885 
L 420.352357 193.914512 
L 423.653481 193.052431 
L 424.313705 192.553331 
L 425.634155 192.099604 
L 427.614829 191.464386 
L 428.275054 191.056032 
L 428.935279 190.874541 
L 429.595504 190.420814 
L 430.255729 190.148578 
L 430.915953 189.740223 
L 431.576178 189.467987 
L 432.896628 189.150378 
L 434.877302 188.379042 
L 436.857977 186.881743 
L 437.518202 186.745625 
L 438.838651 185.747425 
L 439.498876 185.611307 
L 440.159101 184.613108 
L 440.819326 184.340871 
L 441.47955 183.841772 
L 442.139775 183.751026 
L 442.8 183.297299 
L 443.460225 182.97969 
L 444.12045 182.843572 
L 444.780674 182.571336 
L 445.440899 182.072236 
L 446.101124 181.845373 
L 448.081798 180.529564 
L 450.722698 179.213756 
L 451.382923 179.12301 
L 452.703372 178.533165 
L 453.363597 178.170184 
L 454.023822 177.081239 
L 454.684047 176.491394 
L 455.344271 176.128412 
L 456.004496 175.992294 
L 457.324946 175.175585 
L 457.985171 175.039467 
L 459.30562 174.404249 
L 461.286295 173.587541 
L 462.606744 172.680086 
L 463.927194 171.318905 
L 465.247643 170.502197 
L 465.907868 170.093842 
L 466.568093 169.413252 
L 467.228318 168.959525 
L 468.548768 167.87058 
L 469.208992 167.598344 
L 469.869217 166.87238 
L 470.529442 166.373281 
L 471.849892 165.919553 
L 472.510116 165.375081 
L 473.830566 164.69449 
L 474.490791 164.513 
L 475.151016 164.059273 
L 475.81124 163.923154 
L 477.791915 162.879582 
L 478.45214 162.425855 
L 479.772589 161.881383 
L 480.432814 161.745265 
L 481.093039 161.33691 
L 484.394163 160.293338 
L 485.054388 160.111847 
L 485.714613 159.794238 
L 486.374837 159.204393 
L 488.355512 158.47843 
L 489.675961 158.070076 
L 490.336186 157.570976 
L 492.977085 156.209795 
L 493.63731 155.846813 
L 494.95776 153.260569 
L 496.278209 151.717897 
L 496.938434 151.26417 
L 498.919109 150.402089 
L 499.579333 150.175225 
L 500.239558 150.08448 
L 500.899783 149.721498 
L 502.880458 149.131653 
L 505.521357 147.951963 
L 506.181582 147.543608 
L 507.502031 147.089881 
L 511.46338 144.821246 
L 512.123605 144.140655 
L 513.444054 143.414692 
L 514.104279 143.05171 
L 514.764504 142.824847 
L 515.424729 142.37112 
L 516.745178 141.735902 
L 518.725853 140.69233 
L 519.386078 140.510839 
L 520.046303 140.011739 
L 520.706527 139.739503 
L 521.366752 139.603385 
L 522.687202 139.149658 
L 524.667876 138.423695 
L 525.328101 137.924595 
L 526.648551 137.561613 
L 527.969 137.062514 
L 528.629225 136.518041 
L 529.949675 136.109687 
L 530.609899 135.792078 
L 531.270124 135.610587 
L 532.590574 134.703133 
L 533.911023 134.113288 
L 535.231473 133.115088 
L 536.551923 132.661361 
L 537.212148 132.116889 
L 537.872372 132.026143 
L 539.192822 131.073317 
L 540.513272 130.438099 
L 541.173496 130.165862 
L 541.833721 129.485272 
L 545.79507 128.033345 
L 547.775744 127.171264 
L 549.756419 126.581419 
L 551.076868 126.399928 
L 551.737093 126.127692 
L 552.397318 126.036946 
L 553.717768 125.492474 
L 554.377993 125.447101 
L 557.018892 124.494274 
L 558.999566 123.133093 
L 562.960915 121.182067 
L 564.281365 120.365358 
L 564.941589 119.957004 
L 566.262039 119.639395 
L 567.582489 118.731941 
L 570.223388 117.915232 
L 570.883613 117.642996 
L 572.204062 117.325387 
L 575.505186 116.236442 
L 577.485861 115.873461 
L 578.146086 115.69197 
L 578.80631 115.374361 
L 579.466535 115.283615 
L 580.786985 114.739143 
L 581.44721 114.648398 
L 582.107434 114.330789 
L 583.427884 114.058552 
L 584.088109 113.740943 
L 586.068783 113.287216 
L 587.389233 113.01498 
L 591.350582 112.289017 
L 592.671031 112.016781 
L 593.331256 111.880663 
L 593.991481 111.608426 
L 594.651706 111.563054 
L 596.63238 111.018581 
L 597.292605 110.6556 
L 600.593729 109.838891 
L 601.253954 109.702773 
L 602.574403 109.249046 
L 604.555078 108.568455 
L 605.215303 108.47771 
L 607.195977 107.797119 
L 607.856202 107.797119 
L 609.176652 107.343392 
L 609.836876 106.708174 
L 610.497101 106.390565 
L 611.817551 105.982211 
L 614.45845 104.984012 
L 615.118675 104.847893 
L 615.7789 104.439539 
L 616.439124 104.303421 
L 617.099349 103.895067 
L 620.400473 102.94224 
L 621.060698 102.533885 
L 621.720923 102.352395 
L 622.381148 101.807922 
L 624.361822 101.444941 
L 625.682272 100.718977 
L 626.342497 99.993014 
L 627.662946 99.720778 
L 632.28452 98.677206 
L 632.944745 98.495715 
L 634.265194 98.450342 
L 634.925419 98.132733 
L 637.566318 97.679006 
L 638.226543 97.361397 
L 640.207218 97.089161 
L 642.848117 96.272452 
L 644.828791 95.818725 
L 646.809466 95.319625 
L 649.450365 94.502917 
L 650.11059 94.366799 
L 650.770814 94.04919 
L 651.431039 93.958444 
L 652.091264 93.731581 
L 652.751489 93.323227 
L 654.732163 92.597263 
L 655.392388 92.098163 
L 656.712838 91.735182 
L 657.373063 91.462946 
L 658.693512 91.099964 
L 661.334411 89.920274 
L 663.315086 89.784156 
L 665.955985 88.967447 
L 666.61621 88.559093 
L 667.936659 88.150738 
L 669.917334 87.152539 
L 670.577559 87.016421 
L 671.237783 86.698812 
L 671.898008 86.608066 
L 679.160481 84.203313 
L 681.80138 83.568095 
L 682.461605 83.386604 
L 683.782055 82.751386 
L 684.44228 82.660641 
L 685.762729 82.297659 
L 686.422954 81.79856 
L 687.083179 81.480951 
L 687.743404 80.709615 
L 688.403628 80.210515 
L 689.724078 79.802161 
L 690.384303 79.257688 
L 697.646776 76.308462 
L 698.967225 75.990853 
L 700.287675 75.401008 
L 702.268349 74.221318 
L 702.928574 74.0852 
L 703.588799 73.5861 
L 704.909249 72.950882 
L 706.229698 72.134174 
L 708.210373 71.226719 
L 708.870598 70.772992 
L 710.191047 70.273893 
L 710.851272 69.820166 
L 712.171722 69.184948 
L 712.831946 68.731221 
L 714.152396 68.277494 
L 714.812621 68.141376 
L 717.45352 66.961685 
L 720.754644 65.827368 
L 721.414869 65.781995 
L 722.075094 65.600504 
L 722.735318 65.19215 
L 723.395543 65.101404 
L 724.055768 64.783795 
L 726.036443 64.375441 
L 729.337567 62.696651 
L 730.658016 61.970688 
L 731.318241 61.879942 
L 733.298915 60.790997 
L 735.27959 60.065034 
L 737.260264 59.202953 
L 739.901163 58.159381 
L 740.561388 57.97789 
L 741.221613 57.569535 
L 741.881838 57.524163 
L 742.542063 57.342672 
L 743.202288 56.888945 
L 743.862512 56.843572 
L 745.182962 56.435218 
L 746.503412 55.8 
L 747.163636 55.8 
L 747.163636 55.8 
" clip-path="url(#pfcd5e60e39)" style="fill: none; stroke: #1f77b4; stroke-width: 1.5; stroke-linecap: square"/>
   </g>
   <g id="line2d_40">
    <path d="M 139.096588 307.8 
L 141.077263 307.709255 
L 143.057937 307.663882 
L 147.019286 307.573136 
L 150.32041 307.437018 
L 152.961309 307.437018 
L 153.621534 307.255528 
L 156.262433 307.164782 
L 158.243108 306.937919 
L 160.223782 306.756428 
L 164.185131 306.574937 
L 164.845356 306.574937 
L 165.505581 306.438819 
L 168.14648 306.348073 
L 169.46693 306.257328 
L 174.748728 306.166583 
L 178.049852 306.030465 
L 185.97255 305.939719 
L 189.273674 305.803601 
L 193.235023 305.712856 
L 195.875922 305.62211 
L 201.817945 305.531365 
L 203.79862 305.485992 
L 205.779294 305.440619 
L 207.759968 305.213756 
L 211.721317 305.168383 
L 213.041767 305.077638 
L 217.663341 304.986892 
L 224.925813 304.578538 
L 229.547387 304.487793 
L 230.867837 304.397047 
L 232.848511 304.306302 
L 236.80986 304.124811 
L 239.450759 304.079438 
L 241.431434 303.897947 
L 251.995031 303.26273 
L 254.63593 303.171984 
L 259.257503 302.945121 
L 261.238178 302.854375 
L 267.840426 302.491394 
L 275.102899 302.400648 
L 277.743798 302.128412 
L 279.064248 302.037667 
L 287.64717 301.357076 
L 291.608519 300.857976 
L 294.249418 300.767231 
L 299.531217 300.08664 
L 302.832341 299.995895 
L 311.415263 299.315304 
L 315.376612 298.861577 
L 317.357287 298.816205 
L 318.677736 298.725459 
L 321.318635 298.634714 
L 322.639085 298.543968 
L 325.940209 298.226359 
L 326.600434 298.044869 
L 330.561783 297.863378 
L 333.862907 297.772632 
L 342.445829 297.273533 
L 344.426504 297.182787 
L 353.009426 296.683687 
L 357.631 296.592942 
L 358.291225 296.456824 
L 363.573023 296.366079 
L 368.194597 296.139215 
L 375.45707 296.04847 
L 380.078643 295.821606 
L 385.360442 295.730861 
L 390.64224 295.458624 
L 395.263814 295.367879 
L 407.808085 294.596543 
L 413.089884 294.505798 
L 430.255729 293.416853 
L 434.217077 293.326107 
L 436.197752 293.280735 
L 438.178426 293.235362 
L 440.159101 293.053871 
L 445.440899 292.963126 
L 446.761349 292.736262 
L 448.081798 292.645517 
L 451.382923 292.509399 
L 452.703372 292.418653 
L 454.023822 292.327908 
L 459.965845 292.237162 
L 461.286295 292.101044 
L 463.927194 292.055672 
L 464.587419 291.919553 
L 465.907868 291.828808 
L 466.568093 291.69269 
L 468.548768 291.601945 
L 479.772589 290.921354 
L 481.753264 290.830609 
L 485.054388 290.69449 
L 494.297535 290.603745 
L 498.919109 290.376882 
L 504.200907 290.286136 
L 506.841806 290.195391 
L 509.482706 290.150018 
L 510.803155 290.0139 
L 513.444054 289.923154 
L 520.046303 289.560173 
L 524.007651 289.5148 
L 525.988326 289.333309 
L 527.969 289.287937 
L 532.590574 289.197191 
L 535.231473 289.106446 
L 541.173496 289.0157 
L 543.814396 288.924955 
L 547.775744 288.83421 
L 554.377993 288.471228 
L 556.358667 288.471228 
L 557.018892 288.33511 
L 558.339341 288.244364 
L 560.980241 288.153619 
L 568.902938 288.062874 
L 572.204062 287.926755 
L 583.427884 287.881383 
L 584.748334 287.790637 
L 586.729008 287.745265 
L 595.311931 287.654519 
L 596.63238 287.563774 
L 603.894853 287.473028 
L 606.535752 287.382283 
L 614.45845 287.33691 
L 615.7789 287.246165 
L 625.682272 287.200792 
L 627.662946 287.019301 
L 638.886768 286.928556 
L 640.867442 286.883183 
L 658.033287 286.792438 
L 660.674187 286.701692 
L 672.558233 286.610947 
L 675.199132 286.520202 
L 679.820706 286.429456 
L 685.102504 286.15722 
L 687.743404 286.066475 
L 690.384303 285.975729 
L 694.345652 285.884984 
L 696.326326 285.839611 
L 698.967225 285.748866 
L 700.9479 285.703493 
L 704.249024 285.612748 
L 705.569473 285.476629 
L 709.530822 285.385884 
L 716.793295 284.97753 
L 720.094419 284.886784 
L 722.735318 284.796039 
L 727.356892 284.705293 
L 729.997791 284.614548 
L 735.27959 284.523803 
L 737.260264 284.47843 
L 740.561388 284.387685 
L 744.522737 284.206194 
L 747.163636 284.206194 
L 747.163636 284.206194 
" clip-path="url(#pfcd5e60e39)" style="fill: none; stroke: #ff7f0e; stroke-width: 1.5; stroke-linecap: square"/>
   </g>
   <g id="patch_3">
    <path d="M 108 320.4 
L 108 43.2 
" style="fill: none; stroke: #a9a9a9; stroke-width: 0.8; stroke-linejoin: miter; stroke-linecap: square"/>
   </g>
   <g id="patch_4">
    <path d="M 777.6 320.4 
L 777.6 43.2 
" style="fill: none"/>
   </g>
   <g id="patch_5">
    <path d="M 108 320.4 
L 777.6 320.4 
" style="fill: none; stroke: #a9a9a9; stroke-width: 0.8; stroke-linejoin: miter; stroke-linecap: square"/>
   </g>
   <g id="patch_6">
    <path d="M 108 43.2 
L 777.6 43.2 
" style="fill: none"/>
   </g>
   <g id="text_20">
    <!-- get_subscribe history -->
    <g style="fill: #a9a9a9" transform="translate(378.6075 37.2) scale(0.12 -0.12)">
     <defs>
      <path id="DejaVuSans-67" d="M 2906 1791 
Q 2906 2416 2648 2759 
Q 2391 3103 1925 3103 
Q 1463 3103 1205 2759 
Q 947 2416 947 1791 
Q 947 1169 1205 825 
Q 1463 481 1925 481 
Q 2391 481 2648 825 
Q 2906 1169 2906 1791 
z
M 3481 434 
Q 3481 -459 3084 -895 
Q 2688 -1331 1869 -1331 
Q 1566 -1331 1297 -1286 
Q 1028 -1241 775 -1147 
L 775 -588 
Q 1028 -725 1275 -790 
Q 1522 -856 1778 -856 
Q 2344 -856 2625 -561 
Q 2906 -266 2906 331 
L 2906 616 
Q 2728 306 2450 153 
Q 2172 0 1784 0 
Q 1141 0 747 490 
Q 353 981 353 1791 
Q 353 2603 747 3093 
Q 1141 3584 1784 3584 
Q 2172 3584 2450 3431 
Q 2728 3278 2906 2969 
L 2906 3500 
L 3481 3500 
L 3481 434 
z
" transform="scale(0.015625)"/>
      <path id="DejaVuSans-65" d="M 3597 1894 
L 3597 1613 
L 953 1613 
Q 991 1019 1311 708 
Q 1631 397 2203 397 
Q 2534 397 2845 478 
Q 3156 559 3463 722 
L 3463 178 
Q 3153 47 2828 -22 
Q 2503 -91 2169 -91 
Q 1331 -91 842 396 
Q 353 884 353 1716 
Q 353 2575 817 3079 
Q 1281 3584 2069 3584 
Q 2775 3584 3186 3129 
Q 3597 2675 3597 1894 
z
M 3022 2063 
Q 3016 2534 2758 2815 
Q 2500 3097 2075 3097 
Q 1594 3097 1305 2825 
Q 1016 2553 972 2059 
L 3022 2063 
z
" transform="scale(0.015625)"/>
      <path id="DejaVuSans-74" d="M 1172 4494 
L 1172 3500 
L 2356 3500 
L 2356 3053 
L 1172 3053 
L 1172 1153 
Q 1172 725 1289 603 
Q 1406 481 1766 481 
L 2356 481 
L 2356 0 
L 1766 0 
Q 1100 0 847 248 
Q 594 497 594 1153 
L 594 3053 
L 172 3053 
L 172 3500 
L 594 3500 
L 594 4494 
L 1172 4494 
z
" transform="scale(0.015625)"/>
      <path id="DejaVuSans-5f" d="M 3263 -1063 
L 3263 -1509 
L -63 -1509 
L -63 -1063 
L 3263 -1063 
z
" transform="scale(0.015625)"/>
      <path id="DejaVuSans-73" d="M 2834 3397 
L 2834 2853 
Q 2591 2978 2328 3040 
Q 2066 3103 1784 3103 
Q 1356 3103 1142 2972 
Q 928 2841 928 2578 
Q 928 2378 1081 2264 
Q 1234 2150 1697 2047 
L 1894 2003 
Q 2506 1872 2764 1633 
Q 3022 1394 3022 966 
Q 3022 478 2636 193 
Q 2250 -91 1575 -91 
Q 1294 -91 989 -36 
Q 684 19 347 128 
L 347 722 
Q 666 556 975 473 
Q 1284 391 1588 391 
Q 1994 391 2212 530 
Q 2431 669 2431 922 
Q 2431 1156 2273 1281 
Q 2116 1406 1581 1522 
L 1381 1569 
Q 847 1681 609 1914 
Q 372 2147 372 2553 
Q 372 3047 722 3315 
Q 1072 3584 1716 3584 
Q 2034 3584 2315 3537 
Q 2597 3491 2834 3397 
z
" transform="scale(0.015625)"/>
      <path id="DejaVuSans-75" d="M 544 1381 
L 544 3500 
L 1119 3500 
L 1119 1403 
Q 1119 906 1312 657 
Q 1506 409 1894 409 
Q 2359 409 2629 706 
Q 2900 1003 2900 1516 
L 2900 3500 
L 3475 3500 
L 3475 0 
L 2900 0 
L 2900 538 
Q 2691 219 2414 64 
Q 2138 -91 1772 -91 
Q 1169 -91 856 284 
Q 544 659 544 1381 
z
M 1991 3584 
L 1991 3584 
z
" transform="scale(0.015625)"/>
      <path id="DejaVuSans-62" d="M 3116 1747 
Q 3116 2381 2855 2742 
Q 2594 3103 2138 3103 
Q 1681 3103 1420 2742 
Q 1159 2381 1159 1747 
Q 1159 1113 1420 752 
Q 1681 391 2138 391 
Q 2594 391 2855 752 
Q 3116 1113 3116 1747 
z
M 1159 2969 
Q 1341 3281 1617 3432 
Q 1894 3584 2278 3584 
Q 2916 3584 3314 3078 
Q 3713 2572 3713 1747 
Q 3713 922 3314 415 
Q 2916 -91 2278 -91 
Q 1894 -91 1617 61 
Q 1341 213 1159 525 
L 1159 0 
L 581 0 
L 581 4863 
L 1159 4863 
L 1159 2969 
z
" transform="scale(0.015625)"/>
      <path id="DejaVuSans-63" d="M 3122 3366 
L 3122 2828 
Q 2878 2963 2633 3030 
Q 2388 3097 2138 3097 
Q 1578 3097 1268 2742 
Q 959 2388 959 1747 
Q 959 1106 1268 751 
Q 1578 397 2138 397 
Q 2388 397 2633 464 
Q 2878 531 3122 666 
L 3122 134 
Q 2881 22 2623 -34 
Q 2366 -91 2075 -91 
Q 1284 -91 818 406 
Q 353 903 353 1747 
Q 353 2603 823 3093 
Q 1294 3584 2113 3584 
Q 2378 3584 2631 3529 
Q 2884 3475 3122 3366 
z
" transform="scale(0.015625)"/>
      <path id="DejaVuSans-72" d="M 2631 2963 
Q 2534 3019 2420 3045 
Q 2306 3072 2169 3072 
Q 1681 3072 1420 2755 
Q 1159 2438 1159 1844 
L 1159 0 
L 581 0 
L 581 3500 
L 1159 3500 
L 1159 2956 
Q 1341 3275 1631 3429 
Q 1922 3584 2338 3584 
Q 2397 3584 2469 3576 
Q 2541 3569 2628 3553 
L 2631 2963 
z
" transform="scale(0.015625)"/>
      <path id="DejaVuSans-69" d="M 603 3500 
L 1178 3500 
L 1178 0 
L 603 0 
L 603 3500 
z
M 603 4863 
L 1178 4863 
L 1178 4134 
L 603 4134 
L 603 4863 
z
" transform="scale(0.015625)"/>
      <path id="DejaVuSans-20" transform="scale(0.015625)"/>
      <path id="DejaVuSans-68" d="M 3513 2113 
L 3513 0 
L 2938 0 
L 2938 2094 
Q 2938 2591 2744 2837 
Q 2550 3084 2163 3084 
Q 1697 3084 1428 2787 
Q 1159 2491 1159 1978 
L 1159 0 
L 581 0 
L 581 4863 
L 1159 4863 
L 1159 2956 
Q 1366 3272 1645 3428 
Q 1925 3584 2291 3584 
Q 2894 3584 3203 3211 
Q 3513 2838 3513 2113 
z
" transform="scale(0.015625)"/>
      <path id="DejaVuSans-6f" d="M 1959 3097 
Q 1497 3097 1228 2736 
Q 959 2375 959 1747 
Q 959 1119 1226 758 
Q 1494 397 1959 397 
Q 2419 397 2687 759 
Q 2956 1122 2956 1747 
Q 2956 2369 2687 2733 
Q 2419 3097 1959 3097 
z
M 1959 3584 
Q 2709 3584 3137 3096 
Q 3566 2609 3566 1747 
Q 3566 888 3137 398 
Q 2709 -91 1959 -91 
Q 1206 -91 779 398 
Q 353 888 353 1747 
Q 353 2609 779 3096 
Q 1206 3584 1959 3584 
z
" transform="scale(0.015625)"/>
      <path id="DejaVuSans-79" d="M 2059 -325 
Q 1816 -950 1584 -1140 
Q 1353 -1331 966 -1331 
L 506 -1331 
L 506 -850 
L 844 -850 
Q 1081 -850 1212 -737 
Q 1344 -625 1503 -206 
L 1606 56 
L 191 3500 
L 800 3500 
L 1894 763 
L 2988 3500 
L 3597 3500 
L 2059 -325 
z
" transform="scale(0.015625)"/>
     </defs>
     <use xlink:href="#DejaVuSans-67"/>
     <use xlink:href="#DejaVuSans-65" x="63.476562"/>
     <use xlink:href="#DejaVuSans-74" x="125"/>
     <use xlink:href="#DejaVuSans-5f" x="164.208984"/>
     <use xlink:href="#DejaVuSans-73" x="214.208984"/>
     <use xlink:href="#DejaVuSans-75" x="266.308594"/>
     <use xlink:href="#DejaVuSans-62" x="329.6875"/>
     <use xlink:href="#DejaVuSans-73" x="393.164062"/>
     <use xlink:href="#DejaVuSans-63" x="445.263672"/>
     <use xlink:href="#DejaVuSans-72" x="500.244141"/>
     <use xlink:href="#DejaVuSans-69" x="541.357422"/>
     <use xlink:href="#DejaVuSans-62" x="569.140625"/>
     <use xlink:href="#DejaVuSans-65" x="632.617188"/>
     <use xlink:href="#DejaVuSans-20" x="694.140625"/>
     <use xlink:href="#DejaVuSans-68" x="725.927734"/>
     <use xlink:href="#DejaVuSans-69" x="789.306641"/>
     <use xlink:href="#DejaVuSans-73" x="817.089844"/>
     <use xlink:href="#DejaVuSans-74" x="869.189453"/>
     <use xlink:href="#DejaVuSans-6f" x="908.398438"/>
     <use xlink:href="#DejaVuSans-72" x="969.580078"/>
     <use xlink:href="#DejaVuSans-79" x="1010.693359"/>
    </g>
   </g>
   <g id="legend_1">
    <g id="line2d_41">
     <path d="M 815.08 328.498438 
L 825.08 328.498438 
L 835.08 328.498438 
" style="fill: none; stroke: #1f77b4; stroke-width: 1.5; stroke-linecap: square"/>
    </g>
    <g id="text_21">
     <!-- star -->
     <g style="fill: #a9a9a9" transform="translate(843.08 331.998438) scale(0.1 -0.1)">
      <defs>
       <path id="DejaVuSans-61" d="M 2194 1759 
Q 1497 1759 1228 1600 
Q 959 1441 959 1056 
Q 959 750 1161 570 
Q 1363 391 1709 391 
Q 2188 391 2477 730 
Q 2766 1069 2766 1631 
L 2766 1759 
L 2194 1759 
z
M 3341 1997 
L 3341 0 
L 2766 0 
L 2766 531 
Q 2569 213 2275 61 
Q 1981 -91 1556 -91 
Q 1019 -91 701 211 
Q 384 513 384 1019 
Q 384 1609 779 1909 
Q 1175 2209 1959 2209 
L 2766 2209 
L 2766 2266 
Q 2766 2663 2505 2880 
Q 2244 3097 1772 3097 
Q 1472 3097 1187 3025 
Q 903 2953 641 2809 
L 641 3341 
Q 956 3463 1253 3523 
Q 1550 3584 1831 3584 
Q 2591 3584 2966 3190 
Q 3341 2797 3341 1997 
z
" transform="scale(0.015625)"/>
      </defs>
      <use xlink:href="#DejaVuSans-73"/>
      <use xlink:href="#DejaVuSans-74" x="52.099609"/>
      <use xlink:href="#DejaVuSans-61" x="91.308594"/>
      <use xlink:href="#DejaVuSans-72" x="152.587891"/>
     </g>
    </g>
    <g id="line2d_42">
     <path d="M 815.08 343.176562 
L 825.08 343.176562 
L 835.08 343.176562 
" style="fill: none; stroke: #ff7f0e; stroke-width: 1.5; stroke-linecap: square"/>
    </g>
    <g id="text_22">
     <!-- fork -->
     <g style="fill: #a9a9a9" transform="translate(843.08 346.676562) scale(0.1 -0.1)">
      <defs>
       <path id="DejaVuSans-66" d="M 2375 4863 
L 2375 4384 
L 1825 4384 
Q 1516 4384 1395 4259 
Q 1275 4134 1275 3809 
L 1275 3500 
L 2222 3500 
L 2222 3053 
L 1275 3053 
L 1275 0 
L 697 0 
L 697 3053 
L 147 3053 
L 147 3500 
L 697 3500 
L 697 3744 
Q 697 4328 969 4595 
Q 1241 4863 1831 4863 
L 2375 4863 
z
" transform="scale(0.015625)"/>
       <path id="DejaVuSans-6b" d="M 581 4863 
L 1159 4863 
L 1159 1991 
L 2875 3500 
L 3609 3500 
L 1753 1863 
L 3688 0 
L 2938 0 
L 1159 1709 
L 1159 0 
L 581 0 
L 581 4863 
z
" transform="scale(0.015625)"/>
      </defs>
      <use xlink:href="#DejaVuSans-66"/>
      <use xlink:href="#DejaVuSans-6f" x="35.205078"/>
      <use xlink:href="#DejaVuSans-72" x="96.386719"/>
      <use xlink:href="#DejaVuSans-6b" x="137.5"/>
     </g>
    </g>
   </g>
  </g>
 </g>
 <defs>
  <clipPath id="pfcd5e60e39">
   <rect x="108" y="43.2" width="669.6" height="277.2"/>
  </clipPath>
 </defs>
</svg>
