<?xml version="1.0" encoding="utf-8" standalone="no"?>
<!DOCTYPE svg PUBLIC "-//W3C//DTD SVG 1.1//EN"
  "http://www.w3.org/Graphics/SVG/1.1/DTD/svg11.dtd">
<svg xmlns:xlink="http://www.w3.org/1999/xlink" width="864pt" height="360pt" viewBox="0 0 864 360" xmlns="http://www.w3.org/2000/svg" version="1.1">
 <metadata>
  <rdf:RDF xmlns:dc="http://purl.org/dc/elements/1.1/" xmlns:cc="http://creativecommons.org/ns#" xmlns:rdf="http://www.w3.org/1999/02/22-rdf-syntax-ns#">
   <cc:Work>
    <dc:type rdf:resource="http://purl.org/dc/dcmitype/StillImage"/>
    <dc:date>2024-01-31T20:04:36.191984</dc:date>
    <dc:format>image/svg+xml</dc:format>
    <dc:creator>
     <cc:Agent>
      <dc:title>Matplotlib v3.8.2, https://matplotlib.org/</dc:title>
     </cc:Agent>
    </dc:creator>
   </cc:Work>
  </rdf:RDF>
 </metadata>
 <defs>
  <style type="text/css">*{stroke-linejoin: round; stroke-linecap: butt}</style>
 </defs>
 <g id="figure_1">
  <g id="patch_1">
   <path d="M 0 360 
L 864 360 
L 864 0 
L 0 0 
L 0 360 
z
" style="fill: none; opacity: 0"/>
  </g>
  <g id="axes_1">
   <g id="patch_2">
    <path d="M 108 320.4 
L 777.6 320.4 
L 777.6 43.2 
L 108 43.2 
L 108 320.4 
z
" style="fill: none; opacity: 0"/>
   </g>
   <g id="matplotlib.axis_1">
    <g id="xtick_1">
     <g id="line2d_1">
      <path d="M 123.234705 320.4 
L 123.234705 43.2 
" clip-path="url(#p44d14cda38)" style="fill: none; stroke-dasharray: 5.12,1.28,0.8,1.28; stroke-dashoffset: 0; stroke: #b0b0b0; stroke-width: 0.8"/>
     </g>
     <g id="line2d_2">
      <defs>
       <path id="mebf8bf0964" d="M 0 0 
L 0 3.5 
" style="stroke: #a9a9a9; stroke-width: 0.8"/>
      </defs>
      <g>
       <use xlink:href="#mebf8bf0964" x="123.234705" y="320.4" style="fill: #a9a9a9; stroke: #a9a9a9; stroke-width: 0.8"/>
      </g>
     </g>
     <g id="text_1">
      <!-- 2021-07 -->
      <g style="fill: #a9a9a9" transform="translate(102.343299 334.998438) scale(0.1 -0.1)">
       <defs>
        <path id="DejaVuSans-32" d="M 1228 531 
L 3431 531 
L 3431 0 
L 469 0 
L 469 531 
Q 828 903 1448 1529 
Q 2069 2156 2228 2338 
Q 2531 2678 2651 2914 
Q 2772 3150 2772 3378 
Q 2772 3750 2511 3984 
Q 2250 4219 1831 4219 
Q 1534 4219 1204 4116 
Q 875 4013 500 3803 
L 500 4441 
Q 881 4594 1212 4672 
Q 1544 4750 1819 4750 
Q 2544 4750 2975 4387 
Q 3406 4025 3406 3419 
Q 3406 3131 3298 2873 
Q 3191 2616 2906 2266 
Q 2828 2175 2409 1742 
Q 1991 1309 1228 531 
z
" transform="scale(0.015625)"/>
        <path id="DejaVuSans-30" d="M 2034 4250 
Q 1547 4250 1301 3770 
Q 1056 3291 1056 2328 
Q 1056 1369 1301 889 
Q 1547 409 2034 409 
Q 2525 409 2770 889 
Q 3016 1369 3016 2328 
Q 3016 3291 2770 3770 
Q 2525 4250 2034 4250 
z
M 2034 4750 
Q 2819 4750 3233 4129 
Q 3647 3509 3647 2328 
Q 3647 1150 3233 529 
Q 2819 -91 2034 -91 
Q 1250 -91 836 529 
Q 422 1150 422 2328 
Q 422 3509 836 4129 
Q 1250 4750 2034 4750 
z
" transform="scale(0.015625)"/>
        <path id="DejaVuSans-31" d="M 794 531 
L 1825 531 
L 1825 4091 
L 703 3866 
L 703 4441 
L 1819 4666 
L 2450 4666 
L 2450 531 
L 3481 531 
L 3481 0 
L 794 0 
L 794 531 
z
" transform="scale(0.015625)"/>
        <path id="DejaVuSans-2d" d="M 313 2009 
L 1997 2009 
L 1997 1497 
L 313 1497 
L 313 2009 
z
" transform="scale(0.015625)"/>
        <path id="DejaVuSans-37" d="M 525 4666 
L 3525 4666 
L 3525 4397 
L 1831 0 
L 1172 0 
L 2766 4134 
L 525 4134 
L 525 4666 
z
" transform="scale(0.015625)"/>
       </defs>
       <use xlink:href="#DejaVuSans-32"/>
       <use xlink:href="#DejaVuSans-30" x="63.623047"/>
       <use xlink:href="#DejaVuSans-32" x="127.246094"/>
       <use xlink:href="#DejaVuSans-31" x="190.869141"/>
       <use xlink:href="#DejaVuSans-2d" x="254.492188"/>
       <use xlink:href="#DejaVuSans-30" x="290.576172"/>
       <use xlink:href="#DejaVuSans-37" x="354.199219"/>
      </g>
     </g>
    </g>
    <g id="xtick_2">
     <g id="line2d_3">
      <path d="M 184.041338 320.4 
L 184.041338 43.2 
" clip-path="url(#p44d14cda38)" style="fill: none; stroke-dasharray: 5.12,1.28,0.8,1.28; stroke-dashoffset: 0; stroke: #b0b0b0; stroke-width: 0.8"/>
     </g>
     <g id="line2d_4">
      <g>
       <use xlink:href="#mebf8bf0964" x="184.041338" y="320.4" style="fill: #a9a9a9; stroke: #a9a9a9; stroke-width: 0.8"/>
      </g>
     </g>
     <g id="text_2">
      <!-- 2021-10 -->
      <g style="fill: #a9a9a9" transform="translate(163.149932 334.998438) scale(0.1 -0.1)">
       <use xlink:href="#DejaVuSans-32"/>
       <use xlink:href="#DejaVuSans-30" x="63.623047"/>
       <use xlink:href="#DejaVuSans-32" x="127.246094"/>
       <use xlink:href="#DejaVuSans-31" x="190.869141"/>
       <use xlink:href="#DejaVuSans-2d" x="254.492188"/>
       <use xlink:href="#DejaVuSans-31" x="290.576172"/>
       <use xlink:href="#DejaVuSans-30" x="354.199219"/>
      </g>
     </g>
    </g>
    <g id="xtick_3">
     <g id="line2d_5">
      <path d="M 244.847972 320.4 
L 244.847972 43.2 
" clip-path="url(#p44d14cda38)" style="fill: none; stroke-dasharray: 5.12,1.28,0.8,1.28; stroke-dashoffset: 0; stroke: #b0b0b0; stroke-width: 0.8"/>
     </g>
     <g id="line2d_6">
      <g>
       <use xlink:href="#mebf8bf0964" x="244.847972" y="320.4" style="fill: #a9a9a9; stroke: #a9a9a9; stroke-width: 0.8"/>
      </g>
     </g>
     <g id="text_3">
      <!-- 2022-01 -->
      <g style="fill: #a9a9a9" transform="translate(223.956565 334.998438) scale(0.1 -0.1)">
       <use xlink:href="#DejaVuSans-32"/>
       <use xlink:href="#DejaVuSans-30" x="63.623047"/>
       <use xlink:href="#DejaVuSans-32" x="127.246094"/>
       <use xlink:href="#DejaVuSans-32" x="190.869141"/>
       <use xlink:href="#DejaVuSans-2d" x="254.492188"/>
       <use xlink:href="#DejaVuSans-30" x="290.576172"/>
       <use xlink:href="#DejaVuSans-31" x="354.199219"/>
      </g>
     </g>
    </g>
    <g id="xtick_4">
     <g id="line2d_7">
      <path d="M 304.332721 320.4 
L 304.332721 43.2 
" clip-path="url(#p44d14cda38)" style="fill: none; stroke-dasharray: 5.12,1.28,0.8,1.28; stroke-dashoffset: 0; stroke: #b0b0b0; stroke-width: 0.8"/>
     </g>
     <g id="line2d_8">
      <g>
       <use xlink:href="#mebf8bf0964" x="304.332721" y="320.4" style="fill: #a9a9a9; stroke: #a9a9a9; stroke-width: 0.8"/>
      </g>
     </g>
     <g id="text_4">
      <!-- 2022-04 -->
      <g style="fill: #a9a9a9" transform="translate(283.441315 334.998438) scale(0.1 -0.1)">
       <defs>
        <path id="DejaVuSans-34" d="M 2419 4116 
L 825 1625 
L 2419 1625 
L 2419 4116 
z
M 2253 4666 
L 3047 4666 
L 3047 1625 
L 3713 1625 
L 3713 1100 
L 3047 1100 
L 3047 0 
L 2419 0 
L 2419 1100 
L 313 1100 
L 313 1709 
L 2253 4666 
z
" transform="scale(0.015625)"/>
       </defs>
       <use xlink:href="#DejaVuSans-32"/>
       <use xlink:href="#DejaVuSans-30" x="63.623047"/>
       <use xlink:href="#DejaVuSans-32" x="127.246094"/>
       <use xlink:href="#DejaVuSans-32" x="190.869141"/>
       <use xlink:href="#DejaVuSans-2d" x="254.492188"/>
       <use xlink:href="#DejaVuSans-30" x="290.576172"/>
       <use xlink:href="#DejaVuSans-34" x="354.199219"/>
      </g>
     </g>
    </g>
    <g id="xtick_5">
     <g id="line2d_9">
      <path d="M 364.478413 320.4 
L 364.478413 43.2 
" clip-path="url(#p44d14cda38)" style="fill: none; stroke-dasharray: 5.12,1.28,0.8,1.28; stroke-dashoffset: 0; stroke: #b0b0b0; stroke-width: 0.8"/>
     </g>
     <g id="line2d_10">
      <g>
       <use xlink:href="#mebf8bf0964" x="364.478413" y="320.4" style="fill: #a9a9a9; stroke: #a9a9a9; stroke-width: 0.8"/>
      </g>
     </g>
     <g id="text_5">
      <!-- 2022-07 -->
      <g style="fill: #a9a9a9" transform="translate(343.587007 334.998438) scale(0.1 -0.1)">
       <use xlink:href="#DejaVuSans-32"/>
       <use xlink:href="#DejaVuSans-30" x="63.623047"/>
       <use xlink:href="#DejaVuSans-32" x="127.246094"/>
       <use xlink:href="#DejaVuSans-32" x="190.869141"/>
       <use xlink:href="#DejaVuSans-2d" x="254.492188"/>
       <use xlink:href="#DejaVuSans-30" x="290.576172"/>
       <use xlink:href="#DejaVuSans-37" x="354.199219"/>
      </g>
     </g>
    </g>
    <g id="xtick_6">
     <g id="line2d_11">
      <path d="M 425.285046 320.4 
L 425.285046 43.2 
" clip-path="url(#p44d14cda38)" style="fill: none; stroke-dasharray: 5.12,1.28,0.8,1.28; stroke-dashoffset: 0; stroke: #b0b0b0; stroke-width: 0.8"/>
     </g>
     <g id="line2d_12">
      <g>
       <use xlink:href="#mebf8bf0964" x="425.285046" y="320.4" style="fill: #a9a9a9; stroke: #a9a9a9; stroke-width: 0.8"/>
      </g>
     </g>
     <g id="text_6">
      <!-- 2022-10 -->
      <g style="fill: #a9a9a9" transform="translate(404.39364 334.998438) scale(0.1 -0.1)">
       <use xlink:href="#DejaVuSans-32"/>
       <use xlink:href="#DejaVuSans-30" x="63.623047"/>
       <use xlink:href="#DejaVuSans-32" x="127.246094"/>
       <use xlink:href="#DejaVuSans-32" x="190.869141"/>
       <use xlink:href="#DejaVuSans-2d" x="254.492188"/>
       <use xlink:href="#DejaVuSans-31" x="290.576172"/>
       <use xlink:href="#DejaVuSans-30" x="354.199219"/>
      </g>
     </g>
    </g>
    <g id="xtick_7">
     <g id="line2d_13">
      <path d="M 486.091679 320.4 
L 486.091679 43.2 
" clip-path="url(#p44d14cda38)" style="fill: none; stroke-dasharray: 5.12,1.28,0.8,1.28; stroke-dashoffset: 0; stroke: #b0b0b0; stroke-width: 0.8"/>
     </g>
     <g id="line2d_14">
      <g>
       <use xlink:href="#mebf8bf0964" x="486.091679" y="320.4" style="fill: #a9a9a9; stroke: #a9a9a9; stroke-width: 0.8"/>
      </g>
     </g>
     <g id="text_7">
      <!-- 2023-01 -->
      <g style="fill: #a9a9a9" transform="translate(465.200273 334.998438) scale(0.1 -0.1)">
       <defs>
        <path id="DejaVuSans-33" d="M 2597 2516 
Q 3050 2419 3304 2112 
Q 3559 1806 3559 1356 
Q 3559 666 3084 287 
Q 2609 -91 1734 -91 
Q 1441 -91 1130 -33 
Q 819 25 488 141 
L 488 750 
Q 750 597 1062 519 
Q 1375 441 1716 441 
Q 2309 441 2620 675 
Q 2931 909 2931 1356 
Q 2931 1769 2642 2001 
Q 2353 2234 1838 2234 
L 1294 2234 
L 1294 2753 
L 1863 2753 
Q 2328 2753 2575 2939 
Q 2822 3125 2822 3475 
Q 2822 3834 2567 4026 
Q 2313 4219 1838 4219 
Q 1578 4219 1281 4162 
Q 984 4106 628 3988 
L 628 4550 
Q 988 4650 1302 4700 
Q 1616 4750 1894 4750 
Q 2613 4750 3031 4423 
Q 3450 4097 3450 3541 
Q 3450 3153 3228 2886 
Q 3006 2619 2597 2516 
z
" transform="scale(0.015625)"/>
       </defs>
       <use xlink:href="#DejaVuSans-32"/>
       <use xlink:href="#DejaVuSans-30" x="63.623047"/>
       <use xlink:href="#DejaVuSans-32" x="127.246094"/>
       <use xlink:href="#DejaVuSans-33" x="190.869141"/>
       <use xlink:href="#DejaVuSans-2d" x="254.492188"/>
       <use xlink:href="#DejaVuSans-30" x="290.576172"/>
       <use xlink:href="#DejaVuSans-31" x="354.199219"/>
      </g>
     </g>
    </g>
    <g id="xtick_8">
     <g id="line2d_15">
      <path d="M 545.576429 320.4 
L 545.576429 43.2 
" clip-path="url(#p44d14cda38)" style="fill: none; stroke-dasharray: 5.12,1.28,0.8,1.28; stroke-dashoffset: 0; stroke: #b0b0b0; stroke-width: 0.8"/>
     </g>
     <g id="line2d_16">
      <g>
       <use xlink:href="#mebf8bf0964" x="545.576429" y="320.4" style="fill: #a9a9a9; stroke: #a9a9a9; stroke-width: 0.8"/>
      </g>
     </g>
     <g id="text_8">
      <!-- 2023-04 -->
      <g style="fill: #a9a9a9" transform="translate(524.685023 334.998438) scale(0.1 -0.1)">
       <use xlink:href="#DejaVuSans-32"/>
       <use xlink:href="#DejaVuSans-30" x="63.623047"/>
       <use xlink:href="#DejaVuSans-32" x="127.246094"/>
       <use xlink:href="#DejaVuSans-33" x="190.869141"/>
       <use xlink:href="#DejaVuSans-2d" x="254.492188"/>
       <use xlink:href="#DejaVuSans-30" x="290.576172"/>
       <use xlink:href="#DejaVuSans-34" x="354.199219"/>
      </g>
     </g>
    </g>
    <g id="xtick_9">
     <g id="line2d_17">
      <path d="M 605.72212 320.4 
L 605.72212 43.2 
" clip-path="url(#p44d14cda38)" style="fill: none; stroke-dasharray: 5.12,1.28,0.8,1.28; stroke-dashoffset: 0; stroke: #b0b0b0; stroke-width: 0.8"/>
     </g>
     <g id="line2d_18">
      <g>
       <use xlink:href="#mebf8bf0964" x="605.72212" y="320.4" style="fill: #a9a9a9; stroke: #a9a9a9; stroke-width: 0.8"/>
      </g>
     </g>
     <g id="text_9">
      <!-- 2023-07 -->
      <g style="fill: #a9a9a9" transform="translate(584.830714 334.998438) scale(0.1 -0.1)">
       <use xlink:href="#DejaVuSans-32"/>
       <use xlink:href="#DejaVuSans-30" x="63.623047"/>
       <use xlink:href="#DejaVuSans-32" x="127.246094"/>
       <use xlink:href="#DejaVuSans-33" x="190.869141"/>
       <use xlink:href="#DejaVuSans-2d" x="254.492188"/>
       <use xlink:href="#DejaVuSans-30" x="290.576172"/>
       <use xlink:href="#DejaVuSans-37" x="354.199219"/>
      </g>
     </g>
    </g>
    <g id="xtick_10">
     <g id="line2d_19">
      <path d="M 666.528753 320.4 
L 666.528753 43.2 
" clip-path="url(#p44d14cda38)" style="fill: none; stroke-dasharray: 5.12,1.28,0.8,1.28; stroke-dashoffset: 0; stroke: #b0b0b0; stroke-width: 0.8"/>
     </g>
     <g id="line2d_20">
      <g>
       <use xlink:href="#mebf8bf0964" x="666.528753" y="320.4" style="fill: #a9a9a9; stroke: #a9a9a9; stroke-width: 0.8"/>
      </g>
     </g>
     <g id="text_10">
      <!-- 2023-10 -->
      <g style="fill: #a9a9a9" transform="translate(645.637347 334.998438) scale(0.1 -0.1)">
       <use xlink:href="#DejaVuSans-32"/>
       <use xlink:href="#DejaVuSans-30" x="63.623047"/>
       <use xlink:href="#DejaVuSans-32" x="127.246094"/>
       <use xlink:href="#DejaVuSans-33" x="190.869141"/>
       <use xlink:href="#DejaVuSans-2d" x="254.492188"/>
       <use xlink:href="#DejaVuSans-31" x="290.576172"/>
       <use xlink:href="#DejaVuSans-30" x="354.199219"/>
      </g>
     </g>
    </g>
    <g id="xtick_11">
     <g id="line2d_21">
      <path d="M 727.335386 320.4 
L 727.335386 43.2 
" clip-path="url(#p44d14cda38)" style="fill: none; stroke-dasharray: 5.12,1.28,0.8,1.28; stroke-dashoffset: 0; stroke: #b0b0b0; stroke-width: 0.8"/>
     </g>
     <g id="line2d_22">
      <g>
       <use xlink:href="#mebf8bf0964" x="727.335386" y="320.4" style="fill: #a9a9a9; stroke: #a9a9a9; stroke-width: 0.8"/>
      </g>
     </g>
     <g id="text_11">
      <!-- 2024-01 -->
      <g style="fill: #a9a9a9" transform="translate(706.44398 334.998438) scale(0.1 -0.1)">
       <use xlink:href="#DejaVuSans-32"/>
       <use xlink:href="#DejaVuSans-30" x="63.623047"/>
       <use xlink:href="#DejaVuSans-32" x="127.246094"/>
       <use xlink:href="#DejaVuSans-34" x="190.869141"/>
       <use xlink:href="#DejaVuSans-2d" x="254.492188"/>
       <use xlink:href="#DejaVuSans-30" x="290.576172"/>
       <use xlink:href="#DejaVuSans-31" x="354.199219"/>
      </g>
     </g>
    </g>
   </g>
   <g id="matplotlib.axis_2">
    <g id="ytick_1">
     <g id="line2d_23">
      <path d="M 108 307.845397 
L 777.6 307.845397 
" clip-path="url(#p44d14cda38)" style="fill: none; stroke-dasharray: 5.12,1.28,0.8,1.28; stroke-dashoffset: 0; stroke: #b0b0b0; stroke-width: 0.8"/>
     </g>
     <g id="line2d_24">
      <defs>
       <path id="m5e21b3a7cc" d="M 0 0 
L -3.5 0 
" style="stroke: #a9a9a9; stroke-width: 0.8"/>
      </defs>
      <g>
       <use xlink:href="#m5e21b3a7cc" x="108" y="307.845397" style="fill: #a9a9a9; stroke: #a9a9a9; stroke-width: 0.8"/>
      </g>
     </g>
     <g id="text_12">
      <!-- 0 -->
      <g style="fill: #a9a9a9" transform="translate(94.6375 311.644616) scale(0.1 -0.1)">
       <use xlink:href="#DejaVuSans-30"/>
      </g>
     </g>
    </g>
    <g id="ytick_2">
     <g id="line2d_25">
      <path d="M 108 271.527617 
L 777.6 271.527617 
" clip-path="url(#p44d14cda38)" style="fill: none; stroke-dasharray: 5.12,1.28,0.8,1.28; stroke-dashoffset: 0; stroke: #b0b0b0; stroke-width: 0.8"/>
     </g>
     <g id="line2d_26">
      <g>
       <use xlink:href="#m5e21b3a7cc" x="108" y="271.527617" style="fill: #a9a9a9; stroke: #a9a9a9; stroke-width: 0.8"/>
      </g>
     </g>
     <g id="text_13">
      <!-- 800 -->
      <g style="fill: #a9a9a9" transform="translate(81.9125 275.326835) scale(0.1 -0.1)">
       <defs>
        <path id="DejaVuSans-38" d="M 2034 2216 
Q 1584 2216 1326 1975 
Q 1069 1734 1069 1313 
Q 1069 891 1326 650 
Q 1584 409 2034 409 
Q 2484 409 2743 651 
Q 3003 894 3003 1313 
Q 3003 1734 2745 1975 
Q 2488 2216 2034 2216 
z
M 1403 2484 
Q 997 2584 770 2862 
Q 544 3141 544 3541 
Q 544 4100 942 4425 
Q 1341 4750 2034 4750 
Q 2731 4750 3128 4425 
Q 3525 4100 3525 3541 
Q 3525 3141 3298 2862 
Q 3072 2584 2669 2484 
Q 3125 2378 3379 2068 
Q 3634 1759 3634 1313 
Q 3634 634 3220 271 
Q 2806 -91 2034 -91 
Q 1263 -91 848 271 
Q 434 634 434 1313 
Q 434 1759 690 2068 
Q 947 2378 1403 2484 
z
M 1172 3481 
Q 1172 3119 1398 2916 
Q 1625 2713 2034 2713 
Q 2441 2713 2670 2916 
Q 2900 3119 2900 3481 
Q 2900 3844 2670 4047 
Q 2441 4250 2034 4250 
Q 1625 4250 1398 4047 
Q 1172 3844 1172 3481 
z
" transform="scale(0.015625)"/>
       </defs>
       <use xlink:href="#DejaVuSans-38"/>
       <use xlink:href="#DejaVuSans-30" x="63.623047"/>
       <use xlink:href="#DejaVuSans-30" x="127.246094"/>
      </g>
     </g>
    </g>
    <g id="ytick_3">
     <g id="line2d_27">
      <path d="M 108 235.209836 
L 777.6 235.209836 
" clip-path="url(#p44d14cda38)" style="fill: none; stroke-dasharray: 5.12,1.28,0.8,1.28; stroke-dashoffset: 0; stroke: #b0b0b0; stroke-width: 0.8"/>
     </g>
     <g id="line2d_28">
      <g>
       <use xlink:href="#m5e21b3a7cc" x="108" y="235.209836" style="fill: #a9a9a9; stroke: #a9a9a9; stroke-width: 0.8"/>
      </g>
     </g>
     <g id="text_14">
      <!-- 1600 -->
      <g style="fill: #a9a9a9" transform="translate(75.55 239.009055) scale(0.1 -0.1)">
       <defs>
        <path id="DejaVuSans-36" d="M 2113 2584 
Q 1688 2584 1439 2293 
Q 1191 2003 1191 1497 
Q 1191 994 1439 701 
Q 1688 409 2113 409 
Q 2538 409 2786 701 
Q 3034 994 3034 1497 
Q 3034 2003 2786 2293 
Q 2538 2584 2113 2584 
z
M 3366 4563 
L 3366 3988 
Q 3128 4100 2886 4159 
Q 2644 4219 2406 4219 
Q 1781 4219 1451 3797 
Q 1122 3375 1075 2522 
Q 1259 2794 1537 2939 
Q 1816 3084 2150 3084 
Q 2853 3084 3261 2657 
Q 3669 2231 3669 1497 
Q 3669 778 3244 343 
Q 2819 -91 2113 -91 
Q 1303 -91 875 529 
Q 447 1150 447 2328 
Q 447 3434 972 4092 
Q 1497 4750 2381 4750 
Q 2619 4750 2861 4703 
Q 3103 4656 3366 4563 
z
" transform="scale(0.015625)"/>
       </defs>
       <use xlink:href="#DejaVuSans-31"/>
       <use xlink:href="#DejaVuSans-36" x="63.623047"/>
       <use xlink:href="#DejaVuSans-30" x="127.246094"/>
       <use xlink:href="#DejaVuSans-30" x="190.869141"/>
      </g>
     </g>
    </g>
    <g id="ytick_4">
     <g id="line2d_29">
      <path d="M 108 198.892055 
L 777.6 198.892055 
" clip-path="url(#p44d14cda38)" style="fill: none; stroke-dasharray: 5.12,1.28,0.8,1.28; stroke-dashoffset: 0; stroke: #b0b0b0; stroke-width: 0.8"/>
     </g>
     <g id="line2d_30">
      <g>
       <use xlink:href="#m5e21b3a7cc" x="108" y="198.892055" style="fill: #a9a9a9; stroke: #a9a9a9; stroke-width: 0.8"/>
      </g>
     </g>
     <g id="text_15">
      <!-- 2400 -->
      <g style="fill: #a9a9a9" transform="translate(75.55 202.691274) scale(0.1 -0.1)">
       <use xlink:href="#DejaVuSans-32"/>
       <use xlink:href="#DejaVuSans-34" x="63.623047"/>
       <use xlink:href="#DejaVuSans-30" x="127.246094"/>
       <use xlink:href="#DejaVuSans-30" x="190.869141"/>
      </g>
     </g>
    </g>
    <g id="ytick_5">
     <g id="line2d_31">
      <path d="M 108 162.574275 
L 777.6 162.574275 
" clip-path="url(#p44d14cda38)" style="fill: none; stroke-dasharray: 5.12,1.28,0.8,1.28; stroke-dashoffset: 0; stroke: #b0b0b0; stroke-width: 0.8"/>
     </g>
     <g id="line2d_32">
      <g>
       <use xlink:href="#m5e21b3a7cc" x="108" y="162.574275" style="fill: #a9a9a9; stroke: #a9a9a9; stroke-width: 0.8"/>
      </g>
     </g>
     <g id="text_16">
      <!-- 3200 -->
      <g style="fill: #a9a9a9" transform="translate(75.55 166.373494) scale(0.1 -0.1)">
       <use xlink:href="#DejaVuSans-33"/>
       <use xlink:href="#DejaVuSans-32" x="63.623047"/>
       <use xlink:href="#DejaVuSans-30" x="127.246094"/>
       <use xlink:href="#DejaVuSans-30" x="190.869141"/>
      </g>
     </g>
    </g>
    <g id="ytick_6">
     <g id="line2d_33">
      <path d="M 108 126.256494 
L 777.6 126.256494 
" clip-path="url(#p44d14cda38)" style="fill: none; stroke-dasharray: 5.12,1.28,0.8,1.28; stroke-dashoffset: 0; stroke: #b0b0b0; stroke-width: 0.8"/>
     </g>
     <g id="line2d_34">
      <g>
       <use xlink:href="#m5e21b3a7cc" x="108" y="126.256494" style="fill: #a9a9a9; stroke: #a9a9a9; stroke-width: 0.8"/>
      </g>
     </g>
     <g id="text_17">
      <!-- 4000 -->
      <g style="fill: #a9a9a9" transform="translate(75.55 130.055713) scale(0.1 -0.1)">
       <use xlink:href="#DejaVuSans-34"/>
       <use xlink:href="#DejaVuSans-30" x="63.623047"/>
       <use xlink:href="#DejaVuSans-30" x="127.246094"/>
       <use xlink:href="#DejaVuSans-30" x="190.869141"/>
      </g>
     </g>
    </g>
    <g id="ytick_7">
     <g id="line2d_35">
      <path d="M 108 89.938714 
L 777.6 89.938714 
" clip-path="url(#p44d14cda38)" style="fill: none; stroke-dasharray: 5.12,1.28,0.8,1.28; stroke-dashoffset: 0; stroke: #b0b0b0; stroke-width: 0.8"/>
     </g>
     <g id="line2d_36">
      <g>
       <use xlink:href="#m5e21b3a7cc" x="108" y="89.938714" style="fill: #a9a9a9; stroke: #a9a9a9; stroke-width: 0.8"/>
      </g>
     </g>
     <g id="text_18">
      <!-- 4800 -->
      <g style="fill: #a9a9a9" transform="translate(75.55 93.737932) scale(0.1 -0.1)">
       <use xlink:href="#DejaVuSans-34"/>
       <use xlink:href="#DejaVuSans-38" x="63.623047"/>
       <use xlink:href="#DejaVuSans-30" x="127.246094"/>
       <use xlink:href="#DejaVuSans-30" x="190.869141"/>
      </g>
     </g>
    </g>
    <g id="ytick_8">
     <g id="line2d_37">
      <path d="M 108 53.620933 
L 777.6 53.620933 
" clip-path="url(#p44d14cda38)" style="fill: none; stroke-dasharray: 5.12,1.28,0.8,1.28; stroke-dashoffset: 0; stroke: #b0b0b0; stroke-width: 0.8"/>
     </g>
     <g id="line2d_38">
      <g>
       <use xlink:href="#m5e21b3a7cc" x="108" y="53.620933" style="fill: #a9a9a9; stroke: #a9a9a9; stroke-width: 0.8"/>
      </g>
     </g>
     <g id="text_19">
      <!-- 5600 -->
      <g style="fill: #a9a9a9" transform="translate(75.55 57.420152) scale(0.1 -0.1)">
       <defs>
        <path id="DejaVuSans-35" d="M 691 4666 
L 3169 4666 
L 3169 4134 
L 1269 4134 
L 1269 2991 
Q 1406 3038 1543 3061 
Q 1681 3084 1819 3084 
Q 2600 3084 3056 2656 
Q 3513 2228 3513 1497 
Q 3513 744 3044 326 
Q 2575 -91 1722 -91 
Q 1428 -91 1123 -41 
Q 819 9 494 109 
L 494 744 
Q 775 591 1075 516 
Q 1375 441 1709 441 
Q 2250 441 2565 725 
Q 2881 1009 2881 1497 
Q 2881 1984 2565 2268 
Q 2250 2553 1709 2553 
Q 1456 2553 1204 2497 
Q 953 2441 691 2322 
L 691 4666 
z
" transform="scale(0.015625)"/>
       </defs>
       <use xlink:href="#DejaVuSans-35"/>
       <use xlink:href="#DejaVuSans-36" x="63.623047"/>
       <use xlink:href="#DejaVuSans-30" x="127.246094"/>
       <use xlink:href="#DejaVuSans-30" x="190.869141"/>
      </g>
     </g>
    </g>
   </g>
   <g id="line2d_39">
    <path d="M 138.436364 307.709206 
L 142.402014 307.391425 
L 143.062955 307.119042 
L 145.04578 306.892055 
L 149.672372 306.029508 
L 152.97708 305.711728 
L 153.638022 305.393947 
L 154.298964 305.212358 
L 154.959905 304.395208 
L 155.620847 303.941236 
L 156.281789 302.533922 
L 156.94273 302.443127 
L 157.603672 301.943758 
L 158.925555 301.308197 
L 161.569322 299.310719 
L 162.891205 298.765952 
L 163.552147 298.31198 
L 166.195914 297.177049 
L 166.856855 296.132913 
L 168.178739 295.179571 
L 168.83968 294.861791 
L 175.449097 293.953846 
L 176.110038 293.636066 
L 180.73663 293.272888 
L 182.719455 292.773518 
L 188.66793 292.001765 
L 189.328872 291.638588 
L 189.989813 291.547793 
L 190.650755 291.27541 
L 191.972638 291.048424 
L 192.63358 291.003026 
L 193.294522 290.77604 
L 195.938288 290.367465 
L 197.260172 290.004288 
L 199.242997 289.822699 
L 200.56488 289.686507 
L 201.225822 289.504918 
L 201.886763 289.459521 
L 203.869588 288.869357 
L 207.835238 288.279193 
L 208.49618 288.097604 
L 209.157122 287.18966 
L 211.139947 286.463304 
L 213.122772 285.918537 
L 213.783713 285.600757 
L 214.444655 285.555359 
L 217.749363 284.647415 
L 219.071247 284.55662 
L 219.732188 284.465826 
L 221.715013 283.875662 
L 224.35878 283.240101 
L 225.019722 282.967718 
L 225.680663 282.876923 
L 226.341605 282.559142 
L 232.951022 281.560404 
L 236.25573 280.652459 
L 236.916672 280.243884 
L 239.560438 279.517528 
L 240.882322 278.745776 
L 241.543263 278.291803 
L 243.526088 277.928625 
L 247.491738 276.748298 
L 248.813622 276.339723 
L 249.474563 276.248928 
L 250.796447 275.88575 
L 252.11833 275.56797 
L 252.779272 275.477175 
L 254.101155 274.932409 
L 254.762097 274.796217 
L 255.423038 274.523834 
L 256.08398 274.433039 
L 256.744922 274.115259 
L 257.405863 273.93367 
L 258.727747 273.842875 
L 260.04963 273.388903 
L 261.371513 273.298108 
L 262.032455 272.980328 
L 264.676221 272.526356 
L 267.319988 272.299369 
L 267.98093 272.163178 
L 269.302813 271.527617 
L 276.573171 268.486003 
L 277.234113 268.122825 
L 277.895055 267.396469 
L 278.555996 266.306936 
L 279.216938 265.444388 
L 279.87788 265.262799 
L 280.538821 265.262799 
L 281.860705 264.309458 
L 282.521646 264.127869 
L 283.182588 263.764691 
L 283.84353 263.628499 
L 284.504471 263.038335 
L 285.165413 262.856747 
L 287.148238 261.903405 
L 287.80918 261.086255 
L 288.470121 260.087516 
L 289.131063 259.678941 
L 289.792005 258.589407 
L 290.452946 257.908449 
L 291.113888 257.590668 
L 291.77483 257.409079 
L 294.418596 255.865574 
L 295.74048 254.821438 
L 296.401421 254.412863 
L 297.062363 253.459521 
L 297.723305 251.961412 
L 298.384246 251.008071 
L 299.045188 250.508701 
L 299.70613 250.236318 
L 302.349896 247.966456 
L 303.010838 247.512484 
L 304.332721 246.377554 
L 304.993663 245.469609 
L 306.315546 244.334678 
L 308.959313 242.654981 
L 309.620255 242.064817 
L 310.281196 241.928625 
L 312.264021 240.884489 
L 314.246846 239.88575 
L 315.56873 238.660025 
L 316.229671 237.888272 
L 317.551555 236.980328 
L 318.212496 236.798739 
L 318.873438 236.480958 
L 320.195321 235.618411 
L 320.856263 235.255233 
L 321.517205 235.164439 
L 322.839088 234.438083 
L 323.50003 234.074905 
L 324.160971 233.393947 
L 324.821913 232.985372 
L 325.482855 232.758386 
L 326.143796 232.304414 
L 328.787563 230.942497 
L 329.448505 230.352333 
L 332.092271 229.489786 
L 332.753213 229.035813 
L 333.414155 228.899622 
L 334.736038 228.445649 
L 336.718863 227.673897 
L 338.701688 226.947541 
L 340.023571 226.720555 
L 341.345455 225.585624 
L 342.667338 224.950063 
L 344.650163 223.815132 
L 345.972046 223.451955 
L 346.632988 223.04338 
L 347.29393 222.861791 
L 348.615813 221.999243 
L 349.276755 221.636066 
L 352.581463 220.864313 
L 354.564288 219.729382 
L 355.225229 219.638588 
L 355.886171 219.411602 
L 357.208054 219.139218 
L 359.190879 217.686507 
L 361.173704 217.232535 
L 361.834646 217.005549 
L 362.495588 216.506179 
L 366.461238 215.235057 
L 367.122179 215.18966 
L 371.748771 213.555359 
L 372.409713 213.237579 
L 374.392538 212.783607 
L 375.714421 212.465826 
L 376.375363 212.148045 
L 377.036304 212.011854 
L 379.019129 211.103909 
L 381.001954 210.150567 
L 381.662896 209.696595 
L 382.323838 209.515006 
L 384.306663 208.47087 
L 385.628546 208.15309 
L 386.950429 207.472131 
L 388.272313 207.108953 
L 388.933254 207.018159 
L 389.594196 206.564187 
L 390.255138 206.246406 
L 390.916079 206.110214 
L 392.237963 205.565448 
L 392.898904 205.429256 
L 393.559846 205.066078 
L 396.203613 204.657503 
L 397.525496 204.021942 
L 398.186438 203.477175 
L 398.847379 202.342245 
L 400.169263 202.069861 
L 400.830204 201.93367 
L 403.473971 200.571753 
L 404.134913 200.435561 
L 409.422446 197.893317 
L 411.405271 197.484741 
L 412.066213 197.121564 
L 416.031863 195.759647 
L 417.353746 194.942497 
L 418.014688 194.488525 
L 418.675629 194.170744 
L 419.336571 194.07995 
L 419.997513 193.852963 
L 420.658454 193.807566 
L 423.963163 192.945019 
L 424.624104 192.445649 
L 425.945988 191.991677 
L 427.928813 191.356116 
L 428.589754 190.947541 
L 429.250696 190.765952 
L 429.911638 190.31198 
L 430.572579 190.039596 
L 431.233521 189.631021 
L 431.894463 189.358638 
L 433.216346 189.040858 
L 435.199171 188.269105 
L 437.181996 186.770996 
L 437.842938 186.634805 
L 439.164821 185.636066 
L 439.825763 185.499874 
L 440.486704 184.501135 
L 441.147646 184.228752 
L 441.808588 183.729382 
L 442.469529 183.638588 
L 443.130471 183.184615 
L 443.791412 182.866835 
L 444.452354 182.730643 
L 445.113296 182.45826 
L 445.774237 181.95889 
L 446.435179 181.731904 
L 448.418004 180.415385 
L 451.061771 179.098865 
L 451.722712 179.008071 
L 453.044596 178.417907 
L 453.705537 178.054729 
L 454.366479 176.965195 
L 455.027421 176.375032 
L 455.688362 176.011854 
L 456.349304 175.875662 
L 457.671187 175.058512 
L 458.332129 174.92232 
L 459.654012 174.286759 
L 461.636837 173.469609 
L 462.958721 172.561665 
L 464.280604 171.199748 
L 465.602487 170.382598 
L 466.263429 169.974023 
L 466.924371 169.293064 
L 467.585312 168.839092 
L 468.907196 167.749559 
L 469.568137 167.477175 
L 470.229079 166.75082 
L 470.890021 166.25145 
L 472.211904 165.797478 
L 472.872846 165.252711 
L 474.194729 164.571753 
L 474.855671 164.390164 
L 475.516612 163.936192 
L 476.177554 163.8 
L 478.160379 162.755864 
L 478.821321 162.301892 
L 480.143204 161.757125 
L 480.804146 161.620933 
L 481.465087 161.212358 
L 484.769796 160.168222 
L 485.430737 159.986633 
L 486.091679 159.668852 
L 486.752621 159.078689 
L 488.735446 158.352333 
L 490.057329 157.943758 
L 490.718271 157.444388 
L 493.362037 156.082472 
L 494.022979 155.719294 
L 495.344862 153.131652 
L 496.666746 151.588146 
L 497.327687 151.134174 
L 499.310512 150.271627 
L 499.971454 150.044641 
L 500.632396 149.953846 
L 501.293337 149.590668 
L 503.276162 149.000504 
L 505.919929 147.820177 
L 506.580871 147.411602 
L 507.902754 146.957629 
L 511.868404 144.687768 
L 512.529346 144.00681 
L 513.851229 143.280454 
L 514.512171 142.917276 
L 515.173112 142.69029 
L 515.834054 142.236318 
L 517.155937 141.600757 
L 519.138762 140.55662 
L 519.799704 140.375032 
L 520.460646 139.875662 
L 521.121587 139.603279 
L 521.782529 139.467087 
L 523.104412 139.013115 
L 525.087237 138.286759 
L 525.748179 137.78739 
L 527.070062 137.424212 
L 528.391946 136.924842 
L 529.052887 136.380076 
L 530.374771 135.971501 
L 531.035712 135.65372 
L 531.696654 135.472131 
L 533.018537 134.564187 
L 534.34042 133.974023 
L 535.662304 132.975284 
L 536.984187 132.521311 
L 537.645129 131.976545 
L 538.30607 131.88575 
L 539.627954 130.932409 
L 540.949837 130.296847 
L 541.610779 130.024464 
L 542.27172 129.343506 
L 546.23737 127.890794 
L 548.220195 127.028247 
L 550.20302 126.438083 
L 551.524904 126.256494 
L 552.185845 125.984111 
L 552.846787 125.893317 
L 554.16867 125.34855 
L 554.829612 125.303153 
L 557.473379 124.349811 
L 559.456204 122.987894 
L 563.421854 121.035813 
L 564.743737 120.218663 
L 565.404679 119.810088 
L 566.726562 119.492308 
L 568.048445 118.584363 
L 570.692212 117.767213 
L 571.353154 117.49483 
L 572.675037 117.177049 
L 575.979745 116.087516 
L 577.96257 115.724338 
L 578.623512 115.542749 
L 579.284454 115.224968 
L 579.945395 115.134174 
L 581.267279 114.589407 
L 581.92822 114.498613 
L 582.589162 114.180832 
L 583.911045 113.908449 
L 584.571987 113.590668 
L 586.554812 113.136696 
L 587.876695 112.864313 
L 591.842345 112.137957 
L 593.164229 111.865574 
L 593.82517 111.729382 
L 594.486112 111.456999 
L 595.147054 111.411602 
L 597.129879 110.866835 
L 597.79082 110.503657 
L 601.095529 109.686507 
L 601.75647 109.550315 
L 603.078354 109.096343 
L 605.061179 108.415385 
L 605.72212 108.32459 
L 607.704945 107.643632 
L 608.365887 107.643632 
L 609.68777 107.18966 
L 610.348712 106.554098 
L 611.009654 106.236318 
L 612.331537 105.827743 
L 614.975304 104.829004 
L 615.636245 104.692812 
L 616.297187 104.284237 
L 616.958129 104.148045 
L 617.61907 103.73947 
L 620.923779 102.786129 
L 621.58472 102.377554 
L 622.245662 102.195965 
L 622.906603 101.651198 
L 624.889428 101.28802 
L 626.211312 100.561665 
L 626.872253 99.835309 
L 628.194137 99.562926 
L 632.820728 98.518789 
L 633.48167 98.337201 
L 634.803553 98.291803 
L 635.464495 97.974023 
L 638.108262 97.52005 
L 638.769203 97.20227 
L 640.752028 96.929887 
L 643.395795 96.112736 
L 645.37862 95.658764 
L 647.361445 95.159395 
L 650.005212 94.342245 
L 650.666153 94.206053 
L 651.327095 93.888272 
L 651.988037 93.797478 
L 652.648978 93.570492 
L 653.30992 93.161917 
L 655.292745 92.435561 
L 655.953687 91.936192 
L 657.27557 91.573014 
L 657.936512 91.300631 
L 659.258395 90.937453 
L 661.902162 89.757125 
L 663.884987 89.620933 
L 666.528753 88.803783 
L 667.189695 88.395208 
L 668.511578 87.986633 
L 670.494403 86.987894 
L 671.155345 86.851702 
L 671.816287 86.533922 
L 672.477228 86.443127 
L 679.747587 84.037074 
L 682.391353 83.401513 
L 683.052295 83.219924 
L 684.374178 82.584363 
L 685.03512 82.493569 
L 686.357003 82.130391 
L 687.017945 81.631021 
L 687.678887 81.313241 
L 688.339828 80.541488 
L 689.00077 80.042119 
L 690.322653 79.633544 
L 690.983595 79.088777 
L 698.253953 76.137957 
L 699.575837 75.820177 
L 700.89772 75.230013 
L 702.880545 74.049685 
L 703.541487 73.913493 
L 704.202428 73.414124 
L 705.524312 72.778562 
L 706.846195 71.961412 
L 708.82902 71.053468 
L 709.489962 70.599496 
L 710.811845 70.100126 
L 711.472786 69.646154 
L 712.79467 69.010593 
L 713.455611 68.55662 
L 714.777495 68.102648 
L 715.438436 67.966456 
L 718.082203 66.786129 
L 721.386911 65.651198 
L 722.047853 65.605801 
L 722.708795 65.424212 
L 723.369736 65.015637 
L 724.030678 64.924842 
L 724.69162 64.607062 
L 726.674445 64.198487 
L 729.979153 62.518789 
L 731.301036 61.792434 
L 731.961978 61.701639 
L 733.944803 60.612106 
L 735.927628 59.88575 
L 737.910453 59.023203 
L 740.55422 57.979067 
L 741.215161 57.797478 
L 741.876103 57.388903 
L 742.537045 57.343506 
L 743.197986 57.161917 
L 743.858928 56.707945 
L 744.51987 56.662547 
L 745.841753 56.253972 
L 746.502695 55.890794 
L 747.163636 55.8 
L 747.163636 55.8 
" clip-path="url(#p44d14cda38)" style="fill: none; stroke: #1f77b4; stroke-width: 1.5; stroke-linecap: square"/>
   </g>
   <g id="line2d_40">
    <path d="M 139.097305 307.8 
L 141.08013 307.709206 
L 143.062955 307.663808 
L 147.028605 307.573014 
L 150.333314 307.436822 
L 152.97708 307.436822 
L 153.638022 307.255233 
L 156.281789 307.164439 
L 158.264614 306.937453 
L 160.247439 306.755864 
L 164.213089 306.574275 
L 164.87403 306.574275 
L 165.534972 306.438083 
L 168.178739 306.347289 
L 169.500622 306.256494 
L 174.788155 306.1657 
L 178.092863 306.029508 
L 186.024163 305.938714 
L 189.328872 305.802522 
L 193.294522 305.711728 
L 195.938288 305.620933 
L 201.886763 305.530139 
L 203.869588 305.484741 
L 205.852413 305.439344 
L 207.835238 305.212358 
L 211.800888 305.166961 
L 213.122772 305.076166 
L 217.749363 304.985372 
L 225.019722 304.576797 
L 229.646313 304.486003 
L 230.968197 304.395208 
L 232.951022 304.304414 
L 236.916672 304.122825 
L 239.560438 304.077427 
L 241.543263 303.895839 
L 252.11833 303.260277 
L 254.762097 303.169483 
L 259.388688 302.942497 
L 261.371513 302.851702 
L 267.98093 302.488525 
L 275.251288 302.39773 
L 277.895055 302.125347 
L 279.216938 302.034552 
L 287.80918 301.353594 
L 291.77483 300.854224 
L 294.418596 300.76343 
L 299.70613 300.082472 
L 303.010838 299.991677 
L 311.60308 299.310719 
L 315.56873 298.856747 
L 317.551555 298.811349 
L 318.873438 298.720555 
L 321.517205 298.62976 
L 322.839088 298.538966 
L 326.143796 298.221185 
L 326.804738 298.039596 
L 330.770388 297.858008 
L 334.075096 297.767213 
L 342.667338 297.267844 
L 344.650163 297.177049 
L 353.242405 296.67768 
L 357.868996 296.586885 
L 358.529938 296.450694 
L 363.817471 296.359899 
L 368.444063 296.132913 
L 375.714421 296.042119 
L 380.341013 295.815132 
L 385.628546 295.724338 
L 390.916079 295.451955 
L 395.542671 295.36116 
L 408.100563 294.589407 
L 413.388096 294.498613 
L 430.572579 293.409079 
L 434.538229 293.318285 
L 436.521054 293.272888 
L 438.503879 293.227491 
L 440.486704 293.045902 
L 445.774237 292.955107 
L 447.096121 292.728121 
L 448.418004 292.637327 
L 451.722712 292.501135 
L 453.044596 292.41034 
L 454.366479 292.319546 
L 460.314954 292.228752 
L 461.636837 292.09256 
L 464.280604 292.047163 
L 464.941546 291.910971 
L 466.263429 291.820177 
L 466.924371 291.683985 
L 468.907196 291.59319 
L 480.143204 290.912232 
L 482.126029 290.821438 
L 485.430737 290.685246 
L 494.683921 290.594451 
L 499.310512 290.367465 
L 504.598046 290.276671 
L 507.241812 290.185876 
L 509.885579 290.140479 
L 511.207462 290.004288 
L 513.851229 289.913493 
L 520.460646 289.550315 
L 524.426296 289.504918 
L 526.409121 289.323329 
L 528.391946 289.277932 
L 533.018537 289.187137 
L 535.662304 289.096343 
L 541.610779 289.005549 
L 544.254545 288.914754 
L 548.220195 288.82396 
L 554.829612 288.460782 
L 556.812437 288.460782 
L 557.473379 288.32459 
L 558.795262 288.233796 
L 561.439029 288.143001 
L 569.370329 288.052207 
L 572.675037 287.916015 
L 583.911045 287.870618 
L 585.232929 287.779823 
L 587.215754 287.734426 
L 595.807995 287.643632 
L 597.129879 287.552837 
L 604.400237 287.462043 
L 607.044004 287.371248 
L 614.975304 287.325851 
L 616.297187 287.235057 
L 626.211312 287.18966 
L 628.194137 287.008071 
L 639.430145 286.917276 
L 641.41297 286.871879 
L 658.597453 286.781084 
L 661.24122 286.69029 
L 673.13817 286.599496 
L 675.781937 286.508701 
L 680.408528 286.417907 
L 685.696062 286.145523 
L 688.339828 286.054729 
L 690.983595 285.963934 
L 694.949245 285.87314 
L 696.93207 285.827743 
L 699.575837 285.736948 
L 701.558662 285.691551 
L 704.86337 285.600757 
L 706.185253 285.464565 
L 710.150903 285.37377 
L 717.421261 284.965195 
L 720.72597 284.874401 
L 723.369736 284.783607 
L 727.996328 284.692812 
L 730.640095 284.602018 
L 735.927628 284.511223 
L 737.910453 284.465826 
L 741.215161 284.375032 
L 745.180811 284.193443 
L 747.163636 284.193443 
L 747.163636 284.193443 
" clip-path="url(#p44d14cda38)" style="fill: none; stroke: #ff7f0e; stroke-width: 1.5; stroke-linecap: square"/>
   </g>
   <g id="patch_3">
    <path d="M 108 320.4 
L 108 43.2 
" style="fill: none; stroke: #a9a9a9; stroke-width: 0.8; stroke-linejoin: miter; stroke-linecap: square"/>
   </g>
   <g id="patch_4">
    <path d="M 777.6 320.4 
L 777.6 43.2 
" style="fill: none"/>
   </g>
   <g id="patch_5">
    <path d="M 108 320.4 
L 777.6 320.4 
" style="fill: none; stroke: #a9a9a9; stroke-width: 0.8; stroke-linejoin: miter; stroke-linecap: square"/>
   </g>
   <g id="patch_6">
    <path d="M 108 43.2 
L 777.6 43.2 
" style="fill: none"/>
   </g>
   <g id="text_20">
    <!-- get_subscribe history -->
    <g style="fill: #a9a9a9" transform="translate(378.6075 37.2) scale(0.12 -0.12)">
     <defs>
      <path id="DejaVuSans-67" d="M 2906 1791 
Q 2906 2416 2648 2759 
Q 2391 3103 1925 3103 
Q 1463 3103 1205 2759 
Q 947 2416 947 1791 
Q 947 1169 1205 825 
Q 1463 481 1925 481 
Q 2391 481 2648 825 
Q 2906 1169 2906 1791 
z
M 3481 434 
Q 3481 -459 3084 -895 
Q 2688 -1331 1869 -1331 
Q 1566 -1331 1297 -1286 
Q 1028 -1241 775 -1147 
L 775 -588 
Q 1028 -725 1275 -790 
Q 1522 -856 1778 -856 
Q 2344 -856 2625 -561 
Q 2906 -266 2906 331 
L 2906 616 
Q 2728 306 2450 153 
Q 2172 0 1784 0 
Q 1141 0 747 490 
Q 353 981 353 1791 
Q 353 2603 747 3093 
Q 1141 3584 1784 3584 
Q 2172 3584 2450 3431 
Q 2728 3278 2906 2969 
L 2906 3500 
L 3481 3500 
L 3481 434 
z
" transform="scale(0.015625)"/>
      <path id="DejaVuSans-65" d="M 3597 1894 
L 3597 1613 
L 953 1613 
Q 991 1019 1311 708 
Q 1631 397 2203 397 
Q 2534 397 2845 478 
Q 3156 559 3463 722 
L 3463 178 
Q 3153 47 2828 -22 
Q 2503 -91 2169 -91 
Q 1331 -91 842 396 
Q 353 884 353 1716 
Q 353 2575 817 3079 
Q 1281 3584 2069 3584 
Q 2775 3584 3186 3129 
Q 3597 2675 3597 1894 
z
M 3022 2063 
Q 3016 2534 2758 2815 
Q 2500 3097 2075 3097 
Q 1594 3097 1305 2825 
Q 1016 2553 972 2059 
L 3022 2063 
z
" transform="scale(0.015625)"/>
      <path id="DejaVuSans-74" d="M 1172 4494 
L 1172 3500 
L 2356 3500 
L 2356 3053 
L 1172 3053 
L 1172 1153 
Q 1172 725 1289 603 
Q 1406 481 1766 481 
L 2356 481 
L 2356 0 
L 1766 0 
Q 1100 0 847 248 
Q 594 497 594 1153 
L 594 3053 
L 172 3053 
L 172 3500 
L 594 3500 
L 594 4494 
L 1172 4494 
z
" transform="scale(0.015625)"/>
      <path id="DejaVuSans-5f" d="M 3263 -1063 
L 3263 -1509 
L -63 -1509 
L -63 -1063 
L 3263 -1063 
z
" transform="scale(0.015625)"/>
      <path id="DejaVuSans-73" d="M 2834 3397 
L 2834 2853 
Q 2591 2978 2328 3040 
Q 2066 3103 1784 3103 
Q 1356 3103 1142 2972 
Q 928 2841 928 2578 
Q 928 2378 1081 2264 
Q 1234 2150 1697 2047 
L 1894 2003 
Q 2506 1872 2764 1633 
Q 3022 1394 3022 966 
Q 3022 478 2636 193 
Q 2250 -91 1575 -91 
Q 1294 -91 989 -36 
Q 684 19 347 128 
L 347 722 
Q 666 556 975 473 
Q 1284 391 1588 391 
Q 1994 391 2212 530 
Q 2431 669 2431 922 
Q 2431 1156 2273 1281 
Q 2116 1406 1581 1522 
L 1381 1569 
Q 847 1681 609 1914 
Q 372 2147 372 2553 
Q 372 3047 722 3315 
Q 1072 3584 1716 3584 
Q 2034 3584 2315 3537 
Q 2597 3491 2834 3397 
z
" transform="scale(0.015625)"/>
      <path id="DejaVuSans-75" d="M 544 1381 
L 544 3500 
L 1119 3500 
L 1119 1403 
Q 1119 906 1312 657 
Q 1506 409 1894 409 
Q 2359 409 2629 706 
Q 2900 1003 2900 1516 
L 2900 3500 
L 3475 3500 
L 3475 0 
L 2900 0 
L 2900 538 
Q 2691 219 2414 64 
Q 2138 -91 1772 -91 
Q 1169 -91 856 284 
Q 544 659 544 1381 
z
M 1991 3584 
L 1991 3584 
z
" transform="scale(0.015625)"/>
      <path id="DejaVuSans-62" d="M 3116 1747 
Q 3116 2381 2855 2742 
Q 2594 3103 2138 3103 
Q 1681 3103 1420 2742 
Q 1159 2381 1159 1747 
Q 1159 1113 1420 752 
Q 1681 391 2138 391 
Q 2594 391 2855 752 
Q 3116 1113 3116 1747 
z
M 1159 2969 
Q 1341 3281 1617 3432 
Q 1894 3584 2278 3584 
Q 2916 3584 3314 3078 
Q 3713 2572 3713 1747 
Q 3713 922 3314 415 
Q 2916 -91 2278 -91 
Q 1894 -91 1617 61 
Q 1341 213 1159 525 
L 1159 0 
L 581 0 
L 581 4863 
L 1159 4863 
L 1159 2969 
z
" transform="scale(0.015625)"/>
      <path id="DejaVuSans-63" d="M 3122 3366 
L 3122 2828 
Q 2878 2963 2633 3030 
Q 2388 3097 2138 3097 
Q 1578 3097 1268 2742 
Q 959 2388 959 1747 
Q 959 1106 1268 751 
Q 1578 397 2138 397 
Q 2388 397 2633 464 
Q 2878 531 3122 666 
L 3122 134 
Q 2881 22 2623 -34 
Q 2366 -91 2075 -91 
Q 1284 -91 818 406 
Q 353 903 353 1747 
Q 353 2603 823 3093 
Q 1294 3584 2113 3584 
Q 2378 3584 2631 3529 
Q 2884 3475 3122 3366 
z
" transform="scale(0.015625)"/>
      <path id="DejaVuSans-72" d="M 2631 2963 
Q 2534 3019 2420 3045 
Q 2306 3072 2169 3072 
Q 1681 3072 1420 2755 
Q 1159 2438 1159 1844 
L 1159 0 
L 581 0 
L 581 3500 
L 1159 3500 
L 1159 2956 
Q 1341 3275 1631 3429 
Q 1922 3584 2338 3584 
Q 2397 3584 2469 3576 
Q 2541 3569 2628 3553 
L 2631 2963 
z
" transform="scale(0.015625)"/>
      <path id="DejaVuSans-69" d="M 603 3500 
L 1178 3500 
L 1178 0 
L 603 0 
L 603 3500 
z
M 603 4863 
L 1178 4863 
L 1178 4134 
L 603 4134 
L 603 4863 
z
" transform="scale(0.015625)"/>
      <path id="DejaVuSans-20" transform="scale(0.015625)"/>
      <path id="DejaVuSans-68" d="M 3513 2113 
L 3513 0 
L 2938 0 
L 2938 2094 
Q 2938 2591 2744 2837 
Q 2550 3084 2163 3084 
Q 1697 3084 1428 2787 
Q 1159 2491 1159 1978 
L 1159 0 
L 581 0 
L 581 4863 
L 1159 4863 
L 1159 2956 
Q 1366 3272 1645 3428 
Q 1925 3584 2291 3584 
Q 2894 3584 3203 3211 
Q 3513 2838 3513 2113 
z
" transform="scale(0.015625)"/>
      <path id="DejaVuSans-6f" d="M 1959 3097 
Q 1497 3097 1228 2736 
Q 959 2375 959 1747 
Q 959 1119 1226 758 
Q 1494 397 1959 397 
Q 2419 397 2687 759 
Q 2956 1122 2956 1747 
Q 2956 2369 2687 2733 
Q 2419 3097 1959 3097 
z
M 1959 3584 
Q 2709 3584 3137 3096 
Q 3566 2609 3566 1747 
Q 3566 888 3137 398 
Q 2709 -91 1959 -91 
Q 1206 -91 779 398 
Q 353 888 353 1747 
Q 353 2609 779 3096 
Q 1206 3584 1959 3584 
z
" transform="scale(0.015625)"/>
      <path id="DejaVuSans-79" d="M 2059 -325 
Q 1816 -950 1584 -1140 
Q 1353 -1331 966 -1331 
L 506 -1331 
L 506 -850 
L 844 -850 
Q 1081 -850 1212 -737 
Q 1344 -625 1503 -206 
L 1606 56 
L 191 3500 
L 800 3500 
L 1894 763 
L 2988 3500 
L 3597 3500 
L 2059 -325 
z
" transform="scale(0.015625)"/>
     </defs>
     <use xlink:href="#DejaVuSans-67"/>
     <use xlink:href="#DejaVuSans-65" x="63.476562"/>
     <use xlink:href="#DejaVuSans-74" x="125"/>
     <use xlink:href="#DejaVuSans-5f" x="164.208984"/>
     <use xlink:href="#DejaVuSans-73" x="214.208984"/>
     <use xlink:href="#DejaVuSans-75" x="266.308594"/>
     <use xlink:href="#DejaVuSans-62" x="329.6875"/>
     <use xlink:href="#DejaVuSans-73" x="393.164062"/>
     <use xlink:href="#DejaVuSans-63" x="445.263672"/>
     <use xlink:href="#DejaVuSans-72" x="500.244141"/>
     <use xlink:href="#DejaVuSans-69" x="541.357422"/>
     <use xlink:href="#DejaVuSans-62" x="569.140625"/>
     <use xlink:href="#DejaVuSans-65" x="632.617188"/>
     <use xlink:href="#DejaVuSans-20" x="694.140625"/>
     <use xlink:href="#DejaVuSans-68" x="725.927734"/>
     <use xlink:href="#DejaVuSans-69" x="789.306641"/>
     <use xlink:href="#DejaVuSans-73" x="817.089844"/>
     <use xlink:href="#DejaVuSans-74" x="869.189453"/>
     <use xlink:href="#DejaVuSans-6f" x="908.398438"/>
     <use xlink:href="#DejaVuSans-72" x="969.580078"/>
     <use xlink:href="#DejaVuSans-79" x="1010.693359"/>
    </g>
   </g>
   <g id="legend_1">
    <g id="line2d_41">
     <path d="M 815.08 328.498438 
L 825.08 328.498438 
L 835.08 328.498438 
" style="fill: none; stroke: #1f77b4; stroke-width: 1.5; stroke-linecap: square"/>
    </g>
    <g id="text_21">
     <!-- star -->
     <g style="fill: #a9a9a9" transform="translate(843.08 331.998438) scale(0.1 -0.1)">
      <defs>
       <path id="DejaVuSans-61" d="M 2194 1759 
Q 1497 1759 1228 1600 
Q 959 1441 959 1056 
Q 959 750 1161 570 
Q 1363 391 1709 391 
Q 2188 391 2477 730 
Q 2766 1069 2766 1631 
L 2766 1759 
L 2194 1759 
z
M 3341 1997 
L 3341 0 
L 2766 0 
L 2766 531 
Q 2569 213 2275 61 
Q 1981 -91 1556 -91 
Q 1019 -91 701 211 
Q 384 513 384 1019 
Q 384 1609 779 1909 
Q 1175 2209 1959 2209 
L 2766 2209 
L 2766 2266 
Q 2766 2663 2505 2880 
Q 2244 3097 1772 3097 
Q 1472 3097 1187 3025 
Q 903 2953 641 2809 
L 641 3341 
Q 956 3463 1253 3523 
Q 1550 3584 1831 3584 
Q 2591 3584 2966 3190 
Q 3341 2797 3341 1997 
z
" transform="scale(0.015625)"/>
      </defs>
      <use xlink:href="#DejaVuSans-73"/>
      <use xlink:href="#DejaVuSans-74" x="52.099609"/>
      <use xlink:href="#DejaVuSans-61" x="91.308594"/>
      <use xlink:href="#DejaVuSans-72" x="152.587891"/>
     </g>
    </g>
    <g id="line2d_42">
     <path d="M 815.08 343.176562 
L 825.08 343.176562 
L 835.08 343.176562 
" style="fill: none; stroke: #ff7f0e; stroke-width: 1.5; stroke-linecap: square"/>
    </g>
    <g id="text_22">
     <!-- fork -->
     <g style="fill: #a9a9a9" transform="translate(843.08 346.676562) scale(0.1 -0.1)">
      <defs>
       <path id="DejaVuSans-66" d="M 2375 4863 
L 2375 4384 
L 1825 4384 
Q 1516 4384 1395 4259 
Q 1275 4134 1275 3809 
L 1275 3500 
L 2222 3500 
L 2222 3053 
L 1275 3053 
L 1275 0 
L 697 0 
L 697 3053 
L 147 3053 
L 147 3500 
L 697 3500 
L 697 3744 
Q 697 4328 969 4595 
Q 1241 4863 1831 4863 
L 2375 4863 
z
" transform="scale(0.015625)"/>
       <path id="DejaVuSans-6b" d="M 581 4863 
L 1159 4863 
L 1159 1991 
L 2875 3500 
L 3609 3500 
L 1753 1863 
L 3688 0 
L 2938 0 
L 1159 1709 
L 1159 0 
L 581 0 
L 581 4863 
z
" transform="scale(0.015625)"/>
      </defs>
      <use xlink:href="#DejaVuSans-66"/>
      <use xlink:href="#DejaVuSans-6f" x="35.205078"/>
      <use xlink:href="#DejaVuSans-72" x="96.386719"/>
      <use xlink:href="#DejaVuSans-6b" x="137.5"/>
     </g>
    </g>
   </g>
  </g>
 </g>
 <defs>
  <clipPath id="p44d14cda38">
   <rect x="108" y="43.2" width="669.6" height="277.2"/>
  </clipPath>
 </defs>
</svg>
