<?xml version="1.0" encoding="utf-8" standalone="no"?>
<!DOCTYPE svg PUBLIC "-//W3C//DTD SVG 1.1//EN"
  "http://www.w3.org/Graphics/SVG/1.1/DTD/svg11.dtd">
<svg xmlns:xlink="http://www.w3.org/1999/xlink" width="864pt" height="360pt" viewBox="0 0 864 360" xmlns="http://www.w3.org/2000/svg" version="1.1">
 <metadata>
  <rdf:RDF xmlns:dc="http://purl.org/dc/elements/1.1/" xmlns:cc="http://creativecommons.org/ns#" xmlns:rdf="http://www.w3.org/1999/02/22-rdf-syntax-ns#">
   <cc:Work>
    <dc:type rdf:resource="http://purl.org/dc/dcmitype/StillImage"/>
    <dc:date>2024-01-31T08:10:57.183254</dc:date>
    <dc:format>image/svg+xml</dc:format>
    <dc:creator>
     <cc:Agent>
      <dc:title>Matplotlib v3.8.2, https://matplotlib.org/</dc:title>
     </cc:Agent>
    </dc:creator>
   </cc:Work>
  </rdf:RDF>
 </metadata>
 <defs>
  <style type="text/css">*{stroke-linejoin: round; stroke-linecap: butt}</style>
 </defs>
 <g id="figure_1">
  <g id="patch_1">
   <path d="M 0 360 
L 864 360 
L 864 0 
L 0 0 
L 0 360 
z
" style="fill: none; opacity: 0"/>
  </g>
  <g id="axes_1">
   <g id="patch_2">
    <path d="M 108 320.4 
L 777.6 320.4 
L 777.6 43.2 
L 108 43.2 
L 108 320.4 
z
" style="fill: none; opacity: 0"/>
   </g>
   <g id="matplotlib.axis_1">
    <g id="xtick_1">
     <g id="line2d_1">
      <path d="M 123.234705 320.4 
L 123.234705 43.2 
" clip-path="url(#pf13971d9c8)" style="fill: none; stroke-dasharray: 5.12,1.28,0.8,1.28; stroke-dashoffset: 0; stroke: #b0b0b0; stroke-width: 0.8"/>
     </g>
     <g id="line2d_2">
      <defs>
       <path id="m08aa3c81f5" d="M 0 0 
L 0 3.5 
" style="stroke: #a9a9a9; stroke-width: 0.8"/>
      </defs>
      <g>
       <use xlink:href="#m08aa3c81f5" x="123.234705" y="320.4" style="fill: #a9a9a9; stroke: #a9a9a9; stroke-width: 0.8"/>
      </g>
     </g>
     <g id="text_1">
      <!-- 2021-07 -->
      <g style="fill: #a9a9a9" transform="translate(102.343299 334.998438) scale(0.1 -0.1)">
       <defs>
        <path id="DejaVuSans-32" d="M 1228 531 
L 3431 531 
L 3431 0 
L 469 0 
L 469 531 
Q 828 903 1448 1529 
Q 2069 2156 2228 2338 
Q 2531 2678 2651 2914 
Q 2772 3150 2772 3378 
Q 2772 3750 2511 3984 
Q 2250 4219 1831 4219 
Q 1534 4219 1204 4116 
Q 875 4013 500 3803 
L 500 4441 
Q 881 4594 1212 4672 
Q 1544 4750 1819 4750 
Q 2544 4750 2975 4387 
Q 3406 4025 3406 3419 
Q 3406 3131 3298 2873 
Q 3191 2616 2906 2266 
Q 2828 2175 2409 1742 
Q 1991 1309 1228 531 
z
" transform="scale(0.015625)"/>
        <path id="DejaVuSans-30" d="M 2034 4250 
Q 1547 4250 1301 3770 
Q 1056 3291 1056 2328 
Q 1056 1369 1301 889 
Q 1547 409 2034 409 
Q 2525 409 2770 889 
Q 3016 1369 3016 2328 
Q 3016 3291 2770 3770 
Q 2525 4250 2034 4250 
z
M 2034 4750 
Q 2819 4750 3233 4129 
Q 3647 3509 3647 2328 
Q 3647 1150 3233 529 
Q 2819 -91 2034 -91 
Q 1250 -91 836 529 
Q 422 1150 422 2328 
Q 422 3509 836 4129 
Q 1250 4750 2034 4750 
z
" transform="scale(0.015625)"/>
        <path id="DejaVuSans-31" d="M 794 531 
L 1825 531 
L 1825 4091 
L 703 3866 
L 703 4441 
L 1819 4666 
L 2450 4666 
L 2450 531 
L 3481 531 
L 3481 0 
L 794 0 
L 794 531 
z
" transform="scale(0.015625)"/>
        <path id="DejaVuSans-2d" d="M 313 2009 
L 1997 2009 
L 1997 1497 
L 313 1497 
L 313 2009 
z
" transform="scale(0.015625)"/>
        <path id="DejaVuSans-37" d="M 525 4666 
L 3525 4666 
L 3525 4397 
L 1831 0 
L 1172 0 
L 2766 4134 
L 525 4134 
L 525 4666 
z
" transform="scale(0.015625)"/>
       </defs>
       <use xlink:href="#DejaVuSans-32"/>
       <use xlink:href="#DejaVuSans-30" x="63.623047"/>
       <use xlink:href="#DejaVuSans-32" x="127.246094"/>
       <use xlink:href="#DejaVuSans-31" x="190.869141"/>
       <use xlink:href="#DejaVuSans-2d" x="254.492188"/>
       <use xlink:href="#DejaVuSans-30" x="290.576172"/>
       <use xlink:href="#DejaVuSans-37" x="354.199219"/>
      </g>
     </g>
    </g>
    <g id="xtick_2">
     <g id="line2d_3">
      <path d="M 184.041338 320.4 
L 184.041338 43.2 
" clip-path="url(#pf13971d9c8)" style="fill: none; stroke-dasharray: 5.12,1.28,0.8,1.28; stroke-dashoffset: 0; stroke: #b0b0b0; stroke-width: 0.8"/>
     </g>
     <g id="line2d_4">
      <g>
       <use xlink:href="#m08aa3c81f5" x="184.041338" y="320.4" style="fill: #a9a9a9; stroke: #a9a9a9; stroke-width: 0.8"/>
      </g>
     </g>
     <g id="text_2">
      <!-- 2021-10 -->
      <g style="fill: #a9a9a9" transform="translate(163.149932 334.998438) scale(0.1 -0.1)">
       <use xlink:href="#DejaVuSans-32"/>
       <use xlink:href="#DejaVuSans-30" x="63.623047"/>
       <use xlink:href="#DejaVuSans-32" x="127.246094"/>
       <use xlink:href="#DejaVuSans-31" x="190.869141"/>
       <use xlink:href="#DejaVuSans-2d" x="254.492188"/>
       <use xlink:href="#DejaVuSans-31" x="290.576172"/>
       <use xlink:href="#DejaVuSans-30" x="354.199219"/>
      </g>
     </g>
    </g>
    <g id="xtick_3">
     <g id="line2d_5">
      <path d="M 244.847972 320.4 
L 244.847972 43.2 
" clip-path="url(#pf13971d9c8)" style="fill: none; stroke-dasharray: 5.12,1.28,0.8,1.28; stroke-dashoffset: 0; stroke: #b0b0b0; stroke-width: 0.8"/>
     </g>
     <g id="line2d_6">
      <g>
       <use xlink:href="#m08aa3c81f5" x="244.847972" y="320.4" style="fill: #a9a9a9; stroke: #a9a9a9; stroke-width: 0.8"/>
      </g>
     </g>
     <g id="text_3">
      <!-- 2022-01 -->
      <g style="fill: #a9a9a9" transform="translate(223.956565 334.998438) scale(0.1 -0.1)">
       <use xlink:href="#DejaVuSans-32"/>
       <use xlink:href="#DejaVuSans-30" x="63.623047"/>
       <use xlink:href="#DejaVuSans-32" x="127.246094"/>
       <use xlink:href="#DejaVuSans-32" x="190.869141"/>
       <use xlink:href="#DejaVuSans-2d" x="254.492188"/>
       <use xlink:href="#DejaVuSans-30" x="290.576172"/>
       <use xlink:href="#DejaVuSans-31" x="354.199219"/>
      </g>
     </g>
    </g>
    <g id="xtick_4">
     <g id="line2d_7">
      <path d="M 304.332721 320.4 
L 304.332721 43.2 
" clip-path="url(#pf13971d9c8)" style="fill: none; stroke-dasharray: 5.12,1.28,0.8,1.28; stroke-dashoffset: 0; stroke: #b0b0b0; stroke-width: 0.8"/>
     </g>
     <g id="line2d_8">
      <g>
       <use xlink:href="#m08aa3c81f5" x="304.332721" y="320.4" style="fill: #a9a9a9; stroke: #a9a9a9; stroke-width: 0.8"/>
      </g>
     </g>
     <g id="text_4">
      <!-- 2022-04 -->
      <g style="fill: #a9a9a9" transform="translate(283.441315 334.998438) scale(0.1 -0.1)">
       <defs>
        <path id="DejaVuSans-34" d="M 2419 4116 
L 825 1625 
L 2419 1625 
L 2419 4116 
z
M 2253 4666 
L 3047 4666 
L 3047 1625 
L 3713 1625 
L 3713 1100 
L 3047 1100 
L 3047 0 
L 2419 0 
L 2419 1100 
L 313 1100 
L 313 1709 
L 2253 4666 
z
" transform="scale(0.015625)"/>
       </defs>
       <use xlink:href="#DejaVuSans-32"/>
       <use xlink:href="#DejaVuSans-30" x="63.623047"/>
       <use xlink:href="#DejaVuSans-32" x="127.246094"/>
       <use xlink:href="#DejaVuSans-32" x="190.869141"/>
       <use xlink:href="#DejaVuSans-2d" x="254.492188"/>
       <use xlink:href="#DejaVuSans-30" x="290.576172"/>
       <use xlink:href="#DejaVuSans-34" x="354.199219"/>
      </g>
     </g>
    </g>
    <g id="xtick_5">
     <g id="line2d_9">
      <path d="M 364.478413 320.4 
L 364.478413 43.2 
" clip-path="url(#pf13971d9c8)" style="fill: none; stroke-dasharray: 5.12,1.28,0.8,1.28; stroke-dashoffset: 0; stroke: #b0b0b0; stroke-width: 0.8"/>
     </g>
     <g id="line2d_10">
      <g>
       <use xlink:href="#m08aa3c81f5" x="364.478413" y="320.4" style="fill: #a9a9a9; stroke: #a9a9a9; stroke-width: 0.8"/>
      </g>
     </g>
     <g id="text_5">
      <!-- 2022-07 -->
      <g style="fill: #a9a9a9" transform="translate(343.587007 334.998438) scale(0.1 -0.1)">
       <use xlink:href="#DejaVuSans-32"/>
       <use xlink:href="#DejaVuSans-30" x="63.623047"/>
       <use xlink:href="#DejaVuSans-32" x="127.246094"/>
       <use xlink:href="#DejaVuSans-32" x="190.869141"/>
       <use xlink:href="#DejaVuSans-2d" x="254.492188"/>
       <use xlink:href="#DejaVuSans-30" x="290.576172"/>
       <use xlink:href="#DejaVuSans-37" x="354.199219"/>
      </g>
     </g>
    </g>
    <g id="xtick_6">
     <g id="line2d_11">
      <path d="M 425.285046 320.4 
L 425.285046 43.2 
" clip-path="url(#pf13971d9c8)" style="fill: none; stroke-dasharray: 5.12,1.28,0.8,1.28; stroke-dashoffset: 0; stroke: #b0b0b0; stroke-width: 0.8"/>
     </g>
     <g id="line2d_12">
      <g>
       <use xlink:href="#m08aa3c81f5" x="425.285046" y="320.4" style="fill: #a9a9a9; stroke: #a9a9a9; stroke-width: 0.8"/>
      </g>
     </g>
     <g id="text_6">
      <!-- 2022-10 -->
      <g style="fill: #a9a9a9" transform="translate(404.39364 334.998438) scale(0.1 -0.1)">
       <use xlink:href="#DejaVuSans-32"/>
       <use xlink:href="#DejaVuSans-30" x="63.623047"/>
       <use xlink:href="#DejaVuSans-32" x="127.246094"/>
       <use xlink:href="#DejaVuSans-32" x="190.869141"/>
       <use xlink:href="#DejaVuSans-2d" x="254.492188"/>
       <use xlink:href="#DejaVuSans-31" x="290.576172"/>
       <use xlink:href="#DejaVuSans-30" x="354.199219"/>
      </g>
     </g>
    </g>
    <g id="xtick_7">
     <g id="line2d_13">
      <path d="M 486.091679 320.4 
L 486.091679 43.2 
" clip-path="url(#pf13971d9c8)" style="fill: none; stroke-dasharray: 5.12,1.28,0.8,1.28; stroke-dashoffset: 0; stroke: #b0b0b0; stroke-width: 0.8"/>
     </g>
     <g id="line2d_14">
      <g>
       <use xlink:href="#m08aa3c81f5" x="486.091679" y="320.4" style="fill: #a9a9a9; stroke: #a9a9a9; stroke-width: 0.8"/>
      </g>
     </g>
     <g id="text_7">
      <!-- 2023-01 -->
      <g style="fill: #a9a9a9" transform="translate(465.200273 334.998438) scale(0.1 -0.1)">
       <defs>
        <path id="DejaVuSans-33" d="M 2597 2516 
Q 3050 2419 3304 2112 
Q 3559 1806 3559 1356 
Q 3559 666 3084 287 
Q 2609 -91 1734 -91 
Q 1441 -91 1130 -33 
Q 819 25 488 141 
L 488 750 
Q 750 597 1062 519 
Q 1375 441 1716 441 
Q 2309 441 2620 675 
Q 2931 909 2931 1356 
Q 2931 1769 2642 2001 
Q 2353 2234 1838 2234 
L 1294 2234 
L 1294 2753 
L 1863 2753 
Q 2328 2753 2575 2939 
Q 2822 3125 2822 3475 
Q 2822 3834 2567 4026 
Q 2313 4219 1838 4219 
Q 1578 4219 1281 4162 
Q 984 4106 628 3988 
L 628 4550 
Q 988 4650 1302 4700 
Q 1616 4750 1894 4750 
Q 2613 4750 3031 4423 
Q 3450 4097 3450 3541 
Q 3450 3153 3228 2886 
Q 3006 2619 2597 2516 
z
" transform="scale(0.015625)"/>
       </defs>
       <use xlink:href="#DejaVuSans-32"/>
       <use xlink:href="#DejaVuSans-30" x="63.623047"/>
       <use xlink:href="#DejaVuSans-32" x="127.246094"/>
       <use xlink:href="#DejaVuSans-33" x="190.869141"/>
       <use xlink:href="#DejaVuSans-2d" x="254.492188"/>
       <use xlink:href="#DejaVuSans-30" x="290.576172"/>
       <use xlink:href="#DejaVuSans-31" x="354.199219"/>
      </g>
     </g>
    </g>
    <g id="xtick_8">
     <g id="line2d_15">
      <path d="M 545.576429 320.4 
L 545.576429 43.2 
" clip-path="url(#pf13971d9c8)" style="fill: none; stroke-dasharray: 5.12,1.28,0.8,1.28; stroke-dashoffset: 0; stroke: #b0b0b0; stroke-width: 0.8"/>
     </g>
     <g id="line2d_16">
      <g>
       <use xlink:href="#m08aa3c81f5" x="545.576429" y="320.4" style="fill: #a9a9a9; stroke: #a9a9a9; stroke-width: 0.8"/>
      </g>
     </g>
     <g id="text_8">
      <!-- 2023-04 -->
      <g style="fill: #a9a9a9" transform="translate(524.685023 334.998438) scale(0.1 -0.1)">
       <use xlink:href="#DejaVuSans-32"/>
       <use xlink:href="#DejaVuSans-30" x="63.623047"/>
       <use xlink:href="#DejaVuSans-32" x="127.246094"/>
       <use xlink:href="#DejaVuSans-33" x="190.869141"/>
       <use xlink:href="#DejaVuSans-2d" x="254.492188"/>
       <use xlink:href="#DejaVuSans-30" x="290.576172"/>
       <use xlink:href="#DejaVuSans-34" x="354.199219"/>
      </g>
     </g>
    </g>
    <g id="xtick_9">
     <g id="line2d_17">
      <path d="M 605.72212 320.4 
L 605.72212 43.2 
" clip-path="url(#pf13971d9c8)" style="fill: none; stroke-dasharray: 5.12,1.28,0.8,1.28; stroke-dashoffset: 0; stroke: #b0b0b0; stroke-width: 0.8"/>
     </g>
     <g id="line2d_18">
      <g>
       <use xlink:href="#m08aa3c81f5" x="605.72212" y="320.4" style="fill: #a9a9a9; stroke: #a9a9a9; stroke-width: 0.8"/>
      </g>
     </g>
     <g id="text_9">
      <!-- 2023-07 -->
      <g style="fill: #a9a9a9" transform="translate(584.830714 334.998438) scale(0.1 -0.1)">
       <use xlink:href="#DejaVuSans-32"/>
       <use xlink:href="#DejaVuSans-30" x="63.623047"/>
       <use xlink:href="#DejaVuSans-32" x="127.246094"/>
       <use xlink:href="#DejaVuSans-33" x="190.869141"/>
       <use xlink:href="#DejaVuSans-2d" x="254.492188"/>
       <use xlink:href="#DejaVuSans-30" x="290.576172"/>
       <use xlink:href="#DejaVuSans-37" x="354.199219"/>
      </g>
     </g>
    </g>
    <g id="xtick_10">
     <g id="line2d_19">
      <path d="M 666.528753 320.4 
L 666.528753 43.2 
" clip-path="url(#pf13971d9c8)" style="fill: none; stroke-dasharray: 5.12,1.28,0.8,1.28; stroke-dashoffset: 0; stroke: #b0b0b0; stroke-width: 0.8"/>
     </g>
     <g id="line2d_20">
      <g>
       <use xlink:href="#m08aa3c81f5" x="666.528753" y="320.4" style="fill: #a9a9a9; stroke: #a9a9a9; stroke-width: 0.8"/>
      </g>
     </g>
     <g id="text_10">
      <!-- 2023-10 -->
      <g style="fill: #a9a9a9" transform="translate(645.637347 334.998438) scale(0.1 -0.1)">
       <use xlink:href="#DejaVuSans-32"/>
       <use xlink:href="#DejaVuSans-30" x="63.623047"/>
       <use xlink:href="#DejaVuSans-32" x="127.246094"/>
       <use xlink:href="#DejaVuSans-33" x="190.869141"/>
       <use xlink:href="#DejaVuSans-2d" x="254.492188"/>
       <use xlink:href="#DejaVuSans-31" x="290.576172"/>
       <use xlink:href="#DejaVuSans-30" x="354.199219"/>
      </g>
     </g>
    </g>
    <g id="xtick_11">
     <g id="line2d_21">
      <path d="M 727.335386 320.4 
L 727.335386 43.2 
" clip-path="url(#pf13971d9c8)" style="fill: none; stroke-dasharray: 5.12,1.28,0.8,1.28; stroke-dashoffset: 0; stroke: #b0b0b0; stroke-width: 0.8"/>
     </g>
     <g id="line2d_22">
      <g>
       <use xlink:href="#m08aa3c81f5" x="727.335386" y="320.4" style="fill: #a9a9a9; stroke: #a9a9a9; stroke-width: 0.8"/>
      </g>
     </g>
     <g id="text_11">
      <!-- 2024-01 -->
      <g style="fill: #a9a9a9" transform="translate(706.44398 334.998438) scale(0.1 -0.1)">
       <use xlink:href="#DejaVuSans-32"/>
       <use xlink:href="#DejaVuSans-30" x="63.623047"/>
       <use xlink:href="#DejaVuSans-32" x="127.246094"/>
       <use xlink:href="#DejaVuSans-34" x="190.869141"/>
       <use xlink:href="#DejaVuSans-2d" x="254.492188"/>
       <use xlink:href="#DejaVuSans-30" x="290.576172"/>
       <use xlink:href="#DejaVuSans-31" x="354.199219"/>
      </g>
     </g>
    </g>
   </g>
   <g id="matplotlib.axis_2">
    <g id="ytick_1">
     <g id="line2d_23">
      <path d="M 108 307.845414 
L 777.6 307.845414 
" clip-path="url(#pf13971d9c8)" style="fill: none; stroke-dasharray: 5.12,1.28,0.8,1.28; stroke-dashoffset: 0; stroke: #b0b0b0; stroke-width: 0.8"/>
     </g>
     <g id="line2d_24">
      <defs>
       <path id="mf249350c5a" d="M 0 0 
L -3.5 0 
" style="stroke: #a9a9a9; stroke-width: 0.8"/>
      </defs>
      <g>
       <use xlink:href="#mf249350c5a" x="108" y="307.845414" style="fill: #a9a9a9; stroke: #a9a9a9; stroke-width: 0.8"/>
      </g>
     </g>
     <g id="text_12">
      <!-- 0 -->
      <g style="fill: #a9a9a9" transform="translate(94.6375 311.644632) scale(0.1 -0.1)">
       <use xlink:href="#DejaVuSans-30"/>
      </g>
     </g>
    </g>
    <g id="ytick_2">
     <g id="line2d_25">
      <path d="M 108 271.514543 
L 777.6 271.514543 
" clip-path="url(#pf13971d9c8)" style="fill: none; stroke-dasharray: 5.12,1.28,0.8,1.28; stroke-dashoffset: 0; stroke: #b0b0b0; stroke-width: 0.8"/>
     </g>
     <g id="line2d_26">
      <g>
       <use xlink:href="#mf249350c5a" x="108" y="271.514543" style="fill: #a9a9a9; stroke: #a9a9a9; stroke-width: 0.8"/>
      </g>
     </g>
     <g id="text_13">
      <!-- 800 -->
      <g style="fill: #a9a9a9" transform="translate(81.9125 275.313762) scale(0.1 -0.1)">
       <defs>
        <path id="DejaVuSans-38" d="M 2034 2216 
Q 1584 2216 1326 1975 
Q 1069 1734 1069 1313 
Q 1069 891 1326 650 
Q 1584 409 2034 409 
Q 2484 409 2743 651 
Q 3003 894 3003 1313 
Q 3003 1734 2745 1975 
Q 2488 2216 2034 2216 
z
M 1403 2484 
Q 997 2584 770 2862 
Q 544 3141 544 3541 
Q 544 4100 942 4425 
Q 1341 4750 2034 4750 
Q 2731 4750 3128 4425 
Q 3525 4100 3525 3541 
Q 3525 3141 3298 2862 
Q 3072 2584 2669 2484 
Q 3125 2378 3379 2068 
Q 3634 1759 3634 1313 
Q 3634 634 3220 271 
Q 2806 -91 2034 -91 
Q 1263 -91 848 271 
Q 434 634 434 1313 
Q 434 1759 690 2068 
Q 947 2378 1403 2484 
z
M 1172 3481 
Q 1172 3119 1398 2916 
Q 1625 2713 2034 2713 
Q 2441 2713 2670 2916 
Q 2900 3119 2900 3481 
Q 2900 3844 2670 4047 
Q 2441 4250 2034 4250 
Q 1625 4250 1398 4047 
Q 1172 3844 1172 3481 
z
" transform="scale(0.015625)"/>
       </defs>
       <use xlink:href="#DejaVuSans-38"/>
       <use xlink:href="#DejaVuSans-30" x="63.623047"/>
       <use xlink:href="#DejaVuSans-30" x="127.246094"/>
      </g>
     </g>
    </g>
    <g id="ytick_3">
     <g id="line2d_27">
      <path d="M 108 235.183673 
L 777.6 235.183673 
" clip-path="url(#pf13971d9c8)" style="fill: none; stroke-dasharray: 5.12,1.28,0.8,1.28; stroke-dashoffset: 0; stroke: #b0b0b0; stroke-width: 0.8"/>
     </g>
     <g id="line2d_28">
      <g>
       <use xlink:href="#mf249350c5a" x="108" y="235.183673" style="fill: #a9a9a9; stroke: #a9a9a9; stroke-width: 0.8"/>
      </g>
     </g>
     <g id="text_14">
      <!-- 1600 -->
      <g style="fill: #a9a9a9" transform="translate(75.55 238.982891) scale(0.1 -0.1)">
       <defs>
        <path id="DejaVuSans-36" d="M 2113 2584 
Q 1688 2584 1439 2293 
Q 1191 2003 1191 1497 
Q 1191 994 1439 701 
Q 1688 409 2113 409 
Q 2538 409 2786 701 
Q 3034 994 3034 1497 
Q 3034 2003 2786 2293 
Q 2538 2584 2113 2584 
z
M 3366 4563 
L 3366 3988 
Q 3128 4100 2886 4159 
Q 2644 4219 2406 4219 
Q 1781 4219 1451 3797 
Q 1122 3375 1075 2522 
Q 1259 2794 1537 2939 
Q 1816 3084 2150 3084 
Q 2853 3084 3261 2657 
Q 3669 2231 3669 1497 
Q 3669 778 3244 343 
Q 2819 -91 2113 -91 
Q 1303 -91 875 529 
Q 447 1150 447 2328 
Q 447 3434 972 4092 
Q 1497 4750 2381 4750 
Q 2619 4750 2861 4703 
Q 3103 4656 3366 4563 
z
" transform="scale(0.015625)"/>
       </defs>
       <use xlink:href="#DejaVuSans-31"/>
       <use xlink:href="#DejaVuSans-36" x="63.623047"/>
       <use xlink:href="#DejaVuSans-30" x="127.246094"/>
       <use xlink:href="#DejaVuSans-30" x="190.869141"/>
      </g>
     </g>
    </g>
    <g id="ytick_4">
     <g id="line2d_29">
      <path d="M 108 198.852802 
L 777.6 198.852802 
" clip-path="url(#pf13971d9c8)" style="fill: none; stroke-dasharray: 5.12,1.28,0.8,1.28; stroke-dashoffset: 0; stroke: #b0b0b0; stroke-width: 0.8"/>
     </g>
     <g id="line2d_30">
      <g>
       <use xlink:href="#mf249350c5a" x="108" y="198.852802" style="fill: #a9a9a9; stroke: #a9a9a9; stroke-width: 0.8"/>
      </g>
     </g>
     <g id="text_15">
      <!-- 2400 -->
      <g style="fill: #a9a9a9" transform="translate(75.55 202.652021) scale(0.1 -0.1)">
       <use xlink:href="#DejaVuSans-32"/>
       <use xlink:href="#DejaVuSans-34" x="63.623047"/>
       <use xlink:href="#DejaVuSans-30" x="127.246094"/>
       <use xlink:href="#DejaVuSans-30" x="190.869141"/>
      </g>
     </g>
    </g>
    <g id="ytick_5">
     <g id="line2d_31">
      <path d="M 108 162.521932 
L 777.6 162.521932 
" clip-path="url(#pf13971d9c8)" style="fill: none; stroke-dasharray: 5.12,1.28,0.8,1.28; stroke-dashoffset: 0; stroke: #b0b0b0; stroke-width: 0.8"/>
     </g>
     <g id="line2d_32">
      <g>
       <use xlink:href="#mf249350c5a" x="108" y="162.521932" style="fill: #a9a9a9; stroke: #a9a9a9; stroke-width: 0.8"/>
      </g>
     </g>
     <g id="text_16">
      <!-- 3200 -->
      <g style="fill: #a9a9a9" transform="translate(75.55 166.321151) scale(0.1 -0.1)">
       <use xlink:href="#DejaVuSans-33"/>
       <use xlink:href="#DejaVuSans-32" x="63.623047"/>
       <use xlink:href="#DejaVuSans-30" x="127.246094"/>
       <use xlink:href="#DejaVuSans-30" x="190.869141"/>
      </g>
     </g>
    </g>
    <g id="ytick_6">
     <g id="line2d_33">
      <path d="M 108 126.191061 
L 777.6 126.191061 
" clip-path="url(#pf13971d9c8)" style="fill: none; stroke-dasharray: 5.12,1.28,0.8,1.28; stroke-dashoffset: 0; stroke: #b0b0b0; stroke-width: 0.8"/>
     </g>
     <g id="line2d_34">
      <g>
       <use xlink:href="#mf249350c5a" x="108" y="126.191061" style="fill: #a9a9a9; stroke: #a9a9a9; stroke-width: 0.8"/>
      </g>
     </g>
     <g id="text_17">
      <!-- 4000 -->
      <g style="fill: #a9a9a9" transform="translate(75.55 129.99028) scale(0.1 -0.1)">
       <use xlink:href="#DejaVuSans-34"/>
       <use xlink:href="#DejaVuSans-30" x="63.623047"/>
       <use xlink:href="#DejaVuSans-30" x="127.246094"/>
       <use xlink:href="#DejaVuSans-30" x="190.869141"/>
      </g>
     </g>
    </g>
    <g id="ytick_7">
     <g id="line2d_35">
      <path d="M 108 89.860191 
L 777.6 89.860191 
" clip-path="url(#pf13971d9c8)" style="fill: none; stroke-dasharray: 5.12,1.28,0.8,1.28; stroke-dashoffset: 0; stroke: #b0b0b0; stroke-width: 0.8"/>
     </g>
     <g id="line2d_36">
      <g>
       <use xlink:href="#mf249350c5a" x="108" y="89.860191" style="fill: #a9a9a9; stroke: #a9a9a9; stroke-width: 0.8"/>
      </g>
     </g>
     <g id="text_18">
      <!-- 4800 -->
      <g style="fill: #a9a9a9" transform="translate(75.55 93.65941) scale(0.1 -0.1)">
       <use xlink:href="#DejaVuSans-34"/>
       <use xlink:href="#DejaVuSans-38" x="63.623047"/>
       <use xlink:href="#DejaVuSans-30" x="127.246094"/>
       <use xlink:href="#DejaVuSans-30" x="190.869141"/>
      </g>
     </g>
    </g>
    <g id="ytick_8">
     <g id="line2d_37">
      <path d="M 108 53.529321 
L 777.6 53.529321 
" clip-path="url(#pf13971d9c8)" style="fill: none; stroke-dasharray: 5.12,1.28,0.8,1.28; stroke-dashoffset: 0; stroke: #b0b0b0; stroke-width: 0.8"/>
     </g>
     <g id="line2d_38">
      <g>
       <use xlink:href="#mf249350c5a" x="108" y="53.529321" style="fill: #a9a9a9; stroke: #a9a9a9; stroke-width: 0.8"/>
      </g>
     </g>
     <g id="text_19">
      <!-- 5600 -->
      <g style="fill: #a9a9a9" transform="translate(75.55 57.328539) scale(0.1 -0.1)">
       <defs>
        <path id="DejaVuSans-35" d="M 691 4666 
L 3169 4666 
L 3169 4134 
L 1269 4134 
L 1269 2991 
Q 1406 3038 1543 3061 
Q 1681 3084 1819 3084 
Q 2600 3084 3056 2656 
Q 3513 2228 3513 1497 
Q 3513 744 3044 326 
Q 2575 -91 1722 -91 
Q 1428 -91 1123 -41 
Q 819 9 494 109 
L 494 744 
Q 775 591 1075 516 
Q 1375 441 1709 441 
Q 2250 441 2565 725 
Q 2881 1009 2881 1497 
Q 2881 1984 2565 2268 
Q 2250 2553 1709 2553 
Q 1456 2553 1204 2497 
Q 953 2441 691 2322 
L 691 4666 
z
" transform="scale(0.015625)"/>
       </defs>
       <use xlink:href="#DejaVuSans-35"/>
       <use xlink:href="#DejaVuSans-36" x="63.623047"/>
       <use xlink:href="#DejaVuSans-30" x="127.246094"/>
       <use xlink:href="#DejaVuSans-30" x="190.869141"/>
      </g>
     </g>
    </g>
   </g>
   <g id="line2d_39">
    <path d="M 138.436364 307.709173 
L 142.402014 307.391278 
L 143.062955 307.118796 
L 145.04578 306.891728 
L 149.672372 306.02887 
L 152.97708 305.710975 
L 153.638022 305.39308 
L 154.298964 305.211425 
L 154.959905 304.393981 
L 155.620847 303.939845 
L 156.281789 302.532024 
L 156.94273 302.441197 
L 157.603672 301.941647 
L 158.925555 301.305857 
L 161.569322 299.307659 
L 162.891205 298.762696 
L 163.552147 298.30856 
L 166.195914 297.17322 
L 166.856855 296.128708 
L 168.178739 295.175023 
L 168.83968 294.857127 
L 175.449097 293.948856 
L 176.110038 293.630961 
L 180.73663 293.267652 
L 182.719455 292.768102 
L 188.66793 291.996071 
L 189.328872 291.632763 
L 189.989813 291.541935 
L 190.650755 291.269454 
L 191.972638 291.042386 
L 192.63358 290.996972 
L 193.294522 290.769904 
L 195.938288 290.361182 
L 197.260172 289.997873 
L 199.242997 289.816219 
L 200.56488 289.679978 
L 201.225822 289.498324 
L 201.886763 289.45291 
L 203.869588 288.862534 
L 207.835238 288.272157 
L 208.49618 288.090503 
L 209.157122 287.182231 
L 211.139947 286.455614 
L 213.122772 285.910651 
L 213.783713 285.592755 
L 214.444655 285.547342 
L 217.749363 284.63907 
L 219.071247 284.548243 
L 219.732188 284.457416 
L 221.715013 283.867039 
L 224.35878 283.231249 
L 225.019722 282.958767 
L 225.680663 282.86794 
L 226.341605 282.550045 
L 232.951022 281.550946 
L 236.25573 280.642674 
L 236.916672 280.233952 
L 239.560438 279.507335 
L 240.882322 278.735304 
L 241.543263 278.281168 
L 243.526088 277.917859 
L 247.491738 276.737106 
L 248.813622 276.328383 
L 249.474563 276.237556 
L 250.796447 275.874248 
L 252.11833 275.556352 
L 252.779272 275.465525 
L 254.101155 274.920562 
L 254.762097 274.784321 
L 255.423038 274.51184 
L 256.08398 274.421013 
L 256.744922 274.103118 
L 257.405863 273.921463 
L 258.727747 273.830636 
L 260.04963 273.3765 
L 261.371513 273.285673 
L 262.032455 272.967778 
L 264.676221 272.513642 
L 267.319988 272.286574 
L 267.98093 272.150333 
L 269.302813 271.514543 
L 276.573171 268.471833 
L 277.234113 268.108524 
L 277.895055 267.381907 
L 278.555996 266.291981 
L 279.216938 265.429122 
L 279.87788 265.247468 
L 280.538821 265.247468 
L 281.860705 264.293783 
L 282.521646 264.112128 
L 283.182588 263.74882 
L 283.84353 263.612579 
L 284.504471 263.022202 
L 285.165413 262.840548 
L 287.148238 261.886862 
L 287.80918 261.069418 
L 288.470121 260.070319 
L 289.131063 259.661597 
L 289.792005 258.571671 
L 290.452946 257.890467 
L 291.113888 257.572572 
L 291.77483 257.390917 
L 294.418596 255.846855 
L 295.74048 254.802343 
L 296.401421 254.39362 
L 297.062363 253.439935 
L 297.723305 251.941287 
L 298.384246 250.987601 
L 299.045188 250.488052 
L 299.70613 250.21557 
L 302.349896 247.944891 
L 303.010838 247.490755 
L 304.332721 246.355415 
L 304.993663 245.447144 
L 306.315546 244.311804 
L 308.959313 242.631501 
L 309.620255 242.041125 
L 310.281196 241.904884 
L 312.264021 240.860371 
L 314.246846 239.861272 
L 315.56873 238.635105 
L 316.229671 237.863074 
L 317.551555 236.954803 
L 318.212496 236.773148 
L 318.873438 236.455253 
L 320.195321 235.592395 
L 320.856263 235.229086 
L 321.517205 235.138259 
L 322.839088 234.411642 
L 323.50003 234.048333 
L 324.160971 233.367129 
L 324.821913 232.958407 
L 325.482855 232.731339 
L 326.143796 232.277203 
L 328.787563 230.914795 
L 329.448505 230.324419 
L 332.092271 229.461561 
L 332.753213 229.007425 
L 333.414155 228.871184 
L 334.736038 228.417048 
L 336.718863 227.645017 
L 338.701688 226.9184 
L 340.023571 226.691332 
L 341.345455 225.555992 
L 342.667338 224.920202 
L 344.650163 223.784862 
L 345.972046 223.421553 
L 346.632988 223.012831 
L 347.29393 222.831177 
L 348.615813 221.968319 
L 349.276755 221.60501 
L 352.581463 220.832979 
L 354.564288 219.697639 
L 355.225229 219.606812 
L 355.886171 219.379744 
L 357.208054 219.107263 
L 359.190879 217.654028 
L 361.173704 217.199892 
L 361.834646 216.972824 
L 362.495588 216.473274 
L 366.461238 215.201694 
L 367.122179 215.15628 
L 371.748771 213.521391 
L 372.409713 213.203496 
L 374.392538 212.74936 
L 375.714421 212.431465 
L 376.375363 212.11357 
L 377.036304 211.977329 
L 379.019129 211.069057 
L 381.001954 210.115372 
L 381.662896 209.661236 
L 382.323838 209.479582 
L 384.306663 208.435069 
L 385.628546 208.117174 
L 386.950429 207.43597 
L 388.272313 207.072662 
L 388.933254 206.981835 
L 389.594196 206.527699 
L 390.255138 206.209804 
L 390.916079 206.073563 
L 392.237963 205.5286 
L 392.898904 205.392359 
L 393.559846 205.02905 
L 396.203613 204.620328 
L 397.525496 203.984538 
L 398.186438 203.439575 
L 398.847379 202.304235 
L 400.169263 202.031753 
L 400.830204 201.895513 
L 403.473971 200.533105 
L 404.134913 200.396864 
L 409.422446 197.853703 
L 411.405271 197.444981 
L 412.066213 197.081672 
L 416.031863 195.719265 
L 417.353746 194.90182 
L 418.014688 194.447684 
L 418.675629 194.129789 
L 419.336571 194.038962 
L 419.997513 193.811894 
L 420.658454 193.76648 
L 423.963163 192.903622 
L 424.624104 192.404073 
L 425.945988 191.949937 
L 427.928813 191.314147 
L 428.589754 190.905424 
L 429.250696 190.72377 
L 429.911638 190.269634 
L 430.572579 189.997153 
L 431.233521 189.58843 
L 431.894463 189.315949 
L 433.216346 188.998054 
L 435.199171 188.226023 
L 437.181996 186.727374 
L 437.842938 186.591134 
L 439.164821 185.592035 
L 439.825763 185.455794 
L 440.486704 184.456695 
L 441.147646 184.184213 
L 441.808588 183.684664 
L 442.469529 183.593837 
L 443.130471 183.139701 
L 443.791412 182.821806 
L 444.452354 182.685565 
L 445.113296 182.413083 
L 445.774237 181.913534 
L 446.435179 181.686466 
L 448.418004 180.369472 
L 451.061771 179.052478 
L 451.722712 178.961651 
L 453.044596 178.371274 
L 453.705537 178.007965 
L 454.366479 176.918039 
L 455.027421 176.327663 
L 455.688362 175.964354 
L 456.349304 175.828113 
L 457.671187 175.010669 
L 458.332129 174.874428 
L 459.654012 174.238638 
L 461.636837 173.421193 
L 462.958721 172.512921 
L 464.280604 171.150514 
L 465.602487 170.333069 
L 466.263429 169.924347 
L 466.924371 169.243143 
L 467.585312 168.789007 
L 468.907196 167.699081 
L 469.568137 167.426599 
L 470.229079 166.699982 
L 470.890021 166.200433 
L 472.211904 165.746297 
L 472.872846 165.201334 
L 474.194729 164.52013 
L 474.855671 164.338475 
L 475.516612 163.88434 
L 476.177554 163.748099 
L 478.160379 162.703586 
L 478.821321 162.24945 
L 480.143204 161.704487 
L 480.804146 161.568247 
L 481.465087 161.159524 
L 484.769796 160.115012 
L 485.430737 159.933357 
L 486.091679 159.615462 
L 486.752621 159.025086 
L 488.735446 158.298468 
L 490.057329 157.889746 
L 490.718271 157.390196 
L 493.362037 156.027789 
L 494.022979 155.66448 
L 495.344862 153.075906 
L 496.666746 151.531844 
L 497.327687 151.077708 
L 499.310512 150.21485 
L 499.971454 149.987782 
L 500.632396 149.896954 
L 501.293337 149.533646 
L 503.276162 148.943269 
L 505.919929 147.762516 
L 506.580871 147.353793 
L 507.902754 146.899658 
L 511.868404 144.628978 
L 512.529346 143.947774 
L 513.851229 143.221157 
L 514.512171 142.857848 
L 515.173112 142.63078 
L 515.834054 142.176644 
L 517.155937 141.540854 
L 519.138762 140.496342 
L 519.799704 140.314687 
L 520.460646 139.815138 
L 521.121587 139.542656 
L 521.782529 139.406416 
L 523.104412 138.95228 
L 525.087237 138.225662 
L 525.748179 137.726113 
L 527.070062 137.362804 
L 528.391946 136.863255 
L 529.052887 136.318292 
L 530.374771 135.909569 
L 531.035712 135.591674 
L 531.696654 135.41002 
L 533.018537 134.501748 
L 534.34042 133.911371 
L 535.662304 132.912272 
L 536.984187 132.458137 
L 537.645129 131.913174 
L 538.30607 131.822346 
L 539.627954 130.868661 
L 540.949837 130.232871 
L 541.610779 129.960389 
L 542.27172 129.279185 
L 546.23737 127.825951 
L 548.220195 126.963092 
L 550.20302 126.372716 
L 551.524904 126.191061 
L 552.185845 125.91858 
L 552.846787 125.827753 
L 554.16867 125.28279 
L 554.829612 125.237376 
L 557.473379 124.283691 
L 559.456204 122.921283 
L 563.421854 120.968499 
L 564.743737 120.151054 
L 565.404679 119.742332 
L 566.726562 119.424437 
L 568.048445 118.516165 
L 570.692212 117.69872 
L 571.353154 117.426239 
L 572.675037 117.108344 
L 575.979745 116.018418 
L 577.96257 115.655109 
L 578.623512 115.473455 
L 579.284454 115.15556 
L 579.945395 115.064732 
L 581.267279 114.519769 
L 581.92822 114.428942 
L 582.589162 114.111047 
L 583.911045 113.838566 
L 584.571987 113.52067 
L 586.554812 113.066535 
L 587.876695 112.794053 
L 591.842345 112.067436 
L 593.164229 111.794954 
L 593.82517 111.658713 
L 594.486112 111.386232 
L 595.147054 111.340818 
L 597.129879 110.795855 
L 597.79082 110.432546 
L 601.095529 109.615102 
L 601.75647 109.478861 
L 603.078354 109.024725 
L 605.061179 108.343521 
L 605.72212 108.252694 
L 607.704945 107.57149 
L 608.365887 107.57149 
L 609.68777 107.117354 
L 610.348712 106.481564 
L 611.009654 106.163669 
L 612.331537 105.754947 
L 614.975304 104.755848 
L 615.636245 104.619607 
L 616.297187 104.210885 
L 616.958129 104.074644 
L 617.61907 103.665922 
L 620.923779 102.712236 
L 621.58472 102.303514 
L 622.245662 102.12186 
L 622.906603 101.576897 
L 624.889428 101.213588 
L 626.211312 100.486971 
L 626.872253 99.760353 
L 628.194137 99.487872 
L 632.820728 98.443359 
L 633.48167 98.261705 
L 634.803553 98.216291 
L 635.464495 97.898396 
L 638.108262 97.44426 
L 638.769203 97.126365 
L 640.752028 96.853884 
L 643.395795 96.036439 
L 645.37862 95.582303 
L 647.361445 95.082754 
L 650.005212 94.265309 
L 650.666153 94.129068 
L 651.327095 93.811173 
L 651.988037 93.720346 
L 652.648978 93.493278 
L 653.30992 93.084556 
L 655.292745 92.357938 
L 655.953687 91.858389 
L 657.27557 91.49508 
L 657.936512 91.222599 
L 659.258395 90.85929 
L 661.902162 89.678537 
L 663.884987 89.542296 
L 666.528753 88.724851 
L 667.189695 88.316129 
L 668.511578 87.907407 
L 670.494403 86.908308 
L 671.155345 86.772067 
L 671.816287 86.454172 
L 672.477228 86.363345 
L 679.747587 83.956425 
L 682.391353 83.320634 
L 683.052295 83.13898 
L 684.374178 82.50319 
L 685.03512 82.412363 
L 686.357003 82.049054 
L 687.017945 81.549504 
L 687.678887 81.231609 
L 688.339828 80.459578 
L 689.00077 79.960029 
L 690.322653 79.551307 
L 690.983595 79.006343 
L 698.253953 76.05446 
L 699.575837 75.736565 
L 700.89772 75.146189 
L 702.880545 73.965435 
L 703.541487 73.829194 
L 704.202428 73.329645 
L 705.524312 72.693855 
L 706.846195 71.87641 
L 708.82902 70.968138 
L 709.489962 70.514003 
L 710.811845 70.014453 
L 711.472786 69.560317 
L 712.79467 68.924527 
L 713.455611 68.470391 
L 714.777495 68.016255 
L 715.438436 67.880014 
L 718.082203 66.699261 
L 721.386911 65.563921 
L 722.047853 65.518508 
L 722.708795 65.336853 
L 723.369736 64.928131 
L 724.030678 64.837304 
L 724.69162 64.519409 
L 726.674445 64.110687 
L 729.979153 62.430384 
L 731.301036 61.703766 
L 731.961978 61.612939 
L 733.944803 60.523013 
L 735.927628 59.796396 
L 737.910453 58.933538 
L 740.55422 57.889025 
L 741.215161 57.707371 
L 741.876103 57.298648 
L 742.537045 57.253235 
L 743.197986 57.07158 
L 743.858928 56.617445 
L 744.51987 56.572031 
L 745.841753 56.163309 
L 746.502695 55.8 
L 747.163636 55.8 
L 747.163636 55.8 
" clip-path="url(#pf13971d9c8)" style="fill: none; stroke: #1f77b4; stroke-width: 1.5; stroke-linecap: square"/>
   </g>
   <g id="line2d_40">
    <path d="M 139.097305 307.8 
L 141.08013 307.709173 
L 143.062955 307.663759 
L 147.028605 307.572932 
L 150.333314 307.436691 
L 152.97708 307.436691 
L 153.638022 307.255037 
L 156.281789 307.16421 
L 158.264614 306.937142 
L 160.247439 306.755487 
L 164.213089 306.573833 
L 164.87403 306.573833 
L 165.534972 306.437592 
L 168.178739 306.346765 
L 169.500622 306.255938 
L 174.788155 306.165111 
L 178.092863 306.02887 
L 186.024163 305.938043 
L 189.328872 305.801802 
L 193.294522 305.710975 
L 195.938288 305.620148 
L 201.886763 305.529321 
L 203.869588 305.483907 
L 205.852413 305.438493 
L 207.835238 305.211425 
L 211.800888 305.166012 
L 213.122772 305.075185 
L 217.749363 304.984358 
L 225.019722 304.575635 
L 229.646313 304.484808 
L 230.968197 304.393981 
L 232.951022 304.303154 
L 236.916672 304.121499 
L 239.560438 304.076086 
L 241.543263 303.894431 
L 252.11833 303.258641 
L 254.762097 303.167814 
L 259.388688 302.940746 
L 261.371513 302.849919 
L 267.98093 302.48661 
L 275.251288 302.395783 
L 277.895055 302.123301 
L 279.216938 302.032474 
L 287.80918 301.35127 
L 291.77483 300.851721 
L 294.418596 300.760894 
L 299.70613 300.07969 
L 303.010838 299.988863 
L 311.60308 299.307659 
L 315.56873 298.853523 
L 317.551555 298.80811 
L 318.873438 298.717282 
L 321.517205 298.626455 
L 322.839088 298.535628 
L 326.143796 298.217733 
L 326.804738 298.036079 
L 330.770388 297.854424 
L 334.075096 297.763597 
L 342.667338 297.264048 
L 344.650163 297.17322 
L 353.242405 296.673671 
L 357.868996 296.582844 
L 358.529938 296.446603 
L 363.817471 296.355776 
L 368.444063 296.128708 
L 375.714421 296.037881 
L 380.341013 295.810813 
L 385.628546 295.719986 
L 390.916079 295.447504 
L 395.542671 295.356677 
L 408.100563 294.584646 
L 413.388096 294.493819 
L 430.572579 293.403893 
L 434.538229 293.313065 
L 436.521054 293.267652 
L 438.503879 293.222238 
L 440.486704 293.040584 
L 445.774237 292.949757 
L 447.096121 292.722689 
L 448.418004 292.631862 
L 451.722712 292.495621 
L 453.044596 292.404794 
L 454.366479 292.313966 
L 460.314954 292.223139 
L 461.636837 292.086899 
L 464.280604 292.041485 
L 464.941546 291.905244 
L 466.263429 291.814417 
L 466.924371 291.678176 
L 468.907196 291.587349 
L 480.143204 290.906145 
L 482.126029 290.815318 
L 485.430737 290.679077 
L 494.683921 290.58825 
L 499.310512 290.361182 
L 504.598046 290.270355 
L 507.241812 290.179528 
L 509.885579 290.134114 
L 511.207462 289.997873 
L 513.851229 289.907046 
L 520.460646 289.543738 
L 524.426296 289.498324 
L 526.409121 289.31667 
L 528.391946 289.271256 
L 533.018537 289.180429 
L 535.662304 289.089602 
L 541.610779 288.998775 
L 544.254545 288.907947 
L 548.220195 288.81712 
L 554.829612 288.453811 
L 556.812437 288.453811 
L 557.473379 288.317571 
L 558.795262 288.226744 
L 561.439029 288.135916 
L 569.370329 288.045089 
L 572.675037 287.908848 
L 583.911045 287.863435 
L 585.232929 287.772608 
L 587.215754 287.727194 
L 595.807995 287.636367 
L 597.129879 287.54554 
L 604.400237 287.454713 
L 607.044004 287.363885 
L 614.975304 287.318472 
L 616.297187 287.227645 
L 626.211312 287.182231 
L 628.194137 287.000577 
L 639.430145 286.90975 
L 641.41297 286.864336 
L 658.597453 286.773509 
L 661.24122 286.682682 
L 673.13817 286.591854 
L 675.781937 286.501027 
L 680.408528 286.4102 
L 685.696062 286.137719 
L 688.339828 286.046891 
L 690.983595 285.956064 
L 694.949245 285.865237 
L 696.93207 285.819823 
L 699.575837 285.728996 
L 701.558662 285.683583 
L 704.86337 285.592755 
L 706.185253 285.456515 
L 710.150903 285.365688 
L 717.421261 284.956965 
L 720.72597 284.866138 
L 723.369736 284.775311 
L 727.996328 284.684484 
L 730.640095 284.593657 
L 735.927628 284.502829 
L 737.910453 284.457416 
L 741.215161 284.366589 
L 745.180811 284.184934 
L 747.163636 284.184934 
L 747.163636 284.184934 
" clip-path="url(#pf13971d9c8)" style="fill: none; stroke: #ff7f0e; stroke-width: 1.5; stroke-linecap: square"/>
   </g>
   <g id="patch_3">
    <path d="M 108 320.4 
L 108 43.2 
" style="fill: none; stroke: #a9a9a9; stroke-width: 0.8; stroke-linejoin: miter; stroke-linecap: square"/>
   </g>
   <g id="patch_4">
    <path d="M 777.6 320.4 
L 777.6 43.2 
" style="fill: none"/>
   </g>
   <g id="patch_5">
    <path d="M 108 320.4 
L 777.6 320.4 
" style="fill: none; stroke: #a9a9a9; stroke-width: 0.8; stroke-linejoin: miter; stroke-linecap: square"/>
   </g>
   <g id="patch_6">
    <path d="M 108 43.2 
L 777.6 43.2 
" style="fill: none"/>
   </g>
   <g id="text_20">
    <!-- get_subscribe history -->
    <g style="fill: #a9a9a9" transform="translate(378.6075 37.2) scale(0.12 -0.12)">
     <defs>
      <path id="DejaVuSans-67" d="M 2906 1791 
Q 2906 2416 2648 2759 
Q 2391 3103 1925 3103 
Q 1463 3103 1205 2759 
Q 947 2416 947 1791 
Q 947 1169 1205 825 
Q 1463 481 1925 481 
Q 2391 481 2648 825 
Q 2906 1169 2906 1791 
z
M 3481 434 
Q 3481 -459 3084 -895 
Q 2688 -1331 1869 -1331 
Q 1566 -1331 1297 -1286 
Q 1028 -1241 775 -1147 
L 775 -588 
Q 1028 -725 1275 -790 
Q 1522 -856 1778 -856 
Q 2344 -856 2625 -561 
Q 2906 -266 2906 331 
L 2906 616 
Q 2728 306 2450 153 
Q 2172 0 1784 0 
Q 1141 0 747 490 
Q 353 981 353 1791 
Q 353 2603 747 3093 
Q 1141 3584 1784 3584 
Q 2172 3584 2450 3431 
Q 2728 3278 2906 2969 
L 2906 3500 
L 3481 3500 
L 3481 434 
z
" transform="scale(0.015625)"/>
      <path id="DejaVuSans-65" d="M 3597 1894 
L 3597 1613 
L 953 1613 
Q 991 1019 1311 708 
Q 1631 397 2203 397 
Q 2534 397 2845 478 
Q 3156 559 3463 722 
L 3463 178 
Q 3153 47 2828 -22 
Q 2503 -91 2169 -91 
Q 1331 -91 842 396 
Q 353 884 353 1716 
Q 353 2575 817 3079 
Q 1281 3584 2069 3584 
Q 2775 3584 3186 3129 
Q 3597 2675 3597 1894 
z
M 3022 2063 
Q 3016 2534 2758 2815 
Q 2500 3097 2075 3097 
Q 1594 3097 1305 2825 
Q 1016 2553 972 2059 
L 3022 2063 
z
" transform="scale(0.015625)"/>
      <path id="DejaVuSans-74" d="M 1172 4494 
L 1172 3500 
L 2356 3500 
L 2356 3053 
L 1172 3053 
L 1172 1153 
Q 1172 725 1289 603 
Q 1406 481 1766 481 
L 2356 481 
L 2356 0 
L 1766 0 
Q 1100 0 847 248 
Q 594 497 594 1153 
L 594 3053 
L 172 3053 
L 172 3500 
L 594 3500 
L 594 4494 
L 1172 4494 
z
" transform="scale(0.015625)"/>
      <path id="DejaVuSans-5f" d="M 3263 -1063 
L 3263 -1509 
L -63 -1509 
L -63 -1063 
L 3263 -1063 
z
" transform="scale(0.015625)"/>
      <path id="DejaVuSans-73" d="M 2834 3397 
L 2834 2853 
Q 2591 2978 2328 3040 
Q 2066 3103 1784 3103 
Q 1356 3103 1142 2972 
Q 928 2841 928 2578 
Q 928 2378 1081 2264 
Q 1234 2150 1697 2047 
L 1894 2003 
Q 2506 1872 2764 1633 
Q 3022 1394 3022 966 
Q 3022 478 2636 193 
Q 2250 -91 1575 -91 
Q 1294 -91 989 -36 
Q 684 19 347 128 
L 347 722 
Q 666 556 975 473 
Q 1284 391 1588 391 
Q 1994 391 2212 530 
Q 2431 669 2431 922 
Q 2431 1156 2273 1281 
Q 2116 1406 1581 1522 
L 1381 1569 
Q 847 1681 609 1914 
Q 372 2147 372 2553 
Q 372 3047 722 3315 
Q 1072 3584 1716 3584 
Q 2034 3584 2315 3537 
Q 2597 3491 2834 3397 
z
" transform="scale(0.015625)"/>
      <path id="DejaVuSans-75" d="M 544 1381 
L 544 3500 
L 1119 3500 
L 1119 1403 
Q 1119 906 1312 657 
Q 1506 409 1894 409 
Q 2359 409 2629 706 
Q 2900 1003 2900 1516 
L 2900 3500 
L 3475 3500 
L 3475 0 
L 2900 0 
L 2900 538 
Q 2691 219 2414 64 
Q 2138 -91 1772 -91 
Q 1169 -91 856 284 
Q 544 659 544 1381 
z
M 1991 3584 
L 1991 3584 
z
" transform="scale(0.015625)"/>
      <path id="DejaVuSans-62" d="M 3116 1747 
Q 3116 2381 2855 2742 
Q 2594 3103 2138 3103 
Q 1681 3103 1420 2742 
Q 1159 2381 1159 1747 
Q 1159 1113 1420 752 
Q 1681 391 2138 391 
Q 2594 391 2855 752 
Q 3116 1113 3116 1747 
z
M 1159 2969 
Q 1341 3281 1617 3432 
Q 1894 3584 2278 3584 
Q 2916 3584 3314 3078 
Q 3713 2572 3713 1747 
Q 3713 922 3314 415 
Q 2916 -91 2278 -91 
Q 1894 -91 1617 61 
Q 1341 213 1159 525 
L 1159 0 
L 581 0 
L 581 4863 
L 1159 4863 
L 1159 2969 
z
" transform="scale(0.015625)"/>
      <path id="DejaVuSans-63" d="M 3122 3366 
L 3122 2828 
Q 2878 2963 2633 3030 
Q 2388 3097 2138 3097 
Q 1578 3097 1268 2742 
Q 959 2388 959 1747 
Q 959 1106 1268 751 
Q 1578 397 2138 397 
Q 2388 397 2633 464 
Q 2878 531 3122 666 
L 3122 134 
Q 2881 22 2623 -34 
Q 2366 -91 2075 -91 
Q 1284 -91 818 406 
Q 353 903 353 1747 
Q 353 2603 823 3093 
Q 1294 3584 2113 3584 
Q 2378 3584 2631 3529 
Q 2884 3475 3122 3366 
z
" transform="scale(0.015625)"/>
      <path id="DejaVuSans-72" d="M 2631 2963 
Q 2534 3019 2420 3045 
Q 2306 3072 2169 3072 
Q 1681 3072 1420 2755 
Q 1159 2438 1159 1844 
L 1159 0 
L 581 0 
L 581 3500 
L 1159 3500 
L 1159 2956 
Q 1341 3275 1631 3429 
Q 1922 3584 2338 3584 
Q 2397 3584 2469 3576 
Q 2541 3569 2628 3553 
L 2631 2963 
z
" transform="scale(0.015625)"/>
      <path id="DejaVuSans-69" d="M 603 3500 
L 1178 3500 
L 1178 0 
L 603 0 
L 603 3500 
z
M 603 4863 
L 1178 4863 
L 1178 4134 
L 603 4134 
L 603 4863 
z
" transform="scale(0.015625)"/>
      <path id="DejaVuSans-20" transform="scale(0.015625)"/>
      <path id="DejaVuSans-68" d="M 3513 2113 
L 3513 0 
L 2938 0 
L 2938 2094 
Q 2938 2591 2744 2837 
Q 2550 3084 2163 3084 
Q 1697 3084 1428 2787 
Q 1159 2491 1159 1978 
L 1159 0 
L 581 0 
L 581 4863 
L 1159 4863 
L 1159 2956 
Q 1366 3272 1645 3428 
Q 1925 3584 2291 3584 
Q 2894 3584 3203 3211 
Q 3513 2838 3513 2113 
z
" transform="scale(0.015625)"/>
      <path id="DejaVuSans-6f" d="M 1959 3097 
Q 1497 3097 1228 2736 
Q 959 2375 959 1747 
Q 959 1119 1226 758 
Q 1494 397 1959 397 
Q 2419 397 2687 759 
Q 2956 1122 2956 1747 
Q 2956 2369 2687 2733 
Q 2419 3097 1959 3097 
z
M 1959 3584 
Q 2709 3584 3137 3096 
Q 3566 2609 3566 1747 
Q 3566 888 3137 398 
Q 2709 -91 1959 -91 
Q 1206 -91 779 398 
Q 353 888 353 1747 
Q 353 2609 779 3096 
Q 1206 3584 1959 3584 
z
" transform="scale(0.015625)"/>
      <path id="DejaVuSans-79" d="M 2059 -325 
Q 1816 -950 1584 -1140 
Q 1353 -1331 966 -1331 
L 506 -1331 
L 506 -850 
L 844 -850 
Q 1081 -850 1212 -737 
Q 1344 -625 1503 -206 
L 1606 56 
L 191 3500 
L 800 3500 
L 1894 763 
L 2988 3500 
L 3597 3500 
L 2059 -325 
z
" transform="scale(0.015625)"/>
     </defs>
     <use xlink:href="#DejaVuSans-67"/>
     <use xlink:href="#DejaVuSans-65" x="63.476562"/>
     <use xlink:href="#DejaVuSans-74" x="125"/>
     <use xlink:href="#DejaVuSans-5f" x="164.208984"/>
     <use xlink:href="#DejaVuSans-73" x="214.208984"/>
     <use xlink:href="#DejaVuSans-75" x="266.308594"/>
     <use xlink:href="#DejaVuSans-62" x="329.6875"/>
     <use xlink:href="#DejaVuSans-73" x="393.164062"/>
     <use xlink:href="#DejaVuSans-63" x="445.263672"/>
     <use xlink:href="#DejaVuSans-72" x="500.244141"/>
     <use xlink:href="#DejaVuSans-69" x="541.357422"/>
     <use xlink:href="#DejaVuSans-62" x="569.140625"/>
     <use xlink:href="#DejaVuSans-65" x="632.617188"/>
     <use xlink:href="#DejaVuSans-20" x="694.140625"/>
     <use xlink:href="#DejaVuSans-68" x="725.927734"/>
     <use xlink:href="#DejaVuSans-69" x="789.306641"/>
     <use xlink:href="#DejaVuSans-73" x="817.089844"/>
     <use xlink:href="#DejaVuSans-74" x="869.189453"/>
     <use xlink:href="#DejaVuSans-6f" x="908.398438"/>
     <use xlink:href="#DejaVuSans-72" x="969.580078"/>
     <use xlink:href="#DejaVuSans-79" x="1010.693359"/>
    </g>
   </g>
   <g id="legend_1">
    <g id="line2d_41">
     <path d="M 815.08 328.498438 
L 825.08 328.498438 
L 835.08 328.498438 
" style="fill: none; stroke: #1f77b4; stroke-width: 1.5; stroke-linecap: square"/>
    </g>
    <g id="text_21">
     <!-- star -->
     <g style="fill: #a9a9a9" transform="translate(843.08 331.998438) scale(0.1 -0.1)">
      <defs>
       <path id="DejaVuSans-61" d="M 2194 1759 
Q 1497 1759 1228 1600 
Q 959 1441 959 1056 
Q 959 750 1161 570 
Q 1363 391 1709 391 
Q 2188 391 2477 730 
Q 2766 1069 2766 1631 
L 2766 1759 
L 2194 1759 
z
M 3341 1997 
L 3341 0 
L 2766 0 
L 2766 531 
Q 2569 213 2275 61 
Q 1981 -91 1556 -91 
Q 1019 -91 701 211 
Q 384 513 384 1019 
Q 384 1609 779 1909 
Q 1175 2209 1959 2209 
L 2766 2209 
L 2766 2266 
Q 2766 2663 2505 2880 
Q 2244 3097 1772 3097 
Q 1472 3097 1187 3025 
Q 903 2953 641 2809 
L 641 3341 
Q 956 3463 1253 3523 
Q 1550 3584 1831 3584 
Q 2591 3584 2966 3190 
Q 3341 2797 3341 1997 
z
" transform="scale(0.015625)"/>
      </defs>
      <use xlink:href="#DejaVuSans-73"/>
      <use xlink:href="#DejaVuSans-74" x="52.099609"/>
      <use xlink:href="#DejaVuSans-61" x="91.308594"/>
      <use xlink:href="#DejaVuSans-72" x="152.587891"/>
     </g>
    </g>
    <g id="line2d_42">
     <path d="M 815.08 343.176562 
L 825.08 343.176562 
L 835.08 343.176562 
" style="fill: none; stroke: #ff7f0e; stroke-width: 1.5; stroke-linecap: square"/>
    </g>
    <g id="text_22">
     <!-- fork -->
     <g style="fill: #a9a9a9" transform="translate(843.08 346.676562) scale(0.1 -0.1)">
      <defs>
       <path id="DejaVuSans-66" d="M 2375 4863 
L 2375 4384 
L 1825 4384 
Q 1516 4384 1395 4259 
Q 1275 4134 1275 3809 
L 1275 3500 
L 2222 3500 
L 2222 3053 
L 1275 3053 
L 1275 0 
L 697 0 
L 697 3053 
L 147 3053 
L 147 3500 
L 697 3500 
L 697 3744 
Q 697 4328 969 4595 
Q 1241 4863 1831 4863 
L 2375 4863 
z
" transform="scale(0.015625)"/>
       <path id="DejaVuSans-6b" d="M 581 4863 
L 1159 4863 
L 1159 1991 
L 2875 3500 
L 3609 3500 
L 1753 1863 
L 3688 0 
L 2938 0 
L 1159 1709 
L 1159 0 
L 581 0 
L 581 4863 
z
" transform="scale(0.015625)"/>
      </defs>
      <use xlink:href="#DejaVuSans-66"/>
      <use xlink:href="#DejaVuSans-6f" x="35.205078"/>
      <use xlink:href="#DejaVuSans-72" x="96.386719"/>
      <use xlink:href="#DejaVuSans-6b" x="137.5"/>
     </g>
    </g>
   </g>
  </g>
 </g>
 <defs>
  <clipPath id="pf13971d9c8">
   <rect x="108" y="43.2" width="669.6" height="277.2"/>
  </clipPath>
 </defs>
</svg>
