<?xml version="1.0" encoding="utf-8" standalone="no"?>
<!DOCTYPE svg PUBLIC "-//W3C//DTD SVG 1.1//EN"
  "http://www.w3.org/Graphics/SVG/1.1/DTD/svg11.dtd">
<svg xmlns:xlink="http://www.w3.org/1999/xlink" width="864pt" height="360pt" viewBox="0 0 864 360" xmlns="http://www.w3.org/2000/svg" version="1.1">
 <metadata>
  <rdf:RDF xmlns:dc="http://purl.org/dc/elements/1.1/" xmlns:cc="http://creativecommons.org/ns#" xmlns:rdf="http://www.w3.org/1999/02/22-rdf-syntax-ns#">
   <cc:Work>
    <dc:type rdf:resource="http://purl.org/dc/dcmitype/StillImage"/>
    <dc:date>2024-01-29T20:04:36.369619</dc:date>
    <dc:format>image/svg+xml</dc:format>
    <dc:creator>
     <cc:Agent>
      <dc:title>Matplotlib v3.8.2, https://matplotlib.org/</dc:title>
     </cc:Agent>
    </dc:creator>
   </cc:Work>
  </rdf:RDF>
 </metadata>
 <defs>
  <style type="text/css">*{stroke-linejoin: round; stroke-linecap: butt}</style>
 </defs>
 <g id="figure_1">
  <g id="patch_1">
   <path d="M 0 360 
L 864 360 
L 864 0 
L 0 0 
L 0 360 
z
" style="fill: none; opacity: 0"/>
  </g>
  <g id="axes_1">
   <g id="patch_2">
    <path d="M 108 320.4 
L 777.6 320.4 
L 777.6 43.2 
L 108 43.2 
L 108 320.4 
z
" style="fill: none; opacity: 0"/>
   </g>
   <g id="matplotlib.axis_1">
    <g id="xtick_1">
     <g id="line2d_1">
      <path d="M 123.201622 320.4 
L 123.201622 43.2 
" clip-path="url(#p370295cdce)" style="fill: none; stroke-dasharray: 5.12,1.28,0.8,1.28; stroke-dashoffset: 0; stroke: #b0b0b0; stroke-width: 0.8"/>
     </g>
     <g id="line2d_2">
      <defs>
       <path id="md8ad36b5ea" d="M 0 0 
L 0 3.5 
" style="stroke: #a9a9a9; stroke-width: 0.8"/>
      </defs>
      <g>
       <use xlink:href="#md8ad36b5ea" x="123.201622" y="320.4" style="fill: #a9a9a9; stroke: #a9a9a9; stroke-width: 0.8"/>
      </g>
     </g>
     <g id="text_1">
      <!-- 2021-07 -->
      <g style="fill: #a9a9a9" transform="translate(102.310216 334.998438) scale(0.1 -0.1)">
       <defs>
        <path id="DejaVuSans-32" d="M 1228 531 
L 3431 531 
L 3431 0 
L 469 0 
L 469 531 
Q 828 903 1448 1529 
Q 2069 2156 2228 2338 
Q 2531 2678 2651 2914 
Q 2772 3150 2772 3378 
Q 2772 3750 2511 3984 
Q 2250 4219 1831 4219 
Q 1534 4219 1204 4116 
Q 875 4013 500 3803 
L 500 4441 
Q 881 4594 1212 4672 
Q 1544 4750 1819 4750 
Q 2544 4750 2975 4387 
Q 3406 4025 3406 3419 
Q 3406 3131 3298 2873 
Q 3191 2616 2906 2266 
Q 2828 2175 2409 1742 
Q 1991 1309 1228 531 
z
" transform="scale(0.015625)"/>
        <path id="DejaVuSans-30" d="M 2034 4250 
Q 1547 4250 1301 3770 
Q 1056 3291 1056 2328 
Q 1056 1369 1301 889 
Q 1547 409 2034 409 
Q 2525 409 2770 889 
Q 3016 1369 3016 2328 
Q 3016 3291 2770 3770 
Q 2525 4250 2034 4250 
z
M 2034 4750 
Q 2819 4750 3233 4129 
Q 3647 3509 3647 2328 
Q 3647 1150 3233 529 
Q 2819 -91 2034 -91 
Q 1250 -91 836 529 
Q 422 1150 422 2328 
Q 422 3509 836 4129 
Q 1250 4750 2034 4750 
z
" transform="scale(0.015625)"/>
        <path id="DejaVuSans-31" d="M 794 531 
L 1825 531 
L 1825 4091 
L 703 3866 
L 703 4441 
L 1819 4666 
L 2450 4666 
L 2450 531 
L 3481 531 
L 3481 0 
L 794 0 
L 794 531 
z
" transform="scale(0.015625)"/>
        <path id="DejaVuSans-2d" d="M 313 2009 
L 1997 2009 
L 1997 1497 
L 313 1497 
L 313 2009 
z
" transform="scale(0.015625)"/>
        <path id="DejaVuSans-37" d="M 525 4666 
L 3525 4666 
L 3525 4397 
L 1831 0 
L 1172 0 
L 2766 4134 
L 525 4134 
L 525 4666 
z
" transform="scale(0.015625)"/>
       </defs>
       <use xlink:href="#DejaVuSans-32"/>
       <use xlink:href="#DejaVuSans-30" x="63.623047"/>
       <use xlink:href="#DejaVuSans-32" x="127.246094"/>
       <use xlink:href="#DejaVuSans-31" x="190.869141"/>
       <use xlink:href="#DejaVuSans-2d" x="254.492188"/>
       <use xlink:href="#DejaVuSans-30" x="290.576172"/>
       <use xlink:href="#DejaVuSans-37" x="354.199219"/>
      </g>
     </g>
    </g>
    <g id="xtick_2">
     <g id="line2d_3">
      <path d="M 184.140588 320.4 
L 184.140588 43.2 
" clip-path="url(#p370295cdce)" style="fill: none; stroke-dasharray: 5.12,1.28,0.8,1.28; stroke-dashoffset: 0; stroke: #b0b0b0; stroke-width: 0.8"/>
     </g>
     <g id="line2d_4">
      <g>
       <use xlink:href="#md8ad36b5ea" x="184.140588" y="320.4" style="fill: #a9a9a9; stroke: #a9a9a9; stroke-width: 0.8"/>
      </g>
     </g>
     <g id="text_2">
      <!-- 2021-10 -->
      <g style="fill: #a9a9a9" transform="translate(163.249181 334.998438) scale(0.1 -0.1)">
       <use xlink:href="#DejaVuSans-32"/>
       <use xlink:href="#DejaVuSans-30" x="63.623047"/>
       <use xlink:href="#DejaVuSans-32" x="127.246094"/>
       <use xlink:href="#DejaVuSans-31" x="190.869141"/>
       <use xlink:href="#DejaVuSans-2d" x="254.492188"/>
       <use xlink:href="#DejaVuSans-31" x="290.576172"/>
       <use xlink:href="#DejaVuSans-30" x="354.199219"/>
      </g>
     </g>
    </g>
    <g id="xtick_3">
     <g id="line2d_5">
      <path d="M 245.079553 320.4 
L 245.079553 43.2 
" clip-path="url(#p370295cdce)" style="fill: none; stroke-dasharray: 5.12,1.28,0.8,1.28; stroke-dashoffset: 0; stroke: #b0b0b0; stroke-width: 0.8"/>
     </g>
     <g id="line2d_6">
      <g>
       <use xlink:href="#md8ad36b5ea" x="245.079553" y="320.4" style="fill: #a9a9a9; stroke: #a9a9a9; stroke-width: 0.8"/>
      </g>
     </g>
     <g id="text_3">
      <!-- 2022-01 -->
      <g style="fill: #a9a9a9" transform="translate(224.188147 334.998438) scale(0.1 -0.1)">
       <use xlink:href="#DejaVuSans-32"/>
       <use xlink:href="#DejaVuSans-30" x="63.623047"/>
       <use xlink:href="#DejaVuSans-32" x="127.246094"/>
       <use xlink:href="#DejaVuSans-32" x="190.869141"/>
       <use xlink:href="#DejaVuSans-2d" x="254.492188"/>
       <use xlink:href="#DejaVuSans-30" x="290.576172"/>
       <use xlink:href="#DejaVuSans-31" x="354.199219"/>
      </g>
     </g>
    </g>
    <g id="xtick_4">
     <g id="line2d_7">
      <path d="M 304.693758 320.4 
L 304.693758 43.2 
" clip-path="url(#p370295cdce)" style="fill: none; stroke-dasharray: 5.12,1.28,0.8,1.28; stroke-dashoffset: 0; stroke: #b0b0b0; stroke-width: 0.8"/>
     </g>
     <g id="line2d_8">
      <g>
       <use xlink:href="#md8ad36b5ea" x="304.693758" y="320.4" style="fill: #a9a9a9; stroke: #a9a9a9; stroke-width: 0.8"/>
      </g>
     </g>
     <g id="text_4">
      <!-- 2022-04 -->
      <g style="fill: #a9a9a9" transform="translate(283.802352 334.998438) scale(0.1 -0.1)">
       <defs>
        <path id="DejaVuSans-34" d="M 2419 4116 
L 825 1625 
L 2419 1625 
L 2419 4116 
z
M 2253 4666 
L 3047 4666 
L 3047 1625 
L 3713 1625 
L 3713 1100 
L 3047 1100 
L 3047 0 
L 2419 0 
L 2419 1100 
L 313 1100 
L 313 1709 
L 2253 4666 
z
" transform="scale(0.015625)"/>
       </defs>
       <use xlink:href="#DejaVuSans-32"/>
       <use xlink:href="#DejaVuSans-30" x="63.623047"/>
       <use xlink:href="#DejaVuSans-32" x="127.246094"/>
       <use xlink:href="#DejaVuSans-32" x="190.869141"/>
       <use xlink:href="#DejaVuSans-2d" x="254.492188"/>
       <use xlink:href="#DejaVuSans-30" x="290.576172"/>
       <use xlink:href="#DejaVuSans-34" x="354.199219"/>
      </g>
     </g>
    </g>
    <g id="xtick_5">
     <g id="line2d_9">
      <path d="M 364.970343 320.4 
L 364.970343 43.2 
" clip-path="url(#p370295cdce)" style="fill: none; stroke-dasharray: 5.12,1.28,0.8,1.28; stroke-dashoffset: 0; stroke: #b0b0b0; stroke-width: 0.8"/>
     </g>
     <g id="line2d_10">
      <g>
       <use xlink:href="#md8ad36b5ea" x="364.970343" y="320.4" style="fill: #a9a9a9; stroke: #a9a9a9; stroke-width: 0.8"/>
      </g>
     </g>
     <g id="text_5">
      <!-- 2022-07 -->
      <g style="fill: #a9a9a9" transform="translate(344.078937 334.998438) scale(0.1 -0.1)">
       <use xlink:href="#DejaVuSans-32"/>
       <use xlink:href="#DejaVuSans-30" x="63.623047"/>
       <use xlink:href="#DejaVuSans-32" x="127.246094"/>
       <use xlink:href="#DejaVuSans-32" x="190.869141"/>
       <use xlink:href="#DejaVuSans-2d" x="254.492188"/>
       <use xlink:href="#DejaVuSans-30" x="290.576172"/>
       <use xlink:href="#DejaVuSans-37" x="354.199219"/>
      </g>
     </g>
    </g>
    <g id="xtick_6">
     <g id="line2d_11">
      <path d="M 425.909309 320.4 
L 425.909309 43.2 
" clip-path="url(#p370295cdce)" style="fill: none; stroke-dasharray: 5.12,1.28,0.8,1.28; stroke-dashoffset: 0; stroke: #b0b0b0; stroke-width: 0.8"/>
     </g>
     <g id="line2d_12">
      <g>
       <use xlink:href="#md8ad36b5ea" x="425.909309" y="320.4" style="fill: #a9a9a9; stroke: #a9a9a9; stroke-width: 0.8"/>
      </g>
     </g>
     <g id="text_6">
      <!-- 2022-10 -->
      <g style="fill: #a9a9a9" transform="translate(405.017902 334.998438) scale(0.1 -0.1)">
       <use xlink:href="#DejaVuSans-32"/>
       <use xlink:href="#DejaVuSans-30" x="63.623047"/>
       <use xlink:href="#DejaVuSans-32" x="127.246094"/>
       <use xlink:href="#DejaVuSans-32" x="190.869141"/>
       <use xlink:href="#DejaVuSans-2d" x="254.492188"/>
       <use xlink:href="#DejaVuSans-31" x="290.576172"/>
       <use xlink:href="#DejaVuSans-30" x="354.199219"/>
      </g>
     </g>
    </g>
    <g id="xtick_7">
     <g id="line2d_13">
      <path d="M 486.848274 320.4 
L 486.848274 43.2 
" clip-path="url(#p370295cdce)" style="fill: none; stroke-dasharray: 5.12,1.28,0.8,1.28; stroke-dashoffset: 0; stroke: #b0b0b0; stroke-width: 0.8"/>
     </g>
     <g id="line2d_14">
      <g>
       <use xlink:href="#md8ad36b5ea" x="486.848274" y="320.4" style="fill: #a9a9a9; stroke: #a9a9a9; stroke-width: 0.8"/>
      </g>
     </g>
     <g id="text_7">
      <!-- 2023-01 -->
      <g style="fill: #a9a9a9" transform="translate(465.956868 334.998438) scale(0.1 -0.1)">
       <defs>
        <path id="DejaVuSans-33" d="M 2597 2516 
Q 3050 2419 3304 2112 
Q 3559 1806 3559 1356 
Q 3559 666 3084 287 
Q 2609 -91 1734 -91 
Q 1441 -91 1130 -33 
Q 819 25 488 141 
L 488 750 
Q 750 597 1062 519 
Q 1375 441 1716 441 
Q 2309 441 2620 675 
Q 2931 909 2931 1356 
Q 2931 1769 2642 2001 
Q 2353 2234 1838 2234 
L 1294 2234 
L 1294 2753 
L 1863 2753 
Q 2328 2753 2575 2939 
Q 2822 3125 2822 3475 
Q 2822 3834 2567 4026 
Q 2313 4219 1838 4219 
Q 1578 4219 1281 4162 
Q 984 4106 628 3988 
L 628 4550 
Q 988 4650 1302 4700 
Q 1616 4750 1894 4750 
Q 2613 4750 3031 4423 
Q 3450 4097 3450 3541 
Q 3450 3153 3228 2886 
Q 3006 2619 2597 2516 
z
" transform="scale(0.015625)"/>
       </defs>
       <use xlink:href="#DejaVuSans-32"/>
       <use xlink:href="#DejaVuSans-30" x="63.623047"/>
       <use xlink:href="#DejaVuSans-32" x="127.246094"/>
       <use xlink:href="#DejaVuSans-33" x="190.869141"/>
       <use xlink:href="#DejaVuSans-2d" x="254.492188"/>
       <use xlink:href="#DejaVuSans-30" x="290.576172"/>
       <use xlink:href="#DejaVuSans-31" x="354.199219"/>
      </g>
     </g>
    </g>
    <g id="xtick_8">
     <g id="line2d_15">
      <path d="M 546.462479 320.4 
L 546.462479 43.2 
" clip-path="url(#p370295cdce)" style="fill: none; stroke-dasharray: 5.12,1.28,0.8,1.28; stroke-dashoffset: 0; stroke: #b0b0b0; stroke-width: 0.8"/>
     </g>
     <g id="line2d_16">
      <g>
       <use xlink:href="#md8ad36b5ea" x="546.462479" y="320.4" style="fill: #a9a9a9; stroke: #a9a9a9; stroke-width: 0.8"/>
      </g>
     </g>
     <g id="text_8">
      <!-- 2023-04 -->
      <g style="fill: #a9a9a9" transform="translate(525.571073 334.998438) scale(0.1 -0.1)">
       <use xlink:href="#DejaVuSans-32"/>
       <use xlink:href="#DejaVuSans-30" x="63.623047"/>
       <use xlink:href="#DejaVuSans-32" x="127.246094"/>
       <use xlink:href="#DejaVuSans-33" x="190.869141"/>
       <use xlink:href="#DejaVuSans-2d" x="254.492188"/>
       <use xlink:href="#DejaVuSans-30" x="290.576172"/>
       <use xlink:href="#DejaVuSans-34" x="354.199219"/>
      </g>
     </g>
    </g>
    <g id="xtick_9">
     <g id="line2d_17">
      <path d="M 606.739064 320.4 
L 606.739064 43.2 
" clip-path="url(#p370295cdce)" style="fill: none; stroke-dasharray: 5.12,1.28,0.8,1.28; stroke-dashoffset: 0; stroke: #b0b0b0; stroke-width: 0.8"/>
     </g>
     <g id="line2d_18">
      <g>
       <use xlink:href="#md8ad36b5ea" x="606.739064" y="320.4" style="fill: #a9a9a9; stroke: #a9a9a9; stroke-width: 0.8"/>
      </g>
     </g>
     <g id="text_9">
      <!-- 2023-07 -->
      <g style="fill: #a9a9a9" transform="translate(585.847658 334.998438) scale(0.1 -0.1)">
       <use xlink:href="#DejaVuSans-32"/>
       <use xlink:href="#DejaVuSans-30" x="63.623047"/>
       <use xlink:href="#DejaVuSans-32" x="127.246094"/>
       <use xlink:href="#DejaVuSans-33" x="190.869141"/>
       <use xlink:href="#DejaVuSans-2d" x="254.492188"/>
       <use xlink:href="#DejaVuSans-30" x="290.576172"/>
       <use xlink:href="#DejaVuSans-37" x="354.199219"/>
      </g>
     </g>
    </g>
    <g id="xtick_10">
     <g id="line2d_19">
      <path d="M 667.678029 320.4 
L 667.678029 43.2 
" clip-path="url(#p370295cdce)" style="fill: none; stroke-dasharray: 5.12,1.28,0.8,1.28; stroke-dashoffset: 0; stroke: #b0b0b0; stroke-width: 0.8"/>
     </g>
     <g id="line2d_20">
      <g>
       <use xlink:href="#md8ad36b5ea" x="667.678029" y="320.4" style="fill: #a9a9a9; stroke: #a9a9a9; stroke-width: 0.8"/>
      </g>
     </g>
     <g id="text_10">
      <!-- 2023-10 -->
      <g style="fill: #a9a9a9" transform="translate(646.786623 334.998438) scale(0.1 -0.1)">
       <use xlink:href="#DejaVuSans-32"/>
       <use xlink:href="#DejaVuSans-30" x="63.623047"/>
       <use xlink:href="#DejaVuSans-32" x="127.246094"/>
       <use xlink:href="#DejaVuSans-33" x="190.869141"/>
       <use xlink:href="#DejaVuSans-2d" x="254.492188"/>
       <use xlink:href="#DejaVuSans-31" x="290.576172"/>
       <use xlink:href="#DejaVuSans-30" x="354.199219"/>
      </g>
     </g>
    </g>
    <g id="xtick_11">
     <g id="line2d_21">
      <path d="M 728.616995 320.4 
L 728.616995 43.2 
" clip-path="url(#p370295cdce)" style="fill: none; stroke-dasharray: 5.12,1.28,0.8,1.28; stroke-dashoffset: 0; stroke: #b0b0b0; stroke-width: 0.8"/>
     </g>
     <g id="line2d_22">
      <g>
       <use xlink:href="#md8ad36b5ea" x="728.616995" y="320.4" style="fill: #a9a9a9; stroke: #a9a9a9; stroke-width: 0.8"/>
      </g>
     </g>
     <g id="text_11">
      <!-- 2024-01 -->
      <g style="fill: #a9a9a9" transform="translate(707.725589 334.998438) scale(0.1 -0.1)">
       <use xlink:href="#DejaVuSans-32"/>
       <use xlink:href="#DejaVuSans-30" x="63.623047"/>
       <use xlink:href="#DejaVuSans-32" x="127.246094"/>
       <use xlink:href="#DejaVuSans-34" x="190.869141"/>
       <use xlink:href="#DejaVuSans-2d" x="254.492188"/>
       <use xlink:href="#DejaVuSans-30" x="290.576172"/>
       <use xlink:href="#DejaVuSans-31" x="354.199219"/>
      </g>
     </g>
    </g>
   </g>
   <g id="matplotlib.axis_2">
    <g id="ytick_1">
     <g id="line2d_23">
      <path d="M 108 307.845479 
L 777.6 307.845479 
" clip-path="url(#p370295cdce)" style="fill: none; stroke-dasharray: 5.12,1.28,0.8,1.28; stroke-dashoffset: 0; stroke: #b0b0b0; stroke-width: 0.8"/>
     </g>
     <g id="line2d_24">
      <defs>
       <path id="m74127f02fa" d="M 0 0 
L -3.5 0 
" style="stroke: #a9a9a9; stroke-width: 0.8"/>
      </defs>
      <g>
       <use xlink:href="#m74127f02fa" x="108" y="307.845479" style="fill: #a9a9a9; stroke: #a9a9a9; stroke-width: 0.8"/>
      </g>
     </g>
     <g id="text_12">
      <!-- 0 -->
      <g style="fill: #a9a9a9" transform="translate(94.6375 311.644698) scale(0.1 -0.1)">
       <use xlink:href="#DejaVuSans-30"/>
      </g>
     </g>
    </g>
    <g id="ytick_2">
     <g id="line2d_25">
      <path d="M 108 271.462155 
L 777.6 271.462155 
" clip-path="url(#p370295cdce)" style="fill: none; stroke-dasharray: 5.12,1.28,0.8,1.28; stroke-dashoffset: 0; stroke: #b0b0b0; stroke-width: 0.8"/>
     </g>
     <g id="line2d_26">
      <g>
       <use xlink:href="#m74127f02fa" x="108" y="271.462155" style="fill: #a9a9a9; stroke: #a9a9a9; stroke-width: 0.8"/>
      </g>
     </g>
     <g id="text_13">
      <!-- 800 -->
      <g style="fill: #a9a9a9" transform="translate(81.9125 275.261374) scale(0.1 -0.1)">
       <defs>
        <path id="DejaVuSans-38" d="M 2034 2216 
Q 1584 2216 1326 1975 
Q 1069 1734 1069 1313 
Q 1069 891 1326 650 
Q 1584 409 2034 409 
Q 2484 409 2743 651 
Q 3003 894 3003 1313 
Q 3003 1734 2745 1975 
Q 2488 2216 2034 2216 
z
M 1403 2484 
Q 997 2584 770 2862 
Q 544 3141 544 3541 
Q 544 4100 942 4425 
Q 1341 4750 2034 4750 
Q 2731 4750 3128 4425 
Q 3525 4100 3525 3541 
Q 3525 3141 3298 2862 
Q 3072 2584 2669 2484 
Q 3125 2378 3379 2068 
Q 3634 1759 3634 1313 
Q 3634 634 3220 271 
Q 2806 -91 2034 -91 
Q 1263 -91 848 271 
Q 434 634 434 1313 
Q 434 1759 690 2068 
Q 947 2378 1403 2484 
z
M 1172 3481 
Q 1172 3119 1398 2916 
Q 1625 2713 2034 2713 
Q 2441 2713 2670 2916 
Q 2900 3119 2900 3481 
Q 2900 3844 2670 4047 
Q 2441 4250 2034 4250 
Q 1625 4250 1398 4047 
Q 1172 3844 1172 3481 
z
" transform="scale(0.015625)"/>
       </defs>
       <use xlink:href="#DejaVuSans-38"/>
       <use xlink:href="#DejaVuSans-30" x="63.623047"/>
       <use xlink:href="#DejaVuSans-30" x="127.246094"/>
      </g>
     </g>
    </g>
    <g id="ytick_3">
     <g id="line2d_27">
      <path d="M 108 235.078831 
L 777.6 235.078831 
" clip-path="url(#p370295cdce)" style="fill: none; stroke-dasharray: 5.12,1.28,0.8,1.28; stroke-dashoffset: 0; stroke: #b0b0b0; stroke-width: 0.8"/>
     </g>
     <g id="line2d_28">
      <g>
       <use xlink:href="#m74127f02fa" x="108" y="235.078831" style="fill: #a9a9a9; stroke: #a9a9a9; stroke-width: 0.8"/>
      </g>
     </g>
     <g id="text_14">
      <!-- 1600 -->
      <g style="fill: #a9a9a9" transform="translate(75.55 238.878049) scale(0.1 -0.1)">
       <defs>
        <path id="DejaVuSans-36" d="M 2113 2584 
Q 1688 2584 1439 2293 
Q 1191 2003 1191 1497 
Q 1191 994 1439 701 
Q 1688 409 2113 409 
Q 2538 409 2786 701 
Q 3034 994 3034 1497 
Q 3034 2003 2786 2293 
Q 2538 2584 2113 2584 
z
M 3366 4563 
L 3366 3988 
Q 3128 4100 2886 4159 
Q 2644 4219 2406 4219 
Q 1781 4219 1451 3797 
Q 1122 3375 1075 2522 
Q 1259 2794 1537 2939 
Q 1816 3084 2150 3084 
Q 2853 3084 3261 2657 
Q 3669 2231 3669 1497 
Q 3669 778 3244 343 
Q 2819 -91 2113 -91 
Q 1303 -91 875 529 
Q 447 1150 447 2328 
Q 447 3434 972 4092 
Q 1497 4750 2381 4750 
Q 2619 4750 2861 4703 
Q 3103 4656 3366 4563 
z
" transform="scale(0.015625)"/>
       </defs>
       <use xlink:href="#DejaVuSans-31"/>
       <use xlink:href="#DejaVuSans-36" x="63.623047"/>
       <use xlink:href="#DejaVuSans-30" x="127.246094"/>
       <use xlink:href="#DejaVuSans-30" x="190.869141"/>
      </g>
     </g>
    </g>
    <g id="ytick_4">
     <g id="line2d_29">
      <path d="M 108 198.695506 
L 777.6 198.695506 
" clip-path="url(#p370295cdce)" style="fill: none; stroke-dasharray: 5.12,1.28,0.8,1.28; stroke-dashoffset: 0; stroke: #b0b0b0; stroke-width: 0.8"/>
     </g>
     <g id="line2d_30">
      <g>
       <use xlink:href="#m74127f02fa" x="108" y="198.695506" style="fill: #a9a9a9; stroke: #a9a9a9; stroke-width: 0.8"/>
      </g>
     </g>
     <g id="text_15">
      <!-- 2400 -->
      <g style="fill: #a9a9a9" transform="translate(75.55 202.494725) scale(0.1 -0.1)">
       <use xlink:href="#DejaVuSans-32"/>
       <use xlink:href="#DejaVuSans-34" x="63.623047"/>
       <use xlink:href="#DejaVuSans-30" x="127.246094"/>
       <use xlink:href="#DejaVuSans-30" x="190.869141"/>
      </g>
     </g>
    </g>
    <g id="ytick_5">
     <g id="line2d_31">
      <path d="M 108 162.312182 
L 777.6 162.312182 
" clip-path="url(#p370295cdce)" style="fill: none; stroke-dasharray: 5.12,1.28,0.8,1.28; stroke-dashoffset: 0; stroke: #b0b0b0; stroke-width: 0.8"/>
     </g>
     <g id="line2d_32">
      <g>
       <use xlink:href="#m74127f02fa" x="108" y="162.312182" style="fill: #a9a9a9; stroke: #a9a9a9; stroke-width: 0.8"/>
      </g>
     </g>
     <g id="text_16">
      <!-- 3200 -->
      <g style="fill: #a9a9a9" transform="translate(75.55 166.111401) scale(0.1 -0.1)">
       <use xlink:href="#DejaVuSans-33"/>
       <use xlink:href="#DejaVuSans-32" x="63.623047"/>
       <use xlink:href="#DejaVuSans-30" x="127.246094"/>
       <use xlink:href="#DejaVuSans-30" x="190.869141"/>
      </g>
     </g>
    </g>
    <g id="ytick_6">
     <g id="line2d_33">
      <path d="M 108 125.928858 
L 777.6 125.928858 
" clip-path="url(#p370295cdce)" style="fill: none; stroke-dasharray: 5.12,1.28,0.8,1.28; stroke-dashoffset: 0; stroke: #b0b0b0; stroke-width: 0.8"/>
     </g>
     <g id="line2d_34">
      <g>
       <use xlink:href="#m74127f02fa" x="108" y="125.928858" style="fill: #a9a9a9; stroke: #a9a9a9; stroke-width: 0.8"/>
      </g>
     </g>
     <g id="text_17">
      <!-- 4000 -->
      <g style="fill: #a9a9a9" transform="translate(75.55 129.728076) scale(0.1 -0.1)">
       <use xlink:href="#DejaVuSans-34"/>
       <use xlink:href="#DejaVuSans-30" x="63.623047"/>
       <use xlink:href="#DejaVuSans-30" x="127.246094"/>
       <use xlink:href="#DejaVuSans-30" x="190.869141"/>
      </g>
     </g>
    </g>
    <g id="ytick_7">
     <g id="line2d_35">
      <path d="M 108 89.545533 
L 777.6 89.545533 
" clip-path="url(#p370295cdce)" style="fill: none; stroke-dasharray: 5.12,1.28,0.8,1.28; stroke-dashoffset: 0; stroke: #b0b0b0; stroke-width: 0.8"/>
     </g>
     <g id="line2d_36">
      <g>
       <use xlink:href="#m74127f02fa" x="108" y="89.545533" style="fill: #a9a9a9; stroke: #a9a9a9; stroke-width: 0.8"/>
      </g>
     </g>
     <g id="text_18">
      <!-- 4800 -->
      <g style="fill: #a9a9a9" transform="translate(75.55 93.344752) scale(0.1 -0.1)">
       <use xlink:href="#DejaVuSans-34"/>
       <use xlink:href="#DejaVuSans-38" x="63.623047"/>
       <use xlink:href="#DejaVuSans-30" x="127.246094"/>
       <use xlink:href="#DejaVuSans-30" x="190.869141"/>
      </g>
     </g>
    </g>
    <g id="ytick_8">
     <g id="line2d_37">
      <path d="M 108 53.162209 
L 777.6 53.162209 
" clip-path="url(#p370295cdce)" style="fill: none; stroke-dasharray: 5.12,1.28,0.8,1.28; stroke-dashoffset: 0; stroke: #b0b0b0; stroke-width: 0.8"/>
     </g>
     <g id="line2d_38">
      <g>
       <use xlink:href="#m74127f02fa" x="108" y="53.162209" style="fill: #a9a9a9; stroke: #a9a9a9; stroke-width: 0.8"/>
      </g>
     </g>
     <g id="text_19">
      <!-- 5600 -->
      <g style="fill: #a9a9a9" transform="translate(75.55 56.961428) scale(0.1 -0.1)">
       <defs>
        <path id="DejaVuSans-35" d="M 691 4666 
L 3169 4666 
L 3169 4134 
L 1269 4134 
L 1269 2991 
Q 1406 3038 1543 3061 
Q 1681 3084 1819 3084 
Q 2600 3084 3056 2656 
Q 3513 2228 3513 1497 
Q 3513 744 3044 326 
Q 2575 -91 1722 -91 
Q 1428 -91 1123 -41 
Q 819 9 494 109 
L 494 744 
Q 775 591 1075 516 
Q 1375 441 1709 441 
Q 2250 441 2565 725 
Q 2881 1009 2881 1497 
Q 2881 1984 2565 2268 
Q 2250 2553 1709 2553 
Q 1456 2553 1204 2497 
Q 953 2441 691 2322 
L 691 4666 
z
" transform="scale(0.015625)"/>
       </defs>
       <use xlink:href="#DejaVuSans-35"/>
       <use xlink:href="#DejaVuSans-36" x="63.623047"/>
       <use xlink:href="#DejaVuSans-30" x="127.246094"/>
       <use xlink:href="#DejaVuSans-30" x="190.869141"/>
      </g>
     </g>
    </g>
   </g>
   <g id="line2d_39">
    <path d="M 138.436364 307.709042 
L 142.410644 307.390688 
L 143.073024 307.117813 
L 145.060164 306.890417 
L 149.696825 306.026313 
L 153.008725 305.707959 
L 153.671105 305.389605 
L 154.333485 305.207688 
L 154.995865 304.389063 
L 155.658245 303.934272 
L 156.320625 302.524418 
L 156.983005 302.43346 
L 157.645385 301.933189 
L 158.970145 301.296481 
L 161.619666 299.295398 
L 162.944426 298.749648 
L 163.606806 298.294857 
L 166.256326 297.157878 
L 166.918706 296.111857 
L 168.243466 295.156795 
L 168.905846 294.838441 
L 175.529647 293.928858 
L 176.192027 293.610504 
L 180.828687 293.24667 
L 182.815827 292.7464 
L 188.777248 291.973254 
L 189.439628 291.609421 
L 190.102008 291.518462 
L 190.764388 291.245587 
L 192.089148 291.018192 
L 192.751528 290.972713 
L 193.413908 290.745317 
L 196.063429 290.336004 
L 197.388189 289.972171 
L 199.375329 289.790254 
L 200.700089 289.653817 
L 201.362469 289.4719 
L 202.024849 289.426421 
L 204.011989 288.835192 
L 207.98627 288.243963 
L 208.64865 288.062047 
L 209.31103 287.152463 
L 211.29817 286.424797 
L 213.28531 285.879047 
L 213.94769 285.560693 
L 214.61007 285.515214 
L 217.921971 284.605631 
L 219.246731 284.514672 
L 219.909111 284.423714 
L 221.896251 283.832485 
L 224.545771 283.195777 
L 225.208151 282.922902 
L 225.870531 282.831944 
L 226.532911 282.51359 
L 233.156712 281.513048 
L 236.468612 280.603465 
L 237.130992 280.194153 
L 239.780512 279.466486 
L 241.105273 278.693341 
L 241.767653 278.238549 
L 243.754793 277.874716 
L 247.729073 276.692258 
L 249.053833 276.282945 
L 249.716213 276.191987 
L 251.040973 275.828154 
L 252.365734 275.5098 
L 253.028114 275.418841 
L 254.352874 274.873091 
L 255.015254 274.736654 
L 255.677634 274.463779 
L 256.340014 274.372821 
L 257.002394 274.054467 
L 257.664774 273.87255 
L 258.989534 273.781592 
L 260.314294 273.3268 
L 261.639054 273.235842 
L 262.301434 272.917488 
L 264.950955 272.462696 
L 267.600475 272.2353 
L 268.262855 272.098863 
L 269.587615 271.462155 
L 276.873796 268.415051 
L 277.536176 268.051218 
L 278.198556 267.323552 
L 278.860936 266.232052 
L 279.523316 265.367948 
L 280.185696 265.186031 
L 280.848076 265.186031 
L 282.172836 264.230969 
L 282.835216 264.049053 
L 283.497596 263.685219 
L 284.159976 263.548782 
L 284.822356 262.957553 
L 285.484736 262.775636 
L 287.471877 261.820574 
L 288.134257 261.001949 
L 288.796637 260.001408 
L 289.459017 259.592095 
L 290.121397 258.500596 
L 290.783777 257.818408 
L 291.446157 257.500054 
L 292.108537 257.318138 
L 294.758057 255.771846 
L 296.082817 254.725826 
L 296.745197 254.316513 
L 297.407577 253.361451 
L 298.069957 251.860639 
L 298.732338 250.905577 
L 299.394718 250.405306 
L 300.057098 250.132431 
L 302.706618 247.858473 
L 303.368998 247.403682 
L 304.693758 246.266703 
L 305.356138 245.35712 
L 306.680898 244.220141 
L 309.330418 242.537412 
L 309.992798 241.946183 
L 310.655179 241.809746 
L 312.642319 240.763725 
L 314.629459 239.763184 
L 315.954219 238.535246 
L 316.616599 237.762101 
L 317.941359 236.852518 
L 318.603739 236.670601 
L 319.266119 236.352247 
L 320.590879 235.488143 
L 321.253259 235.12431 
L 321.91564 235.033351 
L 323.2404 234.305685 
L 323.90278 233.941852 
L 324.56516 233.259664 
L 325.22754 232.850352 
L 325.88992 232.622956 
L 326.5523 232.168165 
L 329.20182 230.80379 
L 329.8642 230.212561 
L 332.51372 229.348457 
L 333.176101 228.893665 
L 333.838481 228.757228 
L 335.163241 228.302436 
L 337.150381 227.529291 
L 339.137521 226.801624 
L 340.462281 226.574228 
L 341.787041 225.43725 
L 343.111801 224.800541 
L 345.098942 223.663563 
L 346.423702 223.299729 
L 347.086082 222.890417 
L 347.748462 222.7085 
L 349.073222 221.844396 
L 349.735602 221.480563 
L 353.047502 220.707417 
L 355.034642 219.570439 
L 355.697022 219.47948 
L 356.359403 219.252084 
L 357.684163 218.97921 
L 359.671303 217.523877 
L 361.658443 217.069085 
L 362.320823 216.841689 
L 362.983203 216.341419 
L 366.957483 215.068002 
L 367.619863 215.022523 
L 372.256524 213.385273 
L 372.918904 213.066919 
L 374.906044 212.612128 
L 376.230804 212.293774 
L 376.893184 211.97542 
L 377.555564 211.838982 
L 379.542705 210.929399 
L 381.529845 209.974337 
L 382.192225 209.519545 
L 382.854605 209.337629 
L 384.841745 208.291608 
L 386.166505 207.973254 
L 387.491265 207.291067 
L 388.816025 206.927233 
L 389.478405 206.836275 
L 390.140785 206.381483 
L 390.803165 206.063129 
L 391.465546 205.926692 
L 392.790306 205.380942 
L 393.452686 205.244505 
L 394.115066 204.880671 
L 396.764586 204.471359 
L 398.089346 203.834651 
L 398.751726 203.288901 
L 399.414106 202.151922 
L 400.738866 201.879047 
L 401.401246 201.74261 
L 404.050767 200.378235 
L 404.713147 200.241798 
L 410.012187 197.694965 
L 411.999327 197.285652 
L 412.661707 196.921819 
L 416.635988 195.557445 
L 417.960748 194.73882 
L 418.623128 194.284028 
L 419.285508 193.965674 
L 419.947888 193.874716 
L 420.610268 193.64732 
L 421.272648 193.601841 
L 424.584548 192.737737 
L 425.246928 192.237466 
L 426.571689 191.782675 
L 428.558829 191.145966 
L 429.221209 190.736654 
L 429.883589 190.554737 
L 430.545969 190.099946 
L 431.208349 189.827071 
L 431.870729 189.417759 
L 432.533109 189.144884 
L 433.857869 188.82653 
L 435.845009 188.053384 
L 436.507389 187.553113 
L 437.16977 186.870926 
L 437.83215 186.507093 
L 438.49453 186.370655 
L 439.81929 185.370114 
L 440.48167 185.233676 
L 441.14405 184.233135 
L 441.80643 183.96026 
L 442.46881 183.459989 
L 443.13119 183.369031 
L 443.79357 182.914239 
L 444.45595 182.595885 
L 445.11833 182.459448 
L 445.78071 182.186573 
L 446.44309 181.686302 
L 447.10547 181.458906 
L 449.092611 180.140011 
L 451.742131 178.821115 
L 452.404511 178.730157 
L 453.729271 178.138928 
L 454.391651 177.775095 
L 455.054031 176.683595 
L 455.716411 176.092366 
L 456.378791 175.728533 
L 457.041171 175.592095 
L 458.365931 174.77347 
L 459.028311 174.637033 
L 460.353072 174.000325 
L 462.340212 173.1817 
L 463.664972 172.272117 
L 464.989732 170.907742 
L 466.314492 170.089117 
L 466.976872 169.679805 
L 467.639252 168.997618 
L 468.301632 168.542826 
L 469.626392 167.451326 
L 470.288772 167.178452 
L 470.951152 166.450785 
L 471.613532 165.950514 
L 472.938293 165.495723 
L 473.600673 164.949973 
L 474.925433 164.267786 
L 475.587813 164.085869 
L 476.250193 163.631077 
L 476.912573 163.49464 
L 478.899713 162.448619 
L 479.562093 161.993828 
L 480.886853 161.448078 
L 481.549233 161.31164 
L 482.211613 160.902328 
L 485.523514 159.856308 
L 486.185894 159.674391 
L 486.848274 159.356037 
L 487.510654 158.764808 
L 489.497794 158.037141 
L 490.822554 157.627829 
L 491.484934 157.127558 
L 494.134454 155.763184 
L 494.796835 155.39935 
L 496.121595 152.807038 
L 497.446355 151.260747 
L 498.108735 150.805956 
L 500.095875 149.941852 
L 500.758255 149.714456 
L 501.420635 149.623498 
L 502.083015 149.259664 
L 504.070155 148.668435 
L 506.719676 147.485977 
L 507.382056 147.076665 
L 508.706816 146.621873 
L 512.681096 144.347916 
L 513.343476 143.665728 
L 514.668236 142.938062 
L 515.330616 142.574228 
L 515.992996 142.346833 
L 516.655376 141.892041 
L 517.980137 141.255333 
L 519.967277 140.209312 
L 520.629657 140.027396 
L 521.292037 139.527125 
L 521.954417 139.25425 
L 522.616797 139.117813 
L 523.941557 138.663021 
L 525.928697 137.935355 
L 526.591077 137.435084 
L 527.915837 137.071251 
L 529.240597 136.57098 
L 529.902978 136.02523 
L 531.227738 135.615918 
L 531.890118 135.297564 
L 532.552498 135.115647 
L 533.877258 134.206064 
L 535.202018 133.614835 
L 536.526778 132.614293 
L 537.851538 132.159502 
L 538.513918 131.613752 
L 539.176298 131.522794 
L 540.501058 130.567731 
L 541.825819 129.931023 
L 542.488199 129.658148 
L 543.150579 128.975961 
L 547.124859 127.520628 
L 549.111999 126.656524 
L 551.099139 126.065295 
L 552.423899 125.883378 
L 553.08628 125.610504 
L 553.74866 125.519545 
L 555.07342 124.973795 
L 555.7358 124.928316 
L 558.38532 123.973254 
L 560.37246 122.608879 
L 564.346741 120.653276 
L 565.671501 119.834651 
L 566.333881 119.425338 
L 567.658641 119.106984 
L 568.983401 118.197401 
L 571.632921 117.378776 
L 572.295301 117.105901 
L 573.620061 116.787547 
L 576.931962 115.696048 
L 578.919102 115.332214 
L 579.581482 115.150298 
L 580.243862 114.831944 
L 580.906242 114.740985 
L 582.231002 114.195236 
L 582.893382 114.104277 
L 583.555762 113.785923 
L 584.880522 113.513048 
L 585.542902 113.194694 
L 587.530043 112.739903 
L 588.854803 112.467028 
L 592.829083 111.739361 
L 594.153843 111.466486 
L 594.816223 111.330049 
L 595.478603 111.057174 
L 596.140983 111.011695 
L 598.128123 110.465945 
L 598.790504 110.102112 
L 602.102404 109.283487 
L 602.764784 109.147049 
L 604.089544 108.692258 
L 606.076684 108.01007 
L 606.739064 107.919112 
L 608.726204 107.236925 
L 609.388584 107.236925 
L 610.713345 106.782133 
L 611.375725 106.145425 
L 612.038105 105.827071 
L 613.362865 105.417759 
L 616.012385 104.417217 
L 616.674765 104.28078 
L 617.337145 103.871467 
L 617.999525 103.73503 
L 618.661905 103.325717 
L 621.973806 102.370655 
L 622.636186 101.961343 
L 623.298566 101.779426 
L 623.960946 101.233676 
L 625.948086 100.869843 
L 627.272846 100.142177 
L 627.935226 99.41451 
L 629.259986 99.141635 
L 633.896647 98.095615 
L 634.559027 97.913698 
L 635.883787 97.868219 
L 636.546167 97.549865 
L 639.195687 97.095073 
L 639.858067 96.776719 
L 641.845207 96.503844 
L 644.494727 95.685219 
L 646.481868 95.230428 
L 648.469008 94.730157 
L 651.118528 93.911532 
L 651.780908 93.775095 
L 652.443288 93.456741 
L 653.105668 93.365782 
L 653.768048 93.138387 
L 654.430428 92.729074 
L 656.417569 92.001408 
L 657.079949 91.501137 
L 658.404709 91.137304 
L 659.067089 90.864429 
L 660.391849 90.500596 
L 663.041369 89.318138 
L 665.028509 89.1817 
L 667.678029 88.363075 
L 668.34041 87.953763 
L 669.66517 87.54445 
L 671.65231 86.543909 
L 672.31469 86.407472 
L 672.97707 86.089117 
L 673.63945 85.998159 
L 680.925631 83.587764 
L 683.575151 82.951056 
L 684.237531 82.769139 
L 685.562291 82.132431 
L 686.224671 82.041473 
L 687.549431 81.677639 
L 688.211811 81.177369 
L 688.874191 80.859015 
L 689.536571 80.085869 
L 690.198951 79.585598 
L 691.523712 79.176286 
L 692.186092 78.630536 
L 699.472272 75.674391 
L 700.797032 75.356037 
L 702.121792 74.764808 
L 704.108933 73.58235 
L 704.771313 73.445912 
L 705.433693 72.945642 
L 706.758453 72.308933 
L 708.083213 71.490309 
L 710.070353 70.580726 
L 710.732733 70.125934 
L 712.057493 69.625663 
L 712.719873 69.170872 
L 714.044633 68.534164 
L 714.707014 68.079372 
L 716.031774 67.62458 
L 716.694154 67.488143 
L 719.343674 66.305685 
L 722.655574 65.168706 
L 723.317954 65.123227 
L 723.980334 64.94131 
L 724.642714 64.531998 
L 725.305094 64.44104 
L 725.967475 64.122685 
L 727.954615 63.713373 
L 731.266515 62.030644 
L 732.591275 61.302978 
L 733.253655 61.212019 
L 735.240795 60.12052 
L 737.227936 59.392853 
L 739.215076 58.528749 
L 743.189356 56.846021 
L 743.851736 56.800541 
L 744.514116 56.618625 
L 745.176496 56.163833 
L 745.838876 56.118354 
L 747.163636 55.8 
L 747.163636 55.8 
" clip-path="url(#p370295cdce)" style="fill: none; stroke: #1f77b4; stroke-width: 1.5; stroke-linecap: square"/>
   </g>
   <g id="line2d_40">
    <path d="M 139.098744 307.8 
L 141.085884 307.709042 
L 143.073024 307.663563 
L 147.047304 307.572604 
L 150.359205 307.436167 
L 153.008725 307.436167 
L 153.671105 307.25425 
L 156.320625 307.163292 
L 158.307765 306.935896 
L 160.294906 306.753979 
L 164.269186 306.572063 
L 164.931566 306.572063 
L 165.593946 306.435625 
L 168.243466 306.344667 
L 169.568226 306.253709 
L 174.867267 306.16275 
L 178.179167 306.026313 
L 186.127728 305.935355 
L 189.439628 305.798917 
L 193.413908 305.707959 
L 196.063429 305.617001 
L 202.024849 305.526042 
L 204.011989 305.480563 
L 205.999129 305.435084 
L 207.98627 305.207688 
L 211.96055 305.162209 
L 213.28531 305.071251 
L 217.921971 304.980292 
L 225.208151 304.57098 
L 229.844812 304.480022 
L 231.169572 304.389063 
L 233.156712 304.298105 
L 237.130992 304.116188 
L 239.780512 304.070709 
L 241.767653 303.888793 
L 252.365734 303.252084 
L 255.015254 303.161126 
L 259.651914 302.93373 
L 261.639054 302.842772 
L 268.262855 302.478939 
L 275.549036 302.387981 
L 278.198556 302.115106 
L 279.523316 302.024147 
L 288.134257 301.34196 
L 292.108537 300.841689 
L 294.758057 300.750731 
L 300.057098 300.068544 
L 303.368998 299.977585 
L 311.979939 299.295398 
L 315.954219 298.840606 
L 317.941359 298.795127 
L 319.266119 298.704169 
L 321.91564 298.613211 
L 323.2404 298.522252 
L 326.5523 298.203898 
L 327.21468 298.021982 
L 331.18896 297.840065 
L 334.500861 297.749107 
L 343.111801 297.248836 
L 345.098942 297.157878 
L 353.709882 296.657607 
L 358.346543 296.566649 
L 359.008923 296.430211 
L 364.307963 296.339253 
L 368.944624 296.111857 
L 376.230804 296.020899 
L 380.867465 295.793503 
L 386.166505 295.702545 
L 391.465546 295.42967 
L 396.102206 295.338711 
L 408.687427 294.565566 
L 413.986468 294.474607 
L 431.208349 293.383108 
L 435.182629 293.292149 
L 437.16977 293.24667 
L 439.15691 293.201191 
L 441.14405 293.019274 
L 446.44309 292.928316 
L 447.76785 292.70092 
L 449.092611 292.609962 
L 452.404511 292.473525 
L 453.729271 292.382566 
L 455.054031 292.291608 
L 461.015452 292.20065 
L 462.340212 292.064212 
L 464.989732 292.018733 
L 465.652112 291.882296 
L 466.976872 291.791337 
L 467.639252 291.6549 
L 469.626392 291.563942 
L 480.886853 290.881754 
L 482.873993 290.790796 
L 486.185894 290.654358 
L 495.459215 290.5634 
L 500.095875 290.336004 
L 505.394915 290.245046 
L 508.044436 290.154088 
L 510.693956 290.108609 
L 512.018716 289.972171 
L 514.668236 289.881213 
L 521.292037 289.51738 
L 525.266317 289.4719 
L 527.253457 289.289984 
L 529.240597 289.244505 
L 533.877258 289.153546 
L 536.526778 289.062588 
L 542.488199 288.97163 
L 545.137719 288.880671 
L 549.111999 288.789713 
L 555.7358 288.42588 
L 557.72294 288.42588 
L 558.38532 288.289442 
L 559.71008 288.198484 
L 562.3596 288.107526 
L 570.308161 288.016567 
L 573.620061 287.88013 
L 584.880522 287.834651 
L 586.205282 287.743692 
L 588.192423 287.698213 
L 596.803363 287.607255 
L 598.128123 287.516297 
L 605.414304 287.425338 
L 608.063824 287.33438 
L 616.012385 287.288901 
L 617.337145 287.197943 
L 627.272846 287.152463 
L 629.259986 286.970547 
L 640.520447 286.879589 
L 642.507587 286.834109 
L 659.729469 286.743151 
L 662.378989 286.652193 
L 674.30183 286.561234 
L 676.95135 286.470276 
L 681.588011 286.379318 
L 686.887051 286.106443 
L 689.536571 286.015485 
L 692.186092 285.924526 
L 696.160372 285.833568 
L 698.147512 285.788089 
L 700.797032 285.69713 
L 702.784173 285.651651 
L 706.096073 285.560693 
L 707.420833 285.424256 
L 711.395113 285.333297 
L 718.681294 284.923985 
L 721.993194 284.833027 
L 724.642714 284.742068 
L 729.279375 284.65111 
L 731.928895 284.560152 
L 737.227936 284.469193 
L 739.215076 284.423714 
L 742.526976 284.332756 
L 746.501256 284.150839 
L 747.163636 284.150839 
L 747.163636 284.150839 
" clip-path="url(#p370295cdce)" style="fill: none; stroke: #ff7f0e; stroke-width: 1.5; stroke-linecap: square"/>
   </g>
   <g id="patch_3">
    <path d="M 108 320.4 
L 108 43.2 
" style="fill: none; stroke: #a9a9a9; stroke-width: 0.8; stroke-linejoin: miter; stroke-linecap: square"/>
   </g>
   <g id="patch_4">
    <path d="M 777.6 320.4 
L 777.6 43.2 
" style="fill: none"/>
   </g>
   <g id="patch_5">
    <path d="M 108 320.4 
L 777.6 320.4 
" style="fill: none; stroke: #a9a9a9; stroke-width: 0.8; stroke-linejoin: miter; stroke-linecap: square"/>
   </g>
   <g id="patch_6">
    <path d="M 108 43.2 
L 777.6 43.2 
" style="fill: none"/>
   </g>
   <g id="text_20">
    <!-- get_subscribe history -->
    <g style="fill: #a9a9a9" transform="translate(378.6075 37.2) scale(0.12 -0.12)">
     <defs>
      <path id="DejaVuSans-67" d="M 2906 1791 
Q 2906 2416 2648 2759 
Q 2391 3103 1925 3103 
Q 1463 3103 1205 2759 
Q 947 2416 947 1791 
Q 947 1169 1205 825 
Q 1463 481 1925 481 
Q 2391 481 2648 825 
Q 2906 1169 2906 1791 
z
M 3481 434 
Q 3481 -459 3084 -895 
Q 2688 -1331 1869 -1331 
Q 1566 -1331 1297 -1286 
Q 1028 -1241 775 -1147 
L 775 -588 
Q 1028 -725 1275 -790 
Q 1522 -856 1778 -856 
Q 2344 -856 2625 -561 
Q 2906 -266 2906 331 
L 2906 616 
Q 2728 306 2450 153 
Q 2172 0 1784 0 
Q 1141 0 747 490 
Q 353 981 353 1791 
Q 353 2603 747 3093 
Q 1141 3584 1784 3584 
Q 2172 3584 2450 3431 
Q 2728 3278 2906 2969 
L 2906 3500 
L 3481 3500 
L 3481 434 
z
" transform="scale(0.015625)"/>
      <path id="DejaVuSans-65" d="M 3597 1894 
L 3597 1613 
L 953 1613 
Q 991 1019 1311 708 
Q 1631 397 2203 397 
Q 2534 397 2845 478 
Q 3156 559 3463 722 
L 3463 178 
Q 3153 47 2828 -22 
Q 2503 -91 2169 -91 
Q 1331 -91 842 396 
Q 353 884 353 1716 
Q 353 2575 817 3079 
Q 1281 3584 2069 3584 
Q 2775 3584 3186 3129 
Q 3597 2675 3597 1894 
z
M 3022 2063 
Q 3016 2534 2758 2815 
Q 2500 3097 2075 3097 
Q 1594 3097 1305 2825 
Q 1016 2553 972 2059 
L 3022 2063 
z
" transform="scale(0.015625)"/>
      <path id="DejaVuSans-74" d="M 1172 4494 
L 1172 3500 
L 2356 3500 
L 2356 3053 
L 1172 3053 
L 1172 1153 
Q 1172 725 1289 603 
Q 1406 481 1766 481 
L 2356 481 
L 2356 0 
L 1766 0 
Q 1100 0 847 248 
Q 594 497 594 1153 
L 594 3053 
L 172 3053 
L 172 3500 
L 594 3500 
L 594 4494 
L 1172 4494 
z
" transform="scale(0.015625)"/>
      <path id="DejaVuSans-5f" d="M 3263 -1063 
L 3263 -1509 
L -63 -1509 
L -63 -1063 
L 3263 -1063 
z
" transform="scale(0.015625)"/>
      <path id="DejaVuSans-73" d="M 2834 3397 
L 2834 2853 
Q 2591 2978 2328 3040 
Q 2066 3103 1784 3103 
Q 1356 3103 1142 2972 
Q 928 2841 928 2578 
Q 928 2378 1081 2264 
Q 1234 2150 1697 2047 
L 1894 2003 
Q 2506 1872 2764 1633 
Q 3022 1394 3022 966 
Q 3022 478 2636 193 
Q 2250 -91 1575 -91 
Q 1294 -91 989 -36 
Q 684 19 347 128 
L 347 722 
Q 666 556 975 473 
Q 1284 391 1588 391 
Q 1994 391 2212 530 
Q 2431 669 2431 922 
Q 2431 1156 2273 1281 
Q 2116 1406 1581 1522 
L 1381 1569 
Q 847 1681 609 1914 
Q 372 2147 372 2553 
Q 372 3047 722 3315 
Q 1072 3584 1716 3584 
Q 2034 3584 2315 3537 
Q 2597 3491 2834 3397 
z
" transform="scale(0.015625)"/>
      <path id="DejaVuSans-75" d="M 544 1381 
L 544 3500 
L 1119 3500 
L 1119 1403 
Q 1119 906 1312 657 
Q 1506 409 1894 409 
Q 2359 409 2629 706 
Q 2900 1003 2900 1516 
L 2900 3500 
L 3475 3500 
L 3475 0 
L 2900 0 
L 2900 538 
Q 2691 219 2414 64 
Q 2138 -91 1772 -91 
Q 1169 -91 856 284 
Q 544 659 544 1381 
z
M 1991 3584 
L 1991 3584 
z
" transform="scale(0.015625)"/>
      <path id="DejaVuSans-62" d="M 3116 1747 
Q 3116 2381 2855 2742 
Q 2594 3103 2138 3103 
Q 1681 3103 1420 2742 
Q 1159 2381 1159 1747 
Q 1159 1113 1420 752 
Q 1681 391 2138 391 
Q 2594 391 2855 752 
Q 3116 1113 3116 1747 
z
M 1159 2969 
Q 1341 3281 1617 3432 
Q 1894 3584 2278 3584 
Q 2916 3584 3314 3078 
Q 3713 2572 3713 1747 
Q 3713 922 3314 415 
Q 2916 -91 2278 -91 
Q 1894 -91 1617 61 
Q 1341 213 1159 525 
L 1159 0 
L 581 0 
L 581 4863 
L 1159 4863 
L 1159 2969 
z
" transform="scale(0.015625)"/>
      <path id="DejaVuSans-63" d="M 3122 3366 
L 3122 2828 
Q 2878 2963 2633 3030 
Q 2388 3097 2138 3097 
Q 1578 3097 1268 2742 
Q 959 2388 959 1747 
Q 959 1106 1268 751 
Q 1578 397 2138 397 
Q 2388 397 2633 464 
Q 2878 531 3122 666 
L 3122 134 
Q 2881 22 2623 -34 
Q 2366 -91 2075 -91 
Q 1284 -91 818 406 
Q 353 903 353 1747 
Q 353 2603 823 3093 
Q 1294 3584 2113 3584 
Q 2378 3584 2631 3529 
Q 2884 3475 3122 3366 
z
" transform="scale(0.015625)"/>
      <path id="DejaVuSans-72" d="M 2631 2963 
Q 2534 3019 2420 3045 
Q 2306 3072 2169 3072 
Q 1681 3072 1420 2755 
Q 1159 2438 1159 1844 
L 1159 0 
L 581 0 
L 581 3500 
L 1159 3500 
L 1159 2956 
Q 1341 3275 1631 3429 
Q 1922 3584 2338 3584 
Q 2397 3584 2469 3576 
Q 2541 3569 2628 3553 
L 2631 2963 
z
" transform="scale(0.015625)"/>
      <path id="DejaVuSans-69" d="M 603 3500 
L 1178 3500 
L 1178 0 
L 603 0 
L 603 3500 
z
M 603 4863 
L 1178 4863 
L 1178 4134 
L 603 4134 
L 603 4863 
z
" transform="scale(0.015625)"/>
      <path id="DejaVuSans-20" transform="scale(0.015625)"/>
      <path id="DejaVuSans-68" d="M 3513 2113 
L 3513 0 
L 2938 0 
L 2938 2094 
Q 2938 2591 2744 2837 
Q 2550 3084 2163 3084 
Q 1697 3084 1428 2787 
Q 1159 2491 1159 1978 
L 1159 0 
L 581 0 
L 581 4863 
L 1159 4863 
L 1159 2956 
Q 1366 3272 1645 3428 
Q 1925 3584 2291 3584 
Q 2894 3584 3203 3211 
Q 3513 2838 3513 2113 
z
" transform="scale(0.015625)"/>
      <path id="DejaVuSans-6f" d="M 1959 3097 
Q 1497 3097 1228 2736 
Q 959 2375 959 1747 
Q 959 1119 1226 758 
Q 1494 397 1959 397 
Q 2419 397 2687 759 
Q 2956 1122 2956 1747 
Q 2956 2369 2687 2733 
Q 2419 3097 1959 3097 
z
M 1959 3584 
Q 2709 3584 3137 3096 
Q 3566 2609 3566 1747 
Q 3566 888 3137 398 
Q 2709 -91 1959 -91 
Q 1206 -91 779 398 
Q 353 888 353 1747 
Q 353 2609 779 3096 
Q 1206 3584 1959 3584 
z
" transform="scale(0.015625)"/>
      <path id="DejaVuSans-79" d="M 2059 -325 
Q 1816 -950 1584 -1140 
Q 1353 -1331 966 -1331 
L 506 -1331 
L 506 -850 
L 844 -850 
Q 1081 -850 1212 -737 
Q 1344 -625 1503 -206 
L 1606 56 
L 191 3500 
L 800 3500 
L 1894 763 
L 2988 3500 
L 3597 3500 
L 2059 -325 
z
" transform="scale(0.015625)"/>
     </defs>
     <use xlink:href="#DejaVuSans-67"/>
     <use xlink:href="#DejaVuSans-65" x="63.476562"/>
     <use xlink:href="#DejaVuSans-74" x="125"/>
     <use xlink:href="#DejaVuSans-5f" x="164.208984"/>
     <use xlink:href="#DejaVuSans-73" x="214.208984"/>
     <use xlink:href="#DejaVuSans-75" x="266.308594"/>
     <use xlink:href="#DejaVuSans-62" x="329.6875"/>
     <use xlink:href="#DejaVuSans-73" x="393.164062"/>
     <use xlink:href="#DejaVuSans-63" x="445.263672"/>
     <use xlink:href="#DejaVuSans-72" x="500.244141"/>
     <use xlink:href="#DejaVuSans-69" x="541.357422"/>
     <use xlink:href="#DejaVuSans-62" x="569.140625"/>
     <use xlink:href="#DejaVuSans-65" x="632.617188"/>
     <use xlink:href="#DejaVuSans-20" x="694.140625"/>
     <use xlink:href="#DejaVuSans-68" x="725.927734"/>
     <use xlink:href="#DejaVuSans-69" x="789.306641"/>
     <use xlink:href="#DejaVuSans-73" x="817.089844"/>
     <use xlink:href="#DejaVuSans-74" x="869.189453"/>
     <use xlink:href="#DejaVuSans-6f" x="908.398438"/>
     <use xlink:href="#DejaVuSans-72" x="969.580078"/>
     <use xlink:href="#DejaVuSans-79" x="1010.693359"/>
    </g>
   </g>
   <g id="legend_1">
    <g id="line2d_41">
     <path d="M 815.08 328.498438 
L 825.08 328.498438 
L 835.08 328.498438 
" style="fill: none; stroke: #1f77b4; stroke-width: 1.5; stroke-linecap: square"/>
    </g>
    <g id="text_21">
     <!-- star -->
     <g style="fill: #a9a9a9" transform="translate(843.08 331.998438) scale(0.1 -0.1)">
      <defs>
       <path id="DejaVuSans-61" d="M 2194 1759 
Q 1497 1759 1228 1600 
Q 959 1441 959 1056 
Q 959 750 1161 570 
Q 1363 391 1709 391 
Q 2188 391 2477 730 
Q 2766 1069 2766 1631 
L 2766 1759 
L 2194 1759 
z
M 3341 1997 
L 3341 0 
L 2766 0 
L 2766 531 
Q 2569 213 2275 61 
Q 1981 -91 1556 -91 
Q 1019 -91 701 211 
Q 384 513 384 1019 
Q 384 1609 779 1909 
Q 1175 2209 1959 2209 
L 2766 2209 
L 2766 2266 
Q 2766 2663 2505 2880 
Q 2244 3097 1772 3097 
Q 1472 3097 1187 3025 
Q 903 2953 641 2809 
L 641 3341 
Q 956 3463 1253 3523 
Q 1550 3584 1831 3584 
Q 2591 3584 2966 3190 
Q 3341 2797 3341 1997 
z
" transform="scale(0.015625)"/>
      </defs>
      <use xlink:href="#DejaVuSans-73"/>
      <use xlink:href="#DejaVuSans-74" x="52.099609"/>
      <use xlink:href="#DejaVuSans-61" x="91.308594"/>
      <use xlink:href="#DejaVuSans-72" x="152.587891"/>
     </g>
    </g>
    <g id="line2d_42">
     <path d="M 815.08 343.176562 
L 825.08 343.176562 
L 835.08 343.176562 
" style="fill: none; stroke: #ff7f0e; stroke-width: 1.5; stroke-linecap: square"/>
    </g>
    <g id="text_22">
     <!-- fork -->
     <g style="fill: #a9a9a9" transform="translate(843.08 346.676562) scale(0.1 -0.1)">
      <defs>
       <path id="DejaVuSans-66" d="M 2375 4863 
L 2375 4384 
L 1825 4384 
Q 1516 4384 1395 4259 
Q 1275 4134 1275 3809 
L 1275 3500 
L 2222 3500 
L 2222 3053 
L 1275 3053 
L 1275 0 
L 697 0 
L 697 3053 
L 147 3053 
L 147 3500 
L 697 3500 
L 697 3744 
Q 697 4328 969 4595 
Q 1241 4863 1831 4863 
L 2375 4863 
z
" transform="scale(0.015625)"/>
       <path id="DejaVuSans-6b" d="M 581 4863 
L 1159 4863 
L 1159 1991 
L 2875 3500 
L 3609 3500 
L 1753 1863 
L 3688 0 
L 2938 0 
L 1159 1709 
L 1159 0 
L 581 0 
L 581 4863 
z
" transform="scale(0.015625)"/>
      </defs>
      <use xlink:href="#DejaVuSans-66"/>
      <use xlink:href="#DejaVuSans-6f" x="35.205078"/>
      <use xlink:href="#DejaVuSans-72" x="96.386719"/>
      <use xlink:href="#DejaVuSans-6b" x="137.5"/>
     </g>
    </g>
   </g>
  </g>
 </g>
 <defs>
  <clipPath id="p370295cdce">
   <rect x="108" y="43.2" width="669.6" height="277.2"/>
  </clipPath>
 </defs>
</svg>
