<?xml version="1.0" encoding="utf-8" standalone="no"?>
<!DOCTYPE svg PUBLIC "-//W3C//DTD SVG 1.1//EN"
  "http://www.w3.org/Graphics/SVG/1.1/DTD/svg11.dtd">
<svg xmlns:xlink="http://www.w3.org/1999/xlink" width="864pt" height="360pt" viewBox="0 0 864 360" xmlns="http://www.w3.org/2000/svg" version="1.1">
 <metadata>
  <rdf:RDF xmlns:dc="http://purl.org/dc/elements/1.1/" xmlns:cc="http://creativecommons.org/ns#" xmlns:rdf="http://www.w3.org/1999/02/22-rdf-syntax-ns#">
   <cc:Work>
    <dc:type rdf:resource="http://purl.org/dc/dcmitype/StillImage"/>
    <dc:date>2024-02-04T08:11:48.611737</dc:date>
    <dc:format>image/svg+xml</dc:format>
    <dc:creator>
     <cc:Agent>
      <dc:title>Matplotlib v3.8.2, https://matplotlib.org/</dc:title>
     </cc:Agent>
    </dc:creator>
   </cc:Work>
  </rdf:RDF>
 </metadata>
 <defs>
  <style type="text/css">*{stroke-linejoin: round; stroke-linecap: butt}</style>
 </defs>
 <g id="figure_1">
  <g id="patch_1">
   <path d="M 0 360 
L 864 360 
L 864 0 
L 0 0 
L 0 360 
z
" style="fill: none; opacity: 0"/>
  </g>
  <g id="axes_1">
   <g id="patch_2">
    <path d="M 108 320.4 
L 777.6 320.4 
L 777.6 43.2 
L 108 43.2 
L 108 320.4 
z
" style="fill: none; opacity: 0"/>
   </g>
   <g id="matplotlib.axis_1">
    <g id="xtick_1">
     <g id="line2d_1">
      <path d="M 123.300442 320.4 
L 123.300442 43.2 
" clip-path="url(#p43b2bac363)" style="fill: none; stroke-dasharray: 5.12,1.28,0.8,1.28; stroke-dashoffset: 0; stroke: #b0b0b0; stroke-width: 0.8"/>
     </g>
     <g id="line2d_2">
      <defs>
       <path id="m6b85d3af4a" d="M 0 0 
L 0 3.5 
" style="stroke: #a9a9a9; stroke-width: 0.8"/>
      </defs>
      <g>
       <use xlink:href="#m6b85d3af4a" x="123.300442" y="320.4" style="fill: #a9a9a9; stroke: #a9a9a9; stroke-width: 0.8"/>
      </g>
     </g>
     <g id="text_1">
      <!-- 2021-07 -->
      <g style="fill: #a9a9a9" transform="translate(102.409036 334.998438) scale(0.1 -0.1)">
       <defs>
        <path id="DejaVuSans-32" d="M 1228 531 
L 3431 531 
L 3431 0 
L 469 0 
L 469 531 
Q 828 903 1448 1529 
Q 2069 2156 2228 2338 
Q 2531 2678 2651 2914 
Q 2772 3150 2772 3378 
Q 2772 3750 2511 3984 
Q 2250 4219 1831 4219 
Q 1534 4219 1204 4116 
Q 875 4013 500 3803 
L 500 4441 
Q 881 4594 1212 4672 
Q 1544 4750 1819 4750 
Q 2544 4750 2975 4387 
Q 3406 4025 3406 3419 
Q 3406 3131 3298 2873 
Q 3191 2616 2906 2266 
Q 2828 2175 2409 1742 
Q 1991 1309 1228 531 
z
" transform="scale(0.015625)"/>
        <path id="DejaVuSans-30" d="M 2034 4250 
Q 1547 4250 1301 3770 
Q 1056 3291 1056 2328 
Q 1056 1369 1301 889 
Q 1547 409 2034 409 
Q 2525 409 2770 889 
Q 3016 1369 3016 2328 
Q 3016 3291 2770 3770 
Q 2525 4250 2034 4250 
z
M 2034 4750 
Q 2819 4750 3233 4129 
Q 3647 3509 3647 2328 
Q 3647 1150 3233 529 
Q 2819 -91 2034 -91 
Q 1250 -91 836 529 
Q 422 1150 422 2328 
Q 422 3509 836 4129 
Q 1250 4750 2034 4750 
z
" transform="scale(0.015625)"/>
        <path id="DejaVuSans-31" d="M 794 531 
L 1825 531 
L 1825 4091 
L 703 3866 
L 703 4441 
L 1819 4666 
L 2450 4666 
L 2450 531 
L 3481 531 
L 3481 0 
L 794 0 
L 794 531 
z
" transform="scale(0.015625)"/>
        <path id="DejaVuSans-2d" d="M 313 2009 
L 1997 2009 
L 1997 1497 
L 313 1497 
L 313 2009 
z
" transform="scale(0.015625)"/>
        <path id="DejaVuSans-37" d="M 525 4666 
L 3525 4666 
L 3525 4397 
L 1831 0 
L 1172 0 
L 2766 4134 
L 525 4134 
L 525 4666 
z
" transform="scale(0.015625)"/>
       </defs>
       <use xlink:href="#DejaVuSans-32"/>
       <use xlink:href="#DejaVuSans-30" x="63.623047"/>
       <use xlink:href="#DejaVuSans-32" x="127.246094"/>
       <use xlink:href="#DejaVuSans-31" x="190.869141"/>
       <use xlink:href="#DejaVuSans-2d" x="254.492188"/>
       <use xlink:href="#DejaVuSans-30" x="290.576172"/>
       <use xlink:href="#DejaVuSans-37" x="354.199219"/>
      </g>
     </g>
    </g>
    <g id="xtick_2">
     <g id="line2d_3">
      <path d="M 183.844128 320.4 
L 183.844128 43.2 
" clip-path="url(#p43b2bac363)" style="fill: none; stroke-dasharray: 5.12,1.28,0.8,1.28; stroke-dashoffset: 0; stroke: #b0b0b0; stroke-width: 0.8"/>
     </g>
     <g id="line2d_4">
      <g>
       <use xlink:href="#m6b85d3af4a" x="183.844128" y="320.4" style="fill: #a9a9a9; stroke: #a9a9a9; stroke-width: 0.8"/>
      </g>
     </g>
     <g id="text_2">
      <!-- 2021-10 -->
      <g style="fill: #a9a9a9" transform="translate(162.952722 334.998438) scale(0.1 -0.1)">
       <use xlink:href="#DejaVuSans-32"/>
       <use xlink:href="#DejaVuSans-30" x="63.623047"/>
       <use xlink:href="#DejaVuSans-32" x="127.246094"/>
       <use xlink:href="#DejaVuSans-31" x="190.869141"/>
       <use xlink:href="#DejaVuSans-2d" x="254.492188"/>
       <use xlink:href="#DejaVuSans-31" x="290.576172"/>
       <use xlink:href="#DejaVuSans-30" x="354.199219"/>
      </g>
     </g>
    </g>
    <g id="xtick_3">
     <g id="line2d_5">
      <path d="M 244.387813 320.4 
L 244.387813 43.2 
" clip-path="url(#p43b2bac363)" style="fill: none; stroke-dasharray: 5.12,1.28,0.8,1.28; stroke-dashoffset: 0; stroke: #b0b0b0; stroke-width: 0.8"/>
     </g>
     <g id="line2d_6">
      <g>
       <use xlink:href="#m6b85d3af4a" x="244.387813" y="320.4" style="fill: #a9a9a9; stroke: #a9a9a9; stroke-width: 0.8"/>
      </g>
     </g>
     <g id="text_3">
      <!-- 2022-01 -->
      <g style="fill: #a9a9a9" transform="translate(223.496407 334.998438) scale(0.1 -0.1)">
       <use xlink:href="#DejaVuSans-32"/>
       <use xlink:href="#DejaVuSans-30" x="63.623047"/>
       <use xlink:href="#DejaVuSans-32" x="127.246094"/>
       <use xlink:href="#DejaVuSans-32" x="190.869141"/>
       <use xlink:href="#DejaVuSans-2d" x="254.492188"/>
       <use xlink:href="#DejaVuSans-30" x="290.576172"/>
       <use xlink:href="#DejaVuSans-31" x="354.199219"/>
      </g>
     </g>
    </g>
    <g id="xtick_4">
     <g id="line2d_7">
      <path d="M 303.615332 320.4 
L 303.615332 43.2 
" clip-path="url(#p43b2bac363)" style="fill: none; stroke-dasharray: 5.12,1.28,0.8,1.28; stroke-dashoffset: 0; stroke: #b0b0b0; stroke-width: 0.8"/>
     </g>
     <g id="line2d_8">
      <g>
       <use xlink:href="#m6b85d3af4a" x="303.615332" y="320.4" style="fill: #a9a9a9; stroke: #a9a9a9; stroke-width: 0.8"/>
      </g>
     </g>
     <g id="text_4">
      <!-- 2022-04 -->
      <g style="fill: #a9a9a9" transform="translate(282.723925 334.998438) scale(0.1 -0.1)">
       <defs>
        <path id="DejaVuSans-34" d="M 2419 4116 
L 825 1625 
L 2419 1625 
L 2419 4116 
z
M 2253 4666 
L 3047 4666 
L 3047 1625 
L 3713 1625 
L 3713 1100 
L 3047 1100 
L 3047 0 
L 2419 0 
L 2419 1100 
L 313 1100 
L 313 1709 
L 2253 4666 
z
" transform="scale(0.015625)"/>
       </defs>
       <use xlink:href="#DejaVuSans-32"/>
       <use xlink:href="#DejaVuSans-30" x="63.623047"/>
       <use xlink:href="#DejaVuSans-32" x="127.246094"/>
       <use xlink:href="#DejaVuSans-32" x="190.869141"/>
       <use xlink:href="#DejaVuSans-2d" x="254.492188"/>
       <use xlink:href="#DejaVuSans-30" x="290.576172"/>
       <use xlink:href="#DejaVuSans-34" x="354.199219"/>
      </g>
     </g>
    </g>
    <g id="xtick_5">
     <g id="line2d_9">
      <path d="M 363.500934 320.4 
L 363.500934 43.2 
" clip-path="url(#p43b2bac363)" style="fill: none; stroke-dasharray: 5.12,1.28,0.8,1.28; stroke-dashoffset: 0; stroke: #b0b0b0; stroke-width: 0.8"/>
     </g>
     <g id="line2d_10">
      <g>
       <use xlink:href="#m6b85d3af4a" x="363.500934" y="320.4" style="fill: #a9a9a9; stroke: #a9a9a9; stroke-width: 0.8"/>
      </g>
     </g>
     <g id="text_5">
      <!-- 2022-07 -->
      <g style="fill: #a9a9a9" transform="translate(342.609527 334.998438) scale(0.1 -0.1)">
       <use xlink:href="#DejaVuSans-32"/>
       <use xlink:href="#DejaVuSans-30" x="63.623047"/>
       <use xlink:href="#DejaVuSans-32" x="127.246094"/>
       <use xlink:href="#DejaVuSans-32" x="190.869141"/>
       <use xlink:href="#DejaVuSans-2d" x="254.492188"/>
       <use xlink:href="#DejaVuSans-30" x="290.576172"/>
       <use xlink:href="#DejaVuSans-37" x="354.199219"/>
      </g>
     </g>
    </g>
    <g id="xtick_6">
     <g id="line2d_11">
      <path d="M 424.044619 320.4 
L 424.044619 43.2 
" clip-path="url(#p43b2bac363)" style="fill: none; stroke-dasharray: 5.12,1.28,0.8,1.28; stroke-dashoffset: 0; stroke: #b0b0b0; stroke-width: 0.8"/>
     </g>
     <g id="line2d_12">
      <g>
       <use xlink:href="#m6b85d3af4a" x="424.044619" y="320.4" style="fill: #a9a9a9; stroke: #a9a9a9; stroke-width: 0.8"/>
      </g>
     </g>
     <g id="text_6">
      <!-- 2022-10 -->
      <g style="fill: #a9a9a9" transform="translate(403.153213 334.998438) scale(0.1 -0.1)">
       <use xlink:href="#DejaVuSans-32"/>
       <use xlink:href="#DejaVuSans-30" x="63.623047"/>
       <use xlink:href="#DejaVuSans-32" x="127.246094"/>
       <use xlink:href="#DejaVuSans-32" x="190.869141"/>
       <use xlink:href="#DejaVuSans-2d" x="254.492188"/>
       <use xlink:href="#DejaVuSans-31" x="290.576172"/>
       <use xlink:href="#DejaVuSans-30" x="354.199219"/>
      </g>
     </g>
    </g>
    <g id="xtick_7">
     <g id="line2d_13">
      <path d="M 484.588305 320.4 
L 484.588305 43.2 
" clip-path="url(#p43b2bac363)" style="fill: none; stroke-dasharray: 5.12,1.28,0.8,1.28; stroke-dashoffset: 0; stroke: #b0b0b0; stroke-width: 0.8"/>
     </g>
     <g id="line2d_14">
      <g>
       <use xlink:href="#m6b85d3af4a" x="484.588305" y="320.4" style="fill: #a9a9a9; stroke: #a9a9a9; stroke-width: 0.8"/>
      </g>
     </g>
     <g id="text_7">
      <!-- 2023-01 -->
      <g style="fill: #a9a9a9" transform="translate(463.696898 334.998438) scale(0.1 -0.1)">
       <defs>
        <path id="DejaVuSans-33" d="M 2597 2516 
Q 3050 2419 3304 2112 
Q 3559 1806 3559 1356 
Q 3559 666 3084 287 
Q 2609 -91 1734 -91 
Q 1441 -91 1130 -33 
Q 819 25 488 141 
L 488 750 
Q 750 597 1062 519 
Q 1375 441 1716 441 
Q 2309 441 2620 675 
Q 2931 909 2931 1356 
Q 2931 1769 2642 2001 
Q 2353 2234 1838 2234 
L 1294 2234 
L 1294 2753 
L 1863 2753 
Q 2328 2753 2575 2939 
Q 2822 3125 2822 3475 
Q 2822 3834 2567 4026 
Q 2313 4219 1838 4219 
Q 1578 4219 1281 4162 
Q 984 4106 628 3988 
L 628 4550 
Q 988 4650 1302 4700 
Q 1616 4750 1894 4750 
Q 2613 4750 3031 4423 
Q 3450 4097 3450 3541 
Q 3450 3153 3228 2886 
Q 3006 2619 2597 2516 
z
" transform="scale(0.015625)"/>
       </defs>
       <use xlink:href="#DejaVuSans-32"/>
       <use xlink:href="#DejaVuSans-30" x="63.623047"/>
       <use xlink:href="#DejaVuSans-32" x="127.246094"/>
       <use xlink:href="#DejaVuSans-33" x="190.869141"/>
       <use xlink:href="#DejaVuSans-2d" x="254.492188"/>
       <use xlink:href="#DejaVuSans-30" x="290.576172"/>
       <use xlink:href="#DejaVuSans-31" x="354.199219"/>
      </g>
     </g>
    </g>
    <g id="xtick_8">
     <g id="line2d_15">
      <path d="M 543.815823 320.4 
L 543.815823 43.2 
" clip-path="url(#p43b2bac363)" style="fill: none; stroke-dasharray: 5.12,1.28,0.8,1.28; stroke-dashoffset: 0; stroke: #b0b0b0; stroke-width: 0.8"/>
     </g>
     <g id="line2d_16">
      <g>
       <use xlink:href="#m6b85d3af4a" x="543.815823" y="320.4" style="fill: #a9a9a9; stroke: #a9a9a9; stroke-width: 0.8"/>
      </g>
     </g>
     <g id="text_8">
      <!-- 2023-04 -->
      <g style="fill: #a9a9a9" transform="translate(522.924417 334.998438) scale(0.1 -0.1)">
       <use xlink:href="#DejaVuSans-32"/>
       <use xlink:href="#DejaVuSans-30" x="63.623047"/>
       <use xlink:href="#DejaVuSans-32" x="127.246094"/>
       <use xlink:href="#DejaVuSans-33" x="190.869141"/>
       <use xlink:href="#DejaVuSans-2d" x="254.492188"/>
       <use xlink:href="#DejaVuSans-30" x="290.576172"/>
       <use xlink:href="#DejaVuSans-34" x="354.199219"/>
      </g>
     </g>
    </g>
    <g id="xtick_9">
     <g id="line2d_17">
      <path d="M 603.701425 320.4 
L 603.701425 43.2 
" clip-path="url(#p43b2bac363)" style="fill: none; stroke-dasharray: 5.12,1.28,0.8,1.28; stroke-dashoffset: 0; stroke: #b0b0b0; stroke-width: 0.8"/>
     </g>
     <g id="line2d_18">
      <g>
       <use xlink:href="#m6b85d3af4a" x="603.701425" y="320.4" style="fill: #a9a9a9; stroke: #a9a9a9; stroke-width: 0.8"/>
      </g>
     </g>
     <g id="text_9">
      <!-- 2023-07 -->
      <g style="fill: #a9a9a9" transform="translate(582.810019 334.998438) scale(0.1 -0.1)">
       <use xlink:href="#DejaVuSans-32"/>
       <use xlink:href="#DejaVuSans-30" x="63.623047"/>
       <use xlink:href="#DejaVuSans-32" x="127.246094"/>
       <use xlink:href="#DejaVuSans-33" x="190.869141"/>
       <use xlink:href="#DejaVuSans-2d" x="254.492188"/>
       <use xlink:href="#DejaVuSans-30" x="290.576172"/>
       <use xlink:href="#DejaVuSans-37" x="354.199219"/>
      </g>
     </g>
    </g>
    <g id="xtick_10">
     <g id="line2d_19">
      <path d="M 664.245111 320.4 
L 664.245111 43.2 
" clip-path="url(#p43b2bac363)" style="fill: none; stroke-dasharray: 5.12,1.28,0.8,1.28; stroke-dashoffset: 0; stroke: #b0b0b0; stroke-width: 0.8"/>
     </g>
     <g id="line2d_20">
      <g>
       <use xlink:href="#m6b85d3af4a" x="664.245111" y="320.4" style="fill: #a9a9a9; stroke: #a9a9a9; stroke-width: 0.8"/>
      </g>
     </g>
     <g id="text_10">
      <!-- 2023-10 -->
      <g style="fill: #a9a9a9" transform="translate(643.353704 334.998438) scale(0.1 -0.1)">
       <use xlink:href="#DejaVuSans-32"/>
       <use xlink:href="#DejaVuSans-30" x="63.623047"/>
       <use xlink:href="#DejaVuSans-32" x="127.246094"/>
       <use xlink:href="#DejaVuSans-33" x="190.869141"/>
       <use xlink:href="#DejaVuSans-2d" x="254.492188"/>
       <use xlink:href="#DejaVuSans-31" x="290.576172"/>
       <use xlink:href="#DejaVuSans-30" x="354.199219"/>
      </g>
     </g>
    </g>
    <g id="xtick_11">
     <g id="line2d_21">
      <path d="M 724.788796 320.4 
L 724.788796 43.2 
" clip-path="url(#p43b2bac363)" style="fill: none; stroke-dasharray: 5.12,1.28,0.8,1.28; stroke-dashoffset: 0; stroke: #b0b0b0; stroke-width: 0.8"/>
     </g>
     <g id="line2d_22">
      <g>
       <use xlink:href="#m6b85d3af4a" x="724.788796" y="320.4" style="fill: #a9a9a9; stroke: #a9a9a9; stroke-width: 0.8"/>
      </g>
     </g>
     <g id="text_11">
      <!-- 2024-01 -->
      <g style="fill: #a9a9a9" transform="translate(703.89739 334.998438) scale(0.1 -0.1)">
       <use xlink:href="#DejaVuSans-32"/>
       <use xlink:href="#DejaVuSans-30" x="63.623047"/>
       <use xlink:href="#DejaVuSans-32" x="127.246094"/>
       <use xlink:href="#DejaVuSans-34" x="190.869141"/>
       <use xlink:href="#DejaVuSans-2d" x="254.492188"/>
       <use xlink:href="#DejaVuSans-30" x="290.576172"/>
       <use xlink:href="#DejaVuSans-31" x="354.199219"/>
      </g>
     </g>
    </g>
   </g>
   <g id="matplotlib.axis_2">
    <g id="ytick_1">
     <g id="line2d_23">
      <path d="M 108 307.845299 
L 777.6 307.845299 
" clip-path="url(#p43b2bac363)" style="fill: none; stroke-dasharray: 5.12,1.28,0.8,1.28; stroke-dashoffset: 0; stroke: #b0b0b0; stroke-width: 0.8"/>
     </g>
     <g id="line2d_24">
      <defs>
       <path id="mbf77c9eb5f" d="M 0 0 
L -3.5 0 
" style="stroke: #a9a9a9; stroke-width: 0.8"/>
      </defs>
      <g>
       <use xlink:href="#mbf77c9eb5f" x="108" y="307.845299" style="fill: #a9a9a9; stroke: #a9a9a9; stroke-width: 0.8"/>
      </g>
     </g>
     <g id="text_12">
      <!-- 0 -->
      <g style="fill: #a9a9a9" transform="translate(94.6375 311.644518) scale(0.1 -0.1)">
       <use xlink:href="#DejaVuSans-30"/>
      </g>
     </g>
    </g>
    <g id="ytick_2">
     <g id="line2d_25">
      <path d="M 108 271.60586 
L 777.6 271.60586 
" clip-path="url(#p43b2bac363)" style="fill: none; stroke-dasharray: 5.12,1.28,0.8,1.28; stroke-dashoffset: 0; stroke: #b0b0b0; stroke-width: 0.8"/>
     </g>
     <g id="line2d_26">
      <g>
       <use xlink:href="#mbf77c9eb5f" x="108" y="271.60586" style="fill: #a9a9a9; stroke: #a9a9a9; stroke-width: 0.8"/>
      </g>
     </g>
     <g id="text_13">
      <!-- 800 -->
      <g style="fill: #a9a9a9" transform="translate(81.9125 275.405079) scale(0.1 -0.1)">
       <defs>
        <path id="DejaVuSans-38" d="M 2034 2216 
Q 1584 2216 1326 1975 
Q 1069 1734 1069 1313 
Q 1069 891 1326 650 
Q 1584 409 2034 409 
Q 2484 409 2743 651 
Q 3003 894 3003 1313 
Q 3003 1734 2745 1975 
Q 2488 2216 2034 2216 
z
M 1403 2484 
Q 997 2584 770 2862 
Q 544 3141 544 3541 
Q 544 4100 942 4425 
Q 1341 4750 2034 4750 
Q 2731 4750 3128 4425 
Q 3525 4100 3525 3541 
Q 3525 3141 3298 2862 
Q 3072 2584 2669 2484 
Q 3125 2378 3379 2068 
Q 3634 1759 3634 1313 
Q 3634 634 3220 271 
Q 2806 -91 2034 -91 
Q 1263 -91 848 271 
Q 434 634 434 1313 
Q 434 1759 690 2068 
Q 947 2378 1403 2484 
z
M 1172 3481 
Q 1172 3119 1398 2916 
Q 1625 2713 2034 2713 
Q 2441 2713 2670 2916 
Q 2900 3119 2900 3481 
Q 2900 3844 2670 4047 
Q 2441 4250 2034 4250 
Q 1625 4250 1398 4047 
Q 1172 3844 1172 3481 
z
" transform="scale(0.015625)"/>
       </defs>
       <use xlink:href="#DejaVuSans-38"/>
       <use xlink:href="#DejaVuSans-30" x="63.623047"/>
       <use xlink:href="#DejaVuSans-30" x="127.246094"/>
      </g>
     </g>
    </g>
    <g id="ytick_3">
     <g id="line2d_27">
      <path d="M 108 235.366421 
L 777.6 235.366421 
" clip-path="url(#p43b2bac363)" style="fill: none; stroke-dasharray: 5.12,1.28,0.8,1.28; stroke-dashoffset: 0; stroke: #b0b0b0; stroke-width: 0.8"/>
     </g>
     <g id="line2d_28">
      <g>
       <use xlink:href="#mbf77c9eb5f" x="108" y="235.366421" style="fill: #a9a9a9; stroke: #a9a9a9; stroke-width: 0.8"/>
      </g>
     </g>
     <g id="text_14">
      <!-- 1600 -->
      <g style="fill: #a9a9a9" transform="translate(75.55 239.16564) scale(0.1 -0.1)">
       <defs>
        <path id="DejaVuSans-36" d="M 2113 2584 
Q 1688 2584 1439 2293 
Q 1191 2003 1191 1497 
Q 1191 994 1439 701 
Q 1688 409 2113 409 
Q 2538 409 2786 701 
Q 3034 994 3034 1497 
Q 3034 2003 2786 2293 
Q 2538 2584 2113 2584 
z
M 3366 4563 
L 3366 3988 
Q 3128 4100 2886 4159 
Q 2644 4219 2406 4219 
Q 1781 4219 1451 3797 
Q 1122 3375 1075 2522 
Q 1259 2794 1537 2939 
Q 1816 3084 2150 3084 
Q 2853 3084 3261 2657 
Q 3669 2231 3669 1497 
Q 3669 778 3244 343 
Q 2819 -91 2113 -91 
Q 1303 -91 875 529 
Q 447 1150 447 2328 
Q 447 3434 972 4092 
Q 1497 4750 2381 4750 
Q 2619 4750 2861 4703 
Q 3103 4656 3366 4563 
z
" transform="scale(0.015625)"/>
       </defs>
       <use xlink:href="#DejaVuSans-31"/>
       <use xlink:href="#DejaVuSans-36" x="63.623047"/>
       <use xlink:href="#DejaVuSans-30" x="127.246094"/>
       <use xlink:href="#DejaVuSans-30" x="190.869141"/>
      </g>
     </g>
    </g>
    <g id="ytick_4">
     <g id="line2d_29">
      <path d="M 108 199.126982 
L 777.6 199.126982 
" clip-path="url(#p43b2bac363)" style="fill: none; stroke-dasharray: 5.12,1.28,0.8,1.28; stroke-dashoffset: 0; stroke: #b0b0b0; stroke-width: 0.8"/>
     </g>
     <g id="line2d_30">
      <g>
       <use xlink:href="#mbf77c9eb5f" x="108" y="199.126982" style="fill: #a9a9a9; stroke: #a9a9a9; stroke-width: 0.8"/>
      </g>
     </g>
     <g id="text_15">
      <!-- 2400 -->
      <g style="fill: #a9a9a9" transform="translate(75.55 202.926201) scale(0.1 -0.1)">
       <use xlink:href="#DejaVuSans-32"/>
       <use xlink:href="#DejaVuSans-34" x="63.623047"/>
       <use xlink:href="#DejaVuSans-30" x="127.246094"/>
       <use xlink:href="#DejaVuSans-30" x="190.869141"/>
      </g>
     </g>
    </g>
    <g id="ytick_5">
     <g id="line2d_31">
      <path d="M 108 162.887543 
L 777.6 162.887543 
" clip-path="url(#p43b2bac363)" style="fill: none; stroke-dasharray: 5.12,1.28,0.8,1.28; stroke-dashoffset: 0; stroke: #b0b0b0; stroke-width: 0.8"/>
     </g>
     <g id="line2d_32">
      <g>
       <use xlink:href="#mbf77c9eb5f" x="108" y="162.887543" style="fill: #a9a9a9; stroke: #a9a9a9; stroke-width: 0.8"/>
      </g>
     </g>
     <g id="text_16">
      <!-- 3200 -->
      <g style="fill: #a9a9a9" transform="translate(75.55 166.686761) scale(0.1 -0.1)">
       <use xlink:href="#DejaVuSans-33"/>
       <use xlink:href="#DejaVuSans-32" x="63.623047"/>
       <use xlink:href="#DejaVuSans-30" x="127.246094"/>
       <use xlink:href="#DejaVuSans-30" x="190.869141"/>
      </g>
     </g>
    </g>
    <g id="ytick_6">
     <g id="line2d_33">
      <path d="M 108 126.648104 
L 777.6 126.648104 
" clip-path="url(#p43b2bac363)" style="fill: none; stroke-dasharray: 5.12,1.28,0.8,1.28; stroke-dashoffset: 0; stroke: #b0b0b0; stroke-width: 0.8"/>
     </g>
     <g id="line2d_34">
      <g>
       <use xlink:href="#mbf77c9eb5f" x="108" y="126.648104" style="fill: #a9a9a9; stroke: #a9a9a9; stroke-width: 0.8"/>
      </g>
     </g>
     <g id="text_17">
      <!-- 4000 -->
      <g style="fill: #a9a9a9" transform="translate(75.55 130.447322) scale(0.1 -0.1)">
       <use xlink:href="#DejaVuSans-34"/>
       <use xlink:href="#DejaVuSans-30" x="63.623047"/>
       <use xlink:href="#DejaVuSans-30" x="127.246094"/>
       <use xlink:href="#DejaVuSans-30" x="190.869141"/>
      </g>
     </g>
    </g>
    <g id="ytick_7">
     <g id="line2d_35">
      <path d="M 108 90.408664 
L 777.6 90.408664 
" clip-path="url(#p43b2bac363)" style="fill: none; stroke-dasharray: 5.12,1.28,0.8,1.28; stroke-dashoffset: 0; stroke: #b0b0b0; stroke-width: 0.8"/>
     </g>
     <g id="line2d_36">
      <g>
       <use xlink:href="#mbf77c9eb5f" x="108" y="90.408664" style="fill: #a9a9a9; stroke: #a9a9a9; stroke-width: 0.8"/>
      </g>
     </g>
     <g id="text_18">
      <!-- 4800 -->
      <g style="fill: #a9a9a9" transform="translate(75.55 94.207883) scale(0.1 -0.1)">
       <use xlink:href="#DejaVuSans-34"/>
       <use xlink:href="#DejaVuSans-38" x="63.623047"/>
       <use xlink:href="#DejaVuSans-30" x="127.246094"/>
       <use xlink:href="#DejaVuSans-30" x="190.869141"/>
      </g>
     </g>
    </g>
    <g id="ytick_8">
     <g id="line2d_37">
      <path d="M 108 54.169225 
L 777.6 54.169225 
" clip-path="url(#p43b2bac363)" style="fill: none; stroke-dasharray: 5.12,1.28,0.8,1.28; stroke-dashoffset: 0; stroke: #b0b0b0; stroke-width: 0.8"/>
     </g>
     <g id="line2d_38">
      <g>
       <use xlink:href="#mbf77c9eb5f" x="108" y="54.169225" style="fill: #a9a9a9; stroke: #a9a9a9; stroke-width: 0.8"/>
      </g>
     </g>
     <g id="text_19">
      <!-- 5600 -->
      <g style="fill: #a9a9a9" transform="translate(75.55 57.968444) scale(0.1 -0.1)">
       <defs>
        <path id="DejaVuSans-35" d="M 691 4666 
L 3169 4666 
L 3169 4134 
L 1269 4134 
L 1269 2991 
Q 1406 3038 1543 3061 
Q 1681 3084 1819 3084 
Q 2600 3084 3056 2656 
Q 3513 2228 3513 1497 
Q 3513 744 3044 326 
Q 2575 -91 1722 -91 
Q 1428 -91 1123 -41 
Q 819 9 494 109 
L 494 744 
Q 775 591 1075 516 
Q 1375 441 1709 441 
Q 2250 441 2565 725 
Q 2881 1009 2881 1497 
Q 2881 1984 2565 2268 
Q 2250 2553 1709 2553 
Q 1456 2553 1204 2497 
Q 953 2441 691 2322 
L 691 4666 
z
" transform="scale(0.015625)"/>
       </defs>
       <use xlink:href="#DejaVuSans-35"/>
       <use xlink:href="#DejaVuSans-36" x="63.623047"/>
       <use xlink:href="#DejaVuSans-30" x="127.246094"/>
       <use xlink:href="#DejaVuSans-30" x="190.869141"/>
      </g>
     </g>
    </g>
   </g>
   <g id="line2d_39">
    <path d="M 138.436364 307.709401 
L 142.384865 307.392306 
L 143.042948 307.120511 
L 145.017199 306.894014 
L 149.623784 306.033327 
L 152.914201 305.716232 
L 153.572285 305.399137 
L 154.230369 305.21794 
L 154.888452 304.402553 
L 155.546536 303.94956 
L 156.204619 302.545281 
L 156.862703 302.454683 
L 157.520786 301.95639 
L 158.836953 301.3222 
L 161.469287 299.329031 
L 162.785455 298.78544 
L 163.443538 298.332447 
L 166.075872 297.199964 
L 166.733956 296.15808 
L 168.050123 295.206795 
L 168.708206 294.8897 
L 175.289042 293.983714 
L 175.947125 293.666619 
L 180.55371 293.304224 
L 182.527961 292.805932 
L 188.450713 292.035844 
L 189.108796 291.67345 
L 189.76688 291.582851 
L 190.424963 291.311055 
L 191.74113 291.084559 
L 192.399214 291.039259 
L 193.057297 290.812763 
L 195.689631 290.405069 
L 197.005799 290.042675 
L 198.980049 289.861478 
L 200.296216 289.72558 
L 200.9543 289.544383 
L 201.612383 289.499083 
L 203.586634 288.910192 
L 207.535135 288.321301 
L 208.193219 288.140104 
L 208.851302 287.234118 
L 210.825553 286.509329 
L 212.799803 285.965738 
L 213.457887 285.648643 
L 214.115971 285.603344 
L 217.406388 284.697358 
L 218.722555 284.606759 
L 219.380639 284.51616 
L 221.354889 283.927269 
L 223.987224 283.293079 
L 224.645307 283.021283 
L 225.303391 282.930685 
L 225.961474 282.61359 
L 232.54231 281.617005 
L 235.832727 280.711019 
L 236.490811 280.303326 
L 239.123145 279.623836 
L 240.439312 278.853748 
L 241.097396 278.400755 
L 243.071646 278.038361 
L 247.020147 276.860579 
L 248.336314 276.452885 
L 248.994398 276.362287 
L 250.310565 275.999892 
L 251.626732 275.682797 
L 252.284816 275.592198 
L 253.600983 275.048607 
L 254.259066 274.912709 
L 254.91715 274.640913 
L 255.575233 274.550315 
L 256.233317 274.233219 
L 256.8914 274.052022 
L 258.207568 273.961424 
L 259.523735 273.508431 
L 260.839902 273.417832 
L 261.497985 273.100737 
L 264.130319 272.647744 
L 266.762654 272.421248 
L 267.420737 272.28535 
L 268.736904 271.651159 
L 275.975823 268.616106 
L 276.633907 268.253712 
L 277.29199 267.528923 
L 277.950074 266.44174 
L 278.608157 265.581053 
L 279.266241 265.399856 
L 279.924324 265.399856 
L 281.240491 264.448571 
L 281.898575 264.267374 
L 282.556658 263.904979 
L 283.214742 263.769081 
L 283.872826 263.180191 
L 284.530909 262.998993 
L 286.50516 262.047708 
L 287.163243 261.232321 
L 287.821327 260.235736 
L 288.47941 259.828042 
L 289.137494 258.740859 
L 289.795577 258.06137 
L 290.453661 257.744275 
L 291.111744 257.563077 
L 293.744079 256.022901 
L 295.060246 254.981017 
L 295.718329 254.573324 
L 296.376413 253.622038 
L 297.034496 252.127162 
L 297.69258 251.175876 
L 298.350663 250.677584 
L 299.008747 250.405788 
L 301.641081 248.140823 
L 302.299165 247.68783 
L 303.615332 246.555348 
L 304.273415 245.649362 
L 305.589582 244.516879 
L 308.221916 242.840805 
L 308.88 242.251914 
L 309.538084 242.116017 
L 311.512334 241.074133 
L 313.486585 240.077548 
L 314.802752 238.854467 
L 315.460835 238.084379 
L 316.777002 237.178393 
L 317.435086 236.997196 
L 318.09317 236.680101 
L 319.409337 235.819414 
L 320.06742 235.45702 
L 320.725504 235.366421 
L 322.041671 234.641632 
L 322.699754 234.279238 
L 323.357838 233.599748 
L 324.015921 233.192055 
L 324.674005 232.965558 
L 325.332088 232.512565 
L 327.964423 231.153586 
L 328.622506 230.564695 
L 331.25484 229.704009 
L 331.912924 229.251016 
L 332.571007 229.115118 
L 333.887174 228.662125 
L 335.861425 227.892037 
L 337.835676 227.167248 
L 339.151843 226.940751 
L 340.46801 225.808269 
L 341.784177 225.174079 
L 343.758428 224.041596 
L 345.074595 223.679202 
L 345.732678 223.271508 
L 346.390762 223.090311 
L 347.706929 222.229624 
L 348.365012 221.86723 
L 351.65543 221.097142 
L 353.629681 219.964659 
L 354.287764 219.874061 
L 354.945848 219.647564 
L 356.262015 219.375768 
L 358.236265 217.926191 
L 360.210516 217.473198 
L 360.8686 217.246701 
L 361.526683 216.748409 
L 365.475184 215.480029 
L 366.133268 215.434729 
L 370.739853 213.803955 
L 371.397936 213.48686 
L 373.372187 213.033867 
L 374.688354 212.716772 
L 375.346437 212.399676 
L 376.004521 212.263779 
L 377.978771 211.357793 
L 379.953022 210.406507 
L 380.611106 209.953514 
L 381.269189 209.772317 
L 383.24344 208.730433 
L 384.559607 208.413338 
L 385.875774 207.733849 
L 387.191941 207.371454 
L 387.850025 207.280856 
L 388.508108 206.827863 
L 389.166192 206.510768 
L 389.824275 206.37487 
L 391.140442 205.831278 
L 391.798526 205.69538 
L 392.456609 205.332986 
L 395.088943 204.925292 
L 396.405111 204.291102 
L 397.063194 203.74751 
L 397.721278 202.615028 
L 399.037445 202.343232 
L 399.695528 202.207334 
L 402.327862 200.848355 
L 402.985946 200.712457 
L 408.250614 198.220996 
L 410.224865 197.813302 
L 410.882948 197.450908 
L 414.83145 196.091929 
L 416.147617 195.276541 
L 416.8057 194.823548 
L 417.463784 194.506453 
L 418.121867 194.415855 
L 418.779951 194.189358 
L 419.438034 194.144059 
L 422.728452 193.283372 
L 423.386536 192.78508 
L 424.702703 192.332087 
L 426.676953 191.697897 
L 427.335037 191.290203 
L 427.99312 191.109006 
L 428.651204 190.656013 
L 429.309287 190.384217 
L 429.967371 189.976523 
L 430.625455 189.704728 
L 431.941622 189.387633 
L 433.915872 188.617544 
L 435.890123 187.122668 
L 436.548206 186.98677 
L 437.864373 185.990185 
L 438.522457 185.854287 
L 439.180541 184.857703 
L 439.838624 184.585907 
L 440.496708 184.087615 
L 441.154791 183.997016 
L 441.812875 183.544023 
L 442.470958 183.226928 
L 443.129042 183.09103 
L 443.787125 182.819234 
L 444.445209 182.320942 
L 445.103292 182.094445 
L 447.077543 180.780766 
L 449.709877 179.467086 
L 450.367961 179.376488 
L 451.684128 178.787597 
L 452.342211 178.425202 
L 453.000295 177.338019 
L 453.658378 176.749128 
L 454.316462 176.386734 
L 454.974545 176.250836 
L 456.290713 175.435448 
L 456.948796 175.299551 
L 458.264963 174.66536 
L 460.239214 173.849973 
L 461.555381 172.943987 
L 462.871548 171.585008 
L 464.187715 170.769621 
L 464.845799 170.361927 
L 465.503882 169.682438 
L 466.161966 169.229445 
L 467.478133 168.142261 
L 468.136216 167.870466 
L 468.7943 167.145677 
L 469.452383 166.647385 
L 470.76855 166.194392 
L 471.426634 165.6508 
L 472.742801 164.97131 
L 473.400885 164.790113 
L 474.058968 164.33712 
L 474.717052 164.201222 
L 476.691302 163.159338 
L 477.349386 162.706345 
L 478.665553 162.162754 
L 479.323636 162.026856 
L 479.98172 161.619162 
L 483.272138 160.577278 
L 483.930221 160.396081 
L 484.588305 160.078986 
L 485.246388 159.490095 
L 487.220639 158.765306 
L 488.536806 158.357613 
L 489.194889 157.859321 
L 491.827224 156.500342 
L 492.485307 156.137947 
L 493.801474 153.555887 
L 495.117641 152.015711 
L 495.775725 151.562718 
L 497.749975 150.702031 
L 498.408059 150.475535 
L 499.066143 150.384936 
L 499.724226 150.022542 
L 501.698477 149.433651 
L 504.330811 148.255869 
L 504.988894 147.848175 
L 506.305061 147.395182 
L 510.253563 145.130218 
L 510.911646 144.450728 
L 512.227813 143.725939 
L 512.885897 143.363545 
L 513.54398 143.137048 
L 514.202064 142.684055 
L 515.518231 142.049865 
L 517.492482 141.007981 
L 518.150565 140.826784 
L 518.808649 140.328492 
L 519.466732 140.056696 
L 520.124816 139.920798 
L 521.440983 139.467805 
L 523.415233 138.743016 
L 524.073317 138.244724 
L 525.389484 137.88233 
L 526.705651 137.384037 
L 527.363735 136.840446 
L 528.679902 136.432752 
L 529.337985 136.115657 
L 529.996069 135.93446 
L 531.312236 135.028474 
L 532.628403 134.439583 
L 533.94457 133.442998 
L 535.260737 132.990005 
L 535.918821 132.446414 
L 536.576904 132.355815 
L 537.893071 131.40453 
L 539.209238 130.77034 
L 539.867322 130.498544 
L 540.525405 129.819054 
L 544.473907 128.369477 
L 546.448157 127.50879 
L 548.422408 126.919899 
L 549.738575 126.738702 
L 550.396658 126.466906 
L 551.054742 126.376308 
L 552.370909 125.832716 
L 553.028993 125.787417 
L 555.661327 124.836132 
L 557.635577 123.477153 
L 561.584079 121.529283 
L 562.900246 120.713895 
L 563.558329 120.306202 
L 564.874496 119.989107 
L 566.190663 119.083121 
L 568.822998 118.267733 
L 569.481081 117.995937 
L 570.797248 117.678842 
L 574.087666 116.591659 
L 576.061916 116.229265 
L 576.72 116.048068 
L 577.378084 115.730972 
L 578.036167 115.640374 
L 579.352334 115.096782 
L 580.010418 115.006184 
L 580.668501 114.689089 
L 581.984668 114.417293 
L 582.642752 114.100198 
L 584.617002 113.647205 
L 585.93317 113.375409 
L 589.881671 112.65062 
L 591.197838 112.378824 
L 591.855921 112.242926 
L 592.514005 111.971131 
L 593.172088 111.925831 
L 595.146339 111.38224 
L 595.804423 111.019845 
L 599.09484 110.204458 
L 599.752924 110.06856 
L 601.069091 109.615567 
L 603.043342 108.936078 
L 603.701425 108.845479 
L 605.675676 108.16599 
L 606.333759 108.16599 
L 607.649926 107.712997 
L 608.30801 107.078806 
L 608.966093 106.761711 
L 610.28226 106.354018 
L 612.914595 105.357433 
L 613.572678 105.221535 
L 614.230762 104.813841 
L 614.888845 104.677944 
L 615.546929 104.27025 
L 618.837346 103.318965 
L 619.49543 102.911271 
L 620.153514 102.730074 
L 620.811597 102.186482 
L 622.785848 101.824088 
L 624.102015 101.099299 
L 624.760098 100.37451 
L 626.076265 100.102714 
L 630.68285 99.06083 
L 631.340934 98.879633 
L 632.657101 98.834334 
L 633.315184 98.517239 
L 635.947518 98.064246 
L 636.605602 97.747151 
L 638.579853 97.475355 
L 641.212187 96.659968 
L 643.186437 96.206975 
L 645.160688 95.708682 
L 647.793022 94.893295 
L 648.451106 94.757397 
L 649.109189 94.440302 
L 649.767273 94.349703 
L 650.425356 94.123207 
L 651.08344 93.715513 
L 653.05769 92.990724 
L 653.715774 92.492432 
L 655.031941 92.130038 
L 655.690025 91.858242 
L 657.006192 91.495848 
L 659.638526 90.318066 
L 661.612776 90.182168 
L 664.245111 89.366781 
L 664.903194 88.959087 
L 666.219361 88.551393 
L 668.193612 87.554809 
L 668.851695 87.418911 
L 669.509779 87.101816 
L 670.167862 87.011217 
L 677.406781 84.610354 
L 680.039115 83.976164 
L 680.697199 83.794967 
L 682.013366 83.160777 
L 682.67145 83.070178 
L 683.987617 82.707784 
L 684.6457 82.209491 
L 685.303784 81.892396 
L 685.961867 81.122308 
L 686.619951 80.624016 
L 687.936118 80.216322 
L 688.594201 79.672731 
L 695.83312 76.728276 
L 697.149287 76.411181 
L 698.465455 75.82229 
L 700.439705 74.644508 
L 701.097789 74.50861 
L 701.755872 74.010318 
L 703.072039 73.376128 
L 704.388206 72.560741 
L 706.362457 71.654755 
L 707.020541 71.201762 
L 708.336708 70.703469 
L 708.994791 70.250476 
L 710.310958 69.616286 
L 710.969042 69.163293 
L 712.285209 68.7103 
L 712.943292 68.574402 
L 715.575627 67.396621 
L 718.866044 66.264138 
L 719.524128 66.218839 
L 720.182211 66.037642 
L 720.840295 65.629948 
L 721.498378 65.539349 
L 722.156462 65.267553 
L 724.130713 64.85986 
L 727.42113 63.183786 
L 728.737297 62.458997 
L 729.395381 62.368398 
L 731.369631 61.281215 
L 733.343882 60.556426 
L 735.318133 59.69574 
L 737.950467 58.653856 
L 738.60855 58.472659 
L 739.266634 58.064965 
L 739.924717 58.019666 
L 740.582801 57.838468 
L 741.240885 57.385475 
L 741.898968 57.340176 
L 743.215135 56.932482 
L 744.531302 56.298292 
L 745.189386 56.207694 
L 745.847469 55.935898 
L 746.505553 55.8 
L 747.163636 55.8 
L 747.163636 55.8 
" clip-path="url(#p43b2bac363)" style="fill: none; stroke: #1f77b4; stroke-width: 1.5; stroke-linecap: square"/>
   </g>
   <g id="line2d_40">
    <path d="M 139.094447 307.8 
L 141.068698 307.709401 
L 143.042948 307.664102 
L 146.99145 307.573504 
L 150.281867 307.437606 
L 152.914201 307.437606 
L 153.572285 307.256408 
L 156.204619 307.16581 
L 158.17887 306.939313 
L 160.15312 306.758116 
L 164.101622 306.576919 
L 164.759705 306.576919 
L 165.417789 306.441021 
L 168.050123 306.350422 
L 169.36629 306.259824 
L 174.630958 306.169225 
L 177.921376 306.033327 
L 185.818378 305.942729 
L 189.108796 305.806831 
L 193.057297 305.716232 
L 195.689631 305.625634 
L 201.612383 305.535035 
L 203.586634 305.489736 
L 205.560885 305.444436 
L 207.535135 305.21794 
L 211.483636 305.172641 
L 212.799803 305.082042 
L 217.406388 304.991443 
L 224.645307 304.58375 
L 229.251892 304.493151 
L 230.568059 304.402553 
L 232.54231 304.311954 
L 236.490811 304.130757 
L 239.123145 304.085457 
L 241.097396 303.90426 
L 251.626732 303.27007 
L 254.259066 303.179472 
L 258.865651 302.952975 
L 260.839902 302.862376 
L 267.420737 302.499982 
L 274.659656 302.409383 
L 277.29199 302.137588 
L 278.608157 302.046989 
L 287.163243 301.3675 
L 291.111744 300.869207 
L 293.744079 300.778609 
L 299.008747 300.099119 
L 302.299165 300.008521 
L 310.854251 299.329031 
L 314.802752 298.876038 
L 316.777002 298.830739 
L 318.09317 298.74014 
L 320.725504 298.649542 
L 322.041671 298.558943 
L 325.332088 298.241848 
L 325.990172 298.060651 
L 329.938673 297.879454 
L 333.229091 297.788855 
L 341.784177 297.290563 
L 343.758428 297.199964 
L 352.313514 296.701672 
L 356.920098 296.611073 
L 357.578182 296.475175 
L 362.84285 296.384577 
L 367.449435 296.15808 
L 374.688354 296.067482 
L 379.294939 295.840985 
L 384.559607 295.750386 
L 389.824275 295.478591 
L 394.43086 295.387992 
L 406.934447 294.617904 
L 412.199115 294.527305 
L 429.309287 293.440122 
L 433.257789 293.349524 
L 435.232039 293.304224 
L 437.20629 293.258925 
L 439.180541 293.077728 
L 444.445209 292.987129 
L 445.761376 292.760633 
L 447.077543 292.670034 
L 450.367961 292.534136 
L 451.684128 292.443538 
L 453.000295 292.352939 
L 458.923047 292.26234 
L 460.239214 292.126443 
L 462.871548 292.081143 
L 463.529631 291.945245 
L 464.845799 291.854647 
L 465.503882 291.718749 
L 467.478133 291.62815 
L 478.665553 290.948661 
L 480.639803 290.858062 
L 483.930221 290.722164 
L 493.143391 290.631566 
L 497.749975 290.405069 
L 503.014644 290.314471 
L 505.646978 290.223872 
L 508.279312 290.178573 
L 509.595479 290.042675 
L 512.227813 289.952076 
L 518.808649 289.589682 
L 522.75715 289.544383 
L 524.7314 289.363185 
L 526.705651 289.317886 
L 531.312236 289.227287 
L 533.94457 289.136689 
L 539.867322 289.04609 
L 542.499656 288.955492 
L 546.448157 288.864893 
L 553.028993 288.502499 
L 555.003243 288.502499 
L 555.661327 288.366601 
L 556.977494 288.276002 
L 559.609828 288.185404 
L 567.50683 288.094805 
L 570.797248 287.958907 
L 581.984668 287.913608 
L 583.300835 287.823009 
L 585.275086 287.77771 
L 593.830172 287.687111 
L 595.146339 287.596513 
L 602.385258 287.505914 
L 605.017592 287.415315 
L 612.914595 287.370016 
L 614.230762 287.279418 
L 624.102015 287.234118 
L 626.076265 287.052921 
L 637.263686 286.962322 
L 639.237936 286.917023 
L 656.348108 286.826425 
L 658.980442 286.735826 
L 670.825946 286.645227 
L 673.45828 286.554629 
L 678.064865 286.46403 
L 683.329533 286.192234 
L 685.961867 286.101636 
L 688.594201 286.011037 
L 692.542703 285.920439 
L 694.516953 285.875139 
L 697.149287 285.784541 
L 699.123538 285.739241 
L 702.413956 285.648643 
L 703.730123 285.512745 
L 707.678624 285.422146 
L 714.917543 285.014453 
L 718.207961 284.923854 
L 720.840295 284.833255 
L 725.44688 284.742657 
L 728.079214 284.652058 
L 733.343882 284.56146 
L 735.318133 284.51616 
L 738.60855 284.425562 
L 742.557052 284.244365 
L 747.163636 284.199065 
L 747.163636 284.199065 
" clip-path="url(#p43b2bac363)" style="fill: none; stroke: #ff7f0e; stroke-width: 1.5; stroke-linecap: square"/>
   </g>
   <g id="patch_3">
    <path d="M 108 320.4 
L 108 43.2 
" style="fill: none; stroke: #a9a9a9; stroke-width: 0.8; stroke-linejoin: miter; stroke-linecap: square"/>
   </g>
   <g id="patch_4">
    <path d="M 777.6 320.4 
L 777.6 43.2 
" style="fill: none"/>
   </g>
   <g id="patch_5">
    <path d="M 108 320.4 
L 777.6 320.4 
" style="fill: none; stroke: #a9a9a9; stroke-width: 0.8; stroke-linejoin: miter; stroke-linecap: square"/>
   </g>
   <g id="patch_6">
    <path d="M 108 43.2 
L 777.6 43.2 
" style="fill: none"/>
   </g>
   <g id="text_20">
    <!-- get_subscribe history -->
    <g style="fill: #a9a9a9" transform="translate(378.6075 37.2) scale(0.12 -0.12)">
     <defs>
      <path id="DejaVuSans-67" d="M 2906 1791 
Q 2906 2416 2648 2759 
Q 2391 3103 1925 3103 
Q 1463 3103 1205 2759 
Q 947 2416 947 1791 
Q 947 1169 1205 825 
Q 1463 481 1925 481 
Q 2391 481 2648 825 
Q 2906 1169 2906 1791 
z
M 3481 434 
Q 3481 -459 3084 -895 
Q 2688 -1331 1869 -1331 
Q 1566 -1331 1297 -1286 
Q 1028 -1241 775 -1147 
L 775 -588 
Q 1028 -725 1275 -790 
Q 1522 -856 1778 -856 
Q 2344 -856 2625 -561 
Q 2906 -266 2906 331 
L 2906 616 
Q 2728 306 2450 153 
Q 2172 0 1784 0 
Q 1141 0 747 490 
Q 353 981 353 1791 
Q 353 2603 747 3093 
Q 1141 3584 1784 3584 
Q 2172 3584 2450 3431 
Q 2728 3278 2906 2969 
L 2906 3500 
L 3481 3500 
L 3481 434 
z
" transform="scale(0.015625)"/>
      <path id="DejaVuSans-65" d="M 3597 1894 
L 3597 1613 
L 953 1613 
Q 991 1019 1311 708 
Q 1631 397 2203 397 
Q 2534 397 2845 478 
Q 3156 559 3463 722 
L 3463 178 
Q 3153 47 2828 -22 
Q 2503 -91 2169 -91 
Q 1331 -91 842 396 
Q 353 884 353 1716 
Q 353 2575 817 3079 
Q 1281 3584 2069 3584 
Q 2775 3584 3186 3129 
Q 3597 2675 3597 1894 
z
M 3022 2063 
Q 3016 2534 2758 2815 
Q 2500 3097 2075 3097 
Q 1594 3097 1305 2825 
Q 1016 2553 972 2059 
L 3022 2063 
z
" transform="scale(0.015625)"/>
      <path id="DejaVuSans-74" d="M 1172 4494 
L 1172 3500 
L 2356 3500 
L 2356 3053 
L 1172 3053 
L 1172 1153 
Q 1172 725 1289 603 
Q 1406 481 1766 481 
L 2356 481 
L 2356 0 
L 1766 0 
Q 1100 0 847 248 
Q 594 497 594 1153 
L 594 3053 
L 172 3053 
L 172 3500 
L 594 3500 
L 594 4494 
L 1172 4494 
z
" transform="scale(0.015625)"/>
      <path id="DejaVuSans-5f" d="M 3263 -1063 
L 3263 -1509 
L -63 -1509 
L -63 -1063 
L 3263 -1063 
z
" transform="scale(0.015625)"/>
      <path id="DejaVuSans-73" d="M 2834 3397 
L 2834 2853 
Q 2591 2978 2328 3040 
Q 2066 3103 1784 3103 
Q 1356 3103 1142 2972 
Q 928 2841 928 2578 
Q 928 2378 1081 2264 
Q 1234 2150 1697 2047 
L 1894 2003 
Q 2506 1872 2764 1633 
Q 3022 1394 3022 966 
Q 3022 478 2636 193 
Q 2250 -91 1575 -91 
Q 1294 -91 989 -36 
Q 684 19 347 128 
L 347 722 
Q 666 556 975 473 
Q 1284 391 1588 391 
Q 1994 391 2212 530 
Q 2431 669 2431 922 
Q 2431 1156 2273 1281 
Q 2116 1406 1581 1522 
L 1381 1569 
Q 847 1681 609 1914 
Q 372 2147 372 2553 
Q 372 3047 722 3315 
Q 1072 3584 1716 3584 
Q 2034 3584 2315 3537 
Q 2597 3491 2834 3397 
z
" transform="scale(0.015625)"/>
      <path id="DejaVuSans-75" d="M 544 1381 
L 544 3500 
L 1119 3500 
L 1119 1403 
Q 1119 906 1312 657 
Q 1506 409 1894 409 
Q 2359 409 2629 706 
Q 2900 1003 2900 1516 
L 2900 3500 
L 3475 3500 
L 3475 0 
L 2900 0 
L 2900 538 
Q 2691 219 2414 64 
Q 2138 -91 1772 -91 
Q 1169 -91 856 284 
Q 544 659 544 1381 
z
M 1991 3584 
L 1991 3584 
z
" transform="scale(0.015625)"/>
      <path id="DejaVuSans-62" d="M 3116 1747 
Q 3116 2381 2855 2742 
Q 2594 3103 2138 3103 
Q 1681 3103 1420 2742 
Q 1159 2381 1159 1747 
Q 1159 1113 1420 752 
Q 1681 391 2138 391 
Q 2594 391 2855 752 
Q 3116 1113 3116 1747 
z
M 1159 2969 
Q 1341 3281 1617 3432 
Q 1894 3584 2278 3584 
Q 2916 3584 3314 3078 
Q 3713 2572 3713 1747 
Q 3713 922 3314 415 
Q 2916 -91 2278 -91 
Q 1894 -91 1617 61 
Q 1341 213 1159 525 
L 1159 0 
L 581 0 
L 581 4863 
L 1159 4863 
L 1159 2969 
z
" transform="scale(0.015625)"/>
      <path id="DejaVuSans-63" d="M 3122 3366 
L 3122 2828 
Q 2878 2963 2633 3030 
Q 2388 3097 2138 3097 
Q 1578 3097 1268 2742 
Q 959 2388 959 1747 
Q 959 1106 1268 751 
Q 1578 397 2138 397 
Q 2388 397 2633 464 
Q 2878 531 3122 666 
L 3122 134 
Q 2881 22 2623 -34 
Q 2366 -91 2075 -91 
Q 1284 -91 818 406 
Q 353 903 353 1747 
Q 353 2603 823 3093 
Q 1294 3584 2113 3584 
Q 2378 3584 2631 3529 
Q 2884 3475 3122 3366 
z
" transform="scale(0.015625)"/>
      <path id="DejaVuSans-72" d="M 2631 2963 
Q 2534 3019 2420 3045 
Q 2306 3072 2169 3072 
Q 1681 3072 1420 2755 
Q 1159 2438 1159 1844 
L 1159 0 
L 581 0 
L 581 3500 
L 1159 3500 
L 1159 2956 
Q 1341 3275 1631 3429 
Q 1922 3584 2338 3584 
Q 2397 3584 2469 3576 
Q 2541 3569 2628 3553 
L 2631 2963 
z
" transform="scale(0.015625)"/>
      <path id="DejaVuSans-69" d="M 603 3500 
L 1178 3500 
L 1178 0 
L 603 0 
L 603 3500 
z
M 603 4863 
L 1178 4863 
L 1178 4134 
L 603 4134 
L 603 4863 
z
" transform="scale(0.015625)"/>
      <path id="DejaVuSans-20" transform="scale(0.015625)"/>
      <path id="DejaVuSans-68" d="M 3513 2113 
L 3513 0 
L 2938 0 
L 2938 2094 
Q 2938 2591 2744 2837 
Q 2550 3084 2163 3084 
Q 1697 3084 1428 2787 
Q 1159 2491 1159 1978 
L 1159 0 
L 581 0 
L 581 4863 
L 1159 4863 
L 1159 2956 
Q 1366 3272 1645 3428 
Q 1925 3584 2291 3584 
Q 2894 3584 3203 3211 
Q 3513 2838 3513 2113 
z
" transform="scale(0.015625)"/>
      <path id="DejaVuSans-6f" d="M 1959 3097 
Q 1497 3097 1228 2736 
Q 959 2375 959 1747 
Q 959 1119 1226 758 
Q 1494 397 1959 397 
Q 2419 397 2687 759 
Q 2956 1122 2956 1747 
Q 2956 2369 2687 2733 
Q 2419 3097 1959 3097 
z
M 1959 3584 
Q 2709 3584 3137 3096 
Q 3566 2609 3566 1747 
Q 3566 888 3137 398 
Q 2709 -91 1959 -91 
Q 1206 -91 779 398 
Q 353 888 353 1747 
Q 353 2609 779 3096 
Q 1206 3584 1959 3584 
z
" transform="scale(0.015625)"/>
      <path id="DejaVuSans-79" d="M 2059 -325 
Q 1816 -950 1584 -1140 
Q 1353 -1331 966 -1331 
L 506 -1331 
L 506 -850 
L 844 -850 
Q 1081 -850 1212 -737 
Q 1344 -625 1503 -206 
L 1606 56 
L 191 3500 
L 800 3500 
L 1894 763 
L 2988 3500 
L 3597 3500 
L 2059 -325 
z
" transform="scale(0.015625)"/>
     </defs>
     <use xlink:href="#DejaVuSans-67"/>
     <use xlink:href="#DejaVuSans-65" x="63.476562"/>
     <use xlink:href="#DejaVuSans-74" x="125"/>
     <use xlink:href="#DejaVuSans-5f" x="164.208984"/>
     <use xlink:href="#DejaVuSans-73" x="214.208984"/>
     <use xlink:href="#DejaVuSans-75" x="266.308594"/>
     <use xlink:href="#DejaVuSans-62" x="329.6875"/>
     <use xlink:href="#DejaVuSans-73" x="393.164062"/>
     <use xlink:href="#DejaVuSans-63" x="445.263672"/>
     <use xlink:href="#DejaVuSans-72" x="500.244141"/>
     <use xlink:href="#DejaVuSans-69" x="541.357422"/>
     <use xlink:href="#DejaVuSans-62" x="569.140625"/>
     <use xlink:href="#DejaVuSans-65" x="632.617188"/>
     <use xlink:href="#DejaVuSans-20" x="694.140625"/>
     <use xlink:href="#DejaVuSans-68" x="725.927734"/>
     <use xlink:href="#DejaVuSans-69" x="789.306641"/>
     <use xlink:href="#DejaVuSans-73" x="817.089844"/>
     <use xlink:href="#DejaVuSans-74" x="869.189453"/>
     <use xlink:href="#DejaVuSans-6f" x="908.398438"/>
     <use xlink:href="#DejaVuSans-72" x="969.580078"/>
     <use xlink:href="#DejaVuSans-79" x="1010.693359"/>
    </g>
   </g>
   <g id="legend_1">
    <g id="line2d_41">
     <path d="M 815.08 328.498438 
L 825.08 328.498438 
L 835.08 328.498438 
" style="fill: none; stroke: #1f77b4; stroke-width: 1.5; stroke-linecap: square"/>
    </g>
    <g id="text_21">
     <!-- star -->
     <g style="fill: #a9a9a9" transform="translate(843.08 331.998438) scale(0.1 -0.1)">
      <defs>
       <path id="DejaVuSans-61" d="M 2194 1759 
Q 1497 1759 1228 1600 
Q 959 1441 959 1056 
Q 959 750 1161 570 
Q 1363 391 1709 391 
Q 2188 391 2477 730 
Q 2766 1069 2766 1631 
L 2766 1759 
L 2194 1759 
z
M 3341 1997 
L 3341 0 
L 2766 0 
L 2766 531 
Q 2569 213 2275 61 
Q 1981 -91 1556 -91 
Q 1019 -91 701 211 
Q 384 513 384 1019 
Q 384 1609 779 1909 
Q 1175 2209 1959 2209 
L 2766 2209 
L 2766 2266 
Q 2766 2663 2505 2880 
Q 2244 3097 1772 3097 
Q 1472 3097 1187 3025 
Q 903 2953 641 2809 
L 641 3341 
Q 956 3463 1253 3523 
Q 1550 3584 1831 3584 
Q 2591 3584 2966 3190 
Q 3341 2797 3341 1997 
z
" transform="scale(0.015625)"/>
      </defs>
      <use xlink:href="#DejaVuSans-73"/>
      <use xlink:href="#DejaVuSans-74" x="52.099609"/>
      <use xlink:href="#DejaVuSans-61" x="91.308594"/>
      <use xlink:href="#DejaVuSans-72" x="152.587891"/>
     </g>
    </g>
    <g id="line2d_42">
     <path d="M 815.08 343.176562 
L 825.08 343.176562 
L 835.08 343.176562 
" style="fill: none; stroke: #ff7f0e; stroke-width: 1.5; stroke-linecap: square"/>
    </g>
    <g id="text_22">
     <!-- fork -->
     <g style="fill: #a9a9a9" transform="translate(843.08 346.676562) scale(0.1 -0.1)">
      <defs>
       <path id="DejaVuSans-66" d="M 2375 4863 
L 2375 4384 
L 1825 4384 
Q 1516 4384 1395 4259 
Q 1275 4134 1275 3809 
L 1275 3500 
L 2222 3500 
L 2222 3053 
L 1275 3053 
L 1275 0 
L 697 0 
L 697 3053 
L 147 3053 
L 147 3500 
L 697 3500 
L 697 3744 
Q 697 4328 969 4595 
Q 1241 4863 1831 4863 
L 2375 4863 
z
" transform="scale(0.015625)"/>
       <path id="DejaVuSans-6b" d="M 581 4863 
L 1159 4863 
L 1159 1991 
L 2875 3500 
L 3609 3500 
L 1753 1863 
L 3688 0 
L 2938 0 
L 1159 1709 
L 1159 0 
L 581 0 
L 581 4863 
z
" transform="scale(0.015625)"/>
      </defs>
      <use xlink:href="#DejaVuSans-66"/>
      <use xlink:href="#DejaVuSans-6f" x="35.205078"/>
      <use xlink:href="#DejaVuSans-72" x="96.386719"/>
      <use xlink:href="#DejaVuSans-6b" x="137.5"/>
     </g>
    </g>
   </g>
  </g>
 </g>
 <defs>
  <clipPath id="p43b2bac363">
   <rect x="108" y="43.2" width="669.6" height="277.2"/>
  </clipPath>
 </defs>
</svg>
