<?xml version="1.0" encoding="utf-8" standalone="no"?>
<!DOCTYPE svg PUBLIC "-//W3C//DTD SVG 1.1//EN"
  "http://www.w3.org/Graphics/SVG/1.1/DTD/svg11.dtd">
<svg xmlns:xlink="http://www.w3.org/1999/xlink" width="864pt" height="360pt" viewBox="0 0 864 360" xmlns="http://www.w3.org/2000/svg" version="1.1">
 <metadata>
  <rdf:RDF xmlns:dc="http://purl.org/dc/elements/1.1/" xmlns:cc="http://creativecommons.org/ns#" xmlns:rdf="http://www.w3.org/1999/02/22-rdf-syntax-ns#">
   <cc:Work>
    <dc:type rdf:resource="http://purl.org/dc/dcmitype/StillImage"/>
    <dc:date>2024-02-03T20:05:08.774220</dc:date>
    <dc:format>image/svg+xml</dc:format>
    <dc:creator>
     <cc:Agent>
      <dc:title>Matplotlib v3.8.2, https://matplotlib.org/</dc:title>
     </cc:Agent>
    </dc:creator>
   </cc:Work>
  </rdf:RDF>
 </metadata>
 <defs>
  <style type="text/css">*{stroke-linejoin: round; stroke-linecap: butt}</style>
 </defs>
 <g id="figure_1">
  <g id="patch_1">
   <path d="M 0 360 
L 864 360 
L 864 0 
L 0 0 
L 0 360 
z
" style="fill: none; opacity: 0"/>
  </g>
  <g id="axes_1">
   <g id="patch_2">
    <path d="M 108 320.4 
L 777.6 320.4 
L 777.6 43.2 
L 108 43.2 
L 108 320.4 
z
" style="fill: none; opacity: 0"/>
   </g>
   <g id="matplotlib.axis_1">
    <g id="xtick_1">
     <g id="line2d_1">
      <path d="M 123.284061 320.4 
L 123.284061 43.2 
" clip-path="url(#pdee95a4e5d)" style="fill: none; stroke-dasharray: 5.12,1.28,0.8,1.28; stroke-dashoffset: 0; stroke: #b0b0b0; stroke-width: 0.8"/>
     </g>
     <g id="line2d_2">
      <defs>
       <path id="mceee53b548" d="M 0 0 
L 0 3.5 
" style="stroke: #a9a9a9; stroke-width: 0.8"/>
      </defs>
      <g>
       <use xlink:href="#mceee53b548" x="123.284061" y="320.4" style="fill: #a9a9a9; stroke: #a9a9a9; stroke-width: 0.8"/>
      </g>
     </g>
     <g id="text_1">
      <!-- 2021-07 -->
      <g style="fill: #a9a9a9" transform="translate(102.392655 334.998438) scale(0.1 -0.1)">
       <defs>
        <path id="DejaVuSans-32" d="M 1228 531 
L 3431 531 
L 3431 0 
L 469 0 
L 469 531 
Q 828 903 1448 1529 
Q 2069 2156 2228 2338 
Q 2531 2678 2651 2914 
Q 2772 3150 2772 3378 
Q 2772 3750 2511 3984 
Q 2250 4219 1831 4219 
Q 1534 4219 1204 4116 
Q 875 4013 500 3803 
L 500 4441 
Q 881 4594 1212 4672 
Q 1544 4750 1819 4750 
Q 2544 4750 2975 4387 
Q 3406 4025 3406 3419 
Q 3406 3131 3298 2873 
Q 3191 2616 2906 2266 
Q 2828 2175 2409 1742 
Q 1991 1309 1228 531 
z
" transform="scale(0.015625)"/>
        <path id="DejaVuSans-30" d="M 2034 4250 
Q 1547 4250 1301 3770 
Q 1056 3291 1056 2328 
Q 1056 1369 1301 889 
Q 1547 409 2034 409 
Q 2525 409 2770 889 
Q 3016 1369 3016 2328 
Q 3016 3291 2770 3770 
Q 2525 4250 2034 4250 
z
M 2034 4750 
Q 2819 4750 3233 4129 
Q 3647 3509 3647 2328 
Q 3647 1150 3233 529 
Q 2819 -91 2034 -91 
Q 1250 -91 836 529 
Q 422 1150 422 2328 
Q 422 3509 836 4129 
Q 1250 4750 2034 4750 
z
" transform="scale(0.015625)"/>
        <path id="DejaVuSans-31" d="M 794 531 
L 1825 531 
L 1825 4091 
L 703 3866 
L 703 4441 
L 1819 4666 
L 2450 4666 
L 2450 531 
L 3481 531 
L 3481 0 
L 794 0 
L 794 531 
z
" transform="scale(0.015625)"/>
        <path id="DejaVuSans-2d" d="M 313 2009 
L 1997 2009 
L 1997 1497 
L 313 1497 
L 313 2009 
z
" transform="scale(0.015625)"/>
        <path id="DejaVuSans-37" d="M 525 4666 
L 3525 4666 
L 3525 4397 
L 1831 0 
L 1172 0 
L 2766 4134 
L 525 4134 
L 525 4666 
z
" transform="scale(0.015625)"/>
       </defs>
       <use xlink:href="#DejaVuSans-32"/>
       <use xlink:href="#DejaVuSans-30" x="63.623047"/>
       <use xlink:href="#DejaVuSans-32" x="127.246094"/>
       <use xlink:href="#DejaVuSans-31" x="190.869141"/>
       <use xlink:href="#DejaVuSans-2d" x="254.492188"/>
       <use xlink:href="#DejaVuSans-30" x="290.576172"/>
       <use xlink:href="#DejaVuSans-37" x="354.199219"/>
      </g>
     </g>
    </g>
    <g id="xtick_2">
     <g id="line2d_3">
      <path d="M 183.89327 320.4 
L 183.89327 43.2 
" clip-path="url(#pdee95a4e5d)" style="fill: none; stroke-dasharray: 5.12,1.28,0.8,1.28; stroke-dashoffset: 0; stroke: #b0b0b0; stroke-width: 0.8"/>
     </g>
     <g id="line2d_4">
      <g>
       <use xlink:href="#mceee53b548" x="183.89327" y="320.4" style="fill: #a9a9a9; stroke: #a9a9a9; stroke-width: 0.8"/>
      </g>
     </g>
     <g id="text_2">
      <!-- 2021-10 -->
      <g style="fill: #a9a9a9" transform="translate(163.001864 334.998438) scale(0.1 -0.1)">
       <use xlink:href="#DejaVuSans-32"/>
       <use xlink:href="#DejaVuSans-30" x="63.623047"/>
       <use xlink:href="#DejaVuSans-32" x="127.246094"/>
       <use xlink:href="#DejaVuSans-31" x="190.869141"/>
       <use xlink:href="#DejaVuSans-2d" x="254.492188"/>
       <use xlink:href="#DejaVuSans-31" x="290.576172"/>
       <use xlink:href="#DejaVuSans-30" x="354.199219"/>
      </g>
     </g>
    </g>
    <g id="xtick_3">
     <g id="line2d_5">
      <path d="M 244.502479 320.4 
L 244.502479 43.2 
" clip-path="url(#pdee95a4e5d)" style="fill: none; stroke-dasharray: 5.12,1.28,0.8,1.28; stroke-dashoffset: 0; stroke: #b0b0b0; stroke-width: 0.8"/>
     </g>
     <g id="line2d_6">
      <g>
       <use xlink:href="#mceee53b548" x="244.502479" y="320.4" style="fill: #a9a9a9; stroke: #a9a9a9; stroke-width: 0.8"/>
      </g>
     </g>
     <g id="text_3">
      <!-- 2022-01 -->
      <g style="fill: #a9a9a9" transform="translate(223.611073 334.998438) scale(0.1 -0.1)">
       <use xlink:href="#DejaVuSans-32"/>
       <use xlink:href="#DejaVuSans-30" x="63.623047"/>
       <use xlink:href="#DejaVuSans-32" x="127.246094"/>
       <use xlink:href="#DejaVuSans-32" x="190.869141"/>
       <use xlink:href="#DejaVuSans-2d" x="254.492188"/>
       <use xlink:href="#DejaVuSans-30" x="290.576172"/>
       <use xlink:href="#DejaVuSans-31" x="354.199219"/>
      </g>
     </g>
    </g>
    <g id="xtick_4">
     <g id="line2d_7">
      <path d="M 303.794097 320.4 
L 303.794097 43.2 
" clip-path="url(#pdee95a4e5d)" style="fill: none; stroke-dasharray: 5.12,1.28,0.8,1.28; stroke-dashoffset: 0; stroke: #b0b0b0; stroke-width: 0.8"/>
     </g>
     <g id="line2d_8">
      <g>
       <use xlink:href="#mceee53b548" x="303.794097" y="320.4" style="fill: #a9a9a9; stroke: #a9a9a9; stroke-width: 0.8"/>
      </g>
     </g>
     <g id="text_4">
      <!-- 2022-04 -->
      <g style="fill: #a9a9a9" transform="translate(282.902691 334.998438) scale(0.1 -0.1)">
       <defs>
        <path id="DejaVuSans-34" d="M 2419 4116 
L 825 1625 
L 2419 1625 
L 2419 4116 
z
M 2253 4666 
L 3047 4666 
L 3047 1625 
L 3713 1625 
L 3713 1100 
L 3047 1100 
L 3047 0 
L 2419 0 
L 2419 1100 
L 313 1100 
L 313 1709 
L 2253 4666 
z
" transform="scale(0.015625)"/>
       </defs>
       <use xlink:href="#DejaVuSans-32"/>
       <use xlink:href="#DejaVuSans-30" x="63.623047"/>
       <use xlink:href="#DejaVuSans-32" x="127.246094"/>
       <use xlink:href="#DejaVuSans-32" x="190.869141"/>
       <use xlink:href="#DejaVuSans-2d" x="254.492188"/>
       <use xlink:href="#DejaVuSans-30" x="290.576172"/>
       <use xlink:href="#DejaVuSans-34" x="354.199219"/>
      </g>
     </g>
    </g>
    <g id="xtick_5">
     <g id="line2d_9">
      <path d="M 363.74451 320.4 
L 363.74451 43.2 
" clip-path="url(#pdee95a4e5d)" style="fill: none; stroke-dasharray: 5.12,1.28,0.8,1.28; stroke-dashoffset: 0; stroke: #b0b0b0; stroke-width: 0.8"/>
     </g>
     <g id="line2d_10">
      <g>
       <use xlink:href="#mceee53b548" x="363.74451" y="320.4" style="fill: #a9a9a9; stroke: #a9a9a9; stroke-width: 0.8"/>
      </g>
     </g>
     <g id="text_5">
      <!-- 2022-07 -->
      <g style="fill: #a9a9a9" transform="translate(342.853104 334.998438) scale(0.1 -0.1)">
       <use xlink:href="#DejaVuSans-32"/>
       <use xlink:href="#DejaVuSans-30" x="63.623047"/>
       <use xlink:href="#DejaVuSans-32" x="127.246094"/>
       <use xlink:href="#DejaVuSans-32" x="190.869141"/>
       <use xlink:href="#DejaVuSans-2d" x="254.492188"/>
       <use xlink:href="#DejaVuSans-30" x="290.576172"/>
       <use xlink:href="#DejaVuSans-37" x="354.199219"/>
      </g>
     </g>
    </g>
    <g id="xtick_6">
     <g id="line2d_11">
      <path d="M 424.353719 320.4 
L 424.353719 43.2 
" clip-path="url(#pdee95a4e5d)" style="fill: none; stroke-dasharray: 5.12,1.28,0.8,1.28; stroke-dashoffset: 0; stroke: #b0b0b0; stroke-width: 0.8"/>
     </g>
     <g id="line2d_12">
      <g>
       <use xlink:href="#mceee53b548" x="424.353719" y="320.4" style="fill: #a9a9a9; stroke: #a9a9a9; stroke-width: 0.8"/>
      </g>
     </g>
     <g id="text_6">
      <!-- 2022-10 -->
      <g style="fill: #a9a9a9" transform="translate(403.462313 334.998438) scale(0.1 -0.1)">
       <use xlink:href="#DejaVuSans-32"/>
       <use xlink:href="#DejaVuSans-30" x="63.623047"/>
       <use xlink:href="#DejaVuSans-32" x="127.246094"/>
       <use xlink:href="#DejaVuSans-32" x="190.869141"/>
       <use xlink:href="#DejaVuSans-2d" x="254.492188"/>
       <use xlink:href="#DejaVuSans-31" x="290.576172"/>
       <use xlink:href="#DejaVuSans-30" x="354.199219"/>
      </g>
     </g>
    </g>
    <g id="xtick_7">
     <g id="line2d_13">
      <path d="M 484.962928 320.4 
L 484.962928 43.2 
" clip-path="url(#pdee95a4e5d)" style="fill: none; stroke-dasharray: 5.12,1.28,0.8,1.28; stroke-dashoffset: 0; stroke: #b0b0b0; stroke-width: 0.8"/>
     </g>
     <g id="line2d_14">
      <g>
       <use xlink:href="#mceee53b548" x="484.962928" y="320.4" style="fill: #a9a9a9; stroke: #a9a9a9; stroke-width: 0.8"/>
      </g>
     </g>
     <g id="text_7">
      <!-- 2023-01 -->
      <g style="fill: #a9a9a9" transform="translate(464.071522 334.998438) scale(0.1 -0.1)">
       <defs>
        <path id="DejaVuSans-33" d="M 2597 2516 
Q 3050 2419 3304 2112 
Q 3559 1806 3559 1356 
Q 3559 666 3084 287 
Q 2609 -91 1734 -91 
Q 1441 -91 1130 -33 
Q 819 25 488 141 
L 488 750 
Q 750 597 1062 519 
Q 1375 441 1716 441 
Q 2309 441 2620 675 
Q 2931 909 2931 1356 
Q 2931 1769 2642 2001 
Q 2353 2234 1838 2234 
L 1294 2234 
L 1294 2753 
L 1863 2753 
Q 2328 2753 2575 2939 
Q 2822 3125 2822 3475 
Q 2822 3834 2567 4026 
Q 2313 4219 1838 4219 
Q 1578 4219 1281 4162 
Q 984 4106 628 3988 
L 628 4550 
Q 988 4650 1302 4700 
Q 1616 4750 1894 4750 
Q 2613 4750 3031 4423 
Q 3450 4097 3450 3541 
Q 3450 3153 3228 2886 
Q 3006 2619 2597 2516 
z
" transform="scale(0.015625)"/>
       </defs>
       <use xlink:href="#DejaVuSans-32"/>
       <use xlink:href="#DejaVuSans-30" x="63.623047"/>
       <use xlink:href="#DejaVuSans-32" x="127.246094"/>
       <use xlink:href="#DejaVuSans-33" x="190.869141"/>
       <use xlink:href="#DejaVuSans-2d" x="254.492188"/>
       <use xlink:href="#DejaVuSans-30" x="290.576172"/>
       <use xlink:href="#DejaVuSans-31" x="354.199219"/>
      </g>
     </g>
    </g>
    <g id="xtick_8">
     <g id="line2d_15">
      <path d="M 544.254545 320.4 
L 544.254545 43.2 
" clip-path="url(#pdee95a4e5d)" style="fill: none; stroke-dasharray: 5.12,1.28,0.8,1.28; stroke-dashoffset: 0; stroke: #b0b0b0; stroke-width: 0.8"/>
     </g>
     <g id="line2d_16">
      <g>
       <use xlink:href="#mceee53b548" x="544.254545" y="320.4" style="fill: #a9a9a9; stroke: #a9a9a9; stroke-width: 0.8"/>
      </g>
     </g>
     <g id="text_8">
      <!-- 2023-04 -->
      <g style="fill: #a9a9a9" transform="translate(523.363139 334.998438) scale(0.1 -0.1)">
       <use xlink:href="#DejaVuSans-32"/>
       <use xlink:href="#DejaVuSans-30" x="63.623047"/>
       <use xlink:href="#DejaVuSans-32" x="127.246094"/>
       <use xlink:href="#DejaVuSans-33" x="190.869141"/>
       <use xlink:href="#DejaVuSans-2d" x="254.492188"/>
       <use xlink:href="#DejaVuSans-30" x="290.576172"/>
       <use xlink:href="#DejaVuSans-34" x="354.199219"/>
      </g>
     </g>
    </g>
    <g id="xtick_9">
     <g id="line2d_17">
      <path d="M 604.204959 320.4 
L 604.204959 43.2 
" clip-path="url(#pdee95a4e5d)" style="fill: none; stroke-dasharray: 5.12,1.28,0.8,1.28; stroke-dashoffset: 0; stroke: #b0b0b0; stroke-width: 0.8"/>
     </g>
     <g id="line2d_18">
      <g>
       <use xlink:href="#mceee53b548" x="604.204959" y="320.4" style="fill: #a9a9a9; stroke: #a9a9a9; stroke-width: 0.8"/>
      </g>
     </g>
     <g id="text_9">
      <!-- 2023-07 -->
      <g style="fill: #a9a9a9" transform="translate(583.313552 334.998438) scale(0.1 -0.1)">
       <use xlink:href="#DejaVuSans-32"/>
       <use xlink:href="#DejaVuSans-30" x="63.623047"/>
       <use xlink:href="#DejaVuSans-32" x="127.246094"/>
       <use xlink:href="#DejaVuSans-33" x="190.869141"/>
       <use xlink:href="#DejaVuSans-2d" x="254.492188"/>
       <use xlink:href="#DejaVuSans-30" x="290.576172"/>
       <use xlink:href="#DejaVuSans-37" x="354.199219"/>
      </g>
     </g>
    </g>
    <g id="xtick_10">
     <g id="line2d_19">
      <path d="M 664.814168 320.4 
L 664.814168 43.2 
" clip-path="url(#pdee95a4e5d)" style="fill: none; stroke-dasharray: 5.12,1.28,0.8,1.28; stroke-dashoffset: 0; stroke: #b0b0b0; stroke-width: 0.8"/>
     </g>
     <g id="line2d_20">
      <g>
       <use xlink:href="#mceee53b548" x="664.814168" y="320.4" style="fill: #a9a9a9; stroke: #a9a9a9; stroke-width: 0.8"/>
      </g>
     </g>
     <g id="text_10">
      <!-- 2023-10 -->
      <g style="fill: #a9a9a9" transform="translate(643.922761 334.998438) scale(0.1 -0.1)">
       <use xlink:href="#DejaVuSans-32"/>
       <use xlink:href="#DejaVuSans-30" x="63.623047"/>
       <use xlink:href="#DejaVuSans-32" x="127.246094"/>
       <use xlink:href="#DejaVuSans-33" x="190.869141"/>
       <use xlink:href="#DejaVuSans-2d" x="254.492188"/>
       <use xlink:href="#DejaVuSans-31" x="290.576172"/>
       <use xlink:href="#DejaVuSans-30" x="354.199219"/>
      </g>
     </g>
    </g>
    <g id="xtick_11">
     <g id="line2d_21">
      <path d="M 725.423377 320.4 
L 725.423377 43.2 
" clip-path="url(#pdee95a4e5d)" style="fill: none; stroke-dasharray: 5.12,1.28,0.8,1.28; stroke-dashoffset: 0; stroke: #b0b0b0; stroke-width: 0.8"/>
     </g>
     <g id="line2d_22">
      <g>
       <use xlink:href="#mceee53b548" x="725.423377" y="320.4" style="fill: #a9a9a9; stroke: #a9a9a9; stroke-width: 0.8"/>
      </g>
     </g>
     <g id="text_11">
      <!-- 2024-01 -->
      <g style="fill: #a9a9a9" transform="translate(704.53197 334.998438) scale(0.1 -0.1)">
       <use xlink:href="#DejaVuSans-32"/>
       <use xlink:href="#DejaVuSans-30" x="63.623047"/>
       <use xlink:href="#DejaVuSans-32" x="127.246094"/>
       <use xlink:href="#DejaVuSans-34" x="190.869141"/>
       <use xlink:href="#DejaVuSans-2d" x="254.492188"/>
       <use xlink:href="#DejaVuSans-30" x="290.576172"/>
       <use xlink:href="#DejaVuSans-31" x="354.199219"/>
      </g>
     </g>
    </g>
   </g>
   <g id="matplotlib.axis_2">
    <g id="ytick_1">
     <g id="line2d_23">
      <path d="M 108 307.845307 
L 777.6 307.845307 
" clip-path="url(#pdee95a4e5d)" style="fill: none; stroke-dasharray: 5.12,1.28,0.8,1.28; stroke-dashoffset: 0; stroke: #b0b0b0; stroke-width: 0.8"/>
     </g>
     <g id="line2d_24">
      <defs>
       <path id="m8d86e292b8" d="M 0 0 
L -3.5 0 
" style="stroke: #a9a9a9; stroke-width: 0.8"/>
      </defs>
      <g>
       <use xlink:href="#m8d86e292b8" x="108" y="307.845307" style="fill: #a9a9a9; stroke: #a9a9a9; stroke-width: 0.8"/>
      </g>
     </g>
     <g id="text_12">
      <!-- 0 -->
      <g style="fill: #a9a9a9" transform="translate(94.6375 311.644526) scale(0.1 -0.1)">
       <use xlink:href="#DejaVuSans-30"/>
      </g>
     </g>
    </g>
    <g id="ytick_2">
     <g id="line2d_25">
      <path d="M 108 271.599353 
L 777.6 271.599353 
" clip-path="url(#pdee95a4e5d)" style="fill: none; stroke-dasharray: 5.12,1.28,0.8,1.28; stroke-dashoffset: 0; stroke: #b0b0b0; stroke-width: 0.8"/>
     </g>
     <g id="line2d_26">
      <g>
       <use xlink:href="#m8d86e292b8" x="108" y="271.599353" style="fill: #a9a9a9; stroke: #a9a9a9; stroke-width: 0.8"/>
      </g>
     </g>
     <g id="text_13">
      <!-- 800 -->
      <g style="fill: #a9a9a9" transform="translate(81.9125 275.398572) scale(0.1 -0.1)">
       <defs>
        <path id="DejaVuSans-38" d="M 2034 2216 
Q 1584 2216 1326 1975 
Q 1069 1734 1069 1313 
Q 1069 891 1326 650 
Q 1584 409 2034 409 
Q 2484 409 2743 651 
Q 3003 894 3003 1313 
Q 3003 1734 2745 1975 
Q 2488 2216 2034 2216 
z
M 1403 2484 
Q 997 2584 770 2862 
Q 544 3141 544 3541 
Q 544 4100 942 4425 
Q 1341 4750 2034 4750 
Q 2731 4750 3128 4425 
Q 3525 4100 3525 3541 
Q 3525 3141 3298 2862 
Q 3072 2584 2669 2484 
Q 3125 2378 3379 2068 
Q 3634 1759 3634 1313 
Q 3634 634 3220 271 
Q 2806 -91 2034 -91 
Q 1263 -91 848 271 
Q 434 634 434 1313 
Q 434 1759 690 2068 
Q 947 2378 1403 2484 
z
M 1172 3481 
Q 1172 3119 1398 2916 
Q 1625 2713 2034 2713 
Q 2441 2713 2670 2916 
Q 2900 3119 2900 3481 
Q 2900 3844 2670 4047 
Q 2441 4250 2034 4250 
Q 1625 4250 1398 4047 
Q 1172 3844 1172 3481 
z
" transform="scale(0.015625)"/>
       </defs>
       <use xlink:href="#DejaVuSans-38"/>
       <use xlink:href="#DejaVuSans-30" x="63.623047"/>
       <use xlink:href="#DejaVuSans-30" x="127.246094"/>
      </g>
     </g>
    </g>
    <g id="ytick_3">
     <g id="line2d_27">
      <path d="M 108 235.353398 
L 777.6 235.353398 
" clip-path="url(#pdee95a4e5d)" style="fill: none; stroke-dasharray: 5.12,1.28,0.8,1.28; stroke-dashoffset: 0; stroke: #b0b0b0; stroke-width: 0.8"/>
     </g>
     <g id="line2d_28">
      <g>
       <use xlink:href="#m8d86e292b8" x="108" y="235.353398" style="fill: #a9a9a9; stroke: #a9a9a9; stroke-width: 0.8"/>
      </g>
     </g>
     <g id="text_14">
      <!-- 1600 -->
      <g style="fill: #a9a9a9" transform="translate(75.55 239.152617) scale(0.1 -0.1)">
       <defs>
        <path id="DejaVuSans-36" d="M 2113 2584 
Q 1688 2584 1439 2293 
Q 1191 2003 1191 1497 
Q 1191 994 1439 701 
Q 1688 409 2113 409 
Q 2538 409 2786 701 
Q 3034 994 3034 1497 
Q 3034 2003 2786 2293 
Q 2538 2584 2113 2584 
z
M 3366 4563 
L 3366 3988 
Q 3128 4100 2886 4159 
Q 2644 4219 2406 4219 
Q 1781 4219 1451 3797 
Q 1122 3375 1075 2522 
Q 1259 2794 1537 2939 
Q 1816 3084 2150 3084 
Q 2853 3084 3261 2657 
Q 3669 2231 3669 1497 
Q 3669 778 3244 343 
Q 2819 -91 2113 -91 
Q 1303 -91 875 529 
Q 447 1150 447 2328 
Q 447 3434 972 4092 
Q 1497 4750 2381 4750 
Q 2619 4750 2861 4703 
Q 3103 4656 3366 4563 
z
" transform="scale(0.015625)"/>
       </defs>
       <use xlink:href="#DejaVuSans-31"/>
       <use xlink:href="#DejaVuSans-36" x="63.623047"/>
       <use xlink:href="#DejaVuSans-30" x="127.246094"/>
       <use xlink:href="#DejaVuSans-30" x="190.869141"/>
      </g>
     </g>
    </g>
    <g id="ytick_4">
     <g id="line2d_29">
      <path d="M 108 199.107443 
L 777.6 199.107443 
" clip-path="url(#pdee95a4e5d)" style="fill: none; stroke-dasharray: 5.12,1.28,0.8,1.28; stroke-dashoffset: 0; stroke: #b0b0b0; stroke-width: 0.8"/>
     </g>
     <g id="line2d_30">
      <g>
       <use xlink:href="#m8d86e292b8" x="108" y="199.107443" style="fill: #a9a9a9; stroke: #a9a9a9; stroke-width: 0.8"/>
      </g>
     </g>
     <g id="text_15">
      <!-- 2400 -->
      <g style="fill: #a9a9a9" transform="translate(75.55 202.906662) scale(0.1 -0.1)">
       <use xlink:href="#DejaVuSans-32"/>
       <use xlink:href="#DejaVuSans-34" x="63.623047"/>
       <use xlink:href="#DejaVuSans-30" x="127.246094"/>
       <use xlink:href="#DejaVuSans-30" x="190.869141"/>
      </g>
     </g>
    </g>
    <g id="ytick_5">
     <g id="line2d_31">
      <path d="M 108 162.861489 
L 777.6 162.861489 
" clip-path="url(#pdee95a4e5d)" style="fill: none; stroke-dasharray: 5.12,1.28,0.8,1.28; stroke-dashoffset: 0; stroke: #b0b0b0; stroke-width: 0.8"/>
     </g>
     <g id="line2d_32">
      <g>
       <use xlink:href="#m8d86e292b8" x="108" y="162.861489" style="fill: #a9a9a9; stroke: #a9a9a9; stroke-width: 0.8"/>
      </g>
     </g>
     <g id="text_16">
      <!-- 3200 -->
      <g style="fill: #a9a9a9" transform="translate(75.55 166.660707) scale(0.1 -0.1)">
       <use xlink:href="#DejaVuSans-33"/>
       <use xlink:href="#DejaVuSans-32" x="63.623047"/>
       <use xlink:href="#DejaVuSans-30" x="127.246094"/>
       <use xlink:href="#DejaVuSans-30" x="190.869141"/>
      </g>
     </g>
    </g>
    <g id="ytick_6">
     <g id="line2d_33">
      <path d="M 108 126.615534 
L 777.6 126.615534 
" clip-path="url(#pdee95a4e5d)" style="fill: none; stroke-dasharray: 5.12,1.28,0.8,1.28; stroke-dashoffset: 0; stroke: #b0b0b0; stroke-width: 0.8"/>
     </g>
     <g id="line2d_34">
      <g>
       <use xlink:href="#m8d86e292b8" x="108" y="126.615534" style="fill: #a9a9a9; stroke: #a9a9a9; stroke-width: 0.8"/>
      </g>
     </g>
     <g id="text_17">
      <!-- 4000 -->
      <g style="fill: #a9a9a9" transform="translate(75.55 130.414753) scale(0.1 -0.1)">
       <use xlink:href="#DejaVuSans-34"/>
       <use xlink:href="#DejaVuSans-30" x="63.623047"/>
       <use xlink:href="#DejaVuSans-30" x="127.246094"/>
       <use xlink:href="#DejaVuSans-30" x="190.869141"/>
      </g>
     </g>
    </g>
    <g id="ytick_7">
     <g id="line2d_35">
      <path d="M 108 90.369579 
L 777.6 90.369579 
" clip-path="url(#pdee95a4e5d)" style="fill: none; stroke-dasharray: 5.12,1.28,0.8,1.28; stroke-dashoffset: 0; stroke: #b0b0b0; stroke-width: 0.8"/>
     </g>
     <g id="line2d_36">
      <g>
       <use xlink:href="#m8d86e292b8" x="108" y="90.369579" style="fill: #a9a9a9; stroke: #a9a9a9; stroke-width: 0.8"/>
      </g>
     </g>
     <g id="text_18">
      <!-- 4800 -->
      <g style="fill: #a9a9a9" transform="translate(75.55 94.168798) scale(0.1 -0.1)">
       <use xlink:href="#DejaVuSans-34"/>
       <use xlink:href="#DejaVuSans-38" x="63.623047"/>
       <use xlink:href="#DejaVuSans-30" x="127.246094"/>
       <use xlink:href="#DejaVuSans-30" x="190.869141"/>
      </g>
     </g>
    </g>
    <g id="ytick_8">
     <g id="line2d_37">
      <path d="M 108 54.123625 
L 777.6 54.123625 
" clip-path="url(#pdee95a4e5d)" style="fill: none; stroke-dasharray: 5.12,1.28,0.8,1.28; stroke-dashoffset: 0; stroke: #b0b0b0; stroke-width: 0.8"/>
     </g>
     <g id="line2d_38">
      <g>
       <use xlink:href="#m8d86e292b8" x="108" y="54.123625" style="fill: #a9a9a9; stroke: #a9a9a9; stroke-width: 0.8"/>
      </g>
     </g>
     <g id="text_19">
      <!-- 5600 -->
      <g style="fill: #a9a9a9" transform="translate(75.55 57.922843) scale(0.1 -0.1)">
       <defs>
        <path id="DejaVuSans-35" d="M 691 4666 
L 3169 4666 
L 3169 4134 
L 1269 4134 
L 1269 2991 
Q 1406 3038 1543 3061 
Q 1681 3084 1819 3084 
Q 2600 3084 3056 2656 
Q 3513 2228 3513 1497 
Q 3513 744 3044 326 
Q 2575 -91 1722 -91 
Q 1428 -91 1123 -41 
Q 819 9 494 109 
L 494 744 
Q 775 591 1075 516 
Q 1375 441 1709 441 
Q 2250 441 2565 725 
Q 2881 1009 2881 1497 
Q 2881 1984 2565 2268 
Q 2250 2553 1709 2553 
Q 1456 2553 1204 2497 
Q 953 2441 691 2322 
L 691 4666 
z
" transform="scale(0.015625)"/>
       </defs>
       <use xlink:href="#DejaVuSans-35"/>
       <use xlink:href="#DejaVuSans-36" x="63.623047"/>
       <use xlink:href="#DejaVuSans-30" x="127.246094"/>
       <use xlink:href="#DejaVuSans-30" x="190.869141"/>
      </g>
     </g>
    </g>
   </g>
   <g id="line2d_39">
    <path d="M 138.436364 307.709385 
L 142.389138 307.392233 
L 143.047934 307.120388 
L 145.024321 306.893851 
L 149.635891 306.03301 
L 152.92987 305.715858 
L 153.588666 305.398706 
L 154.247462 305.217476 
L 154.906257 304.401942 
L 155.565053 303.948867 
L 156.223849 302.544337 
L 156.882645 302.453722 
L 157.54144 301.95534 
L 158.859032 301.321036 
L 161.494215 299.327508 
L 162.811806 298.783819 
L 163.470602 298.330744 
L 166.105785 297.198058 
L 166.764581 296.155987 
L 168.082172 295.204531 
L 168.740968 294.887379 
L 175.328926 293.98123 
L 175.987721 293.664078 
L 180.599292 293.301618 
L 182.575679 292.803236 
L 188.504841 292.03301 
L 189.163636 291.67055 
L 189.822432 291.579935 
L 190.481228 291.308091 
L 191.798819 291.081553 
L 192.457615 291.036246 
L 193.116411 290.809709 
L 195.751594 290.401942 
L 197.069185 290.039482 
L 199.045573 289.858252 
L 200.363164 289.72233 
L 201.02196 289.5411 
L 201.680756 289.495793 
L 203.657143 288.906796 
L 207.609917 288.317799 
L 208.268713 288.13657 
L 208.927509 287.230421 
L 210.903896 286.505502 
L 212.880283 285.961812 
L 213.539079 285.64466 
L 214.197875 285.599353 
L 217.491854 284.693204 
L 218.809445 284.602589 
L 219.468241 284.511974 
L 221.444628 283.922977 
L 224.079811 283.288673 
L 224.738607 283.016828 
L 225.397403 282.926214 
L 226.056198 282.609061 
L 232.644156 281.612298 
L 235.938135 280.706149 
L 236.59693 280.298382 
L 239.232113 279.61877 
L 240.549705 278.848544 
L 241.208501 278.395469 
L 243.184888 278.03301 
L 247.137662 276.855016 
L 248.455254 276.447249 
L 249.11405 276.356634 
L 250.431641 275.994175 
L 251.749233 275.677023 
L 252.408028 275.586408 
L 253.72562 275.042718 
L 254.384416 274.906796 
L 255.043211 274.634951 
L 255.702007 274.544337 
L 256.360803 274.227184 
L 257.019599 274.045955 
L 258.33719 273.95534 
L 259.654782 273.502265 
L 260.972373 273.41165 
L 261.631169 273.094498 
L 264.266352 272.641424 
L 266.901535 272.414887 
L 267.560331 272.278964 
L 268.877922 271.64466 
L 276.124675 268.609061 
L 276.783471 268.246602 
L 277.442267 267.521683 
L 278.101063 266.434304 
L 278.759858 265.573463 
L 279.418654 265.392233 
L 280.07745 265.392233 
L 281.395041 264.440777 
L 282.053837 264.259547 
L 282.712633 263.897087 
L 283.371429 263.761165 
L 284.030224 263.172168 
L 284.68902 262.990939 
L 286.665407 262.039482 
L 287.324203 261.223948 
L 287.982999 260.227184 
L 288.641795 259.819417 
L 289.30059 258.732039 
L 289.959386 258.052427 
L 290.618182 257.735275 
L 291.276978 257.554045 
L 293.912161 256.013592 
L 295.229752 254.971521 
L 295.888548 254.563754 
L 296.547344 253.612298 
L 297.206139 252.117152 
L 297.864935 251.165696 
L 298.523731 250.667314 
L 299.182527 250.395469 
L 301.81771 248.130097 
L 302.476505 247.677023 
L 303.794097 246.544337 
L 304.452893 245.638188 
L 305.770484 244.505502 
L 308.405667 242.829126 
L 309.064463 242.240129 
L 309.723259 242.104207 
L 311.699646 241.062136 
L 313.676033 240.065372 
L 314.993625 238.842071 
L 315.65242 238.071845 
L 316.970012 237.165696 
L 317.628808 236.984466 
L 318.287603 236.667314 
L 319.605195 235.806472 
L 320.263991 235.444013 
L 320.922786 235.353398 
L 322.240378 234.628479 
L 322.899174 234.266019 
L 323.557969 233.586408 
L 324.216765 233.178641 
L 324.875561 232.952104 
L 325.534357 232.499029 
L 328.16954 231.139806 
L 328.828335 230.550809 
L 331.463518 229.689968 
L 332.122314 229.236893 
L 332.78111 229.100971 
L 334.098701 228.647896 
L 336.075089 227.87767 
L 338.051476 227.152751 
L 339.369067 226.926214 
L 340.686659 225.793528 
L 342.00425 225.159223 
L 343.980638 224.026537 
L 345.298229 223.664078 
L 345.957025 223.256311 
L 346.615821 223.075081 
L 347.933412 222.214239 
L 348.592208 221.85178 
L 351.886187 221.081553 
L 353.862574 219.948867 
L 354.52137 219.858252 
L 355.180165 219.631715 
L 356.497757 219.359871 
L 358.474144 217.910032 
L 360.450531 217.456958 
L 361.109327 217.230421 
L 361.768123 216.732039 
L 365.720897 215.46343 
L 366.379693 215.418123 
L 370.991263 213.787055 
L 371.650059 213.469903 
L 373.626446 213.016828 
L 374.944038 212.699676 
L 375.602834 212.382524 
L 376.261629 212.246602 
L 378.238017 211.340453 
L 380.214404 210.388997 
L 380.8732 209.935922 
L 381.531995 209.754693 
L 383.508383 208.712621 
L 384.825974 208.395469 
L 386.143566 207.715858 
L 387.461157 207.353398 
L 388.119953 207.262783 
L 388.778749 206.809709 
L 389.437544 206.492557 
L 390.09634 206.356634 
L 391.413932 205.812945 
L 392.072727 205.677023 
L 392.731523 205.314563 
L 395.366706 204.906796 
L 396.684298 204.272492 
L 397.343093 203.728803 
L 398.001889 202.596117 
L 399.319481 202.324272 
L 399.978276 202.18835 
L 402.613459 200.829126 
L 403.272255 200.693204 
L 408.542621 198.201294 
L 410.519008 197.793528 
L 411.177804 197.431068 
L 415.130579 196.071845 
L 416.44817 195.256311 
L 417.106966 194.803236 
L 417.765762 194.486084 
L 418.424557 194.395469 
L 419.083353 194.168932 
L 419.742149 194.123625 
L 423.036128 193.262783 
L 423.694923 192.764401 
L 425.012515 192.311327 
L 426.988902 191.677023 
L 427.647698 191.269256 
L 428.306494 191.088026 
L 428.965289 190.634951 
L 429.624085 190.363107 
L 430.282881 189.95534 
L 430.941677 189.683495 
L 432.259268 189.366343 
L 434.235655 188.596117 
L 436.212043 187.100971 
L 436.870838 186.965049 
L 438.18843 185.968285 
L 438.847226 185.832362 
L 439.506021 184.835599 
L 440.164817 184.563754 
L 440.823613 184.065372 
L 441.482409 183.974757 
L 442.141204 183.521683 
L 442.8 183.204531 
L 443.458796 183.068608 
L 444.117591 182.796764 
L 444.776387 182.298382 
L 445.435183 182.071845 
L 447.41157 180.757929 
L 450.046753 179.444013 
L 450.705549 179.353398 
L 452.02314 178.764401 
L 452.681936 178.401942 
L 453.340732 177.314563 
L 453.999528 176.725566 
L 454.658323 176.363107 
L 455.317119 176.227184 
L 456.634711 175.41165 
L 457.293506 175.275728 
L 458.611098 174.641424 
L 460.587485 173.82589 
L 461.905077 172.919741 
L 463.222668 171.560518 
L 464.54026 170.744984 
L 465.199055 170.337217 
L 465.857851 169.657605 
L 466.516647 169.204531 
L 467.834238 168.117152 
L 468.493034 167.845307 
L 469.15183 167.120388 
L 469.810626 166.622006 
L 471.128217 166.168932 
L 471.787013 165.625243 
L 473.104604 164.945631 
L 473.7634 164.764401 
L 474.422196 164.311327 
L 475.080992 164.175405 
L 477.057379 163.133333 
L 477.716175 162.680259 
L 479.033766 162.13657 
L 479.692562 162.000647 
L 480.351358 161.59288 
L 483.645336 160.550809 
L 484.304132 160.369579 
L 484.962928 160.052427 
L 485.621724 159.46343 
L 487.598111 158.738511 
L 488.915702 158.330744 
L 489.574498 157.832362 
L 492.209681 156.473139 
L 492.868477 156.11068 
L 494.186068 153.528155 
L 495.50366 151.987702 
L 496.162456 151.534628 
L 498.138843 150.673786 
L 498.797639 150.447249 
L 499.456434 150.356634 
L 500.11523 149.994175 
L 502.091617 149.405178 
L 504.7268 148.227184 
L 505.385596 147.819417 
L 506.703188 147.366343 
L 510.655962 145.100971 
L 511.314758 144.421359 
L 512.632349 143.69644 
L 513.291145 143.333981 
L 513.949941 143.107443 
L 514.608737 142.654369 
L 515.926328 142.020065 
L 517.902715 140.977994 
L 518.561511 140.796764 
L 519.220307 140.298382 
L 519.879103 140.026537 
L 520.537898 139.890615 
L 521.85549 139.43754 
L 523.831877 138.712621 
L 524.490673 138.214239 
L 525.808264 137.85178 
L 527.125856 137.353398 
L 527.784652 136.809709 
L 529.102243 136.401942 
L 529.761039 136.08479 
L 530.419835 135.90356 
L 531.737426 134.997411 
L 533.055018 134.408414 
L 534.372609 133.41165 
L 535.690201 132.958576 
L 536.348996 132.414887 
L 537.007792 132.324272 
L 538.325384 131.372816 
L 539.642975 130.738511 
L 540.301771 130.466667 
L 540.960567 129.787055 
L 544.913341 128.337217 
L 546.889728 127.476375 
L 548.866116 126.887379 
L 550.183707 126.706149 
L 550.842503 126.434304 
L 551.501299 126.343689 
L 552.81889 125.8 
L 553.477686 125.754693 
L 556.112869 124.803236 
L 558.089256 123.444013 
L 562.042031 121.495793 
L 563.359622 120.680259 
L 564.018418 120.272492 
L 565.336009 119.95534 
L 566.653601 119.049191 
L 569.288784 118.233657 
L 569.94758 117.961812 
L 571.265171 117.64466 
L 574.55915 116.557282 
L 576.535537 116.194822 
L 577.194333 116.013592 
L 577.853129 115.69644 
L 578.511924 115.605825 
L 579.829516 115.062136 
L 580.488312 114.971521 
L 581.147107 114.654369 
L 582.464699 114.382524 
L 583.123495 114.065372 
L 585.099882 113.612298 
L 586.417473 113.340453 
L 590.370248 112.615534 
L 591.687839 112.343689 
L 592.346635 112.207767 
L 593.005431 111.935922 
L 593.664227 111.890615 
L 595.640614 111.346926 
L 596.29941 110.984466 
L 599.593388 110.168932 
L 600.252184 110.03301 
L 601.569776 109.579935 
L 603.546163 108.900324 
L 604.204959 108.809709 
L 606.181346 108.130097 
L 606.840142 108.130097 
L 608.157733 107.677023 
L 608.816529 107.042718 
L 609.475325 106.725566 
L 610.792916 106.317799 
L 613.428099 105.321036 
L 614.086895 105.185113 
L 614.745691 104.777346 
L 615.404486 104.641424 
L 616.063282 104.233657 
L 619.357261 103.282201 
L 620.016057 102.874434 
L 620.674852 102.693204 
L 621.333648 102.149515 
L 623.310035 101.787055 
L 624.627627 101.062136 
L 625.286423 100.337217 
L 626.604014 100.065372 
L 631.215584 99.023301 
L 631.87438 98.842071 
L 633.191972 98.796764 
L 633.850767 98.479612 
L 636.48595 98.026537 
L 637.144746 97.709385 
L 639.121133 97.43754 
L 641.756316 96.622006 
L 643.732704 96.168932 
L 645.709091 95.67055 
L 648.344274 94.855016 
L 649.00307 94.719094 
L 649.661865 94.401942 
L 650.320661 94.311327 
L 650.979457 94.08479 
L 651.638253 93.677023 
L 653.61464 92.952104 
L 654.273436 92.453722 
L 655.591027 92.091262 
L 656.249823 91.819417 
L 657.567414 91.456958 
L 660.202597 90.278964 
L 662.178985 90.143042 
L 664.814168 89.327508 
L 665.472963 88.919741 
L 666.790555 88.511974 
L 668.766942 87.51521 
L 669.425738 87.379288 
L 670.084534 87.062136 
L 670.743329 86.971521 
L 677.990083 84.570227 
L 680.625266 83.935922 
L 681.284061 83.754693 
L 682.601653 83.120388 
L 683.260449 83.029773 
L 684.57804 82.667314 
L 685.236836 82.168932 
L 685.895632 81.85178 
L 686.554427 81.081553 
L 687.213223 80.583172 
L 688.530815 80.175405 
L 689.18961 79.631715 
L 696.436364 76.686731 
L 697.753955 76.369579 
L 699.071547 75.780583 
L 701.047934 74.602589 
L 701.70673 74.466667 
L 702.365525 73.968285 
L 703.683117 73.333981 
L 705.000708 72.518447 
L 706.977096 71.612298 
L 707.635891 71.159223 
L 708.953483 70.660841 
L 709.612279 70.207767 
L 710.92987 69.573463 
L 711.588666 69.120388 
L 712.906257 68.667314 
L 713.565053 68.531392 
L 716.200236 67.353398 
L 719.494215 66.220712 
L 720.153011 66.175405 
L 720.811806 65.994175 
L 721.470602 65.586408 
L 722.129398 65.495793 
L 722.788194 65.223948 
L 724.764581 64.816181 
L 728.05856 63.139806 
L 729.376151 62.414887 
L 730.034947 62.324272 
L 732.011334 61.236893 
L 733.987721 60.511974 
L 735.964109 59.651133 
L 738.599292 58.609061 
L 739.258087 58.427832 
L 739.916883 58.020065 
L 740.575679 57.974757 
L 741.234475 57.793528 
L 741.89327 57.340453 
L 742.552066 57.295146 
L 743.869658 56.887379 
L 745.187249 56.253074 
L 745.846045 56.16246 
L 746.504841 55.890615 
L 747.163636 55.8 
L 747.163636 55.8 
" clip-path="url(#pdee95a4e5d)" style="fill: none; stroke: #1f77b4; stroke-width: 1.5; stroke-linecap: square"/>
   </g>
   <g id="line2d_40">
    <path d="M 139.095159 307.8 
L 141.071547 307.709385 
L 143.047934 307.664078 
L 147.000708 307.573463 
L 150.294687 307.43754 
L 152.92987 307.43754 
L 153.588666 307.256311 
L 156.223849 307.165696 
L 158.200236 306.939159 
L 160.176623 306.757929 
L 164.129398 306.576699 
L 164.788194 306.576699 
L 165.446989 306.440777 
L 168.082172 306.350162 
L 169.399764 306.259547 
L 174.67013 306.168932 
L 177.964109 306.03301 
L 185.869658 305.942395 
L 189.163636 305.806472 
L 193.116411 305.715858 
L 195.751594 305.625243 
L 201.680756 305.534628 
L 203.657143 305.48932 
L 205.63353 305.444013 
L 207.609917 305.217476 
L 211.562692 305.172168 
L 212.880283 305.081553 
L 217.491854 304.990939 
L 224.738607 304.583172 
L 229.350177 304.492557 
L 230.667769 304.401942 
L 232.644156 304.311327 
L 236.59693 304.130097 
L 239.232113 304.08479 
L 241.208501 303.90356 
L 251.749233 303.269256 
L 254.384416 303.178641 
L 258.995986 302.952104 
L 260.972373 302.861489 
L 267.560331 302.499029 
L 274.807084 302.408414 
L 277.442267 302.13657 
L 278.759858 302.045955 
L 287.324203 301.366343 
L 291.276978 300.867961 
L 293.912161 300.777346 
L 299.182527 300.097735 
L 302.476505 300.00712 
L 311.04085 299.327508 
L 314.993625 298.874434 
L 316.970012 298.829126 
L 318.287603 298.738511 
L 320.922786 298.647896 
L 322.240378 298.557282 
L 325.534357 298.240129 
L 326.193152 298.0589 
L 330.145927 297.87767 
L 333.439906 297.787055 
L 342.00425 297.288673 
L 343.980638 297.198058 
L 352.544982 296.699676 
L 357.156553 296.609061 
L 357.815348 296.473139 
L 363.085714 296.382524 
L 367.697285 296.155987 
L 374.944038 296.065372 
L 379.555608 295.838835 
L 384.825974 295.74822 
L 390.09634 295.476375 
L 394.70791 295.385761 
L 407.22503 294.615534 
L 412.495396 294.524919 
L 429.624085 293.43754 
L 433.57686 293.346926 
L 435.553247 293.301618 
L 437.529634 293.256311 
L 439.506021 293.075081 
L 444.776387 292.984466 
L 446.093979 292.757929 
L 447.41157 292.667314 
L 450.705549 292.531392 
L 452.02314 292.440777 
L 453.340732 292.350162 
L 459.269894 292.259547 
L 460.587485 292.123625 
L 463.222668 292.078317 
L 463.881464 291.942395 
L 465.199055 291.85178 
L 465.857851 291.715858 
L 467.834238 291.625243 
L 479.033766 290.945631 
L 481.010153 290.855016 
L 484.304132 290.719094 
L 493.527273 290.628479 
L 498.138843 290.401942 
L 503.409209 290.311327 
L 506.044392 290.220712 
L 508.679575 290.175405 
L 509.997166 290.039482 
L 512.632349 289.948867 
L 519.220307 289.586408 
L 523.173081 289.5411 
L 525.149469 289.359871 
L 527.125856 289.314563 
L 531.737426 289.223948 
L 534.372609 289.133333 
L 540.301771 289.042718 
L 542.936954 288.952104 
L 546.889728 288.861489 
L 553.477686 288.499029 
L 555.454073 288.499029 
L 556.112869 288.363107 
L 557.43046 288.272492 
L 560.065643 288.181877 
L 567.971192 288.091262 
L 571.265171 287.95534 
L 582.464699 287.910032 
L 583.78229 287.819417 
L 585.758678 287.77411 
L 594.323022 287.683495 
L 595.640614 287.59288 
L 602.887367 287.502265 
L 605.52255 287.41165 
L 613.428099 287.366343 
L 614.745691 287.275728 
L 624.627627 287.230421 
L 626.604014 287.049191 
L 637.803542 286.958576 
L 639.779929 286.913269 
L 656.908619 286.822654 
L 659.543802 286.732039 
L 671.402125 286.641424 
L 674.037308 286.550809 
L 678.648878 286.460194 
L 683.919244 286.18835 
L 686.554427 286.097735 
L 689.18961 286.00712 
L 693.142385 285.916505 
L 695.118772 285.871197 
L 697.753955 285.780583 
L 699.730342 285.735275 
L 703.024321 285.64466 
L 704.341913 285.508738 
L 708.294687 285.418123 
L 715.54144 285.010356 
L 718.835419 284.919741 
L 721.470602 284.829126 
L 726.082172 284.738511 
L 728.717355 284.647896 
L 733.987721 284.557282 
L 735.964109 284.511974 
L 739.258087 284.421359 
L 743.210862 284.240129 
L 747.163636 284.194822 
L 747.163636 284.194822 
" clip-path="url(#pdee95a4e5d)" style="fill: none; stroke: #ff7f0e; stroke-width: 1.5; stroke-linecap: square"/>
   </g>
   <g id="patch_3">
    <path d="M 108 320.4 
L 108 43.2 
" style="fill: none; stroke: #a9a9a9; stroke-width: 0.8; stroke-linejoin: miter; stroke-linecap: square"/>
   </g>
   <g id="patch_4">
    <path d="M 777.6 320.4 
L 777.6 43.2 
" style="fill: none"/>
   </g>
   <g id="patch_5">
    <path d="M 108 320.4 
L 777.6 320.4 
" style="fill: none; stroke: #a9a9a9; stroke-width: 0.8; stroke-linejoin: miter; stroke-linecap: square"/>
   </g>
   <g id="patch_6">
    <path d="M 108 43.2 
L 777.6 43.2 
" style="fill: none"/>
   </g>
   <g id="text_20">
    <!-- get_subscribe history -->
    <g style="fill: #a9a9a9" transform="translate(378.6075 37.2) scale(0.12 -0.12)">
     <defs>
      <path id="DejaVuSans-67" d="M 2906 1791 
Q 2906 2416 2648 2759 
Q 2391 3103 1925 3103 
Q 1463 3103 1205 2759 
Q 947 2416 947 1791 
Q 947 1169 1205 825 
Q 1463 481 1925 481 
Q 2391 481 2648 825 
Q 2906 1169 2906 1791 
z
M 3481 434 
Q 3481 -459 3084 -895 
Q 2688 -1331 1869 -1331 
Q 1566 -1331 1297 -1286 
Q 1028 -1241 775 -1147 
L 775 -588 
Q 1028 -725 1275 -790 
Q 1522 -856 1778 -856 
Q 2344 -856 2625 -561 
Q 2906 -266 2906 331 
L 2906 616 
Q 2728 306 2450 153 
Q 2172 0 1784 0 
Q 1141 0 747 490 
Q 353 981 353 1791 
Q 353 2603 747 3093 
Q 1141 3584 1784 3584 
Q 2172 3584 2450 3431 
Q 2728 3278 2906 2969 
L 2906 3500 
L 3481 3500 
L 3481 434 
z
" transform="scale(0.015625)"/>
      <path id="DejaVuSans-65" d="M 3597 1894 
L 3597 1613 
L 953 1613 
Q 991 1019 1311 708 
Q 1631 397 2203 397 
Q 2534 397 2845 478 
Q 3156 559 3463 722 
L 3463 178 
Q 3153 47 2828 -22 
Q 2503 -91 2169 -91 
Q 1331 -91 842 396 
Q 353 884 353 1716 
Q 353 2575 817 3079 
Q 1281 3584 2069 3584 
Q 2775 3584 3186 3129 
Q 3597 2675 3597 1894 
z
M 3022 2063 
Q 3016 2534 2758 2815 
Q 2500 3097 2075 3097 
Q 1594 3097 1305 2825 
Q 1016 2553 972 2059 
L 3022 2063 
z
" transform="scale(0.015625)"/>
      <path id="DejaVuSans-74" d="M 1172 4494 
L 1172 3500 
L 2356 3500 
L 2356 3053 
L 1172 3053 
L 1172 1153 
Q 1172 725 1289 603 
Q 1406 481 1766 481 
L 2356 481 
L 2356 0 
L 1766 0 
Q 1100 0 847 248 
Q 594 497 594 1153 
L 594 3053 
L 172 3053 
L 172 3500 
L 594 3500 
L 594 4494 
L 1172 4494 
z
" transform="scale(0.015625)"/>
      <path id="DejaVuSans-5f" d="M 3263 -1063 
L 3263 -1509 
L -63 -1509 
L -63 -1063 
L 3263 -1063 
z
" transform="scale(0.015625)"/>
      <path id="DejaVuSans-73" d="M 2834 3397 
L 2834 2853 
Q 2591 2978 2328 3040 
Q 2066 3103 1784 3103 
Q 1356 3103 1142 2972 
Q 928 2841 928 2578 
Q 928 2378 1081 2264 
Q 1234 2150 1697 2047 
L 1894 2003 
Q 2506 1872 2764 1633 
Q 3022 1394 3022 966 
Q 3022 478 2636 193 
Q 2250 -91 1575 -91 
Q 1294 -91 989 -36 
Q 684 19 347 128 
L 347 722 
Q 666 556 975 473 
Q 1284 391 1588 391 
Q 1994 391 2212 530 
Q 2431 669 2431 922 
Q 2431 1156 2273 1281 
Q 2116 1406 1581 1522 
L 1381 1569 
Q 847 1681 609 1914 
Q 372 2147 372 2553 
Q 372 3047 722 3315 
Q 1072 3584 1716 3584 
Q 2034 3584 2315 3537 
Q 2597 3491 2834 3397 
z
" transform="scale(0.015625)"/>
      <path id="DejaVuSans-75" d="M 544 1381 
L 544 3500 
L 1119 3500 
L 1119 1403 
Q 1119 906 1312 657 
Q 1506 409 1894 409 
Q 2359 409 2629 706 
Q 2900 1003 2900 1516 
L 2900 3500 
L 3475 3500 
L 3475 0 
L 2900 0 
L 2900 538 
Q 2691 219 2414 64 
Q 2138 -91 1772 -91 
Q 1169 -91 856 284 
Q 544 659 544 1381 
z
M 1991 3584 
L 1991 3584 
z
" transform="scale(0.015625)"/>
      <path id="DejaVuSans-62" d="M 3116 1747 
Q 3116 2381 2855 2742 
Q 2594 3103 2138 3103 
Q 1681 3103 1420 2742 
Q 1159 2381 1159 1747 
Q 1159 1113 1420 752 
Q 1681 391 2138 391 
Q 2594 391 2855 752 
Q 3116 1113 3116 1747 
z
M 1159 2969 
Q 1341 3281 1617 3432 
Q 1894 3584 2278 3584 
Q 2916 3584 3314 3078 
Q 3713 2572 3713 1747 
Q 3713 922 3314 415 
Q 2916 -91 2278 -91 
Q 1894 -91 1617 61 
Q 1341 213 1159 525 
L 1159 0 
L 581 0 
L 581 4863 
L 1159 4863 
L 1159 2969 
z
" transform="scale(0.015625)"/>
      <path id="DejaVuSans-63" d="M 3122 3366 
L 3122 2828 
Q 2878 2963 2633 3030 
Q 2388 3097 2138 3097 
Q 1578 3097 1268 2742 
Q 959 2388 959 1747 
Q 959 1106 1268 751 
Q 1578 397 2138 397 
Q 2388 397 2633 464 
Q 2878 531 3122 666 
L 3122 134 
Q 2881 22 2623 -34 
Q 2366 -91 2075 -91 
Q 1284 -91 818 406 
Q 353 903 353 1747 
Q 353 2603 823 3093 
Q 1294 3584 2113 3584 
Q 2378 3584 2631 3529 
Q 2884 3475 3122 3366 
z
" transform="scale(0.015625)"/>
      <path id="DejaVuSans-72" d="M 2631 2963 
Q 2534 3019 2420 3045 
Q 2306 3072 2169 3072 
Q 1681 3072 1420 2755 
Q 1159 2438 1159 1844 
L 1159 0 
L 581 0 
L 581 3500 
L 1159 3500 
L 1159 2956 
Q 1341 3275 1631 3429 
Q 1922 3584 2338 3584 
Q 2397 3584 2469 3576 
Q 2541 3569 2628 3553 
L 2631 2963 
z
" transform="scale(0.015625)"/>
      <path id="DejaVuSans-69" d="M 603 3500 
L 1178 3500 
L 1178 0 
L 603 0 
L 603 3500 
z
M 603 4863 
L 1178 4863 
L 1178 4134 
L 603 4134 
L 603 4863 
z
" transform="scale(0.015625)"/>
      <path id="DejaVuSans-20" transform="scale(0.015625)"/>
      <path id="DejaVuSans-68" d="M 3513 2113 
L 3513 0 
L 2938 0 
L 2938 2094 
Q 2938 2591 2744 2837 
Q 2550 3084 2163 3084 
Q 1697 3084 1428 2787 
Q 1159 2491 1159 1978 
L 1159 0 
L 581 0 
L 581 4863 
L 1159 4863 
L 1159 2956 
Q 1366 3272 1645 3428 
Q 1925 3584 2291 3584 
Q 2894 3584 3203 3211 
Q 3513 2838 3513 2113 
z
" transform="scale(0.015625)"/>
      <path id="DejaVuSans-6f" d="M 1959 3097 
Q 1497 3097 1228 2736 
Q 959 2375 959 1747 
Q 959 1119 1226 758 
Q 1494 397 1959 397 
Q 2419 397 2687 759 
Q 2956 1122 2956 1747 
Q 2956 2369 2687 2733 
Q 2419 3097 1959 3097 
z
M 1959 3584 
Q 2709 3584 3137 3096 
Q 3566 2609 3566 1747 
Q 3566 888 3137 398 
Q 2709 -91 1959 -91 
Q 1206 -91 779 398 
Q 353 888 353 1747 
Q 353 2609 779 3096 
Q 1206 3584 1959 3584 
z
" transform="scale(0.015625)"/>
      <path id="DejaVuSans-79" d="M 2059 -325 
Q 1816 -950 1584 -1140 
Q 1353 -1331 966 -1331 
L 506 -1331 
L 506 -850 
L 844 -850 
Q 1081 -850 1212 -737 
Q 1344 -625 1503 -206 
L 1606 56 
L 191 3500 
L 800 3500 
L 1894 763 
L 2988 3500 
L 3597 3500 
L 2059 -325 
z
" transform="scale(0.015625)"/>
     </defs>
     <use xlink:href="#DejaVuSans-67"/>
     <use xlink:href="#DejaVuSans-65" x="63.476562"/>
     <use xlink:href="#DejaVuSans-74" x="125"/>
     <use xlink:href="#DejaVuSans-5f" x="164.208984"/>
     <use xlink:href="#DejaVuSans-73" x="214.208984"/>
     <use xlink:href="#DejaVuSans-75" x="266.308594"/>
     <use xlink:href="#DejaVuSans-62" x="329.6875"/>
     <use xlink:href="#DejaVuSans-73" x="393.164062"/>
     <use xlink:href="#DejaVuSans-63" x="445.263672"/>
     <use xlink:href="#DejaVuSans-72" x="500.244141"/>
     <use xlink:href="#DejaVuSans-69" x="541.357422"/>
     <use xlink:href="#DejaVuSans-62" x="569.140625"/>
     <use xlink:href="#DejaVuSans-65" x="632.617188"/>
     <use xlink:href="#DejaVuSans-20" x="694.140625"/>
     <use xlink:href="#DejaVuSans-68" x="725.927734"/>
     <use xlink:href="#DejaVuSans-69" x="789.306641"/>
     <use xlink:href="#DejaVuSans-73" x="817.089844"/>
     <use xlink:href="#DejaVuSans-74" x="869.189453"/>
     <use xlink:href="#DejaVuSans-6f" x="908.398438"/>
     <use xlink:href="#DejaVuSans-72" x="969.580078"/>
     <use xlink:href="#DejaVuSans-79" x="1010.693359"/>
    </g>
   </g>
   <g id="legend_1">
    <g id="line2d_41">
     <path d="M 815.08 328.498438 
L 825.08 328.498438 
L 835.08 328.498438 
" style="fill: none; stroke: #1f77b4; stroke-width: 1.5; stroke-linecap: square"/>
    </g>
    <g id="text_21">
     <!-- star -->
     <g style="fill: #a9a9a9" transform="translate(843.08 331.998438) scale(0.1 -0.1)">
      <defs>
       <path id="DejaVuSans-61" d="M 2194 1759 
Q 1497 1759 1228 1600 
Q 959 1441 959 1056 
Q 959 750 1161 570 
Q 1363 391 1709 391 
Q 2188 391 2477 730 
Q 2766 1069 2766 1631 
L 2766 1759 
L 2194 1759 
z
M 3341 1997 
L 3341 0 
L 2766 0 
L 2766 531 
Q 2569 213 2275 61 
Q 1981 -91 1556 -91 
Q 1019 -91 701 211 
Q 384 513 384 1019 
Q 384 1609 779 1909 
Q 1175 2209 1959 2209 
L 2766 2209 
L 2766 2266 
Q 2766 2663 2505 2880 
Q 2244 3097 1772 3097 
Q 1472 3097 1187 3025 
Q 903 2953 641 2809 
L 641 3341 
Q 956 3463 1253 3523 
Q 1550 3584 1831 3584 
Q 2591 3584 2966 3190 
Q 3341 2797 3341 1997 
z
" transform="scale(0.015625)"/>
      </defs>
      <use xlink:href="#DejaVuSans-73"/>
      <use xlink:href="#DejaVuSans-74" x="52.099609"/>
      <use xlink:href="#DejaVuSans-61" x="91.308594"/>
      <use xlink:href="#DejaVuSans-72" x="152.587891"/>
     </g>
    </g>
    <g id="line2d_42">
     <path d="M 815.08 343.176562 
L 825.08 343.176562 
L 835.08 343.176562 
" style="fill: none; stroke: #ff7f0e; stroke-width: 1.5; stroke-linecap: square"/>
    </g>
    <g id="text_22">
     <!-- fork -->
     <g style="fill: #a9a9a9" transform="translate(843.08 346.676562) scale(0.1 -0.1)">
      <defs>
       <path id="DejaVuSans-66" d="M 2375 4863 
L 2375 4384 
L 1825 4384 
Q 1516 4384 1395 4259 
Q 1275 4134 1275 3809 
L 1275 3500 
L 2222 3500 
L 2222 3053 
L 1275 3053 
L 1275 0 
L 697 0 
L 697 3053 
L 147 3053 
L 147 3500 
L 697 3500 
L 697 3744 
Q 697 4328 969 4595 
Q 1241 4863 1831 4863 
L 2375 4863 
z
" transform="scale(0.015625)"/>
       <path id="DejaVuSans-6b" d="M 581 4863 
L 1159 4863 
L 1159 1991 
L 2875 3500 
L 3609 3500 
L 1753 1863 
L 3688 0 
L 2938 0 
L 1159 1709 
L 1159 0 
L 581 0 
L 581 4863 
z
" transform="scale(0.015625)"/>
      </defs>
      <use xlink:href="#DejaVuSans-66"/>
      <use xlink:href="#DejaVuSans-6f" x="35.205078"/>
      <use xlink:href="#DejaVuSans-72" x="96.386719"/>
      <use xlink:href="#DejaVuSans-6b" x="137.5"/>
     </g>
    </g>
   </g>
  </g>
 </g>
 <defs>
  <clipPath id="pdee95a4e5d">
   <rect x="108" y="43.2" width="669.6" height="277.2"/>
  </clipPath>
 </defs>
</svg>
